<svg xmlns="http://www.w3.org/2000/svg" viewBox="0 0 555.33 227.32"><title>Artboard 23</title><path d="M9.37,208.81a3.28,3.28,0,0,1-.83-2.43c-.23-3.75-.48-7.5-.67-11.25-.39-7.66-.72-15.33-1.13-23C6.2,162,5.59,151.87,5,141.73c-.38-6.78-.73-13.57-1.13-20.35-.41-7-.86-14-1.3-21.06-.39-6.39-.67-12.78-1.21-19.15C.52,71.05.25,60.9,0,50.75a6.52,6.52,0,0,1,1-3.31c2-3.84,5.57-4.5,9.28-4.81,4.86-.4,9.73-.7,14.6-.94,8.7-.44,17.41-.74,26.08-1.58,9.39-.9,18.77-1.86,28.16-2.69,6.84-.6,13.7-1.08,20.56-1.51,10.37-.66,20.74-1.39,31.12-1.79,7.12-.28,14.17-1.08,21.21-2,1.58-.21,3.1-.77,4.73-.65,1.08.08,1.47-.74,1.85-1.58,3.6-7.94,8.05-15.42,12.28-23a50.65,50.65,0,0,1,3.93-5.74c1.21-1.61,2.08-1.42,2.83.43,1.29,3.19,1.14,6.59,1.38,9.91.31,4.31,0,8.64.41,13,0,.55,0,1.14.52,1.5A4.28,4.28,0,0,0,179,29c0,7.27.46,14.51.9,21.76q.51,8.25,1,16.48c.39,6.37.93,12.72,1.42,19.08q.9,11.32,1.45,22.68c.24,4.94.66,9.87.95,14.8.41,7,.93,14,1.48,21,.43,5.48.57,11,1.15,16.46.29,2.78.43,5.57.66,8.34.25,3.09.91,6.18.55,9.31-1.61,2.75-2.94,5.65-4.51,8.43-2.4,4.24-5.1,8.3-7.52,12.52a17,17,0,0,1-1.1,1.57,1.1,1.1,0,0,1-1.26.47,1.12,1.12,0,0,1-.78-1.09,13.42,13.42,0,0,1,.07-3.58,1.73,1.73,0,0,0,1.15-.79c2.27-3.65,4.53-7.32,6.82-11a2.64,2.64,0,0,0,.44-1.79c-.47-5.3-1-10.59-1.29-15.9-.15-3.26-.85-6.49-.57-9.78a2.45,2.45,0,0,0-.07-.71c-.67-3-.52-6.17-.78-9.25-.24-2.85-.41-5.73-.7-8.56-.46-4.58-.69-9.18-1.23-13.76-.46-3.93-.66-7.91-1-11.87q-.48-6.3-1-12.6c-.33-4.12-.67-8.24-.95-12.36-.3-4.36-.66-8.71-1-13.07s-.76-8.56-.94-12.84c-.25-5.89-1.1-11.73-1.06-17.63a6.17,6.17,0,0,0,0-1c-.66-4.33-.63-8.72-.88-13.08-.17-3,0-6.07,0-9.11a3.93,3.93,0,0,0-.18-1.87,3.19,3.19,0,0,0-1.41,1.05c-2.71,2.72-5.39,5.47-8.14,8.14a7.32,7.32,0,0,0-2.25,5.59c0,.72,0,1.44,0,2.16v1.92a9.08,9.08,0,0,0,0,2.15c.35,1.36-1.05-.15-1,.66a17.33,17.33,0,0,0,.08,1.91c.92,4.76,1.23,9.61,1.77,14.41.46,4.1,1,8.2,1.13,12.35a34.71,34.71,0,0,0,.49,5,82.7,82.7,0,0,1,.79,8.29c.18,2.46.47,4.92.7,7.36a49.78,49.78,0,0,0,.43,5.47,79.75,79.75,0,0,1,.77,8.3c.27,2.68.51,5.38.66,8.09.26,5.15.92,10.28,1.41,15.42.45,4.84,1,9.67,1.34,14.51.53,7.56,1.24,15.09,1.92,22.63.6,6.67.95,13.36,1.61,20,.21,2.23.27,4.46.53,6.68.38,3.32.73,6.65.81,10,.05,2.21-1.06,3.27-3.31,3.35-3.83.13-7.66.22-11.49.38-8.45.36-16.91.57-25.36,1-3.5.19-7,.23-10.52.38-8.22.36-16.43.6-24.64,1.06-3.27.18-6.54.23-9.81.38-7.65.35-15.31.63-23,1.05-4.94.27-9.9.25-14.83.64-2.87.24-5.74.26-8.6.46-6.68.45-13.35,1-20,1.45l-7.82-.76a12.46,12.46,0,0,0-2-2.95C10.21,208.45,9.8,208.35,9.37,208.81ZM130.25,54.4c.35-3.57-.62-7.76-.6-12,0-2-.35-2.34-2.44-2.24s-4.15.31-6.22.41c-9.1.44-18.18,1.19-27.24,2.11-10.5,1.06-21,1.68-31.53,2.69-6.76.66-13.54,1-20.31,1.64-9.47.83-18.93,1.74-28.4,2.61a2.74,2.74,0,0,0-2.79,3.15c.06,1.35.26,2.7.34,4.06.42,7.66.71,15.32,1.45,23,.25,2.5.89,3.13,3.3,3l21.53-1.42c2.71-.17,5.43-.27,8.13-.54C52.22,80.11,59,79.43,65.76,79c4.78-.32,9.56-.69,14.34-1.06,7.25-.56,14.49-1.18,21.74-1.71,5.66-.42,11.34-.59,17-1.18,3.3-.35,6.68,0,9.92-1.2,1.88-.68,2.48-1,2.24-3A131.07,131.07,0,0,1,130.25,54.4Zm-10.9,121.73.4-.36a2.22,2.22,0,0,0,.21-.63c0-.87.09-1.57,1.25-1.59s1.13.79,1.39,1.55c.35,1,.23,2.07.53,3.06.63,2,.18,2.3-1.89,2.57s-4,.08-6,.17c-1.24.06-1.82-.28-2-1.65a8.4,8.4,0,0,0-1.65-4.61,7.77,7.77,0,0,0-.13,1.23c.41,4.36.77,8.73,1.27,13.08a14.34,14.34,0,0,0,.56,3.77c.61,1.53,1,1.95,2.58,2a38.15,38.15,0,0,0,4.53-.3c3.09-.3,6.13-1,9.23-1.24,2.31-.2,4.6-.39,6.92-.45,1.9-.06,2.51-.72,2.63-2.67a15.39,15.39,0,0,0,0-3.11c-.65-4.73-1.31-9.46-2.1-14.16-.52-3.05-1.22-3.53-4.36-3.48-5.83.08-11.58,1-17.37,1.58a11.11,11.11,0,0,0-2.35.46c-.8.24-2,.38-1.89,1.48s1.17,1.11,2,1.19a6.74,6.74,0,0,0,1.68,0C116.74,173.64,118.55,173.55,119.35,176.13Zm-60.25-.22a19.18,19.18,0,0,0-18.84-19.53c-10.41-.08-19,8.74-19.1,19.35s8.61,19.46,18.59,19.51C50.2,195.29,59.3,186.41,59.1,175.91ZM163.62,190c-1.35-1.24-1.47-1.21-2,.15a7,7,0,0,0-.31,2.36c0,.58-.06,1.17-.72,1.35-1.77.48-3.26,1.62-5.13,1.93-2.82.47-5.59,1.2-8.39,1.84-.91.21-1.62.62-1.69,1.71a1.86,1.86,0,0,0,1.57,2.08,5.81,5.81,0,0,0,2.57.22c4.08-.69,8.15-1.47,12.33-1.15a3.85,3.85,0,0,0,.48,0c2.1-.18,3.25-1.27,3.29-3.35.05-2.63,0-5.27-.12-7.9a6.94,6.94,0,0,0-.88-3.64C163.41,186.94,164,188.48,163.62,190ZM32.68,203.24a13.63,13.63,0,0,0-7.57.49,8.57,8.57,0,0,1-2.31.62c-1.87.17-3-1.1-4.45-1.9a3.43,3.43,0,0,1-1.93-3.64c.15-3.13-.7-6.19-.55-9.32,0-.64,0-1.34-.85-1.47s-1.15.37-1.53.94a9.23,9.23,0,0,0-1.26,4.33c-.38,3.6-.26,7.12,3.46,9.22.56.32.62.87.83,1.39a3.24,3.24,0,0,0,4.16,2.21,23.3,23.3,0,0,0,2.28-.74,22.82,22.82,0,0,1,7.21-1.61A12.46,12.46,0,0,0,32.68,203.24Zm82.92-27.18a.64.64,0,0,0-.73.39.84.84,0,0,0,.12.89c.52.66,1.58.82,1.7,1.87a.51.51,0,0,0,.68.46c.33-.09.46-.34.55-.68C118.39,177.22,117.61,176.21,115.6,176.06Zm5.21.9c-.07-.11-.14-.29-.23-.31a.42.42,0,0,0-.36.17c-.08.24,0,.45.32.42C120.64,177.23,120.72,177.06,120.81,177ZM157.45,39.44l-.21-.36c-.07.12-.18.25-.18.37s.13.24.19.36Z" fill="#e4a73f"/><path d="M361.74,174a47.59,47.59,0,0,1,11.82,3.69c2.12.92,4.28,1.75,6.43,2.61.61.23,1.19.45,1.3,1.23a2.75,2.75,0,0,1-2.07,0c-3.09-.78-6.2-1.49-9.28-2.3a6,6,0,0,0-2.35-.32c-1,.14-2.53-.65-3,.62a4.77,4.77,0,0,0,.31,4.18,8.83,8.83,0,0,0,1.22,1.46c.76.82,1.62,1.56,2.32,2.43,1.57,1.95,1.6,2.06,3.78.79,3-1.77,6.22-3.28,9.33-4.9a6,6,0,0,1,3.45-.75c-.13.2-.22.47-.41.58-4.47,2.46-9.14,4.49-13.79,6.57-.53.24-1.15.3-1.09,1,.15,1.85-.61,3.6-.55,5.45a19.86,19.86,0,0,1-.38,5.95,10.18,10.18,0,0,0-.05,2.87c0,.83.42,1.05,1.26.91,2.79-.49,4.41-2.47,5.66-4.7a48.82,48.82,0,0,1,3.59-5.34c.6-.79,1.21-1.74,2.42-1.79h0c-.12,1.1-1,1.81-1.49,2.68-1.29,2.1-2.63,4.18-3.94,6.28-.25.4-.46.88-.06,1.31s.73.18,1.12.07a72.41,72.41,0,0,1,9.31-2,65.36,65.36,0,0,1,10.89-1.17c2.24,0,4.48,0,6.72,0h0c-.66,1.36-2,1.7-3.25,2.29a23.64,23.64,0,0,0-2.41,1c-3.65,2.37-7.73,3.75-11.75,5.28a35.41,35.41,0,0,0-6.87,3.15c1.78,1,3.4,1.57,5.29.74a32.88,32.88,0,0,1,3.19-1c5.76-1.84,11.62-3.4,17.25-5.66a4.44,4.44,0,0,0,2.65-2.26c1.25-3.22,3.38-6,4.58-9.2a40.88,40.88,0,0,1,5.21-10.19c.65-.9,1.27-1.84,1.86-2.78,2.12-3.38,4.62-6.28,8.73-7.29.25-.06.69,0,.52-.7a54.28,54.28,0,0,0-6.79-2.58c-2.58-.61-4-2.92-6.78-4,.44,1.62-.53,2.3-1.31,3.1a3.3,3.3,0,0,0-1,1.58c-.77,3.32-1.61,6.64-2.42,9.95-.1.41-.2.77-.84.87.19-3.39,1.19-6.63,1.73-9.87a1.09,1.09,0,0,0-1.25.25c-2.76,1.9-5.75,3.43-8.6,5.17-2.24,1.38-4.78,2.2-6.85,3.86a3,3,0,0,1-2.76-1.08c-.72-.83-1.54-1.57-2.28-2.57,3.45.94,5.93-.42,8.47-3-3.65.27-6.59,2.05-10.35,1.73a4.31,4.31,0,0,1,2.62-1.32c5.41-1.28,10.88-2.38,15.92-4.88,1-.5,2.34-.28,3-1.66.52-1.08,2.11-1,2.95-2-.46-.89-1.26-.58-1.86-.41-3.62,1-7.37,1.09-11.05,1.71-.81.13-2.49.77-2.51-.72,0-1.1,1.58-.55,2.45-.63A107.43,107.43,0,0,0,412,166.62l2.06-.44c-.55-.94-1.5-.76-2.13-1.2s-1.2-.49-1.62-1a.88.88,0,0,1-.18-.89.62.62,0,0,1,.75-.43,6.3,6.3,0,0,1,2.26.7c2.42,1.81,5.23,2.58,8.23,3.34-.67,1.14-1.91.92-2.91,1.4a7.32,7.32,0,0,0,5.13,3.52,34.27,34.27,0,0,1,5.25,1.62c4.77,1.71,4.93,1.84,8.41,6.89,2.16,3.15,4.62,6.11,6.27,9.59a3.22,3.22,0,0,0,1.78,1.49,8.71,8.71,0,0,0,6.95.4c-3.17-3.92-6-8.26-9.8-11.77a12.8,12.8,0,0,1-1.28-1.72,1,1,0,0,1-.1-1.32c1.77-2.75,3.41-5.6,6-7.73a2.49,2.49,0,0,1,.9-.26c0,.62,0,1.24,0,1.86a1.36,1.36,0,0,0,1.43,1.49c-1.14,2.56.27,4.57,1.45,6.62.1.17.51.37.5.38-1.08,1.79.58,3.13.77,4.7.17,1.39,1,1.76,2.36,1.76,1.61,0,3.14-.81,4.74-.47,2.45.51,4.94.24,7.38.52a110.14,110.14,0,0,0,13.33.91,2.71,2.71,0,0,1,1.18.1c2.09.94,4.09-.28,6.14-.23.72,0,1.21-.7,1.47-1.42a9.44,9.44,0,0,0,.54-3c0-1.83-.28-3.68.21-5.49.12-.45.4-.91-.25-1.29a4.26,4.26,0,0,0-2,1.19,42,42,0,0,1-7.32,4.94,39.15,39.15,0,0,0-4.05,2.95c-.66.53-1.34,2-2.24.89-.73-.91.68-1.55,1.29-2.22a2.36,2.36,0,0,1,.41-.25l6.81-4.85c.42-.3,1-.5.92-1.27a2,2,0,0,0-.69,0,11.15,11.15,0,0,1-7.49.46,2.83,2.83,0,0,0-1.41.1c-3.5.81-7.11.65-10.64,1.23-.29,0-.71.17-.92-.24,3.23-1.38,6.8-.77,10-1.81-2.89-.89-5.5-2.29-8.27-3.28a4.25,4.25,0,0,0-3.84.24c-2.65,1.44-5.08,3.34-8.06,4.14h0c0-.81.69-1,1.2-1.33,2.69-1.91,6.06-2.8,8.17-5.57.25-.33.72-.26,1.11-.3a4.78,4.78,0,0,1,3,.73,10.93,10.93,0,0,0,6.71,1.15,20.36,20.36,0,0,1,2.1-.4c4.14.18,8.24-.8,12.38-.52a9.85,9.85,0,0,0,3.77-.48,5,5,0,0,1,1,3.35,15.55,15.55,0,0,0,0,2.16c.12.84.58,1.28,1.52.9.57-.23,1.06-.75,2-.45-.63,1.5-1.24,3-1.87,4.5-.18.44-.44.85-.59,1.31-.28.85.17,1.29,1,1.13,5.6-1.14,11.33-1.79,16.52-4.45a8.31,8.31,0,0,1,1.53-.68c1.22-.33,1.78,0,1.91,1.28.09.93.27,1.56,1.36,1.5a2.67,2.67,0,0,1,1.7.78c3.83,2.85,8,5.22,11.43,8.62,1.18,1.18,3,1.61,3.87,3.13.34.56.85.13,1.29,0,.65-.14,1.31-.16,1.7.51s-.23,1-.53,1.44a17.72,17.72,0,0,1-6.13,5.57c-1.31.73-2.41,1.82-3.65,2.67-1.57,1.07-3.3,1.72-5.19,1-1-.38-1.87.26-2.81.24-2,0-4,0-6,0-3,0-6,.6-9,.82-3.66.26-7.35.12-11,.14-.85,0-1.21-.58-1.61-1.22a61.33,61.33,0,0,1-4.3-8.28c-.83-2-2.48-2-4.08-2.31a.83.83,0,0,0-.64.22c-2,1.94-4.78,2-7.29,2.42-5.69,1-11.45,1.71-17.13,2.83-.78.15-1.61,0-2.38.2-1.22.24-1.59.84-1.43,2.06,0,.16.07.31.1.47.78,3.61.78,3.61,4.45,3.61,2.8,0,5.6,0,8.39,0a6.19,6.19,0,0,0,5.32-2.48,40.18,40.18,0,0,1,6.27-5.86c1.45-1.22,2.61-.86,3.36.95a13,13,0,0,1,.62,7.5c-.28,1.49-1.62,1.87-2.4,2.82-1,1.16-2,1-3.25.54-.66-.23-1.41-.15-2.1-.42a1.52,1.52,0,0,0-1.78.33c-.91,1.07-2.09,1-3.3,1-5.43-.13-10.82.78-16.25.48-1.72-.09-2.49,1.23-3.29,2.41a18.57,18.57,0,0,1-1.31,2,3.78,3.78,0,0,1-3.12,1.38c-5.68-.07-11.35,0-17-.07a14.21,14.21,0,0,1-7.37-2.37c.32,0,.64,0,.95,0,6.38-.26,12.73.84,19.1.47,1.11-.06,2.28,1.11,3.18.15a10.52,10.52,0,0,0,1.45-3,3.77,3.77,0,0,0,.1-.85c-2.8-.58-5.48-1.56-8.39-1.59a39.4,39.4,0,0,0-7.36.53,16,16,0,0,0-9,4.3c-2.91-.07-5.44-1.43-7.75-2.88-2.9-1.81-5.33-2.42-8.13.13-1.51,1.37-3.43,2.31-5,3.69a10,10,0,0,1-7,2.42,25.59,25.59,0,0,0-4.52.36c-2,.34-4,.81-6.12.22a11.12,11.12,0,0,0-4.5.17,32.31,32.31,0,0,1-8.84,0,23.45,23.45,0,0,0-6.64,0,38.3,38.3,0,0,1-5.26.14,2.17,2.17,0,0,1-1.81-1c-3.08-4.15-6.6-8-9.44-12.32-1-1.48-1-1.93.17-3.16a19.79,19.79,0,0,0,3-4.57c3.27-6.13,6.68-12.18,10.16-18.18a3.17,3.17,0,0,0,.65-2.22A29.12,29.12,0,0,1,361.74,174Zm58.79,18.77c-.09-.24-.17-.28-.21-.11s.13.08.2.12c.29,3.7,2,7.09,2.1,10.8.75-.07.88-.5,1.13-.79,1.55-1.79,3-3.65,5.27-4.7,2.84-1.33,2.75-1.39,1.23-4.13a3.72,3.72,0,0,0-3.86-2.18C424.39,191.93,422.51,192.64,420.53,192.8Zm14.52,3.58c2.11.78,4.13,1.86,6.26,1.6,2.35-.29,4.69-.71,7.05-1,2.68-.34,5.37-.42,8-.79,3.37-.47,6.78-.7,10.14-1.25,1.19-.2,2.49.09,3.78-.55-2.59-1.36-13.07-3.19-15.68-2.79.52.61,1.69-.19,2,1a5.34,5.34,0,0,1-2.28.15,3.63,3.63,0,0,0-2.48.72,3.59,3.59,0,0,1-2.68.73c-3.73-.09-7.44-.7-11.19-.5C435.7,193.86,435.7,193.76,435.05,196.38Zm-5.91-9.9a13.32,13.32,0,0,0-3.18-5.73c-.53-.52-1-.29-1.45.15a35.67,35.67,0,0,0-2.86,2.91,24.85,24.85,0,0,0-3.21,5c-.33.73,0,1,.7,1.07a3.74,3.74,0,0,0,.95-.07c2.62-.58,5.13-1.73,7.92-1.4C429,188.56,429.2,187.84,429.14,186.48Zm84.94,8.72c-.77,0-1.55,0-2.32,0-3.1-.11-6.2.2-9.3-.39a29.75,29.75,0,0,0-5.26-.07,1.83,1.83,0,0,0-1.54.51c-1.21,1.41-2.39,2.85-3.62,4.32,1.2.77,2.07.25,3,0,4.52-1.23,9.05-2.43,13.79-2.48A11.32,11.32,0,0,0,514.08,195.2Zm-117.66,9.07a1.64,1.64,0,0,0-1.63-.27c-7,1.21-13.84,3.42-20.87,4.67-.33.06-.66.13-.7.5a.84.84,0,0,0,.49.76c.75.45,1.53.85,2.24,1.36a2.57,2.57,0,0,0,3.29,0,25.24,25.24,0,0,1,6.65-3.16A87.28,87.28,0,0,0,396.42,204.27ZM354.28,194a1.65,1.65,0,0,0-1.07,1,41.54,41.54,0,0,0-2.58,6.16,4.53,4.53,0,0,1-1.21,2c-1.83,1.63-1.75,2.42.25,3.88.19.14.42.23.62.36,1.44.91,1.58.82,2.11-.7a32.23,32.23,0,0,0,.71-4.47C353.61,199.59,353.88,196.92,354.28,194Zm78.66-17.11c-.91-.4-1.54.21-2.24.16a1.5,1.5,0,0,0-.66.25,2.07,2.07,0,0,0-1,3,7,7,0,0,0,2.78,2.45ZM492,193.31c-.07-.54.14-1.46-.82-1.33-.77.1-1.87.05-2,1.26-.1.89.76,2.26,1.39,2.28S492,194.52,492,193.31ZM414,167.62c-.11-.17-.23-.18-.37,0,.06,0,.11.12.17.12S413.92,167.65,414,167.62Z" fill="#e1e2e1"/><path d="M188.57,178.87c.36-3.13-.3-6.22-.55-9.31-.23-2.77-.37-5.56-.66-8.34-.58-5.46-.72-11-1.15-16.46-.55-7-1.07-14-1.48-21-.29-4.93-.71-9.86-.95-14.8q-.56-11.35-1.45-22.68c-.49-6.36-1-12.71-1.42-19.08q-.51-8.23-1-16.48c-.44-7.25-.89-14.49-.9-21.76a4.28,4.28,0,0,1,.92-3.08l4.9-6.9c.21-.29.38-.72.89-.51.17.63-.22,1.05-.53,1.52-1.62,2.37-3.22,4.76-4.86,7.12-.32.46-.84.89-.64,1.47.48,1.4.22,2.86.46,4.27.71,4.16.86,8.38,1.27,12.57a4.17,4.17,0,0,0,1.92,3.34q3.85,2.63,7.69,5.29c7.72,5.38,15.45,10.75,23.13,16.19,1,.71,1.67.78,2.42-.18.29-.38.62-.73.93-1.09l.51.51a6.38,6.38,0,0,1-1.49,2.15c-1,.76-1,1.6-.75,2.75a24.79,24.79,0,0,1,.71,5.66c-.16,6.32.81,12.55,1.1,18.83.09,2,.17,4.14.46,6.18.66,4.65.86,9.34,1.27,14,.36,4.11.67,8.24,1,12.36.42,5.71.93,11.41,1.47,17.11.46,4.83.8,9.66,1.4,14.48.24,1.89.13,3.81.51,5.7a3.21,3.21,0,0,1-.27,2.56c-1.75-2.16-3.55-4.27-5.21-6.49a4.9,4.9,0,0,0-2.17-1.72,2.49,2.49,0,0,0-2.42-.66,10.33,10.33,0,0,0-4.64,1.72c-3.38,2.5-7.19,4.4-10.35,7.22-.15.13-.41.13-.63.2-.73-1-1.23-2.25-2.45-2.58a8.84,8.84,0,0,1-4.4-2.67,1,1,0,0,0-1.87.91c.49,2.76.22,5.56.56,8.32a4.39,4.39,0,0,1-.75,3.36Z" fill="#6d5834"/><path d="M223.4,171.27a3.21,3.21,0,0,0,.27-2.56c-.38-1.89-.27-3.81-.51-5.7-.6-4.82-.94-9.65-1.4-14.48-.54-5.7-1-11.4-1.47-17.11-.31-4.12-.62-8.25-1-12.36-.41-4.67-.61-9.36-1.27-14-.29-2-.37-4.13-.46-6.18-.29-6.28-1.26-12.51-1.1-18.83a24.79,24.79,0,0,0-.71-5.66c-.24-1.15-.23-2,.75-2.75A6.38,6.38,0,0,0,218,69.48c.81-.66,1.75-1.24,1.88-2.44.49-.13.88-.55,1.44-.48a2.61,2.61,0,0,1-1,1.86c-2,2.12-2.19,4.7-1.89,7.36a40.92,40.92,0,0,0,.92,4.17c.08.4.13.81.6.93a1.05,1.05,0,0,0,1.18-.6A53.24,53.24,0,0,1,227,73.05c4.56-5.1,9.41-9.94,13.52-15.41,1.41-1.87,3.35-3.14,4.89-4.84.47-.52,1.23-1,.61-1.8-.48-.59-1.13-.2-1.73.09a17.85,17.85,0,0,1-5.2,1.56c.91-1.28,2.43-1.63,3.66-2.43,1.48-1,3.32-1.41,4.5-2.87.62-.25,1.25-.52,1.41.51a5.71,5.71,0,0,1,.08.71c0,8.92,1.1,17.77,1.47,26.67.12,2.86.46,5.7.69,8.55a8.64,8.64,0,0,1-1.16,2.57,28.1,28.1,0,0,0-3,6.14,5.55,5.55,0,0,0-.53.77,66,66,0,0,0-5.5,22.38c-.51,7.3-.57,14.66,1,21.91a68.55,68.55,0,0,0,8.61,24.09,13.64,13.64,0,0,0,2.76,3.86c.31,1.13,1.42,1.77,1.79,2.87a64.2,64.2,0,0,0-9.5.57,161.39,161.39,0,0,0-20.12,4.85Z" fill="#ba8f45"/><path d="M217.5,69c-.31.36-.64.71-.93,1.09-.75,1-1.42.89-2.42.18C206.47,64.8,198.74,59.43,191,54.05q-3.83-2.67-7.69-5.29a4.17,4.17,0,0,1-1.92-3.34c-.41-4.19-.56-8.41-1.27-12.57-.24-1.41,0-2.87-.46-4.27-.2-.58.32-1,.64-1.47,1.64-2.36,3.24-4.75,4.86-7.12.31-.47.7-.89.53-1.52l0,.07a11.67,11.67,0,0,0,3.86-5.34l0,.06a2,2,0,0,0,1.46-2l0,.07c.94-.32,1.17-1.18,1.49-2l0,0A2.65,2.65,0,0,0,193.94,7l0,0c1.27-.3,1.7-1.28,1.94-2.42h-.05c.47.06,1,0,1.14-.46s-.29-.38-.55-.44c1.21-1.47,1.81-1.52,2.86-.13.67.89,1.19,1.89,1.86,2.78a105.49,105.49,0,0,0,14.39,15.7c3,2.68,5.2,6.05,7.83,9.05,3.16,3.6,6.27,7.24,9.4,10.88a9,9,0,0,0,1.42,1.27c1.4,1.1,1.37,1.13.29,2.68-2.7,3.86-5.37,7.74-8,11.62a1.18,1.18,0,0,0-.28.88l0,0c-.12,0-.3.07-.33.14-.09.24.11.33.29.4,0,.13,0,.26,0,.39-2.31.75-3.06,2.78-3.9,4.74l-.47.49c-.76.72-1.81,1.22-1.84,2.48C218.61,67.09,218.08,68.06,217.5,69Z" fill="#ba8f45"/><path d="M246.69,92.5a28.1,28.1,0,0,1,3-6.14,8.64,8.64,0,0,0,1.16-2.57c2.52-3.17,4.73-6.57,7.44-9.59A56.16,56.16,0,0,1,264,68.43c1.73.42,2.8-.89,3.88-1.74a60.62,60.62,0,0,1,12.29-7.29,67.32,67.32,0,0,1,23.75-5.75,53.91,53.91,0,0,1,13.28,1.14A56.42,56.42,0,0,1,333.53,60a4.69,4.69,0,0,0,4.56.23,3.46,3.46,0,0,1,3.22.07c1.92.92,3.27,2.16,3.44,4.48a4.55,4.55,0,0,0,2,3.36,45.09,45.09,0,0,1,8.45,8.06,12.41,12.41,0,0,0,3.32,3.34c.64,1.92,2.12,3.33,3.14,5a88.22,88.22,0,0,1,6.58,13.68c.33,1.44.65,2.88,1,4.32-1.69,0-3.19.91-4.86,1-.64-2-1.27-3.93-1.91-5.89-2.24-6.85-4.75-13.58-9.06-19.45A10.94,10.94,0,0,0,348.52,74,53.41,53.41,0,0,0,343,72.33c-6-1.48-12.15-1.83-18.26-2.24-8.69-.58-17.42,0-26.14,0a43.54,43.54,0,0,0-6.45.47A120.18,120.18,0,0,0,272,75.32a12.3,12.3,0,0,0-6.36,4.39,61.27,61.27,0,0,0-10.66,23.11,64.91,64.91,0,0,0-1,23.33,41.82,41.82,0,0,0,3.69,12.59,8.69,8.69,0,0,0,4.47,4.44c.66.28,1.48,0,2,.64-1.14.85-2.25,1.74-3.43,2.53a1.43,1.43,0,0,1-2.36-.59,4.44,4.44,0,0,0-3.43-2.64,4.05,4.05,0,0,1-2.76-2.39c-2.8-5.16-3.57-10.81-3.93-16.53-.2-3.17,0-6.37-.05-9.56a27.56,27.56,0,0,1,.85-6.59,69.08,69.08,0,0,1,4.48-12.3c.21-.49.65-1,.17-1.53s-.87-.14-1.32,0a4.46,4.46,0,0,1-4-.9C247.83,92.93,247.41,92.43,246.69,92.5Z" fill="#af70de"/><path d="M254.77,168.38c-.37-1.1-1.48-1.74-1.79-2.88a5.42,5.42,0,0,1,.76-2c1.23-2.47,4.72-3.48,6.81-1.72,4.27,3.61,9.41,5.65,14.33,8.06A41.39,41.39,0,0,0,281.2,172c.78.23,1.82.53,2.05-.85a9.46,9.46,0,0,1,.91.26,69.05,69.05,0,0,0,28.85,6c.51.73,1.29.5,2,.52,1.44,0,3-.28,4.29.09a10.13,10.13,0,0,0,6.29-.57c2.1-.74,3.89-.15,5.67.8a12.5,12.5,0,0,1,1.94,1.39,3.93,3.93,0,0,0,3.53,1c3.88-1.43,7.73-3,10.82-5.93q3.23-3,6.34-6.17a5.52,5.52,0,0,1,2.44-1.41c1-.31,1.39.13,1.31,1s-.34,1.55-.43,2.34c-.06.53-.18,1.19.42,1.51a1.73,1.73,0,0,0,1.83-.07,8.14,8.14,0,0,0,1.24-1.11c2.21-2.2,4.5-4.33,6.6-6.63a71.5,71.5,0,0,0,6.67-8.69,66.16,66.16,0,0,0,6.12-12.4c.21-.53.28-1.1,1-1.14-.11,1.84-1.1,3.46-1.34,5.27A98.71,98.71,0,0,1,372,162.51,84.86,84.86,0,0,1,361.74,174a29.12,29.12,0,0,0-4.14,3.2,63.64,63.64,0,0,1-11.52,6.21,7.74,7.74,0,0,0-3,2.67.35.35,0,0,0-.24.47c-.14,1.25.56,2.48.11,3.74a41.55,41.55,0,0,1-4,1.63c-2.53,1-5.2,1.42-7.76,2.28-2.05.24-4.09.55-6.14.72a125.51,125.51,0,0,1-17.12.59c-1.5-.08-3-.25-4.51-.26-3.52-1.6-7.37-1.42-11.07-2a9.21,9.21,0,0,0-1.11-.4q-5.47-1.28-10.95-2.53c-1.05-.24-2-.44-1.75-1.94.19-1.29-.63-2.08-1.87-2.39a15.52,15.52,0,0,1-3.7-1.64A58.93,58.93,0,0,1,254.77,168.38Z" fill="#544375"/><path d="M189.07,178.88a4.39,4.39,0,0,0,.75-3.36c-.34-2.76-.07-5.56-.56-8.32a1,1,0,0,1,1.87-.91,8.84,8.84,0,0,0,4.4,2.67c1.22.33,1.72,1.58,2.45,2.58.22-.07.48-.07.63-.2,3.16-2.82,7-4.72,10.35-7.22a10.33,10.33,0,0,1,4.64-1.72,2.49,2.49,0,0,1,2.42.66c-.88,1.5-.75,3.28-.71,4.81a9.56,9.56,0,0,1-1.06,5c-1,1.89-2.11,3.74-3.21,5.58-.56.93-1,1.79-.29,2.86a3.59,3.59,0,0,1,.27,3c-.22.85-1,1.94-.19,2.61s1.82,0,2.68-.47a5.46,5.46,0,0,1,.64-.32c1.14-.47,2-.25,2.21.87.21,1.54,1.29,2.31,2.15,3.32s1.34,2.47,2.29,3.34c4.88-2.8,8.85-6.72,14.09-8.58.13-.05.23-.21.34-.32.6,0,1.13.46,1.75.23.52,1.47-.17,2.47-1.3,3.27a13,13,0,0,1-1.47.8c-.79.43-.89.91-.38,1.73a24.36,24.36,0,0,0,3,3.42c.34.36,1.11.75.44,1.33s-1-.07-1.44-.45a10.68,10.68,0,0,1-2.44-2.92c-.55-1.09-1.29-1.14-2.34-.74a27,27,0,0,0-5.7,3.47,1,1,0,0,0-.28,1.44c2,3.42,3.77,7,6.07,10.29.32.45.64,1,1.29.94a1.43,1.43,0,0,0,1.28-1.25,7.62,7.62,0,0,1,1.7-3.64,22.81,22.81,0,0,0,2.64-5.85,9,9,0,0,1,.38-1.14c.65-1.39,1.11-1.54,2.66-1.14a13.1,13.1,0,0,1,2.93,1.57c1.65.9,2.74,2.62,4.78,3.25A67.48,67.48,0,0,1,252.9,192a11.8,11.8,0,0,1,1.89-2.15,1.11,1.11,0,0,1,1.53-.12,1.24,1.24,0,0,1,.35,1.5c-.19.62-1,1.15-.32,2,1.19,0,2.12-1.13,3.37-.93h0a2.14,2.14,0,0,1-1.44,1.17c-3.91,1.3-5.93,4.37-7.41,7.92-.4,1-.61,2-2,2-.6,0-.69.58-.7,1.08,0,1.41-1,2.14-2,2.72-1.48.79-3,1.57-4.52,2.21a5.52,5.52,0,0,0-2,1.24,4,4,0,0,1-3,1.32,4.21,4.21,0,0,0-1.4.24c-.69.23-1.14.66-.62,1.43.93,1.38,1.87,2.77,2.87,4.1.46.63,1.11.36,1.74.16,1.91-.61,3.17-2.1,4.59-3.34,1.74-1.51,3.58-2.91,5.2-4.57,1-1,1.24-.78,2.25.33a42.83,42.83,0,0,0,3.52,3.2c.29.25.72.37.8.85-.25.69-.94.46-1.43.59-4.62,1.31-8.52,3.9-12.24,6.82a17.42,17.42,0,0,0-3.26,3.11c-1.07,1.41-3,1.63-4.74,2.39,0-2.83-1.78-4.52-3.38-6.26-1.89-2.05-3.93-4-5.92-5.94a11.42,11.42,0,0,1-2.42-3,3.88,3.88,0,0,0-3.74-2.07c-1.59-.06-3.19,0-4.79,0-1.92.06-2.43.86-1.61,2.61a65.46,65.46,0,0,0,4.2,6.95c.43.68.81,1.37,1.22,2.05a3.78,3.78,0,0,1,.36,2.58l-2.31-2.54a1.67,1.67,0,0,0-.33-1.1,87.9,87.9,0,0,1-5.93-10.7c2.13-1,2.49-2.37,1.11-4.23a7.45,7.45,0,0,0-2.45-1.85c-4.44-2.59-9.32-4.42-13.48-7.52a4.61,4.61,0,0,0-2.93-.67h0c.91-2.66.95-5.46,1.46-8.19.35-1.87,1-3.69.94-5.63,0-.53.16-1.22-.57-1.4s-1.14.39-1.41,1c-.17.36-.28.75-.44,1.11-1.64,3.65-2.27,7.62-3.6,11.37-.38,1.1-.67,2.45.38,3.36.71.61.55,1.1.46,1.85a1.72,1.72,0,0,1-1.5,1.56c-2.45.7-4.86,1.59-7.35,2-1.45.26-2.93.87-4.47.5a26.44,26.44,0,0,0,3.44-5.13c1.55-2.8,3.2-5.53,4.77-8.32A70.14,70.14,0,0,0,189.07,178.88Zm19.29,23.05.21.19-.2-.2a2.85,2.85,0,0,0,0-.72,7.62,7.62,0,0,1,.27-6,2.23,2.23,0,0,0,.2-.68c.22-1.37-.22-1.79-1.54-1.39-2.65.82-4.92,2.41-7.87,3.56,2.35,1.46,4.26,2.74,6.25,3.85C206.53,201,207.26,201.84,208.36,201.93ZM198,178.05c-.24,1.54-.57,2.93-.66,4.33-.2,3.26-.88,6.45-1.33,9.66-.29,2.1-.11,2.72,1.65,3.73.77.44,1.26.51,1.63-.49a4.41,4.41,0,0,1,2.82-2.42,16.07,16.07,0,0,0,2.41-1c2.37-1.44,4.25-3.15,3.89-6.37a3.37,3.37,0,0,0-1.71-2.87A56.05,56.05,0,0,0,198,178.05Zm17.26,28.32a56.44,56.44,0,0,0,1.87-7.81c.59-3.39-.95-5.94-2.73-8.48a1,1,0,0,0-1-.48c-1.53.23-3.54,2.39-3.58,3.93a7.72,7.72,0,0,1-.64,2.72c-.61,1.56-.73,3.22.73,4.62C211.64,202.53,213.26,204.3,215.27,206.37Z" fill="#e1e2e1"/><path d="M381.64,194.24c-1.21,0-1.82,1-2.42,1.79a48.82,48.82,0,0,0-3.59,5.34c-1.25,2.23-2.87,4.21-5.66,4.7-.84.14-1.25-.08-1.26-.91a10.18,10.18,0,0,1,.05-2.87,19.86,19.86,0,0,0,.38-5.95c-.06-1.85.7-3.6.55-5.45-.06-.71.56-.77,1.09-1,4.65-2.08,9.32-4.11,13.79-6.57.19-.11.28-.38.41-.58,2.08-.11,3.65,1.31,5.53,1.83a40.08,40.08,0,0,1,4.41,1.7,3.56,3.56,0,0,0,1.61.28c.43,0,.79-.17.85-.64a.78.78,0,0,0-.44-.77c-.75-.5-1.85-.68-1.85-1.91,2.07-1.66,4.61-2.48,6.85-3.86,2.85-1.74,5.84-3.27,8.6-5.17a1.09,1.09,0,0,1,1.25-.25c-.54,3.24-1.54,6.48-1.73,9.87.64-.1.74-.46.84-.87.81-3.31,1.65-6.63,2.42-9.95a3.3,3.3,0,0,1,1-1.58c.78-.8,1.75-1.48,1.31-3.1,2.74,1.06,4.2,3.37,6.78,4a54.28,54.28,0,0,1,6.79,2.58c.17.67-.27.64-.52.7-4.11,1-6.61,3.91-8.73,7.29-.59.94-1.21,1.88-1.86,2.78a40.88,40.88,0,0,0-5.21,10.19c-1.2,3.23-3.33,6-4.58,9.2a4.44,4.44,0,0,1-2.65,2.26c-5.63,2.26-11.49,3.82-17.25,5.66a32.88,32.88,0,0,0-3.19,1c-1.89.83-3.51.27-5.29-.74a35.41,35.41,0,0,1,6.87-3.15c4-1.53,8.1-2.91,11.75-5.28a23.64,23.64,0,0,1,2.41-1c1.2-.59,2.59-.93,3.25-2.29,1.09-.14,1.76-1,2.92-1.65a5.17,5.17,0,0,1-2.43-1.45,9.51,9.51,0,0,0-5.45-2.73c-1-.15-2-.41-3.06-.49-.53,0-1.19-.21-1.34-.82s.5-.92,1-1.15a31.76,31.76,0,0,1,6-2.29,14.87,14.87,0,0,1,8.6.84c.7.25,1.3.82,1.74-.16s-.21-1.33-.91-1.67a3.2,3.2,0,0,0-.88-.36,30.61,30.61,0,0,0-5.86-1c-4.72.09-9.38-.81-14.1-.58-1.6.07-3.11.68-4.73.57a.8.8,0,0,0-.92.86c0,.53.56.48.94.49,1.12,0,2.24,0,3.36,0h6a18.08,18.08,0,0,1-3,2.23c-1,.63-2.37,1.22-2.08,2.59s1.73,1.63,3,2c3.38.92,6.85,1.43,10.19,2.49,1.4.44,1.41,1.16,1,2.24-2.24,0-4.48,0-6.72,0a65.36,65.36,0,0,0-10.89,1.17,72.41,72.41,0,0,0-9.31,2c-.39.11-.8.28-1.12-.07s-.19-.91.06-1.31c1.31-2.1,2.65-4.18,3.94-6.28.53-.87,1.37-1.58,1.49-2.68a3.09,3.09,0,0,0,1.43-2.89c.24-.07.28-.15.12-.19s-.07.13-.11.19A3.07,3.07,0,0,0,381.64,194.24ZM409,198.56l.48-.47.48-.49a.77.77,0,0,0,.16-.07s0-.08,0-.13l-.2.2-.48.48-.48.48-.48.48c-.17.12-.71-.21-.48.35,0,.11.38-.13.49-.35Z" fill="#f8f9f8"/><path d="M451.73,177.44c3-.8,5.41-2.7,8.06-4.14a4.25,4.25,0,0,1,3.84-.24c2.77,1,5.38,2.39,8.27,3.28-3.25,1-6.82.43-10,1.81.21.41.63.28.92.24,3.53-.58,7.14-.42,10.64-1.23a2.83,2.83,0,0,1,1.41-.1,11.15,11.15,0,0,0,7.49-.46,2,2,0,0,1,.69,0c.09.77-.5,1-.92,1.27l-6.81,4.85a2.36,2.36,0,0,0-.41.25c-.61.67-2,1.31-1.29,2.22.9,1.11,1.58-.36,2.24-.89a39.15,39.15,0,0,1,4.05-2.95,42,42,0,0,0,7.32-4.94,4.26,4.26,0,0,1,2-1.19c.65.38.37.84.25,1.29-.49,1.81-.18,3.66-.21,5.49a9.44,9.44,0,0,1-.54,3c-.26.72-.75,1.44-1.47,1.42-2.05,0-4.05,1.17-6.14.23a2.71,2.71,0,0,0-1.18-.1,110.14,110.14,0,0,1-13.33-.91c-2.44-.28-4.93,0-7.38-.52-1.6-.34-3.13.48-4.74.47-1.32,0-2.19-.37-2.36-1.76-.19-1.57-1.85-2.91-.77-4.7,0,0-.4-.21-.5-.38-1.18-2.05-2.59-4.06-1.45-6.62a1,1,0,0,0,.47-1l.48-.48.48-.48c.24-.08.28-.16.11-.19,0,0-.07.12-.1.19l-.48.48-.48.48a1,1,0,0,0-.48,1,1.36,1.36,0,0,1-1.43-1.49c0-.62,0-1.24,0-1.86.35-.92,1.3-1.14,2-1.64.95-.71,2.09-1.15,3-1.86,2.9-2.13,6.25-3,9.71-3.59,4.92-.87,9.69-2.37,14.55-3.48,1.08.83,2.23.48,3.39.23a2.76,2.76,0,0,1,3.52,1.58c.7,1.24,1.32,2.54,2.12,3.71,1.16,1.68,1.76,3.74,3.45,5,.7.51.41,1.26.48,1.92a9.85,9.85,0,0,1-3.77.48c-4.14-.28-8.24.7-12.38.52a20.36,20.36,0,0,0-2.1.4,10.93,10.93,0,0,1-6.71-1.15,4.78,4.78,0,0,0-3-.73c-.39,0-.86,0-1.11.3-2.11,2.77-5.48,3.66-8.17,5.57-.51.36-1.2.52-1.2,1.33a.6.6,0,0,0-.16.08s0,.08,0,.12Zm8.76,1.19c-.13-.06-.25-.18-.37-.18s-.24.13-.36.2c.12.06.25.18.37.18S460.37,178.7,460.49,178.63Zm-8.58-9.7c.2,0,.24-.07.11-.26,0,0-.16,0-.16.05A.54.54,0,0,0,451.91,168.93Z" fill="#f8f9f8"/><path d="M381.08,141.93c-.73,0-.8.61-1,1.14a66.16,66.16,0,0,1-6.12,12.4,71.5,71.5,0,0,1-6.67,8.69c-2.1,2.3-4.39,4.43-6.6,6.63a8.14,8.14,0,0,1-1.24,1.11,1.73,1.73,0,0,1-1.83.07c-.6-.32-.48-1-.42-1.51.09-.79.36-1.56.43-2.34s-.32-1.35-1.31-1a5.52,5.52,0,0,0-2.44,1.41q-3.12,3.13-6.34,6.17c-3.09,2.89-6.94,4.5-10.82,5.93a3.93,3.93,0,0,1-3.53-1,12.5,12.5,0,0,0-1.94-1.39c-1.78-1-3.57-1.54-5.67-.8a10.13,10.13,0,0,1-6.29.57c-1.33-.37-2.85-.06-4.29-.09-.69,0-1.47.21-2-.52.57-.64,1.33-.42,2-.44a34.82,34.82,0,0,0,3.83-.08,63.29,63.29,0,0,0,23.52-8.11,61.51,61.51,0,0,0,19.33-18.15,55.55,55.55,0,0,0,7.92-18.8c.65-2.69,1-5.44,1.52-8.17,1.07.25,1.26,1.12,1.35,2,.07.63,0,1.28,0,1.91a7.37,7.37,0,0,0,2.58,5.19c1.36,1.18,2.94,1,4.53,1,1.36,0,1.57-1.15,2.06-2a1.56,1.56,0,0,1,1.07-.87A40.61,40.61,0,0,1,381.08,141.93Z" fill="#694c8e"/><path d="M189.07,178.88a70.14,70.14,0,0,1-5.4,10.92c-1.57,2.79-3.22,5.52-4.77,8.32a26.44,26.44,0,0,1-3.44,5.13c-.51,1.76-.45,1.83,1,2.39,1,.36,2.05,0,2.94.64a5.25,5.25,0,0,1-2.89.95c-12.91.83-25.85,1.1-38.77,1.63-15.72.64-31.45,1.23-47.17,1.88-16,.65-32.09,1.27-48.12,2.27-3.34.21-6.68.52-10,.8a15.77,15.77,0,0,1-3.82-.07c-2.75-.47-5.56-.51-8.28-1.16,6.68-.49,13.35-1,20-1.45,2.86-.2,5.73-.22,8.6-.46,4.93-.39,9.89-.37,14.83-.64,7.65-.42,15.31-.7,23-1.05,3.27-.15,6.54-.2,9.81-.38,8.21-.46,16.42-.7,24.64-1.06,3.5-.15,7-.19,10.52-.38,8.45-.48,16.91-.69,25.36-1,3.83-.16,7.66-.25,11.49-.38,2.25-.08,3.36-1.14,3.31-3.35-.08-3.35-.43-6.68-.81-10-.26-2.22-.32-4.45-.53-6.68-.66-6.66-1-13.35-1.61-20-.68-7.54-1.39-15.07-1.92-22.63-.34-4.84-.89-9.67-1.34-14.51.43,0,.8.16.85.65.5,4.66,1,9.31,1.47,14,.22,2.14.36,4.28.58,6.41.43,4,1,8,1.32,12.07.29,3.8.75,7.59,1.15,11.38s.75,7.41,1.22,11.11c.56,4.33.8,8.7,1.18,13.06a13.42,13.42,0,0,0-.07,3.58,1.12,1.12,0,0,0,.78,1.09,1.1,1.1,0,0,0,1.26-.47,17,17,0,0,0,1.1-1.57c2.42-4.22,5.12-8.28,7.52-12.52,1.57-2.78,2.9-5.68,4.51-8.43Z" fill="#7f663a"/><path d="M292.39,193.24c3.7.62,7.55.44,11.07,2a1.1,1.1,0,0,0,0,.36c-.3.12-.94,0-.57.64.15.24.54.33.78.53,1.29,1.06,1.29,1.1-.09,2.7,2.27,1.34,4.49,2.71,6.78,4a6.17,6.17,0,0,1,3.11,3.45c.58,1.63.91,1.66,2.69,1.41s3.64-.19,5.44-.61a3.86,3.86,0,0,1,1.64.16.94.94,0,0,1,.68.9.7.7,0,0,1-.7.79,13.28,13.28,0,0,1-2.81.53c-2.8-.22-5.54.48-8.3.61a74.24,74.24,0,0,1-7.59-.33c-.47,0-1-.34-1.4-.25-2.8.63-4.21-1.34-5.81-3a1.63,1.63,0,0,1-.58-1.72c.88-2.3.92-4.83,2-7.13-1.43-1.09-3.07-.75-4.6-.53-2.27.32-4.52.84-6.76,1.33a5.1,5.1,0,0,0-3,1.39,17.77,17.77,0,0,1-4.62,3.36,22,22,0,0,0-4.95,3.31,1.54,1.54,0,0,1-2,.33c-.86-.5-.77-1.31-.49-2.11a65,65,0,0,0,2-7.85c.61-2.79.38-3-2.18-4.49a14.64,14.64,0,0,0-9.14-2.13h0c.74-1,2-.86,3-1.08,0-1-1.19-1.18-1.23-2.41a25.31,25.31,0,0,0,6.13,1.89c2.1.28,3.81,1.58,5.83,2.09,4.32,1.09,8.75,1.56,13.12,2.33C290.73,193.84,291.7,194.07,292.39,193.24Z" fill="#e1e2e1"/><path d="M382.77,130.87a1.56,1.56,0,0,0-1.07.87c-.49.87-.7,2-2.06,2-1.59,0-3.17.18-4.53-1a7.37,7.37,0,0,1-2.58-5.19c0-.63,0-1.28,0-1.91-.09-.89-.28-1.76-1.35-2-.24-1.53.49-3,.39-4.49-.2-2.85-.13-5.73-.57-8.54s-.51-5.53-1.78-8.06c-.33-1.44-.65-2.88-1-4.32,1.32-.19,1.13-1.41,1.42-2.23.89-2.55,2.38-4.29,5.25-4.48a68.46,68.46,0,0,1,7.76,26,78.58,78.58,0,0,1,.43,10.29A9.7,9.7,0,0,1,382.77,130.87Z" fill="#544375"/><path d="M358.49,79.54a12.41,12.41,0,0,1-3.32-3.34,45.09,45.09,0,0,0-8.45-8.06,4.55,4.55,0,0,1-2-3.36c-.17-2.32-1.52-3.56-3.44-4.48a3.46,3.46,0,0,0-3.22-.07,4.69,4.69,0,0,1-4.56-.23,56.42,56.42,0,0,0-16.33-5.21,53.91,53.91,0,0,0-13.28-1.14,67.32,67.32,0,0,0-23.75,5.75,60.62,60.62,0,0,0-12.29,7.29c-1.08.85-2.15,2.16-3.88,1.74a66.79,66.79,0,0,1,11.57-8.69,54.57,54.57,0,0,1,19.35-7.28,38.37,38.37,0,0,1,7.85-.8c2.33.07,4.63-.25,6.94-.38,15.61-.86,29.36,4.32,42,13.07,3.47,2.4,7,4.81,9.65,8.19.19.25.35.52.52.79-2,.13-2.56.64-2.73,2.42-.07.78,0,1.58,0,2.36C359.09,78.67,359.08,79.23,358.49,79.54Z" fill="#9261bd"/><path d="M372,162.51a98.71,98.71,0,0,0,7.77-15.31H392a7.57,7.57,0,0,0,2.36-.29,2.43,2.43,0,0,1,2.88,1.11c2.48,3.2,2.5,3.13,6.45,2.35,3.34-.66,6.7-1.17,10.33-1.8a5.91,5.91,0,0,1-3.81,1.41,33.38,33.38,0,0,0-5.34,1.24,20.21,20.21,0,0,1-4.38.49,13.23,13.23,0,0,0-7.23,2.88c-.86.7-1.94,1.14-2.56,2.13-.34.53-.23.94.42,1a6.39,6.39,0,0,0,2.83-.29c2.17-.78,4.42-1.36,6.57-2.2a2,2,0,0,1,2.63.84c1.79,2.38,2,2.42,5.18,1.31a3.07,3.07,0,0,1-1.81,3c-3.46,1.43-6.62,3.48-10.1,4.9a4.13,4.13,0,0,1-3.42.15,8.07,8.07,0,0,0-5.16-.24,3.68,3.68,0,0,1-4.08-1.12c-1.17-1.27-3-1.8-4.6-2.45-.37-.14-.89,0-1.14-.29-1-.91-1.63-.52-2.42.26A4.11,4.11,0,0,1,372,162.51Zm11.39-5.44c.52.05.88-.14.92-.43.37-2.22,1.91-2.43,3.71-2.23a5,5,0,0,0,4.11-1.5,23.42,23.42,0,0,1,2.16-1.47,19.09,19.09,0,0,0,1.76-1.6,1,1,0,0,0,.31-1.28c-.23-.41-.66-.33-1.05-.4-.9-.14-1.75.61-2.56.34-2.32-.77-4.77.11-7.09-.67-1-.32-1.5.31-1.56,1.27a3,3,0,0,0,.15,1.63c1,1.61.38,3-.32,4.48C383.64,155.75,383.15,156.24,383.36,157.07Z" fill="#e1e2e1"/><path d="M179.44,206.28c-.89-.64-2-.28-2.94-.64-1.49-.56-1.55-.63-1-2.39,1.54.37,3-.24,4.47-.5,2.49-.45,4.9-1.34,7.35-2a1.72,1.72,0,0,0,1.5-1.56c.09-.75.25-1.24-.46-1.85-1-.91-.76-2.26-.38-3.36,1.33-3.75,2-7.72,3.6-11.37.16-.36.27-.75.44-1.11.27-.61.63-1.2,1.41-1s.56.87.57,1.4c.07,1.94-.59,3.76-.94,5.63-.51,2.73-.55,5.53-1.46,8.19-.23.08-.27.16-.1.2,0,0,.07-.13.11-.2a4.61,4.61,0,0,1,2.93.67c4.16,3.1,9,4.93,13.48,7.52a7.45,7.45,0,0,1,2.45,1.85c1.38,1.86,1,3.23-1.11,4.23a9.38,9.38,0,0,1-5.81-.21c-2.44-1-4.89-1.84-7.32-2.82a20.15,20.15,0,0,0-11.6-.77Z" fill="#f8f9f8"/><path d="M358.49,79.54c.59-.31.6-.87.6-1.43,0-.78,0-1.58,0-2.36.17-1.78.77-2.29,2.73-2.42l.08.07.38.39a4.94,4.94,0,0,0,1.58,1.9.67.67,0,0,0,.56.43,60.88,60.88,0,0,1,10.44,15.41c-2.87.19-4.36,1.93-5.25,4.48-.29.82-.1,2-1.42,2.23a88.22,88.22,0,0,0-6.58-13.68C360.61,82.87,359.13,81.46,358.49,79.54Z" fill="#694c8e"/><path d="M184.59,206.15a20.15,20.15,0,0,1,11.6.77c2.43,1,4.88,1.87,7.32,2.82a9.38,9.38,0,0,0,5.81.21,87.9,87.9,0,0,0,5.93,10.7,1.67,1.67,0,0,1,.33,1.1l-26.82-13.83A22.91,22.91,0,0,0,184.59,206.15Z" fill="#e4a73f"/><path d="M416.3,151a40.43,40.43,0,0,0,6.74,6.67c1.11.81,1,1.33-.18,2s-1.22,1.42-.47,2.51,1.6,2.13,2.35,3.11c-.19.41-.43.53-.64.43-2.11-.94-4.2-1.92-6.3-2.86a2.4,2.4,0,0,1-1.69-2.08,20.15,20.15,0,0,0-.83-2.72,5.15,5.15,0,0,0-2.65-3.21c-.57-.35-1-.46-1.47,0-.92,1-2.26,1.08-3.41,1.59a1.77,1.77,0,0,1-2.14-.43c-1.72-1.56-1.67-1.84.55-2.71.74-.29,1.48-.6,2.2-.91a3.7,3.7,0,0,1,3.66.08,2.11,2.11,0,0,0,.43.2C414.33,153.37,415.27,153,416.3,151Z" fill="#e1e2e1"/><path d="M303.49,195.64a1.1,1.1,0,0,1,0-.36c1.51,0,3,.18,4.51.26a125.51,125.51,0,0,0,17.12-.59c2.05-.17,4.09-.48,6.14-.72a2.17,2.17,0,0,1,2,1.75c-2.72,1.23-5.68,1.52-8.56,2a85.94,85.94,0,0,1-16.19,1c-1.22,0-2.12-.2-2.68-1.46A3.12,3.12,0,0,0,303.49,195.64Z" fill="#af70de"/><path d="M489.65,168.8c-1.69-1.3-2.29-3.36-3.45-5-.8-1.17-1.42-2.47-2.12-3.71a2.76,2.76,0,0,0-3.52-1.58c-1.16.25-2.31.6-3.39-.23,2-1,4.28-.86,6.39-1.41a1.64,1.64,0,0,1,1.7.63,7.51,7.51,0,0,1,1.65,2.29C487.76,162.79,489.14,165.67,489.65,168.8Z" fill="#e1e2e1"/><path d="M333.21,196a2.17,2.17,0,0,0-2-1.75c2.56-.86,5.23-1.31,7.76-2.28a41.55,41.55,0,0,0,4-1.63c.39,1-.25,1.45-.94,1.88A26.66,26.66,0,0,1,333.21,196Z" fill="#9261bd"/><path d="M226.1,59.33c0-.13,0-.26,0-.39a.36.36,0,0,0,0-.54l0,0a.57.57,0,0,0,.65,0c4.1-3,8.7-5.19,13.18-7.55,1.75-.93,3.46-1.93,5.11-3,.66-.43,1.31-1,2.18-.5-1.18,1.46-3,1.89-4.5,2.87-1.23.8-2.75,1.15-3.66,2.43h0a.91.91,0,0,0-1,.49h0a4,4,0,0,0-2.23.65,55.4,55.4,0,0,0-7.64,4.71c-.65.47-1.21,1-2.09.93Z" fill="#7f663a"/><path d="M9.37,208.81c.43-.46.84-.36,1.21.06a12.46,12.46,0,0,1,2,2.95,1.82,1.82,0,0,1-2.37-1.32A17.47,17.47,0,0,0,9.37,208.81Z" fill="#7f663a"/><path d="M189.6,13.2a11.67,11.67,0,0,1-3.86,5.34c-.16-.17-.3-.34-.13-.58L189,13.24C189.2,13,189.4,13.06,189.6,13.2Z" fill="#6d5834"/><path d="M195.86,4.6c-.24,1.14-.67,2.12-1.94,2.42A4,4,0,0,1,195.86,4.6Z" fill="#6d5834"/><path d="M193.94,7a2.65,2.65,0,0,1-1.48,2.43C192.27,8.2,193.11,7.6,193.94,7Z" fill="#6d5834"/><path d="M191,11.28a2,2,0,0,1-1.46,2A1.55,1.55,0,0,1,191,11.28Z" fill="#6d5834"/><path d="M192.51,9.38c-.32.79-.55,1.65-1.49,2C191.05,10.09,191.37,9.66,192.51,9.38Z" fill="#6d5834"/><path d="M219.15,224.56c.12.06.42.11.47.26.14.35-.13.57-.46.55a.69.69,0,0,1-.48-.35C218.58,224.76,218.81,224.63,219.15,224.56Z" fill="#e1e2e1"/><path d="M196.4,3.7c.26.06.69,0,.55.44s-.67.52-1.14.46C195.8,4.16,196.1,3.93,196.4,3.7Z" fill="#6d5834"/><path d="M415,150.05c.09-.08.18-.23.28-.23a.28.28,0,0,1,.27.42.38.38,0,0,1-.35.13C415.05,150.34,415,150.16,415,150.05Z" fill="#e1e2e1"/><path d="M262.13,191.36c-.35.57-.91.48-1.44.49h0c.34-.57.91-.46,1.44-.48Z" fill="#e1e2e1"/><path d="M263.09,190.89a.94.94,0,0,1-1,.47h0a1,1,0,0,1,.95-.48Z" fill="#e1e2e1"/><path d="M260.69,191.85a1,1,0,0,1-1,.48h0a1,1,0,0,1,1-.48Z" fill="#e1e2e1"/><path d="M394.61,174.08l-.48.49h0l.48-.48Z" fill="#e1e2e1"/><path d="M394.13,174.57l-.48.47h0l.48-.48Z" fill="#e1e2e1"/><path d="M393.16,175.52l.48-.48h0l-.48.48Z" fill="#e1e2e1"/><path d="M364.44,76.12a.67.67,0,0,1-.56-.43C364.22,75.64,364.36,75.83,364.44,76.12Z" fill="#9261bd"/><path d="M393.17,175.52l-.21.2s0-.1,0-.12.11,0,.16-.08Z" fill="#e1e2e1"/><path d="M394.6,174.08l.49-.48h0l-.47.48Z" fill="#e1e2e1"/><path d="M395.09,173.6c0-.07.08-.2.1-.19.17,0,.13.11-.11.19Z" fill="#e1e2e1"/><path d="M342.86,186.58a.35.35,0,0,1,.24-.47A.37.37,0,0,1,342.86,186.58Z" fill="#9261bd"/><path d="M362.3,73.79l-.38-.39A.35.35,0,0,1,362.3,73.79Z" fill="#9261bd"/><path d="M130.25,54.4A131.07,131.07,0,0,0,131,70.87c.24,1.92-.36,2.28-2.24,3-3.24,1.18-6.62.85-9.92,1.2-5.64.59-11.32.76-17,1.18-7.25.53-14.49,1.15-21.74,1.71-4.78.37-9.56.74-14.34,1.06-6.78.45-13.54,1.13-20.29,1.82-2.7.27-5.42.37-8.13.54L15.81,82.76c-2.41.16-3.05-.47-3.3-3-.74-7.64-1-15.3-1.45-23-.08-1.36-.28-2.71-.34-4.06a2.74,2.74,0,0,1,2.79-3.15C23,48.75,32.44,47.84,41.91,47c6.77-.6,13.55-1,20.31-1.64,10.5-1,21-1.63,31.53-2.69,9.06-.92,18.14-1.67,27.24-2.11,2.07-.1,4.14-.32,6.22-.41s2.46.21,2.44,2.24C129.63,46.64,130.6,50.83,130.25,54.4Z" fill="#333240"/><path d="M173.47,197.19c-.38-4.36-.62-8.73-1.18-13.06-.47-3.7-.83-7.41-1.22-11.11s-.86-7.58-1.15-11.38c-.32-4-.89-8-1.32-12.07-.22-2.13-.36-4.27-.58-6.41-.47-4.66-1-9.31-1.47-14-.05-.49-.42-.62-.85-.65-.49-5.14-1.15-10.27-1.41-15.42-.15-2.71-.39-5.41-.66-8.09a79.75,79.75,0,0,0-.77-8.3,49.78,49.78,0,0,1-.43-5.47c-.23-2.44-.52-4.9-.7-7.36a82.7,82.7,0,0,0-.79-8.29,34.71,34.71,0,0,1-.49-5c-.13-4.15-.67-8.25-1.13-12.35-.54-4.8-.85-9.65-1.77-14.41a17.33,17.33,0,0,1-.08-1.91c-.06-.81,1.34.7,1-.66a9.08,9.08,0,0,1,0-2.15V37.24c0-.72,0-1.44,0-2.16a7.32,7.32,0,0,1,2.25-5.59c2.75-2.67,5.43-5.42,8.14-8.14a3.19,3.19,0,0,1,1.41-1.05,3.93,3.93,0,0,1,.18,1.87c0,3-.12,6.08,0,9.11.25,4.36.22,8.75.88,13.08a6.17,6.17,0,0,1,0,1c0,5.9.81,11.74,1.06,17.63.18,4.28.63,8.56.94,12.84s.66,8.71,1,13.07c.28,4.12.62,8.24.95,12.36s.65,8.4,1,12.6c.3,4,.5,7.94,1,11.87.54,4.58.77,9.18,1.23,13.76.29,2.83.46,5.71.7,8.56.26,3.08.11,6.2.78,9.25a2.45,2.45,0,0,1,.07.71c-.28,3.29.42,6.52.57,9.78.24,5.31.82,10.6,1.29,15.9a2.64,2.64,0,0,1-.44,1.79c-2.29,3.64-4.55,7.31-6.82,11A1.73,1.73,0,0,1,173.47,197.19Z" fill="#ba8f45"/><path d="M119.35,176.13c-.8-2.58-2.61-2.49-4.56-2.13a6.74,6.74,0,0,1-1.68,0c-.87-.08-2-.06-2-1.19s1.09-1.24,1.89-1.48a11.11,11.11,0,0,1,2.35-.46c5.79-.54,11.54-1.5,17.37-1.58,3.14-.05,3.84.43,4.36,3.48.79,4.7,1.45,9.43,2.1,14.16a15.39,15.39,0,0,1,0,3.11c-.12,1.95-.73,2.61-2.63,2.67-2.32.06-4.61.25-6.92.45-3.1.26-6.14.94-9.23,1.24a38.15,38.15,0,0,1-4.53.3c-1.58,0-2-.46-2.58-2a14.34,14.34,0,0,1-.56-3.77c-.5-4.35-.86-8.72-1.27-13.08a7.77,7.77,0,0,1,.13-1.23,8.4,8.4,0,0,1,1.65,4.61c.23,1.37.81,1.71,2,1.65,2-.09,4,.09,6-.17s2.52-.54,1.89-2.57c-.3-1-.18-2-.53-3.06-.26-.76-.23-1.57-1.39-1.55s-1.25.72-1.25,1.59a2.22,2.22,0,0,1-.21.63Zm-4.52,16.49c1.32-.94,2.45-.62,3.54-.75,1.73-.21,3.46-.5,5.19-.77,1.08-.16,1.52-.73,1.18-1.83a16.54,16.54,0,0,1-.87-4.93,1,1,0,0,0-1.16-1.19c-2.64,0-5.28,0-7.92,0-.55,0-.87.28-.78.91A49.83,49.83,0,0,1,114.83,192.62Zm14.08-6.36a2.87,2.87,0,0,1-.69-2.24c.09-1.11-.48-1.38-1.45-1.29s-1.1.86-.94,1.57c.37,1.54.85,3.06,1.3,4.59.51,1.71.51,1.71,2.37,1.06-.05-.88-1.44-1.61-.44-2.63.38,0,.58.21.6.43.27,2.22,1.71,2.53,3.56,2.24a6.75,6.75,0,0,1,1.19,0c1,0,1.53-.22,1.16-1.41a17.34,17.34,0,0,1-.57-3c-.35-2.83-.33-2.85-3.16-2.85-.62,0-1.27-.21-1.89.25C130.3,184.2,129.69,185.19,128.91,186.26Zm2.93-11c.11,1.69-.33,2.33-1.93,3-.94.38-1.54.09-1.6-1a10.26,10.26,0,0,0-.65-2.78,2.37,2.37,0,0,0-3.27-1.3.72.72,0,0,0-.39,1,20.16,20.16,0,0,1,1.34,5.29.88.88,0,0,0,1.24.76c1.63-.54,3.33-.23,5-.49,2.67-.41,2.67-.43,2.48-3.12,0-.47,0-1,0-1.43,0-3.07,0-3.07-3.07-2.64-1.78.26-1.81.26-1.79,2,0,.58-.29,1.29.45,1.71C130.32,176,130.78,175.17,131.84,175.25Z" fill="#7f663a"/><path d="M59.1,175.91c.2,10.5-8.9,19.38-19.35,19.33-10-.05-18.67-8.76-18.59-19.51s8.69-19.43,19.1-19.35A19.18,19.18,0,0,1,59.1,175.91Zm-36-.2c-.44,9.53,7.57,17.07,16.68,17,9.79,0,16.45-8.46,16.54-17.08a16.76,16.76,0,0,0-16.17-17C31.2,158.51,22.81,166.32,23.05,175.71Z" fill="#7f663a"/><path d="M163.62,190c.34-1.52-.21-3.06,1-4.41a6.94,6.94,0,0,1,.88,3.64c.15,2.63.17,5.27.12,7.9,0,2.08-1.19,3.17-3.29,3.35a3.85,3.85,0,0,1-.48,0c-4.18-.32-8.25.46-12.33,1.15a5.81,5.81,0,0,1-2.57-.22,1.86,1.86,0,0,1-1.57-2.08c.07-1.09.78-1.5,1.69-1.71,2.8-.64,5.57-1.37,8.39-1.84,1.87-.31,3.36-1.45,5.13-1.93.66-.18.72-.77.72-1.35a7,7,0,0,1,.31-2.36C162.15,188.79,162.27,188.76,163.62,190Z" fill="#7f663a"/><path d="M32.68,203.24a12.46,12.46,0,0,1-2.51.52A22.82,22.82,0,0,0,23,205.37a23.3,23.3,0,0,1-2.28.74,3.24,3.24,0,0,1-4.16-2.21c-.21-.52-.27-1.07-.83-1.39-3.72-2.1-3.84-5.62-3.46-9.22A9.23,9.23,0,0,1,13.49,189c.38-.57.78-1,1.53-.94s.88.83.85,1.47c-.15,3.13.7,6.19.55,9.32a3.43,3.43,0,0,0,1.93,3.64c1.45.8,2.58,2.07,4.45,1.9a8.57,8.57,0,0,0,2.31-.62A13.63,13.63,0,0,1,32.68,203.24Z" fill="#7f663a"/><path d="M115.6,176.06c2,.15,2.79,1.16,2.32,2.93-.09.34-.22.59-.55.68a.51.51,0,0,1-.68-.46c-.12-1.05-1.18-1.21-1.7-1.87a.84.84,0,0,1-.12-.89A.64.64,0,0,1,115.6,176.06Z" fill="#ba8f45"/><path d="M120.81,177c-.09.1-.17.27-.27.28-.28,0-.4-.18-.32-.42a.42.42,0,0,1,.36-.17C120.67,176.67,120.74,176.85,120.81,177Z" fill="#7f663a"/><path d="M157.45,39.44l-.2.37c-.06-.12-.19-.24-.19-.36s.11-.25.18-.37Z" fill="#ba8f45"/><path d="M435.05,196.38c.65-2.62.65-2.52,2.94-2.64,3.75-.2,7.46.41,11.19.5a3.59,3.59,0,0,0,2.68-.73,3.63,3.63,0,0,1,2.48-.72,5.34,5.34,0,0,0,2.28-.15c-.29-1.24-1.46-.44-2-1,2.61-.4,13.09,1.43,15.68,2.79-1.29.64-2.59.35-3.78.55-3.36.55-6.77.78-10.14,1.25-2.67.37-5.36.45-8,.79-2.36.3-4.7.72-7.05,1C439.18,198.24,437.16,197.16,435.05,196.38Z" fill="#f8f9f8"/><path d="M418.6,214.41a16,16,0,0,1,9-4.3,39.4,39.4,0,0,1,7.36-.53c2.91,0,5.59,1,8.39,1.59a3.77,3.77,0,0,1-.1.85,10.52,10.52,0,0,1-1.45,3c-.9,1-2.07-.21-3.18-.15-6.37.37-12.72-.73-19.1-.47-.31,0-.63,0-.95,0Z" fill="#f8f9f8"/><path d="M420.53,192.8c2-.16,3.86-.87,5.86-1a3.72,3.72,0,0,1,3.86,2.18c1.52,2.74,1.61,2.8-1.23,4.13-2.26,1-3.72,2.91-5.27,4.7-.25.29-.38.72-1.13.79-.12-3.71-1.81-7.1-2.1-10.8Z" fill="#f8f9f8"/><path d="M429.14,186.48c.06,1.36-.16,2.08-1.13,2-2.79-.33-5.3.82-7.92,1.4a3.74,3.74,0,0,1-.95.07c-.73,0-1-.34-.7-1.07a24.85,24.85,0,0,1,3.21-5,35.67,35.67,0,0,1,2.86-2.91c.44-.44.92-.67,1.45-.15A13.32,13.32,0,0,1,429.14,186.48Z" fill="#f8f9f8"/><path d="M514.08,195.2a11.32,11.32,0,0,1-5.28,1.89c-4.74,0-9.27,1.25-13.79,2.48-.9.24-1.77.76-3,0,1.23-1.47,2.41-2.91,3.62-4.32a1.83,1.83,0,0,1,1.54-.51,29.75,29.75,0,0,1,5.26.07c3.1.59,6.2.28,9.3.39C512.53,195.22,513.31,195.2,514.08,195.2Z" fill="#f8f9f8"/><path d="M396.42,204.27a87.28,87.28,0,0,1-10.53,3.82,25.24,25.24,0,0,0-6.65,3.16,2.57,2.57,0,0,1-3.29,0c-.71-.51-1.49-.91-2.24-1.36a.84.84,0,0,1-.49-.76c0-.37.37-.44.7-.5,7-1.25,13.83-3.46,20.87-4.67A1.64,1.64,0,0,1,396.42,204.27Z" fill="#f8f9f8"/><path d="M354.28,194c-.4,2.94-.67,5.61-1.17,8.24a32.23,32.23,0,0,1-.71,4.47c-.53,1.52-.67,1.61-2.11.7-.2-.13-.43-.22-.62-.36-2-1.46-2.08-2.25-.25-3.88a4.53,4.53,0,0,0,1.21-2,41.54,41.54,0,0,1,2.58-6.16A1.65,1.65,0,0,1,354.28,194Z" fill="#f8f9f8"/><path d="M432.94,176.87l-1.15,5.84a7,7,0,0,1-2.78-2.45,2.07,2.07,0,0,1,1-3,1.5,1.5,0,0,1,.66-.25C431.4,177.08,432,176.47,432.94,176.87Z" fill="#f8f9f8"/><path d="M492,193.31c0,1.21-.71,2.24-1.45,2.21s-1.49-1.39-1.39-2.28c.15-1.21,1.25-1.16,2-1.26C492.18,191.85,492,192.77,492,193.31Z" fill="#f8f9f8"/><path d="M414,167.62c-.07,0-.13.1-.2.09s-.11-.08-.17-.12C413.76,167.44,413.88,167.45,414,167.62Z" fill="#fff"/><path d="M420.52,192.81c-.07,0-.2-.09-.2-.12s.12-.13.21.11Z" fill="#f8f9f8"/><path d="M260.69,191.84a1,1,0,0,0-1,.48c-1.25-.2-2.18.91-3.37.93-.67-.87.13-1.4.32-2a1.24,1.24,0,0,0-.35-1.5,1.11,1.11,0,0,0-1.53.12A11.8,11.8,0,0,0,252.9,192a67.48,67.48,0,0,0-4.12,7.31c-2-.63-3.13-2.35-4.78-3.25a13.1,13.1,0,0,0-2.93-1.57c-1.55-.4-2-.25-2.66,1.14a9,9,0,0,0-.38,1.14,22.81,22.81,0,0,1-2.64,5.85,7.62,7.62,0,0,0-1.7,3.64,1.43,1.43,0,0,1-1.28,1.25c-.65.07-1-.49-1.29-.94-2.3-3.27-4-6.87-6.07-10.29a1,1,0,0,1,.28-1.44,27,27,0,0,1,5.7-3.47c1.05-.4,1.79-.35,2.34.74a10.68,10.68,0,0,0,2.44,2.92c.41.38.92.9,1.44.45s-.1-1-.44-1.33a24.36,24.36,0,0,1-3-3.42c-.51-.82-.41-1.3.38-1.73a13,13,0,0,0,1.47-.8c1.13-.8,1.82-1.8,1.3-3.27a2.54,2.54,0,0,1-.76-2.17c.28-1.26-.42-1.67-1.4-2.07-2.42-1-4.81-2.09-7.22-3.11-1-.41-1.61-1-1.48-2.14-.09-.23-.25-.29-.46-.15a9.41,9.41,0,0,0,2.81,8.67c.63.64,1.22.95,2.08.39,1.63-1.08,3.18-.55,4.68.35-.11.11-.21.27-.34.32-5.24,1.86-9.21,5.78-14.09,8.58-1-.87-1.38-2.28-2.29-3.34s-1.94-1.78-2.15-3.32c-.16-1.12-1.07-1.34-2.21-.87a5.46,5.46,0,0,0-.64.32c-.86.45-1.9,1.09-2.68.47s0-1.76.19-2.61a3.59,3.59,0,0,0-.27-3c-.7-1.07-.27-1.93.29-2.86,1.1-1.84,2.19-3.69,3.21-5.58a9.56,9.56,0,0,0,1.06-5c0-1.53-.17-3.31.71-4.81a4.9,4.9,0,0,1,2.17,1.72c1.66,2.22,3.46,4.33,5.21,6.49l1.75,2.53A161.39,161.39,0,0,1,245.27,169a64.2,64.2,0,0,1,9.5-.57,58.93,58.93,0,0,0,18.24,16,15.52,15.52,0,0,0,3.7,1.64c1.24.31,2.06,1.1,1.87,2.39-.22,1.5.7,1.7,1.75,1.94q5.48,1.24,10.95,2.53a9.21,9.21,0,0,1,1.11.4c-.69.83-1.66.6-2.46.46-4.37-.77-8.8-1.24-13.12-2.33-2-.51-3.73-1.81-5.83-2.09a25.31,25.31,0,0,1-6.13-1.89c0,1.23,1.2,1.41,1.23,2.41-1,.22-2.26,0-3,1.08a1,1,0,0,0-.95.48C261.6,191.38,261,191.27,260.69,191.84Zm-19.07-5a10.12,10.12,0,0,0,2.55,1.76c3.13,1.88,3.14,1.88,5.2-1.17.06-.09,0-.28-.06-.59Z" fill="#f8f9f8"/><path d="M217.5,69c.58-.91,1.11-1.88,2.39-1.93-.13,1.2-1.07,1.78-1.88,2.44Z" fill="#7f663a"/><path d="M369.19,102.56c1.27,2.53,1.36,5.35,1.78,8.06s.37,5.69.57,8.54c.1,1.53-.63,3-.39,4.49-.5,2.73-.87,5.48-1.52,8.17a55.55,55.55,0,0,1-7.92,18.8,61.51,61.51,0,0,1-19.33,18.15,63.29,63.29,0,0,1-23.52,8.11A34.82,34.82,0,0,1,315,177c-.69,0-1.45-.2-2,.44a69.05,69.05,0,0,1-28.85-6,7.21,7.21,0,0,0-.91-.25c-1.83-1.43-4-2.23-6-3.42a64.79,64.79,0,0,1-20.49-19.29,30.28,30.28,0,0,0-9.15-9.09c-1.9-1.18-3.75-2.06-6-1.83-1.52-7.25-1.46-14.61-1-21.91a66,66,0,0,1,5.5-22.38,5.55,5.55,0,0,1,.53-.77c.72-.07,1.14.43,1.66.81a4.46,4.46,0,0,0,4,.9c.45-.13.93-.43,1.32,0s0,1-.17,1.53a69.08,69.08,0,0,0-4.48,12.3,27.56,27.56,0,0,0-.85,6.59c.06,3.19-.15,6.39.05,9.56.36,5.72,1.13,11.37,3.93,16.53a4.05,4.05,0,0,0,2.76,2.39,4.44,4.44,0,0,1,3.43,2.64,1.43,1.43,0,0,0,2.36.59c1.18-.79,2.29-1.68,3.43-2.53a7.88,7.88,0,0,1,2.59.33,131.62,131.62,0,0,0,15.56,3.78,91.62,91.62,0,0,0,15.66,1.7,32.44,32.44,0,0,1,4.07.11,67,67,0,0,0,14.84.16c5-.49,10-.92,14.94-1.68,8.24-1.26,16.29-3,23.55-7.39a4.12,4.12,0,0,1,1.33-.53,44.93,44.93,0,0,0,5.21-1.76,4.47,4.47,0,0,0,2.76-2.47,22.29,22.29,0,0,0,2-8.56,76.61,76.61,0,0,0-1.62-19.74,17.31,17.31,0,0,1-.75-4.22C366,103.47,367.5,102.57,369.19,102.56Zm-65.88,63.3c2.76-.12,5.56.39,8.31-.42a44.86,44.86,0,0,1,12.18-1.95,5.72,5.72,0,0,0,3.62-1.66,4.71,4.71,0,0,0,1.42-5.8,6.5,6.5,0,0,0-8.27-3.21,7.6,7.6,0,0,1-3.24.64,6.74,6.74,0,0,0-2.34.37,23.18,23.18,0,0,1-7,1.07c-2.63,0-5.27-.07-7.9,0a16.81,16.81,0,0,1-6.56-1,7.53,7.53,0,0,0-3.28-.44c-2.34.17-4.87,2.26-5,4.12a6.92,6.92,0,0,0,4.27,6.36C294,165.32,298.51,166.51,303.31,165.86Z" fill="#9261bd"/><path d="M241.61,137.56c2.26-.23,4.11.65,6,1.83a30.28,30.28,0,0,1,9.15,9.09,64.79,64.79,0,0,0,20.49,19.29c2,1.19,4.16,2,6,3.42-.23,1.37-1.27,1.07-2.05.84a41.39,41.39,0,0,1-6.32-2.19c-4.92-2.41-10.06-4.45-14.33-8.06-2.09-1.76-5.58-.75-6.81,1.72a5.42,5.42,0,0,0-.76,2,13.46,13.46,0,0,1-2.76-3.85A68.55,68.55,0,0,1,241.61,137.56Z" fill="#694c8e"/><path d="M222.19,64.07c.85-2,1.6-4,3.91-4.74l.07.08c.16.58-.75,1.1,0,1.81,3.09-2.23,6.28-4.31,9.52-6.33.85-.54,2-.69,2.46-1.77h0a.91.91,0,0,0,1-.49h0a17.85,17.85,0,0,0,5.2-1.56c.6-.29,1.25-.68,1.73-.09.62.76-.14,1.28-.61,1.8-1.54,1.7-3.48,3-4.89,4.84-4.11,5.47-9,10.31-13.52,15.41a53.24,53.24,0,0,0-5.82,7.23,1.05,1.05,0,0,1-1.18.6c-.47-.12-.52-.53-.6-.93a40.92,40.92,0,0,1-.92-4.17c-.3-2.66-.1-5.24,1.89-7.36a2.61,2.61,0,0,0,1-1.86h0a.93.93,0,0,0,.49-1l0,0c1-.06,1-.75,1-1.45.22-.07.26-.13.12-.17s-.07.12-.11.18l-.42.07Z" fill="#7f663a"/><path d="M219.89,67c0-1.26,1.08-1.76,1.84-2.48l.16.15-.1.9,0,0a1,1,0,0,0-.49,1h0C220.77,66.49,220.38,66.91,219.89,67Z" fill="#7f663a"/><path d="M226.16,58.4a.36.36,0,0,1,0,.54c-.18-.07-.38-.16-.29-.4C225.86,58.47,226,58.44,226.16,58.4Z" fill="#fff"/><path d="M221.73,64.56l.47-.49.15.17c-.16.15-.31.31-.46.47Z" fill="#7f663a"/><path d="M364.33,103.55a17.31,17.31,0,0,0,.75,4.22,76.61,76.61,0,0,1,1.62,19.74,22.29,22.29,0,0,1-2,8.56,4.47,4.47,0,0,1-2.76,2.47,44.93,44.93,0,0,1-5.21,1.76,4.12,4.12,0,0,0-1.33.53c-7.26,4.35-15.31,6.13-23.55,7.39-5,.76-10,1.19-14.94,1.68a67,67,0,0,1-14.84-.16,32.44,32.44,0,0,0-4.07-.11,91.62,91.62,0,0,1-15.66-1.7,131.62,131.62,0,0,1-15.56-3.78,7.88,7.88,0,0,0-2.59-.33c-.53-.63-1.35-.36-2-.64a8.69,8.69,0,0,1-4.47-4.44A41.82,41.82,0,0,1,254,126.15a64.91,64.91,0,0,1,1-23.33A61.27,61.27,0,0,1,265.6,79.71,12.3,12.3,0,0,1,272,75.32a120.18,120.18,0,0,1,20.23-4.78,43.54,43.54,0,0,1,6.45-.47c8.72,0,17.45-.56,26.14,0,6.11.41,12.27.76,18.26,2.24A53.41,53.41,0,0,1,348.52,74a10.94,10.94,0,0,1,4.84,4.17c4.31,5.87,6.82,12.6,9.06,19.45C363.06,99.62,363.69,101.58,364.33,103.55ZM301.91,145a180,180,0,0,0,38.52-3.55,58.55,58.55,0,0,0,15.4-5.15c2.72-1.44,4.88-3.3,4.91-6.73,0-1,.19-2.07.22-3.11.21-6.43-.8-12.74-1.89-19A97,97,0,0,0,350.75,81,8.51,8.51,0,0,0,346,76.53c-.89-.35-1.79-.69-2.7-1-7.73-2.28-15.7-2.89-23.68-3.26a163.16,163.16,0,0,0-26.33.88,132.59,132.59,0,0,0-19.78,3.61,7.89,7.89,0,0,0-4.28,2.83,46.61,46.61,0,0,0-8.52,17,70.65,70.65,0,0,0-2.39,24.46,39.53,39.53,0,0,0,4.52,16,4.8,4.8,0,0,0,2.32,2.3,58.17,58.17,0,0,0,15.39,4.4A146.8,146.8,0,0,0,301.91,145Z" fill="#544375"/><path d="M198,178.05a56.05,56.05,0,0,1,8.7,4.53,3.37,3.37,0,0,1,1.71,2.87c.36,3.22-1.52,4.93-3.89,6.37a16.07,16.07,0,0,1-2.41,1,4.41,4.41,0,0,0-2.82,2.42c-.37,1-.86.93-1.63.49-1.76-1-1.94-1.63-1.65-3.73.45-3.21,1.13-6.4,1.33-9.66C197.44,181,197.77,179.59,198,178.05Z" fill="#f8f9f8"/><path d="M215.27,206.37c-2-2.07-3.63-3.84-5.36-5.5-1.46-1.4-1.34-3.06-.73-4.62a7.72,7.72,0,0,0,.64-2.72c0-1.54,2.05-3.7,3.58-3.93a1,1,0,0,1,1,.48c1.78,2.54,3.32,5.09,2.73,8.48A56.44,56.44,0,0,1,215.27,206.37Z" fill="#f8f9f8"/><path d="M235.23,184.7c-1.5-.9-3-1.43-4.68-.35-.86.56-1.45.25-2.08-.39a9.44,9.44,0,0,1-2.82-8.67l.47.15c-.13,1.14.5,1.73,1.48,2.14,2.41,1,4.8,2.11,7.22,3.11,1,.4,1.68.81,1.4,2.07a2.54,2.54,0,0,0,.76,2.17C236.36,185.16,235.83,184.67,235.23,184.7Z" fill="#e4a73f"/><path d="M208.36,201.93c-1.1-.09-1.83-.93-2.72-1.42-2-1.11-3.9-2.39-6.25-3.85,3-1.15,5.22-2.74,7.87-3.56,1.32-.4,1.76,0,1.54,1.39a2.23,2.23,0,0,1-.2.68,7.62,7.62,0,0,0-.27,6,2.85,2.85,0,0,1,0,.72Z" fill="#f8f9f8"/><path d="M208.37,201.92l.2.2-.21-.19Z" fill="#f8f9f8"/><path d="M404.2,201.44c.38-1.08.37-1.8-1-2.24-3.34-1.06-6.81-1.57-10.19-2.49-1.28-.35-2.71-.61-3-2s1.09-2,2.08-2.59a18.08,18.08,0,0,0,3-2.23h-6c-1.12,0-2.24,0-3.36,0-.38,0-.89,0-.94-.49a.8.8,0,0,1,.92-.86c1.62.11,3.13-.5,4.73-.57,4.72-.23,9.38.67,14.1.58a30.61,30.61,0,0,1,5.86,1,3.2,3.2,0,0,1,.88.36c.7.34,1.3.81.91,1.67s-1,.41-1.74.16a14.87,14.87,0,0,0-8.6-.84,31.76,31.76,0,0,0-6,2.29c-.48.23-1.15.44-1,1.15s.81.78,1.34.82c1,.08,2,.34,3.06.49a9.51,9.51,0,0,1,5.45,2.73,5.17,5.17,0,0,0,2.43,1.45c-1.16.69-1.83,1.51-2.92,1.65Z" fill="#e1e2e1"/><path d="M383.08,191.36a3.09,3.09,0,0,1-1.43,2.89h0a3.07,3.07,0,0,1,1.45-2.88Z" fill="#e1e2e1"/><path d="M408.53,199c-.11.22-.44.46-.49.35-.23-.56.31-.23.48-.35Z" fill="#e1e2e1"/><path d="M383.09,191.36c0-.06.09-.19.11-.19s.12.12-.12.19Z" fill="#e1e2e1"/><path d="M410,197.6l.2-.2s0,.1,0,.13a.77.77,0,0,1-.16.07Z" fill="#e1e2e1"/><path d="M409.48,198.08l.48-.48h0l-.48.49Z" fill="#e1e2e1"/><path d="M409.49,198.09l-.48.47h0l.48-.48Z" fill="#e1e2e1"/><path d="M408.52,199l.48-.48h0l-.48.48Z" fill="#e1e2e1"/><path d="M460.49,178.63c-.12.07-.24.19-.36.2s-.25-.12-.37-.18c.12-.07.24-.19.36-.2S460.36,178.57,460.49,178.63Z" fill="#e1e2e1"/><path d="M451.91,168.93a.54.54,0,0,1-.05-.21s.15-.06.16-.05C452.15,168.86,452.11,168.94,451.91,168.93Z" fill="#e1e2e1"/><path d="M449.33,172.16a1,1,0,0,1,.48-1h0A1,1,0,0,1,449.33,172.16Z" fill="#e1e2e1"/><path d="M451.73,177.44l-.2.2s0-.1,0-.12a.6.6,0,0,1,.16-.08Z" fill="#e1e2e1"/><path d="M449.81,171.2l.48-.48h0l-.48.48Z" fill="#e1e2e1"/><path d="M450.76,170.24l-.48.48h0l.48-.48Z" fill="#e1e2e1"/><path d="M450.77,170.24c0-.07.08-.2.1-.19.17,0,.13.11-.11.19Z" fill="#e1e2e1"/><path d="M383.36,157.07c-.21-.83.28-1.32.54-1.86.7-1.46,1.34-2.87.32-4.48a3,3,0,0,1-.15-1.63c.06-1,.6-1.59,1.56-1.27,2.32.78,4.77-.1,7.09.67.81.27,1.66-.48,2.56-.34.39.07.82,0,1.05.4a1,1,0,0,1-.31,1.28,19.09,19.09,0,0,1-1.76,1.6,23.42,23.42,0,0,0-2.16,1.47,5,5,0,0,1-4.11,1.5c-1.8-.2-3.34,0-3.71,2.23C384.24,156.93,383.88,157.12,383.36,157.07Z" fill="#f8f9f8"/><path d="M191.57,195.68c0,.07-.09.21-.11.2-.17,0-.13-.12.1-.2Z" fill="#e1e2e1"/><path d="M238.13,53.12c-.46,1.08-1.61,1.23-2.46,1.77-3.24,2-6.43,4.1-9.52,6.33-.73-.71.18-1.23,0-1.81.88.09,1.44-.46,2.09-.93a55.4,55.4,0,0,1,7.64-4.71A4,4,0,0,1,238.13,53.12Z" fill="#ba8f45"/><path d="M239.09,52.64a.91.91,0,0,1-1,.49A.91.91,0,0,1,239.09,52.64Z" fill="#ba8f45"/><path d="M114.83,192.62a49.83,49.83,0,0,0-.82-8.55c-.09-.63.23-.91.78-.91,2.64,0,5.28,0,7.92,0a1,1,0,0,1,1.16,1.19,16.54,16.54,0,0,0,.87,4.93c.34,1.1-.1,1.67-1.18,1.83-1.73.27-3.46.56-5.19.77C117.28,192,116.15,191.68,114.83,192.62Zm1.85-5.48a2.4,2.4,0,0,0,2.5,2.26,2.91,2.91,0,0,0,2.58-2.36,2.52,2.52,0,0,0-2.5-2.34A2.37,2.37,0,0,0,116.68,187.14Z" fill="#e4a73f"/><path d="M128.91,186.26c.78-1.07,1.39-2.06,1-3.33.62-.46,1.27-.26,1.89-.25,2.83,0,2.81,0,3.16,2.85a17.34,17.34,0,0,0,.57,3c.37,1.19-.18,1.42-1.16,1.41a6.75,6.75,0,0,0-1.19,0c-1.85.29-3.29,0-3.56-2.24,0-.22-.22-.42-.6-.43-1,1,.39,1.75.44,2.63-1.86.65-1.86.65-2.37-1.06-.45-1.53-.93-3-1.3-4.59-.16-.71-.13-1.48.94-1.57s1.54.18,1.45,1.29A2.87,2.87,0,0,0,128.91,186.26Zm3.56,1.53c-.09-.63-.52-.77-1-.74-.3,0-.68.11-.64.51.06.66.52.9,1.14.84C132.33,188.37,132.42,188.07,132.47,187.79Z" fill="#e4a73f"/><path d="M131.84,175.25c-1.06-.08-1.52.72-2.23,1.05-.74-.42-.44-1.13-.45-1.71,0-1.75,0-1.75,1.79-2,3.05-.43,3.05-.43,3.07,2.64,0,.48,0,1,0,1.43.19,2.69.19,2.71-2.48,3.12-1.65.26-3.35-.05-5,.49a.88.88,0,0,1-1.24-.76,20.16,20.16,0,0,0-1.34-5.29.72.72,0,0,1,.39-1,2.37,2.37,0,0,1,3.27,1.3,10.26,10.26,0,0,1,.65,2.78c.06,1,.66,1.33,1.6,1C131.51,177.58,132,176.94,131.84,175.25Z" fill="#e4a73f"/><path d="M23.05,175.71c-.24-9.39,8.15-17.2,17.05-17.08a16.76,16.76,0,0,1,16.17,17c-.09,8.62-6.75,17-16.54,17.08C30.62,192.78,22.61,185.24,23.05,175.71Zm9.15,9.9a2.31,2.31,0,0,0-.36-.57c-.21-.19-.48-.51-.73-.06,0,.06.25.36.44.46a2.36,2.36,0,0,0,.66.16,9.57,9.57,0,0,0,14.71-2.24,50.58,50.58,0,0,1-5.35,3.44,5.76,5.76,0,0,1-4.83.29C35.25,186.53,33.71,186.1,32.2,185.61Zm15.42-20.7-.09-.71c-.18-1.73-.33-2-1.79-1.54-1,.31-1.88-.14-2.81,0-.2,0-.31.1-.29.34l.79.87c-2.71,1.72-5.41,3.4-8.07,5.14-1.6,1-3.39,1.91-4.59,3.42a27.49,27.49,0,0,1-5,4.4,9,9,0,0,0-.78.55c-.79.81-.71,1.63.36,2,.68.24,1,.4,1.08,1.22.21,2.29,1.27,2.71,3.35,1.48,4-2.36,7.83-4.93,11.62-7.57a40.38,40.38,0,0,0,7.13-6c1-1.17,1.43-1.14,2.23.11a3.43,3.43,0,0,1,.64,1.78,18.9,18.9,0,0,1-1.66,9.55c-.3.59-.93,1.16-.46,2,.2-.16.45-.25.55-.43,2.06-3.51,2.58-7.5,3.41-11.38.31-1.44-.65-2.6-2-3.25a26.86,26.86,0,0,0-2.68-1A2.06,2.06,0,0,0,47.62,164.91ZM43.47,177.1c1.47-1.63,3.65-2.51,4.58-5a44.06,44.06,0,0,0-6.62,4.14,38,38,0,0,0-5,4c-.57.6-1.17,1.22-.48,2a1.45,1.45,0,0,0,2,.18c2-1.08,4.08-2.15,6.1-3.27.46-.25,1.1-.52,1-1.18S44.05,177.64,43.47,177.1Zm-16.59-6.22c1.88-1,3.37-1.75,3.84-3.56.18-.65.12-1.31-.61-1.61a1.19,1.19,0,0,0-1.59.67A18.06,18.06,0,0,0,26.88,170.88Zm19.74,9.37c-.09-.52-.38-.82-.81-.73a4.9,4.9,0,0,0-3.22,1.82c-.46.65-.08,1.4.74,1.62C44.51,183.28,46.73,181.4,46.62,180.25ZM39.93,162.9c-1.78-1.08-2.12-1-4,1A11.73,11.73,0,0,1,39.93,162.9Z" fill="#e4a73f"/><path d="M241.62,186.84h7.69c0,.31.12.5.06.59-2.06,3-2.07,3-5.2,1.17A10.12,10.12,0,0,1,241.62,186.84Z" fill="#e4a73f"/><path d="M226.12,175.44l-.47-.15A.28.28,0,0,1,226.12,175.44Z" fill="#e1e2e1"/><path d="M303.31,165.86c-4.8.65-9.34-.54-13.85-1.93a6.92,6.92,0,0,1-4.27-6.36c.16-1.86,2.69-3.95,5-4.12a7.53,7.53,0,0,1,3.28.44,16.81,16.81,0,0,0,6.56,1c2.63-.08,5.27,0,7.9,0a23.18,23.18,0,0,0,7-1.07,6.74,6.74,0,0,1,2.34-.37,7.6,7.6,0,0,0,3.24-.64,6.5,6.5,0,0,1,8.27,3.21,4.71,4.71,0,0,1-1.42,5.8,5.72,5.72,0,0,1-3.62,1.66,44.86,44.86,0,0,0-12.18,1.95C308.87,166.25,306.07,165.74,303.31,165.86Z" fill="#af70de"/><path d="M221.89,64.71c.15-.16.3-.32.46-.47l.42-.07h0c0,.7,0,1.39-1,1.45C221.83,65.31,221.86,65,221.89,64.71Z" fill="#ba8f45"/><path d="M221.32,66.57a1,1,0,0,1,.49-1A.93.93,0,0,1,221.32,66.57Z" fill="#ba8f45"/><path d="M222.77,64.17c0-.06.09-.18.11-.18s.1.1-.12.17Z" fill="#ba8f45"/><path d="M301.91,145a146.8,146.8,0,0,1-21.36-1.13,58.17,58.17,0,0,1-15.39-4.4,4.8,4.8,0,0,1-2.32-2.3,39.53,39.53,0,0,1-4.52-16,70.65,70.65,0,0,1,2.39-24.46,46.61,46.61,0,0,1,8.52-17,7.89,7.89,0,0,1,4.28-2.83,132.59,132.59,0,0,1,19.78-3.61,163.16,163.16,0,0,1,26.33-.88c8,.37,15.95,1,23.68,3.26.91.27,1.81.61,2.7,1A8.51,8.51,0,0,1,350.75,81a97,97,0,0,1,8.32,26.42c1.09,6.31,2.1,12.62,1.89,19,0,1-.22,2.07-.22,3.11,0,3.43-2.19,5.29-4.91,6.73a58.55,58.55,0,0,1-15.4,5.15A180,180,0,0,1,301.91,145Zm-35.56-27.89c.13.47.25,1,.37,1.42-.7.54-1.82.56-2.15,1.66,1.31.66,2.06-.68,3.12-.72a9.25,9.25,0,0,0,1.39,2.23A19.54,19.54,0,0,0,292,127.39c8.81-3.92,13.82-12.66,11.83-22-1.49-7-5-12.41-11.84-15.23-7.26-3-14.17-2.6-20.49,2.46-.81.65-1.56,1.37-2.33,2.06-1.16-8.16,5.57-18.64,19.9-14.15a4.47,4.47,0,0,0-2.35-2.34,14.35,14.35,0,0,0-18.86,4.71,46,46,0,0,0-3.95,7.91,18.57,18.57,0,0,0,.46,16.4c-.79,2.13.15,4.21.2,6.32-1.18.49-2.54.7-3.63,2.14,1.87.07,3-1.15,4.35-1.2l.22,1.51c-.67.5-1.86.43-2,1.78C264.66,117.91,265.42,117.12,266.35,117.09Zm86.17-2.1c1.33-.27,2.63.77,4.28.19-1.13-1.17-2.45-1.13-3.54-1.58-.07-2.26.28-4.53-.15-6.78,2.27-2.12,2.6-4.95,2.41-7.74-.42-6.11-2.16-11.78-6.6-16.28-1.89-1.92-3.74-3.89-6.48-4.75-6.24-1.94-11.6-.12-16.54,3.67-.41.32-.93.68-.69,1.48,1.25.26,2.26-.51,3.26-1a15.09,15.09,0,0,1,8.79-1.68,11.06,11.06,0,0,1,6.48,2.74,12.65,12.65,0,0,1,4.16,11.64,22.9,22.9,0,0,0-11-6.21,3.65,3.65,0,0,0,.68-4.41c-.85-1.67-2.38-2-4.07-1.91a14.47,14.47,0,0,0-9.19,3.57,21.63,21.63,0,0,1-3.42,2.61c-1.17.68-2.37,1.33-3.56,2-.37.19-.75.38-.68.86s.59.68,1.08.72a5.52,5.52,0,0,0,2.33-.47c-1,1.68-2.69,2.69-3.9,4.17a19.12,19.12,0,0,0-4.33,13.76,18.25,18.25,0,0,0,2.46,8.08,23,23,0,0,0,6.33,7.64c8.89,6.48,22.24,4.19,28.35-3.58.85.07,1.66.79,2.71.19-.48-.83-1.37-.82-1.92-1.29a13.76,13.76,0,0,0,1.72-3c1.29-.23,2.3.75,3.63.94-.35-1.64-1.72-1.81-2.79-2.35Zm-46.23,15.4a.67.67,0,0,0,.08.17s.08,0,.12,0l-.21-.18a6.5,6.5,0,0,0-5.84-5.31,5.28,5.28,0,0,0-3.65.8,3.22,3.22,0,0,0-.61,4.27c1,1.36,2.49,1.48,4,.33.37-.29.81-.59.72-1.15s-.58-.68-1.06-.77-1.08.15-1.48-.56a4.41,4.41,0,0,1,4.17-.05A19.51,19.51,0,0,1,306.29,130.39Zm-4.4-38.11c-.53-1.35-1.84-1.87-2.9-2.65-1.59-1.17-3.51-1.92-4.71-3.61-2.35-3.3-5.88-4.49-9.58-5.35a4.66,4.66,0,0,0-3.05.34,3.4,3.4,0,0,0-2,3.25,2.85,2.85,0,0,0,2.6,2.7,7.68,7.68,0,0,0,5.9-1.24,1.51,1.51,0,0,1,2-.22,5.75,5.75,0,0,1,1.51,1.15c2.38,2.91,5.95,3.91,9,5.74A1,1,0,0,0,301.89,92.28ZM295.35,81a9.39,9.39,0,0,0,3.09,6.34,20.26,20.26,0,0,0,6.16,3.09c.65.25,1.6.52,2-.12s-.37-1.28-.92-1.71a9.46,9.46,0,0,1-3.64-6.76,7.35,7.35,0,0,0-.34-1.87,3.75,3.75,0,0,0-4-2.29C296.14,78,295.32,79.1,295.35,81Zm18.7,9.24A13,13,0,0,0,322,84.58a5.55,5.55,0,0,0,1-3.38,3.57,3.57,0,0,0-2.71-3.26c-1.3-.33-2.48.27-3.32,1.75a5.54,5.54,0,0,0-.6,1.55c-.66,2.89-1.17,5.81-4,7.6-.57.37-.32,1,.38,1.24A7.27,7.27,0,0,0,314.05,90.24Zm-5.59,40.29c.73-.17,1-.89,1.57-1.31a6.25,6.25,0,0,1,4.32-1.73c.8,0,1.43.36,1.5,1.21s-.65.74-1.18.84a1.26,1.26,0,0,0-1.16,1.51c.1.84.68,1.17,1.48,1.28a3.8,3.8,0,0,0,4.19-2.72,4.46,4.46,0,0,0-3.21-4.46c-3.12-.65-6.74,1.8-7.67,4.4A1,1,0,0,0,308.46,130.53Zm-1.3,9.46c2.95-.19,5.44-.91,7.41-2.89.55-.56,1.34-1.29.63-2s-1.29.22-1.72.68c-2.14,2.33-4.7,2.4-7.49,1.57a8.79,8.79,0,0,1-3.83-1.86c-.47-.45-1.23-1.2-1.85-.58s.13,1.45.58,2.05C302.5,139.11,304.89,139.68,307.16,140Zm-28.41-8.15c-.11-.47-.39-.66-.7-.62a5.35,5.35,0,0,0-1.6.38,19.37,19.37,0,0,0-6.75,5.15,1.63,1.63,0,0,0-.39.6,1,1,0,0,0,.07.66c.12.25.42.2.63.13a4,4,0,0,0,1.08-.48q3.59-2.55,7.12-5.16A3,3,0,0,0,278.75,131.84Zm65.19,4.86a1.43,1.43,0,0,0,1.44-.68,56,56,0,0,0,4.07-5.27,8.12,8.12,0,0,0,.56-1.05,1,1,0,0,0-.13-1.31c-.53-.5-1-.2-1.5.13a5.51,5.51,0,0,0-.87.8,26.42,26.42,0,0,0-3.56,5.62A1.49,1.49,0,0,0,343.94,136.7Zm1.77-8.54c-.06-.66-.33-1-.79-.78a3.58,3.58,0,0,0-1.22.72,25.21,25.21,0,0,0-4.78,6.18,3.4,3.4,0,0,0-.29.65.77.77,0,0,0,.12.89c.28.26.58.15.85,0a3.05,3.05,0,0,0,.74-.59q2.46-3.06,4.89-6.15A6.25,6.25,0,0,0,345.71,128.16Zm-80,8.75c3.07-2.86,6.91-4.22,10-6.8-3.54,0-6.34,1.65-8.9,3.82C266,134.56,265.14,135.26,265.69,136.91Zm83.8-3.31c0,.83,0,1.46.58,1.74s1.07-.2,1.37-.66a18.19,18.19,0,0,0,2.31-4.7,1,1,0,0,0-1.66-1.07A7.68,7.68,0,0,0,349.49,133.6Zm-69.27.89c-1.44.13-6.7,3-7.36,4a.73.73,0,0,0-.07.88.85.85,0,0,0,1.1.12,23.41,23.41,0,0,0,5.8-3.77C280,135.39,280.45,135.06,280.22,134.49Z" fill="#edcdcd"/><path d="M116.68,187.14a2.37,2.37,0,0,1,2.58-2.44,2.52,2.52,0,0,1,2.5,2.34,2.91,2.91,0,0,1-2.58,2.36A2.4,2.4,0,0,1,116.68,187.14Z" fill="#7f663a"/><path d="M132.47,187.79c-.05.28-.14.58-.52.61-.62.06-1.08-.18-1.14-.84,0-.4.34-.49.64-.51C132,187,132.38,187.16,132.47,187.79Z" fill="#ba8f45"/><path d="M48.58,165.86a26.86,26.86,0,0,1,2.68,1c1.33.65,2.29,1.81,2,3.25-.83,3.88-1.35,7.87-3.41,11.38-.1.18-.35.27-.55.43-.47-.85.16-1.42.46-2a18.9,18.9,0,0,0,1.66-9.55,3.43,3.43,0,0,0-.64-1.78c-.8-1.25-1.19-1.28-2.23-.11a40.38,40.38,0,0,1-7.13,6c-3.79,2.64-7.65,5.21-11.62,7.57-2.08,1.23-3.14.81-3.35-1.48-.08-.82-.4-1-1.08-1.22-1.07-.38-1.15-1.2-.36-2a9,9,0,0,1,.78-.55,27.49,27.49,0,0,0,5-4.4c1.2-1.51,3-2.37,4.59-3.42,2.66-1.74,5.36-3.42,8.07-5.14l-.79-.87c0-.24.09-.32.29-.34.93-.09,1.79.36,2.81,0,1.46-.45,1.61-.19,1.79,1.54l.09.71-.22.22a2,2,0,0,0-2,.36C40.78,169,35.89,172.07,31,175.2a4.6,4.6,0,0,0-2.25,2.65,3.07,3.07,0,0,0-.67.21c-.18.12-.47.42-.43.49.24.44.53.13.76,0a2.88,2.88,0,0,0,.44-.54c1.91-.7,3.27-2.2,4.89-3.31.38-.27.68-.88,1.14-.78,1.29.3,2.12-.55,3-1.11q4.63-2.93,9.43-5.54c.45-.25,1.12-.36,1-1.14A2.73,2.73,0,0,0,48.58,165.86Z" fill="#7f663a"/><path d="M43.47,177.1c.58.54,1.46.11,1.54.89s-.56.93-1,1.18c-2,1.12-4.06,2.19-6.1,3.27a1.45,1.45,0,0,1-2-.18c-.69-.83-.09-1.45.48-2a38,38,0,0,1,5-4,44.06,44.06,0,0,1,6.62-4.14C47.12,174.59,44.94,175.47,43.47,177.1Z" fill="#7f663a"/><path d="M32.2,185.61c1.51.49,3,.92,4.54,1.48a5.76,5.76,0,0,0,4.83-.29,50.58,50.58,0,0,0,5.35-3.44,9.57,9.57,0,0,1-14.71,2.24Z" fill="#7f663a"/><path d="M26.88,170.88a18.06,18.06,0,0,1,1.64-4.5,1.19,1.19,0,0,1,1.59-.67c.73.3.79,1,.61,1.61C30.25,169.13,28.76,169.85,26.88,170.88Z" fill="#7f663a"/><path d="M46.62,180.25c.11,1.15-2.11,3-3.29,2.71-.82-.22-1.2-1-.74-1.62a4.9,4.9,0,0,1,3.22-1.82C46.24,179.43,46.53,179.73,46.62,180.25Z" fill="#7f663a"/><path d="M39.93,162.9a11.73,11.73,0,0,0-4,1C37.81,161.89,38.15,161.82,39.93,162.9Z" fill="#7f663a"/><path d="M32.21,185.6a2.36,2.36,0,0,1-.66-.16c-.19-.1-.47-.4-.44-.46.25-.45.52-.13.73.06a2.31,2.31,0,0,1,.36.57Z" fill="#7f663a"/><path d="M47.62,164.91a2.06,2.06,0,0,1,1,1l-.24.23a1.34,1.34,0,0,1-.94-1Z" fill="#7f663a"/><path d="M336.94,88.65a22.9,22.9,0,0,1,11,6.21,7.68,7.68,0,0,1-.31,3.43,7.2,7.2,0,0,1-.71-.64c-5-5.84-11.53-7.77-18.78-6.35-7,1.37-11.16,6.13-13.15,12.89-1.29,4.4-.26,8.62,1.46,12.57,1.1,2.52,3.33,4.45,5.65,6.09,7.13,5,17,5.38,23.89-1.53,1.62-1.63,2.57-3.63,3.85-5.44l.32.27c-.14,1.09.74,1.13,1.41,1.38a13.76,13.76,0,0,1-1.72,3c-.33-.14-.7-.41-1-.08s.09.8.23,1.18c-6.11,7.77-19.46,10.06-28.35,3.58a23,23,0,0,1-6.33-7.64,18.25,18.25,0,0,1-2.46-8.08,19.12,19.12,0,0,1,4.33-13.76c1.21-1.48,2.92-2.49,3.89-4.17l4.23-2c1.91-.16,3.64-1.16,5.58-1.11A8,8,0,0,0,336.94,88.65Z" fill="#ea785d"/><path d="M269.18,94.72c.77-.69,1.52-1.41,2.33-2.06,6.32-5.06,13.23-5.48,20.49-2.46,6.8,2.82,10.35,8.26,11.84,15.23,2,9.3-3,18-11.83,22a19.54,19.54,0,0,1-22.93-5.71,9.25,9.25,0,0,1-1.39-2.23,3.15,3.15,0,0,0,1.3-1.38,29.14,29.14,0,0,0,5.18,4.93c6.25,4.08,12.86,4.9,19.48,1.33,6.12-3.3,9.56-10.78,8.08-18.76-.68-3.68-2.92-6.42-5.45-9.07-7.25-7.58-19.31-5.92-25,.07a4.34,4.34,0,0,1-1.65,1.35C269.05,96.91,269.29,95.79,269.18,94.72Z" fill="#ea785d"/><path d="M347.59,98.29a7.68,7.68,0,0,0,.31-3.43,12.65,12.65,0,0,0-4.16-11.64,11.06,11.06,0,0,0-6.48-2.74,15.09,15.09,0,0,0-8.79,1.68c-1,.53-2,1.3-3.26,1-.24-.8.28-1.16.69-1.48,4.94-3.79,10.3-5.61,16.54-3.67,2.74.86,4.59,2.83,6.48,4.75,4.44,4.5,6.18,10.17,6.6,16.28.19,2.79-.14,5.62-2.41,7.74a3.38,3.38,0,0,0-1.77.52l-2.76-1.23a14,14,0,0,1-1.07-3.52Z" fill="#544375"/><path d="M269.18,94.72c.11,1.07-.13,2.19.43,3.2a8.37,8.37,0,0,0,.63,2.84,13.29,13.29,0,0,0,.19,1.9,4.34,4.34,0,0,1-2.36,5.39l-1.64.35a5.77,5.77,0,0,1-2.05-1.15,18.57,18.57,0,0,1-.46-16.4,46,46,0,0,1,3.95-7.91,14.35,14.35,0,0,1,18.86-4.71,4.47,4.47,0,0,1,2.35,2.34C274.75,76.08,268,86.56,269.18,94.72Z" fill="#544375"/><path d="M324.33,89.63l-4.23,2a5.45,5.45,0,0,1-2.32.47c-.49,0-1-.13-1.08-.72s.31-.67.68-.86c1.19-.64,2.39-1.29,3.56-2a21.63,21.63,0,0,0,3.42-2.61,14.47,14.47,0,0,1,9.19-3.57c1.69-.07,3.22.24,4.07,1.91a3.65,3.65,0,0,1-.68,4.41,8.07,8.07,0,0,1-7-.12c-1.13-2.13-1.19-2.16-3-.89C326,88.27,325.19,89,324.33,89.63Z" fill="#544375"/><path d="M301.89,92.28a1,1,0,0,1-1.2.11c-3.06-1.83-6.63-2.83-9-5.74a5.75,5.75,0,0,0-1.51-1.15,1.51,1.51,0,0,0-2,.22,7.68,7.68,0,0,1-5.9,1.24,2.85,2.85,0,0,1-2.6-2.7,3.4,3.4,0,0,1,2-3.25,4.66,4.66,0,0,1,3.05-.34c3.7.86,7.23,2,9.58,5.35,1.2,1.69,3.12,2.44,4.71,3.61C300.05,90.41,301.36,90.93,301.89,92.28Z" fill="#544375"/><path d="M295.35,81c0-1.9.79-3,2.32-3.32a3.75,3.75,0,0,1,4,2.29,7.35,7.35,0,0,1,.34,1.87,9.46,9.46,0,0,0,3.64,6.76c.55.43,1.39,1,.92,1.71s-1.36.37-2,.12a20.26,20.26,0,0,1-6.16-3.09A9.39,9.39,0,0,1,295.35,81Z" fill="#544375"/><path d="M314.05,90.24a7.27,7.27,0,0,1-1.25-.16c-.7-.22-.95-.87-.38-1.24,2.81-1.79,3.32-4.71,4-7.6a5.54,5.54,0,0,1,.6-1.55c.84-1.48,2-2.08,3.32-1.75A3.57,3.57,0,0,1,323,81.2a5.55,5.55,0,0,1-1,3.38A13,13,0,0,1,314.05,90.24Z" fill="#544375"/><path d="M308.46,130.53a1,1,0,0,1-.16-1c.93-2.6,4.55-5.05,7.67-4.4a4.46,4.46,0,0,1,3.21,4.46,3.8,3.8,0,0,1-4.19,2.72c-.8-.11-1.38-.44-1.48-1.28a1.26,1.26,0,0,1,1.16-1.51c.53-.1,1.25,0,1.18-.84s-.7-1.17-1.5-1.21a6.25,6.25,0,0,0-4.32,1.73C309.5,129.64,309.19,130.36,308.46,130.53Z" fill="#af70de"/><path d="M307.16,140c-2.27-.31-4.66-.88-6.27-3.06-.45-.6-1.3-1.32-.58-2.05s1.38.13,1.85.58a8.79,8.79,0,0,0,3.83,1.86c2.79.83,5.35.76,7.49-1.57.43-.46,1-1.37,1.72-.68s-.08,1.47-.63,2C312.6,139.08,310.11,139.8,307.16,140Z" fill="#544375"/><path d="M306.29,130.39A19.51,19.51,0,0,0,302.5,128a4.41,4.41,0,0,0-4.17.05c.4.71,1,.47,1.48.56s1,.21,1.06.77-.35.86-.72,1.15c-1.48,1.15-2.95,1-4-.33a3.22,3.22,0,0,1,.61-4.27,5.28,5.28,0,0,1,3.65-.8,6.5,6.5,0,0,1,5.84,5.31Z" fill="#af70de"/><path d="M278.75,131.84a3,3,0,0,1-.54.66q-3.54,2.61-7.12,5.16a4,4,0,0,1-1.08.48c-.21.07-.51.12-.63-.13a1,1,0,0,1-.07-.66,1.63,1.63,0,0,1,.39-.6,19.37,19.37,0,0,1,6.75-5.15,5.35,5.35,0,0,1,1.6-.38C278.36,131.18,278.64,131.37,278.75,131.84Z" fill="#544375"/><path d="M343.94,136.7a1.49,1.49,0,0,1,0-1.76,26.42,26.42,0,0,1,3.56-5.62,5.51,5.51,0,0,1,.87-.8c.46-.33,1-.63,1.5-.13a1,1,0,0,1,.13,1.31,8.12,8.12,0,0,1-.56,1.05,56,56,0,0,1-4.07,5.27A1.43,1.43,0,0,1,343.94,136.7Z" fill="#544375"/><path d="M345.71,128.16a6.25,6.25,0,0,1-.48.89q-2.43,3.09-4.89,6.15a3.05,3.05,0,0,1-.74.59c-.27.18-.57.29-.85,0a.77.77,0,0,1-.12-.89,3.4,3.4,0,0,1,.29-.65,25.21,25.21,0,0,1,4.78-6.18,3.58,3.58,0,0,1,1.22-.72C345.38,127.21,345.65,127.5,345.71,128.16Z" fill="#544375"/><path d="M265.69,136.91c-.55-1.65.32-2.35,1.07-3,2.56-2.17,5.36-3.82,8.9-3.82C272.6,132.69,268.76,134.05,265.69,136.91Z" fill="#544375"/><path d="M351.34,107.34a3.38,3.38,0,0,1,1.77-.52c.43,2.25.08,4.52.15,6.78-.56.16-1.41-.3-1.66.5-.18.58.67.51.92.89l-.15,1.13a6.54,6.54,0,0,0-2.25,0l-.32-.27C350.43,113.05,351.55,110.31,351.34,107.34Z" fill="#ea785d"/><path d="M264.38,107.25a5.77,5.77,0,0,0,2.05,1.15A28,28,0,0,0,268,116h-2.44l-.21-1.51c.16-.24.57-.56.36-.74s-.72-.15-1.09-.2C264.53,111.46,263.59,109.38,264.38,107.25Z" fill="#ea785d"/><path d="M349.49,133.6a7.68,7.68,0,0,1,2.6-4.69,1,1,0,0,1,1.66,1.07,18.19,18.19,0,0,1-2.31,4.7c-.3.46-.73.95-1.37.66S349.51,134.43,349.49,133.6Z" fill="#544375"/><path d="M280.22,134.49c.23.57-.19.9-.53,1.2a23.41,23.41,0,0,1-5.8,3.77.85.85,0,0,1-1.1-.12.73.73,0,0,1,.07-.88C273.52,137.46,278.78,134.62,280.22,134.49Z" fill="#544375"/><path d="M350.12,116.15a6.54,6.54,0,0,1,2.25,0c1.07.54,2.44.71,2.79,2.35-1.33-.19-2.34-1.17-3.63-.94C350.86,117.28,350,117.24,350.12,116.15Z" fill="#694c8e"/><path d="M352.52,115c-.25-.38-1.1-.31-.92-.89.25-.8,1.1-.34,1.66-.5,1.09.45,2.41.41,3.54,1.58C355.15,115.76,353.85,114.72,352.52,115Z" fill="#694c8e"/><path d="M264.58,113.57c.37.05.85,0,1.09.2s-.2.5-.36.74c-1.4,0-2.49,1.27-4.36,1.2C262,114.27,263.4,114.06,264.58,113.57Z" fill="#694c8e"/><path d="M269,118.07a3.15,3.15,0,0,1-1.3,1.38c-1.06,0-1.81,1.38-3.12.72.33-1.1,1.45-1.12,2.15-1.66l2.26-.45Z" fill="#694c8e"/><path d="M265.52,116H268l.09.27-1.7.79c-.93,0-1.69.82-2.81.71C263.66,116.45,264.85,116.52,265.52,116Z" fill="#694c8e"/><path d="M349,121.66c-.14-.38-.65-.74-.23-1.18s.69-.06,1,.08c.55.47,1.44.46,1.92,1.29C350.68,122.45,349.87,121.73,349,121.66Z" fill="#694c8e"/><path d="M266.35,117.09l1.7-.79a3.25,3.25,0,0,1,.93,1.76l-2.26.45C266.6,118,266.48,117.56,266.35,117.09Z" fill="#ea785d"/><path d="M306.28,130.41l.21.18s-.1,0-.12,0a.67.67,0,0,1-.08-.17Z" fill="#af70de"/><path d="M47.4,165.13a1.34,1.34,0,0,0,.94,1c.13.78-.54.89-1,1.14q-4.79,2.63-9.43,5.54c-.89.56-1.72,1.41-3,1.11-.46-.1-.76.51-1.14.78-1.62,1.11-3,2.61-4.89,3.31l-.1-.12A4.6,4.6,0,0,1,31,175.2c4.86-3.13,9.75-6.23,14.38-9.71A2,2,0,0,1,47.4,165.13Z" fill="#e4a73f"/><path d="M28.88,178a2.88,2.88,0,0,1-.44.54c-.23.17-.52.48-.76,0,0-.07.25-.37.43-.49a3.07,3.07,0,0,1,.67-.21Z" fill="#e4a73f"/><path d="M351.34,107.34c.21,3-.91,5.71-1.54,8.54-1.28,1.81-2.23,3.81-3.85,5.44-6.88,6.91-16.76,6.57-23.89,1.53-2.32-1.64-4.55-3.57-5.65-6.09-1.72-4-2.75-8.17-1.46-12.57,2-6.76,6.2-11.52,13.15-12.89,7.25-1.42,13.78.51,18.78,6.35a7.2,7.2,0,0,0,.71.64c0,1.43,0,2.86-.08,4.3-1.38-1.64-2.44-3.52-4.06-5-4.58-4.14-12-6.09-18.05-3.09-8.1,4-9.66,9.89-8.27,18.18.78,4.68,3.81,8.07,8,10.22,5.56,2.88,11.2,3,16.56-.56,5.8-3.88,8.39-9.21,6.92-16.24Z" fill="#edcdcd"/><path d="M324.33,89.63c.86-.67,1.7-1.36,2.58-2,1.81-1.27,1.87-1.24,3,.89C328,88.47,326.24,89.47,324.33,89.63Z" fill="#edcdcd"/><path d="M269,118.06a3.25,3.25,0,0,0-.93-1.76L268,116a28,28,0,0,1-1.53-7.63l1.64-.35c.27,1.65.47,3.31.85,4.93a14.31,14.31,0,0,0,2.51,5.91,16.32,16.32,0,0,0,15.63,6.27,16,16,0,0,0,13-20.81c-3.95-11.21-16.13-14-24.9-8.44-2,1.27-3.35,3.16-4.91,4.85a8.37,8.37,0,0,1-.63-2.84,4.34,4.34,0,0,0,1.65-1.35c5.71-6,17.77-7.65,25-.07,2.53,2.65,4.77,5.39,5.45,9.07,1.48,8-2,15.46-8.08,18.76-6.62,3.57-13.23,2.75-19.48-1.33a29.14,29.14,0,0,1-5.18-4.93Z" fill="#edcdcd"/><path d="M348.58,106.11c1.47,7-1.12,12.36-6.92,16.24-5.36,3.58-11,3.44-16.56.56-4.16-2.15-7.19-5.54-8-10.22-1.39-8.29.17-14.14,8.27-18.18,6-3,13.47-1.05,18.05,3.09,1.62,1.47,2.68,3.35,4.06,5A14,14,0,0,0,348.58,106.11ZM325,117.88a.68.68,0,0,0,.51.53,4.76,4.76,0,0,0,3.81,1.83,8.19,8.19,0,0,0,8.54-1.34,5.08,5.08,0,0,0,5-3.4,9,9,0,0,0,.84-3.2,6.37,6.37,0,0,0,.53-2.79c0-3.67-1.69-6.53-4.18-9.1-3.53-3.64-9.57-4-13.83-2.16-3.29,1.46-6.51,5.21-6,11,.35,3.52,1.59,6.64,4.8,8.62Z" fill="#ea785d"/><path d="M270.24,100.76c1.56-1.69,2.91-3.58,4.91-4.85,8.77-5.57,21-2.77,24.9,8.44a16,16,0,0,1-13,20.81,16.32,16.32,0,0,1-15.63-6.27,14.31,14.31,0,0,1-2.51-5.91c-.38-1.62-.58-3.28-.85-4.93a4.34,4.34,0,0,0,2.36-5.39A13.29,13.29,0,0,1,270.24,100.76Zm9.65,19,0,0c1.87,1.52,4.13,1.59,6.31,1.32,5.26-.65,9.39-4.21,10.35-9,1.1-5.43,0-9.61-4.9-12.92a13.67,13.67,0,0,0-10.87-2.43c-2,.42-3.5,1.77-5.12,2.94-3.73,2.67-4.93,6.29-4.42,10.66S275.84,119.14,279.89,119.79Z" fill="#ea785d"/><path d="M337.87,118.9a8.19,8.19,0,0,1-8.54,1.34,10.06,10.06,0,0,0,1.31-.55,3.91,3.91,0,0,0,1.55-5.16c-.83-1.71-2.62-2.34-4.68-1.67a3.34,3.34,0,0,0-2.4,2.94c-.1.71.28,1.42,0,2.11-3.21-2-4.45-5.1-4.8-8.62-.56-5.83,2.66-9.58,6-11,4.26-1.89,10.3-1.48,13.83,2.16,2.49,2.57,4.15,5.43,4.18,9.1a6.37,6.37,0,0,1-.53,2.79c-.15-.36-.28-.73-.45-1.09-.89-1.81-2.52-2.63-4.3-1.83a6,6,0,0,0-3.8,4.78A4.19,4.19,0,0,0,337.87,118.9Zm-7-7.27a6.67,6.67,0,0,0,7-6.43c0-3.94-2.55-6.76-6.2-6.81a7.16,7.16,0,0,0-7.2,6.62A6.45,6.45,0,0,0,330.83,111.63Z" fill="#544375"/><path d="M337.87,118.9a4.19,4.19,0,0,1-2.72-4.74,6,6,0,0,1,3.8-4.78c1.78-.8,3.41,0,4.3,1.83.17.36.3.73.45,1.09a9,9,0,0,1-.84,3.2A5.08,5.08,0,0,1,337.87,118.9Z" fill="#f8f9f8"/><path d="M325.07,117.91c.32-.69-.06-1.4,0-2.11a3.34,3.34,0,0,1,2.4-2.94c2.06-.67,3.85,0,4.68,1.67a3.91,3.91,0,0,1-1.55,5.16,10.06,10.06,0,0,1-1.31.55,4.76,4.76,0,0,1-3.81-1.83c-.08-.26-.06-.61-.51-.53Z" fill="#f8f9f8"/><path d="M325,117.88c.45-.08.43.27.51.53A.68.68,0,0,1,325,117.88Z" fill="#544375"/><path d="M279.89,119.79c-4.05-.65-8.16-5.1-8.67-9.41s.69-8,4.42-10.66c1.62-1.17,3.09-2.52,5.12-2.94a13.67,13.67,0,0,1,10.87,2.43c4.86,3.31,6,7.49,4.9,12.92-1,4.75-5.09,8.31-10.35,9-2.18.27-4.44.2-6.31-1.32a9.58,9.58,0,0,0,2.81-.43,3.85,3.85,0,0,0,2.3-4.07,3.45,3.45,0,0,0-3-3.26,3.8,3.8,0,0,0-4,2.36C277,116.55,277.51,118,279.89,119.79Zm8.87-16.19c-.38-.5.48-1.38-.3-1.88-1.12-.74-2.11-1.71-3.54-1.93a7.93,7.93,0,0,0-8.49,4.85,3.3,3.3,0,0,0,.84,4.13c1.89,1.9,4.83,2.29,7.81,1C287.68,108.74,288.82,106.86,288.76,103.6Zm5.52,9a13.6,13.6,0,0,0-.42-2.68c-.19-1.29-1.05-1.47-2.09-1.38a5.22,5.22,0,0,0-4.73,6,3.16,3.16,0,0,0,4.47,2.5A4.49,4.49,0,0,0,294.28,112.57Z" fill="#544375"/><path d="M330.83,111.63a6.45,6.45,0,0,1-6.44-6.62,7.16,7.16,0,0,1,7.2-6.62c3.65,0,6.22,2.87,6.2,6.81A6.67,6.67,0,0,1,330.83,111.63Z" fill="#f8f9f8"/><path d="M288.76,103.6c.06,3.26-1.08,5.14-3.68,6.22-3,1.24-5.92.85-7.81-1a3.3,3.3,0,0,1-.84-4.13,7.93,7.93,0,0,1,8.49-4.85c1.43.22,2.42,1.19,3.54,1.93C289.24,102.22,288.38,103.1,288.76,103.6Z" fill="#f8f9f8"/><path d="M294.28,112.57a4.49,4.49,0,0,1-2.77,4.48,3.16,3.16,0,0,1-4.47-2.5,5.22,5.22,0,0,1,4.73-6c1-.09,1.9.09,2.09,1.38A13.6,13.6,0,0,1,294.28,112.57Z" fill="#f8f9f8"/><path d="M279.89,119.79c-2.38-1.8-2.88-3.24-1.89-5.42a3.8,3.8,0,0,1,4-2.36,3.45,3.45,0,0,1,3,3.26,3.85,3.85,0,0,1-2.3,4.07,9.58,9.58,0,0,1-2.81.43Z" fill="#f8f9f8"/><path d="M378.14,172.29h5.5a1.5,1.5,0,0,0,0-3h-5.5a1.5,1.5,0,0,0,0,3Z" fill="#fff"/><path d="M384.64,172.29h.5a1.5,1.5,0,0,0,0-3h-.5a1.51,1.51,0,0,0-1.5,1.5,1.53,1.53,0,0,0,1.5,1.5Z" fill="#fff"/><path d="M390.14,170.79a1.5,1.5,0,0,0,0-3,1.5,1.5,0,0,0,0,3Z" fill="#fff"/><path d="M390.64,170.79a1.5,1.5,0,0,0,0-3,1.5,1.5,0,0,0,0,3Z" fill="#fff"/><path d="M390.14,178.29a1.5,1.5,0,0,0,0-3,1.5,1.5,0,0,0,0,3Z" fill="#fff"/><path d="M381.64,178.29a1.5,1.5,0,0,0,0-3,1.5,1.5,0,0,0,0,3Z" fill="#fff"/><path d="M375.13,174.79a1.5,1.5,0,0,0,0-3,1.5,1.5,0,0,0,0,3Z" fill="#fff"/><path d="M371.13,168.28a1.5,1.5,0,0,0,0-3,1.5,1.5,0,0,0,0,3Z" fill="#fff"/><path d="M429.89,165.61a4.15,4.15,0,0,0,2.67.71l-1.44-1.1c-.11-.46.09-.16-.11-.31s-.79-.39-1.14-.67l.23,1.81s-.28.24-.35.22c1.84.58,2.63-2.31.79-2.9a2.63,2.63,0,0,0-3,1.17,1.51,1.51,0,0,0,.23,1.82c1.17.93,2.55,1.88,4.13,1.47a2.88,2.88,0,0,0,2.14-3.41,1.52,1.52,0,0,0-1.45-1.1,1.51,1.51,0,0,1-1.16-.3,1.5,1.5,0,0,0-2,.53,1.54,1.54,0,0,0,.54,2.06Z" fill="#fff"/><path d="M326.55,203.88a1.12,1.12,0,0,1,0-1.51c-.11.1-.09.09.07,0-.15.08-.13.08,0,0l-.18,0-.18.05c.2,0,.21,0,0,0h0c-.58-.19-.39.24.55,1.3l-.38.66a1.15,1.15,0,0,1-1.06.28l-.66-.39,0,0-.39-.66,0,0V203a1.53,1.53,0,0,0,1.05,1.85,1.51,1.51,0,0,0,1.84-1,1.7,1.7,0,0,0-2.6-1.8,1.73,1.73,0,0,0-.75,1.95,2.1,2.1,0,0,0,1.43,1.36,3.36,3.36,0,0,0,2.71-.39,2,2,0,0,0,.48-3.13,1.5,1.5,0,0,0-2.12,2.12Z" fill="#fff"/><path d="M274.76,212c.3.09.1,0,0,0s.16.18,0,0a.76.76,0,0,1,.21.48c-.05-.23,0,.43,0,.33s-.11.21,0,0c0,0-.21.34-.13.22s-.11,0,0,0a.55.55,0,0,1-.44-.13.92.92,0,0,1-.35-.38c-.05-.12,0,0,0-.24a1.5,1.5,0,0,0-2.89-.8c-.84,3,3,5.91,5.53,3.86a3.68,3.68,0,0,0-1.24-6.23c-1.84-.57-2.64,2.32-.79,2.89Z" fill="#fff"/><path d="M260.48,213.28c.26-.06,0,0,.13,0s.38,0,.13,0c.06,0,.24.06.08,0,0,0,.37.24.21.11a1.54,1.54,0,0,0,2.12,0,1.52,1.52,0,0,0,0-2.12,3.79,3.79,0,0,0-3.47-.85,1.5,1.5,0,0,0-1,1.84,1.52,1.52,0,0,0,1.84,1.05Z" fill="#fff"/><path d="M258.07,206.3a1.5,1.5,0,0,0,0-3,1.5,1.5,0,0,0,0,3Z" fill="#fff"/><path d="M306.1,221.27l1.46.1-1.45-1.1c.06.23,0-.23,0-.31s.14-.27,0-.1c.18-.29.07-.1,0,0l.14-.12c-.12.06-.12.07,0,0s.11,0,0,0l-.15,0,.2,0c-.13,0-.13,0,0,0s.13,0,0,0l.18.08c.18.12.14.14,0,0a1.5,1.5,0,0,0-2.12,0,1.54,1.54,0,0,0,0,2.12,2.71,2.71,0,0,0,4.56-2.48,1.52,1.52,0,0,0-1.44-1.1l-1.46-.1a1.5,1.5,0,0,0,0,3Z" fill="#fff"/><path d="M478.69,201.3a1.5,1.5,0,0,0,0-3,1.5,1.5,0,0,0,0,3Z" fill="#fff"/><path d="M480.69,207.3a1.5,1.5,0,0,0,0-3,1.5,1.5,0,0,0,0,3Z" fill="#fff"/><path d="M482.19,210.31a1.5,1.5,0,0,0,0-3,1.5,1.5,0,0,0,0,3Z" fill="#fff"/><path d="M489.69,210.31a1.5,1.5,0,0,0,0-3,1.5,1.5,0,0,0,0,3Z" fill="#fff"/><path d="M500.2,210.31a1.5,1.5,0,0,0,0-3,1.5,1.5,0,0,0,0,3Z" fill="#fff"/><path d="M528.21,199.3a1.5,1.5,0,0,0,0-3,1.5,1.5,0,0,0,0,3Z" fill="#fff"/><path d="M538.73,202.28c-.33-.05-.56-.17-.48-.53l1-1.05a3.78,3.78,0,0,1-2,0l.36,2.75c.33-.23.41-.25.68-.19a1.53,1.53,0,0,0,1.85-1.05,1.52,1.52,0,0,0-1-1.84,3.78,3.78,0,0,0-3,.49,1.52,1.52,0,0,0,.36,2.74,7.09,7.09,0,0,0,3.63,0,1.49,1.49,0,0,0,1-1,2.71,2.71,0,0,0-.37-2.13,2.68,2.68,0,0,0-2-1.14c-.8-.11-1.5.76-1.5,1.5a1.54,1.54,0,0,0,1.5,1.5Z" fill="#fff"/><path d="M543.72,203.3h2a1.5,1.5,0,0,0,0-3h-2a1.5,1.5,0,0,0,0,3Z" fill="#fff"/><path d="M522.54,205.24a4.15,4.15,0,0,0,.51,4.93,4.08,4.08,0,0,0,5.05.54,3.78,3.78,0,0,0,1.23-5.05,3.31,3.31,0,0,0-5-.69,1.5,1.5,0,0,0,2.12,2.12c.12-.09.3.18.34.29.15.47-.31.85-.71,1a1,1,0,0,1-1-1.57c1-1.66-1.59-3.17-2.59-1.52Z" fill="#fff"/><path d="M538.71,211.45a3.12,3.12,0,0,1,4.26,2l1.45-1.9a78.59,78.59,0,0,1-8.77-1.18l1.05,1a.51.51,0,0,1,.6-.58c1.88.4,2.68-2.49.79-2.89a3.55,3.55,0,0,0-4.28,4.27,1.44,1.44,0,0,0,1,1,85.9,85.9,0,0,0,9.57,1.29,1.51,1.51,0,0,0,1.45-1.9,6.13,6.13,0,0,0-8-4.07c-1.78.7-1,3.6.8,2.9Z" fill="#fff"/><path d="M525.71,209.31a1.5,1.5,0,0,0,0-3,1.5,1.5,0,0,0,0,3Z" fill="#fff"/><path d="M552.14,211.41s-.31.28,0,.07a.27.27,0,0,1-.18.07h.2c-.17,0-.16,0,0,0-.19-.1,0,0,.1.06s.08,0,0,0a.71.71,0,0,1,.15.15s0,.1,0,.09c.16-.06-.35-.35-.07-.08a.22.22,0,0,1,0-.14c0-.08,0,0,0,.09l0-.07c-.13.12-.14.14,0,.05-.22.12,0,0-.13.08a1.26,1.26,0,0,1-.38.1c.26,0-.18,0-.23,0,.25,0-.19-.08-.21-.08.14.05,0-.15,0,0s0-.16,0,0c-.06.27.18.27-.33.59,1.63-1,.12-3.63-1.51-2.59-1.85,1.18-1.24,3.77.49,4.72a3.84,3.84,0,0,0,4.58-.76,3,3,0,0,0-.66-4.5,3.06,3.06,0,0,0-4.38.73c-1,1.62,1.54,3.12,2.59,1.51Z" fill="#fff"/><path d="M510.67,211.57q-2.48,1.6-4.94,3.24c-1,.66-1,2.48.36,2.74a35.46,35.46,0,0,0,9.36.72c1.35-.1,3-.39,3.23-2,.69-4.24-6.09-5.41-8.86-4.81-2.33.5-10.58,3.78-7.75,7.31,1.09,1.34,3.6,1,5,.72a12.86,12.86,0,0,0,6.45-3.36c1.41-1.31-.71-3.43-2.13-2.12s-5.44,3.91-7.54,2.4l.74,1.29c-.11-.91,3.27-2.37,4-2.7a6.73,6.73,0,0,1,5.05-.47c2.43.89.62.82-.9.78a34.5,34.5,0,0,1-5.91-.66l.35,2.74q2.46-1.64,5-3.24c1.61-1,.11-3.65-1.52-2.59Z" fill="#fff"/><path d="M511.86,215.68A4.61,4.61,0,0,0,515,218.8l.39-3-7.64,0a1.5,1.5,0,0,0,0,3l7.64,0a1.51,1.51,0,0,0,.4-2.95,1.42,1.42,0,0,1-1-1c-.58-1.84-3.48-1-2.89.79Z" fill="#fff"/><path d="M386.64,169.66c-1.52-2.85-4.69-1.51-7.16-2.23a2.77,2.77,0,0,0-3.13.62,2.73,2.73,0,0,0-.31,3.13,1.52,1.52,0,0,0,2.75-.36,13.38,13.38,0,0,1,.72-2.33c.17-.4.6-1.67,1-1.88l-1.16.15c.5.08,1.34.92,1.7,1.21.63.51,1.24,1.05,1.83,1.61,1.41,1.32,3.54-.8,2.13-2.12a34.28,34.28,0,0,0-3.22-2.67c-.8-.59-1.58-1.21-2.62-.84-1.92.69-2.86,4.32-3.26,6.07l2.74-.36a1.88,1.88,0,0,0,.05.67,4.28,4.28,0,0,0,1,.3,6.93,6.93,0,0,0,1.44.09c.87,0,2.42-.5,2.93.45.91,1.7,3.5.19,2.59-1.51Z" fill="#fff"/><path d="M33.3,65.79c.27,3.39-1.7,6-5.17,6.27l-6.94.55.73-17.48L28,54.65c3.18-.26,4.69.83,4.88,3.17a5,5,0,0,1-2.29,4.69v.05A3.29,3.29,0,0,1,33.3,65.79Zm-4,.23c-.07-.9-.68-1.36-1.94-1.26l-2.07.17-.18,3.94,1.75-.14A2.52,2.52,0,0,0,29.34,66ZM29,59.25c-.07-.82-.63-1.19-1.72-1.1l-1.71.14-.16,3.59L27,61.76A2.26,2.26,0,0,0,29,59.25Z" fill="#fff"/><path d="M39.71,53.07,39,71.19l-3.66.29.76-18.11Z" fill="#fff"/><path d="M52.94,58.07l-.51,12-3.66.29.09-2H48.8a4.21,4.21,0,0,1-3.27,2.45c-2.57.21-4.05-1.82-4.27-4.57-.34-4.24,1.91-7.69,5-7.94a3.77,3.77,0,0,1,2.91.84h.07l0-.86Zm-3.72,4.27v0a2.61,2.61,0,0,0-2-.72c-1.61.13-2.4,2.39-2.26,4.15.09,1.17.69,1.89,1.52,1.82C47.73,67.46,49.1,65.56,49.22,62.34Z" fill="#fff"/><path d="M54.63,64.94c-.31-3.82,1.92-7.39,6-7.71a4.9,4.9,0,0,1,4.48,1.71l-2.63,2.3a1.94,1.94,0,0,0-1.8-.74c-1.55.14-2.53,2-2.37,4,.14,1.66,1.09,2,1.78,2a2.63,2.63,0,0,0,2-1.32l3,1.56a6,6,0,0,1-5,3C57,70,54.9,68.31,54.63,64.94Z" fill="#fff"/><path d="M77.16,65.32l-.59,3a8.08,8.08,0,0,1-1.06.12c-1.87.14-2.87-1.19-3.67-3.16l-.21-.54h0c-.42.28-.86.54-1.31.79l-.11,3.1-3.65.3.76-18.12L71,50.57,70.5,61.51h.06a7.53,7.53,0,0,0,2.88-5.07l3.78-.31a11.09,11.09,0,0,1-2.86,6.29l.4,1C75.45,65.08,76.09,65.31,77.16,65.32Z" fill="#fff"/><path d="M82.82,65.12c.63-.05,1.06-.33,1-.74s-.53-.61-1.95-1.19c-1.89-.77-3.07-1.67-3.21-3.4-.19-2.39,1.65-4.15,4.09-4.34A5.52,5.52,0,0,1,87.23,57l-2,2.27a2.67,2.67,0,0,0-2.14-1c-.51,0-.94.34-.9.8s.65.73,1.78,1.18c1.92.78,3.25,1.55,3.4,3.4.2,2.33-1.51,4-4.4,4.26a6.18,6.18,0,0,1-4.83-1.67L80,63.92A3.84,3.84,0,0,0,82.82,65.12Z" fill="#fff"/><path d="M100.22,58.93l-.38,7.37-3.64.3.35-6.53c.08-1.66-.11-2.41-.91-2.35-1.08.09-2.49,1.69-2.68,4.62l-.19,4.53-3.64.29.77-18.11,3.64-.3-.34,7.8h.09a5,5,0,0,1,3.79-2.23C99.34,54.13,100.39,55.57,100.22,58.93Z" fill="#fff"/><path d="M106.59,53.76l-.5,12-3.65.3.5-12Zm.59-3.74a2.15,2.15,0,0,1-2.1,2.36,2.09,2.09,0,0,1-2.36-1.93,2.15,2.15,0,0,1,2.1-2.34A2.07,2.07,0,0,1,107.18,50Z" fill="#fff"/><path d="M120.5,57.34c.34,4.24-1.9,7.69-5.11,7.94a4.32,4.32,0,0,1-2.87-.62h0l-.23,5.49-3.66.29.72-16.9,3.66-.3-.09,1.89h0a4.28,4.28,0,0,1,3.4-2.38C118.81,52.56,120.28,54.62,120.5,57.34Zm-3.66.52c-.09-1-.65-1.81-1.47-1.75-1.35.11-2.69,1.91-2.86,5v.38a2,2,0,0,0,1.83.6C116.21,61.94,117,59.77,116.84,57.86Z" fill="#fff"/></svg>