<svg xmlns="http://www.w3.org/2000/svg" viewBox="0 0 619.79 140.09" fill="#af75dd"><title>blackship-logo</title><path d="M13.05,3.9h37.5c18.75,0,28.2,7.2,28.2,22.05,0,10.2-5.7,21.75-16.35,27.15v.3c9.15,3.6,15,10.95,15,22.35,0,21.45-12.15,34.65-41.1,34.65H0ZM37.5,89.55c11,0,15.6-6.45,15.6-15.45,0-5.55-3.6-8.7-11.4-8.7H29.1l-3,24.15Zm3-42.75c8.25,0,14-5.7,14-14.1,0-5.4-3.3-7.65-9.9-7.65H34.05L31.2,46.8Z"/><path d="M100.8,0h22.65L109.8,110.4H87.3Z"/><path d="M127.05,81.75c0-26.1,15.45-46,34.65-46,7.65,0,13.35,2.4,17.25,6.45h.45l.6-5.1h22.65l-9,73.35H171l1.35-10.8-.45-.15c-5.4,7.8-12.75,12.3-21,12.3C135.15,111.75,127.05,98.7,127.05,81.75Zm50.4-18.6.3-2.1A16.47,16.47,0,0,0,165.6,55.8c-9.9,0-15.9,13.35-15.9,24.3,0,7.05,3.3,11.7,8.4,11.7C165.9,91.8,174.9,81.6,177.45,63.15Z"/><path d="M210.15,79.8c0-22.5,13.65-44.1,39-44.1,13,0,22.2,4.8,28.19,13.5L260.1,62.1a11,11,0,0,0-10.35-6.45c-10.05,0-16.95,10.95-16.95,23.25,0,7.95,3.9,12.75,10,12.75,4.2,0,8.4-1.8,12.75-7.05L273,95.7c-7.65,10.5-17.7,16-31.8,16C222.15,111.75,210.15,100.65,210.15,79.8Z"/><path d="M337,111.75c-11.39,0-16.79-8.7-20.84-21l-1.35-4.5A62,62,0,0,1,306,90.9l-2.25,19.5H281.7L295.35,0H317.7l-8.4,68.25.3.15c12.15-8.55,17.85-19.35,20.85-31.35h23.24c-2.85,14.85-10.5,27.3-20.85,37.05L335,80.4c3.3,10.5,7.19,12.3,13.79,12.75l-5.1,18.3A56,56,0,0,1,337,111.75Z"/><path d="M354.6,99.15,367.2,86.1c4.34,5.25,10.94,8.7,16.64,8.7,3.9,0,6.75-1.5,6.75-4,0-2.7-3-3.9-11.39-8.25C368.1,77,361.35,71,361.35,60.15c0-14.7,12-24.45,27.14-24.45,9.9,0,19.8,3.75,26.4,11.7L401.24,60.3c-4.05-5.55-9.15-7.35-12.6-7.5-3,0-5.85,1.65-5.85,4.5,0,2.4,3.6,4.8,10.35,8.1,11.4,5.7,19.2,10.95,19.2,22.5,0,14.4-11.25,23.85-29.09,23.85C372.75,111.75,361.05,107.25,354.6,99.15Z"/><path d="M435.45,0h22.34l-5.85,47.25.3.15c6.6-7.65,14.85-11.7,24.45-11.7,13.95,0,19.65,9.3,16.95,29.85l-5.85,44.85h-22.5l5.4-39.75c1.35-10.2.45-14.85-4.35-14.85-6.9,0-16.65,9.6-18.9,28.2l-3.15,26.4H421.8Z"/><path d="M513.45,37.05h22.49l-9,73.35H504.45Zm.45-22.35c0-7.65,5.69-13.2,13.94-13.2s13.5,5.4,13.5,12.75c0,7.65-5.7,13.35-14,13.35C519.45,27.6,513.9,22.05,513.9,14.7Z"/><path d="M553.19,37.05h22.5l-1.35,11,.15.3c5.4-7.8,12.75-12.6,22-12.6,15.3,0,23.25,13.35,23.25,30,0,26.1-15.45,46.05-35.1,46.05-6.9,0-12.6-1.5-17.1-5l-.6.15-4,33.14h-22.5ZM597.29,68c0-7.05-3.15-12.3-8.25-12.3-8.25,0-17.4,10.5-20.1,29.7l-.15,2a12.18,12.18,0,0,0,9.9,4.5C590.84,91.8,597.29,80.1,597.29,68Z"/></svg>
