<svg xmlns="http://www.w3.org/2000/svg" width="68.84" height="78.711" viewBox="0 0 68.84 78.711"><defs><style>.a,.b{fill:none;stroke-linecap:round;stroke-linejoin:round;stroke-width:2px;}.a{stroke:#e32c1b;}.b{stroke:#55555b;}</style></defs><g transform="translate(-207.231 -1310.551)"><g transform="translate(97.648 1204.74)"><path class="a" d="M168.977,139.522s0-27-25-27-25,26-25,26l-.072,1.289"/><path class="a" d="M117.849,158.819l-.872,15.7,11,9-2-41s21-4,30-13c0,0,6,13,6,32v22l9-8-1.028-18.5"/><path class="a" d="M127.126,166.086s7.649,12.188,16.815,12.377,18.036-12.378,18.036-12.378"/><path class="a" d="M138.28,150.589s-3.307-2.362-8.221,0"/><path class="a" d="M158.131,150.589s-3.307-2.362-8.221,0"/><path class="a" d="M143.526,169.072a8.569,8.569,0,0,0,7.626-2.173"/><path class="a" d="M139.273,145.676a7.819,7.819,0,0,1,4.252,7.37l-.1,5.48"/></g><g transform="translate(97.648 1204.74)"><path class="b" d="M167.413,157.086s10.363-.49,10-9c-.322-7.52-5.826-8.372-8.924-8.249a2.111,2.111,0,0,0-2.009,2.195l0,10.133"/><path class="b" d="M131.4,163.971A73.907,73.907,0,0,1,122.23,161a26.256,26.256,0,0,1-7.983-4.662,10.794,10.794,0,0,1-3.66-7.682,9.088,9.088,0,0,1,2.332-6.58,7.935,7.935,0,0,1,4.519-2.089,12.363,12.363,0,0,1,1.79-.123,2.116,2.116,0,0,1,2.075,2.252l.031,12.082"/><circle class="b" cx="4" cy="4" r="4" transform="translate(131.913 161.06)"/><path class="b" d="M172.873,140.33v-3.95s0-29.569-28.919-29.569-28.919,28.474-28.919,28.474l-.083,5.411"/></g></g></svg>