<svg xmlns="http://www.w3.org/2000/svg" width="68.174" height="75.621" viewBox="0 0 68.174 75.621"><defs><style>.a,.b,.c,.d{fill:none;stroke-linecap:round;stroke-linejoin:round;}.a{stroke:#ff5b45;}.a,.b,.d{stroke-width:2px;}.b{stroke:#ff3000;}.c{stroke:#e32c1b;stroke-width:2px;}.d{stroke:#55555b;}</style></defs><g transform="translate(-331.885 2.33)"><circle class="a" cx="4.033" cy="4.033" r="4.033" transform="translate(345.37 22.487)"/><path class="b" d="M348.955,26.072V12.179a11.9,11.9,0,0,1,3.486-8.416l1.543-1.543A11.9,11.9,0,0,1,362.4-1.266h0"/><circle class="a" cx="4.033" cy="4.033" r="4.033" transform="translate(371.363 22.487)"/><circle class="c" cx="4.033" cy="4.033" r="4.033" transform="translate(345.433 22.423)"/><path class="c" d="M375.909,26.008V12.115A11.9,11.9,0,0,0,372.423,3.7l-1.544-1.543a11.9,11.9,0,0,0-8.415-3.486h0"/><path class="c" d="M387.757,27.058l-1.092-10.013h-48.4l-5.378,49.3h47.41"/><circle class="c" cx="4.033" cy="4.033" r="4.033" transform="translate(371.427 22.423)"/><path class="c" d="M375.909,26.008V12.115c0-6.85-6.618-13.445-13.445-13.445s-13.445,6.595-13.445,13.445V26.008"/><path class="d" d="M399.059,42.725h-.016a11.486,11.486,0,0,0-22.963,0h-.016l.014.039c0,.1-.014.192-.014.29,0,3.017,11.169,29.237,11.169,29.237s11.826-26.05,11.826-29.237c0-.1-.012-.194-.015-.292Z"/><circle class="d" cx="5.256" cy="5.256" r="5.256" transform="translate(382.305 39.44)"/><line class="d" x1="23" transform="translate(350.176 38.734)"/><line class="d" x1="18" transform="translate(355.176 45.734)"/><line class="d" x1="11" transform="translate(362.176 52.734)"/></g></svg>