<svg xmlns="http://www.w3.org/2000/svg" width="89.969" height="76.886" viewBox="0 0 89.969 76.886"><defs><style>.a,.b{fill:none;stroke-linecap:round;stroke-linejoin:round;stroke-width:2px;}.a{stroke:#e32c1b;}.b{stroke:#55555b;}</style></defs><g transform="translate(-321.019 -96.86)"><rect class="a" width="49.056" height="14.296" transform="translate(341.476 141.49)"/><rect class="a" width="41.488" height="16.959" transform="translate(345.26 155.786)"/><rect class="a" width="13.175" height="31.256" transform="translate(359.416 141.49)"/><path class="a" d="M361.062,141.49s-.28-6.588,4.976-6.588,4.906,6.588,4.906,6.588Z"/><path class="a" d="M363.89,134.552l-7.709-10.863s-7.008,1.752-7.359,9.181l12.431,4.976"/><path class="a" d="M368.118,134.552l7.709-10.863s7.008,1.752,7.359,9.181l-12.431,4.976"/><line class="b" y2="14.362" transform="translate(366.625 97.86)"/><line class="b" x2="8.409" y2="11.507" transform="translate(340.263 106.08)"/><line class="b" x2="13.984" y2="5.349" transform="translate(322.31 128.569)"/><line class="b" y1="6.504" x2="13.228" transform="translate(323.066 153.719)"/><line class="b" y1="11.507" x2="8.598" transform="translate(383.633 106.08)"/><line class="b" y1="4.876" x2="13.795" transform="translate(395.916 129.041)"/><line class="b" x2="12.945" y2="6.504" transform="translate(395.916 153.719)"/></g></svg>