<svg xmlns="http://www.w3.org/2000/svg" width="77.001" height="63.202" viewBox="0 0 77.001 63.202"><defs><style>.a,.b{fill:none;stroke-linecap:round;stroke-linejoin:round;stroke-width:2px;}.a{stroke:#55555b;}.b{stroke:#e32c1b;}</style></defs><g transform="translate(-428.058 2.946)"><path class="a" d="M443.086,27.251A30.5,30.5,0,1,1,480.059,58.36"/><path class="a" d="M463.059,1.054l.656,1.312a6.533,6.533,0,0,0,7.428,3.417h0A6.533,6.533,0,0,0,475.4,2.366l1.657-3.312"/><path class="a" d="M494.059,50.054v-1.67a4.8,4.8,0,0,1,.684-2.471l.5-.834a4.8,4.8,0,0,1,5.244-2.2h0"/><path class="a" d="M484.059,48.054c4-2,7-4,8-7s3-2,2-6-2-6,1-7,8,3,8,3"/><path class="a" d="M490.059,3.054s-2,1-7,4-7,5-7,8,4,3,3,7a23.191,23.191,0,0,1-1.763,4.238"/><path class="a" d="M456.059,5.054s0,5,3,4,7-1,7,3,1,5-4,6-3,2-5,5-8-1-6,4"/><rect class="b" width="47" height="29.102" rx="3.17" transform="translate(429.058 30.153)"/><rect class="b" width="35.666" height="5.386" transform="translate(434.393 48.054)"/><ellipse class="b" cx="4.11" cy="3.819" rx="4.11" ry="3.819" transform="translate(461.593 34.885)"/><line class="b" x1="22.617" transform="translate(434.393 37.974)"/></g></svg>