<svg xmlns="http://www.w3.org/2000/svg" width="68" height="69" viewBox="0 0 68 69"><defs><style>.a,.b{fill:none;stroke-linecap:round;stroke-linejoin:round;}.a{stroke:#55555b;stroke-width:2px;}.b{stroke:#e32c1b;stroke-width:2px;}</style></defs><g transform="translate(-109.526 22.167)"><path class="a" d="M115.553,8.03a30.5,30.5,0,1,1,36.974,31.109"/><path class="a" d="M135.526-18.167l.656,1.313a6.534,6.534,0,0,0,7.429,3.416h0a6.531,6.531,0,0,0,4.259-3.416l1.656-3.313"/><path class="a" d="M166.526,30.833V29.164a4.808,4.808,0,0,1,.684-2.471l.5-.835a4.8,4.8,0,0,1,5.244-2.2h0"/><path class="a" d="M156.526,28.833c4-2,7-4,8-7s3-2,2-6-2-6,1-7,8,3,8,3"/><path class="a" d="M162.526-16.167s-2,1-7,4-7,5-7,8,4,3,3,7a23.164,23.164,0,0,1-1.763,4.238"/><path class="a" d="M128.526-14.167s0,5,3,4,7-1,7,3,1,5-4,6-3,2-5,5-8-1-6,4"/><path class="b" d="M149.526,23.833v22h-36v-22"/><path class="b" d="M124.526,23.833h-14v-12h42v12h-14.6"/><rect class="b" width="13" height="22" transform="translate(124.526 11.833)"/></g></svg>