<svg xmlns="http://www.w3.org/2000/svg" width="77.515" height="73.218" viewBox="0 0 77.515 73.218"><defs><style>.a,.b{fill:none;stroke-linecap:round;stroke-linejoin:round;}.a{stroke:#e32c1b;stroke-width:2px;}.b{stroke:#55555b;stroke-width:2px;}</style></defs><g transform="translate(-436.721 -111.972)"><path class="a" d="M495.3,144.41a11.708,11.708,0,0,0-1.248,8.834c1.2,5.315-3.52,9.449-3.52,9.449l3.874.9-.614,3.023h4.819l-3.333,3.142a.974.974,0,0,1,.522.992c0,.8-1.039,3.071.8,3.307s8.386-1.63,8.386-1.63l1.474,5.705a4.775,4.775,0,0,1-2.6,5.623q-.248.1-.522.188"/><path class="a" d="M512.978,135.67a19.766,19.766,0,0,0-8.481-.452,10.51,10.51,0,0,0-6.928,16.892c.057.071.114.142.173.213A49.144,49.144,0,0,0,512.2,163.561"/><path class="a" d="M494.411,156.433a2.378,2.378,0,0,1,3.206-.171"/><path class="a" d="M447.616,183.941a5.521,5.521,0,0,1-.523-.188,4.776,4.776,0,0,1-2.6-5.623l1.474-5.705s6.543,1.867,8.385,1.63.8-2.5.8-3.307a.974.974,0,0,1,.522-.992l-3.333-3.142h4.819l-.614-3.023,3.874-.9s-4.724-4.134-3.519-9.449a11.711,11.711,0,0,0-1.249-8.834"/><path class="a" d="M437.978,135.67a19.771,19.771,0,0,1,8.482-.452,10.511,10.511,0,0,1,6.928,16.892q-.086.106-.174.213a49.132,49.132,0,0,1-14.456,11.238"/><path class="a" d="M456.545,156.433s-1.512-1.677-3.756,0"/><path class="b" d="M495.277,129.655c0-9.214-8.864-16.683-19.8-16.683s-19.8,7.469-19.8,16.683c0,6.111,3.912,11.44,9.729,14.346l-.009.014-3.958,6.468,9.264-4.635,0-.018a22.67,22.67,0,0,0,9.35.041l9.22,4.612-3.911-6.391C491.286,141.207,495.277,135.829,495.277,129.655Z"/><line class="b" x2="26.929" transform="translate(461.678 122.772)"/><line class="b" x2="26.929" transform="translate(462.014 130.975)"/><line class="b" x2="9.089" transform="translate(462.014 135.077)"/><line class="b" x2="21.402" transform="translate(461.678 126.874)"/></g></svg>