<svg xmlns="http://www.w3.org/2000/svg" viewBox="0 0 981.18 653.6"><defs><clipPath id="b"><path d="M397.96 234.9l-87.93-10.67a.637.637 0 00-.48.12l-5.63 3.84-37.45 29.96c-.1.08-.17.18-.22.29l-4.08 10.29c-.12.3-.02.64.24.83l33.86 24.7c.09.07.2.11.32.13l5.19.76a.704.704 0 00.8-.65l.86-10.48 4.51 2.71c.27.16.62.13.85-.09l7.51-6.99 26.28 5.79 6.21 34.46c.06.31.31.54.62.58l47.74 5.2h.08c.17 0 .34-.06.47-.18.15-.13.24-.32.24-.52l.63-89.4c0-.36-.27-.67-.62-.71v.03z" fill="none"/></clipPath><style>.c{fill:#fff}.e{fill:#c81528}.g{fill:#f7cbcb}.h{mix-blend-mode:multiply;opacity:.5}.i{fill:#ebebeb}.l{fill:#e32c1b}</style></defs><g style="isolation:isolate"><g id="a"><path class="c" d="M806.04 196.91c-1.72 0-3.45.21-5.14.62l-.17.04-.1-.15a14.433 14.433 0 00-12.02-6.42c-7.5 0-13.68 5.62-14.38 13.08l-.02.25-.25-.03c-.45-.05-.92-.07-1.37-.07-3.76 0-7.3 1.58-9.82 4.35h62.54c-3.77-7.21-11.12-11.68-19.27-11.68zm-557.99 18.57c-.45 0-.92.02-1.37.07l-.25.03-.02-.25c-.7-7.46-6.88-13.08-14.38-13.08-4.83 0-9.32 2.4-12.02 6.42l-.1.15-.17-.04c-1.69-.41-3.41-.62-5.14-.62-8.16 0-15.5 4.46-19.27 11.68h62.54a13.223 13.223 0 00-9.82-4.35zm205.22 3.07h70.2c3.73 16.44 12.24 31.05 24.01 42.31-3.16 3.9-6.96 7.26-11.36 9.76-.24.14-.49.25-.73.36-.4 1.35-.42 2.78-.63 4.23-.82 5.59-5.08 10.05-10.05 12.44-1.47-.04-2.93-.03-4.38 0-.13-.22-.34-.4-.64-.51-3.07-1.04-6.14-2.02-9.36-2.45-2.76-.36-5.65-.44-8.2-1.7-2.05-1.02-3.79-2.52-5.49-4.03-2.09-1.99-3.6-3.2-4.82-3.95-.63-.39-1.18-.64-1.69-.82-.82.41-1.74.71-2.79.85-2.87.39-6.18-.47-8.9-2.03-.34.37-.44.97-.39 1.69.17 2.27 1.88 5.69 2.6 6.86.03.05.06.11.09.15 1.14 2.21 2.68 4.12 4.49 5.71 1.93 1.73 4.17 3.11 6.62 3.99 2.81 1.07 5.85 1.61 8.88 1.56.66-.02 2.55-.12 4.55-.38-.53.64-.97 1.54-1.16 1.99-.25.91-1.18.99-1.96 1.19-.53.14-.94.42-1.25.77-.24.28-.43.6-.55.97s-.03.09-.04.14c-.06.25-.11.49-.16.74-.17.92-.23 1.87-.26 2.8-.02.54.92.39 1.26.08.22-.2.46-.38.72-.54.02-.01.04-.03.07-.04.49-.28.95-.48 1.4-.63 2.33-.77 4.17-.04 5.81-.98.99.57 2.2.92 3.62.95 2.97 2.38 8.06 4.09 13.04 5.01l.44.09c2.44.46 4.92.71 7.4.68.53 0 1.04-.01 1.52-.04h.02c1.01-.05 1.99-.19 2.96-.37.01 0 .02.02.03.03.41.28.85.52 1.3.72l.15.06 1.64 4.21c-.66.41-1.88 1.47-3.21 4.17a.5.5 0 10.9.44c1.68-3.39 3.08-3.88 3.08-3.88.14-.04.25-.13.31-.26s.07-.27.02-.41l-1.85-4.74c.05-.1.1-.21.15-.31.1-.22.18-.45.23-.68.56-.16 1.11-.33 1.67-.52 0 0-.02-.01-.03-.02.69-.23 1.38-.47 2.07-.72.42.44.87.85 1.37 1.19.37.25.77.47 1.18.66l1.51 3.86c-.66.41-1.88 1.47-3.21 4.17a.5.5 0 10.9.44c1.68-3.39 3.08-3.88 3.08-3.88.14-.04.25-.13.31-.26s.07-.27.02-.41l-1.58-4.05s.07-.08.09-.13c3.86 2.18 7.44 4.85 10.62 7.94 4.07 4.49 9.43-5.94 10.59-9.11.4-1.6 1.29-4.08-.36-5.22-6.12-3-12.61-5.51-19.41-6.08-.25-.82-.35-1.66-.2-2.49.37-1.93 2.25-2.72 3.75-3.67 1.78-1.08 3.13-2.61 4.24-4.32 1.11-1.71 1.98-3.62 2.79-5.46a55.48 55.48 0 001.88-4.55c12.75 7.72 27.71 12.17 43.71 12.17 24.21 0 46.02-10.19 61.43-26.51h118.98l-.57-1.1c-12.24-23.43-36.26-37.99-62.68-37.99-5.6 0-11.22.67-16.7 2h-.04l-.02-.03a47.215 47.215 0 00-16.11-14.91c.14-1.98.23-3.97.23-5.99 0-46.68-37.84-84.52-84.52-84.52-39.21 0-72.17 26.7-81.72 62.91-7.75-8.06-18.6-12.95-30.33-12.95-23.22 0-42.1 18.89-42.1 42.1 0 3.48.47 7.07 1.41 10.65l.15.56-.04.04zm-315.14 48.14h68.11c.49-1.87.77-3.82.77-5.84 0-12.75-10.33-23.08-23.08-23.08-10.68 0-19.63 7.26-22.27 17.1h-11.87c-6.45 0-11.68 5.23-11.68 11.68v.14h.02z"/><path class="c" d="M170.16 500.66c1.37-.55 2.89-1.16 4.28-.44 1.57.62 1.68 2.24 2.23 3.65 4.52 12.19 19.5 17.64 31.45 13.83 13.43-4.85 30.21-11.14 43.61-16.12l2.18-.81c.7-.26 1.3-.53 2.02-.51 1.33 0 2.62.92 2.82 2.16 3.66 13 19.1 19.37 31.52 15.8 13.19-4.57 29.62-10.96 42.74-15.75l3.55-1.33c.58-.2 1.24-.5 1.66-.58 1.47-.33 3.11.58 3.34 2.11a20.54 20.54 0 002.26 5.01c-.02.09-.02.18-.04.27.1.04.2.1.29.15a22.92 22.92 0 003.76 4.45c5.82 5.33 14.06 7.62 21.81 6.56 4.98-.51 16.96-5.79 21.69-7.35l14.67-5.48c1.17-.41 2.33-.85 3.48-1.3l10.26-3.83c.95-.39 2.03-.8 3.03-.39 1.09.42 1.37.95 1.72 2.16.48 1.58 1.14 3.05 1.94 4.42.4 1.22 1.39 2.44 2.61 3.58 6.62 7.4 18.04 10.36 27.62 7.42 14.83-5.27 43.14-16.21 58.01-21.7l2.13-.79c1.08-.35 2.45.02 3.08.96.17.28.25.42.34.79 1.01 3.53 2.98 6.76 5.56 9.34 6.89 6.92 17.68 9.21 26.93 6.39 2.75-.89 6.09-2.23 8.83-3.24 5.76-2.17 20.23-7.58 26.24-9.85l8.75-3.28c.67-.24 2.6-1 3.23-1.2 1.43-.49 3.3.39 3.5 1.84 4 13.98 21.24 20.16 34.14 15.06 8.11-3.04 18.87-7.14 28.38-10.73 1.62-.42 3.22-.87 4.77-1.55 1.34-.59 2.67-1.18 4-1.75.19-.07.38-.14.56-.21l7.51-2.83c.2-.06.41-.1.62-.12.98.16 1.91.51 2.69 1.04.09.12.18.24.25.37.3.83.67 1.92.99 2.79.25.6.53 1.19.83 1.75v.06s.05.05.07.08c4.75 8.87 15.41 13.5 25.27 12.45.38 0 .77.01 1.15.01.56-.06 1.1-.15 1.62-.29h.01v-.14c4.53-.97 9.43-3.33 13.73-4.8 7.6-2.84 22.53-8.57 30.15-11.43l3.77-1.43c1.23-.45 2.36-1.07 3.67-.69 1.25.3 2.12 1.3 2.36 2.56 3.72 12.09 17.94 18.18 29.73 15.29 4.79-1.25 10.35-3.76 15.17-5.49l15.07-5.73-15.13 5.58-7.56 2.79c-2.53.9-5.01 1.98-7.62 2.54-11.57 2.72-25.51-3.33-29.02-15.18-.33-2.26-2.86-3.67-4.99-3.06-.71.22-1.28.46-1.93.69l-3.78 1.4c-7.44 2.75-22.86 8.42-30.25 11.18l-7.56 2.81c-1.97.76-3.9 1.44-5.91 1.85l-2.53-30.97 22.51-1.84-3.37-41.25-22.51 1.84-10.09-123.61-51.04 4.17-74.87 131.25 3.31 40.55 81.52-6.66 1.34 16.47c-8.17 3.04-16.77 6.24-23.47 8.72-11.99 4.69-28.22-1.02-31.89-14-.31-2.21-3.36-3.88-5.68-3.05-.48.16-.76.28-1.15.42l-2.19.82c-5.37 2.02-20.79 7.74-26.25 9.8-3.04 1.12-10.11 3.8-13.13 4.9-3.93 1.73-8.2 2.68-12.45 2.61.07-.19.15-.39.22-.58.05-.04.04-.09.04-.09v.02c1.45-3.88 2.87-7.89 4.23-12.08 6.88-21.17 10.26-40.06 10.14-56.67-.11-16.61-4.06-30.58-11.84-41.9-7.78-11.33-19.8-19.64-36.08-24.92-17.35-5.63-32.48-6.12-45.4-1.47-12.92 4.65-24.06 13.75-33.42 27.28-9.36 13.53-17.47 30.84-24.31 51.92-5.64 17.37-8.9 33.21-9.78 47.53-.15.08-.24.13-.24.13l.19.74c-.09 1.66-.15 3.29-.18 4.91-4 1.5-6.95 2.61-6.95 2.61-4.65 1.55-16.61 6.81-21.29 7.29-2.61.37-5.29.31-7.9-.13-.08-.51-.18-.94-.31-1.31v-42.06h22.59v-41.39H361.2v-23.14l.41-38.88c.57.88 1.25 1.4 2.1 1.5.1.01.21.02.31.02 7.21 0 19.94-28.85 23.71-46.81l.09-.46 9.36 1.02h.08c.17 0 .34-.06.47-.18.15-.13.24-.32.24-.52l.35-49.54c5.7-.99 11.56-5.56 16.51-13.02 6.14-9.26 8.98-20.19 6.45-24.87-.9-1.67-2.44-2.55-4.44-2.55h-.03c-9.26.04-15.48 5.09-18.21 7.89v-.64h-.04l.05-6.66c0-.25-.13-.46-.32-.59.2-29.73-3.71-59.63-15.82-82.67-3.86-7.35-5.93-12.38-2.16-20.15 3.23-6.65 2.95-12.47 2.72-14.48l.03-.16.7-.43c53.73-27.03 60.98-58.73 61.05-59.04a.686.686 0 00-.2-.65.713.713 0 00-.65-.19c-16.56 3.7-31.6 9.73-44.77 17.94 7.25-11.97 11.87-23.98 11.92-24.11a.72.72 0 00-.13-.72.71.71 0 00-.7-.22c-32.01 7.99-46.17 39.41-48.14 44.16-4.68-1.17-33.7-6.68-46.67 32.48-.02.05-.03.1-.03.15-.02.15-1.03 11.54 9.61 19.03-4.5-.84-7.75-1.41-8.77-1.59-1.49-2.75-11.5-21.23-17.45-30.04h19.72c.23 0 .45-.12.58-.31 1.29-1.89 1.35-4.16.15-6.08l-.14-.22a.704.704 0 00-.6-.33h-32.49c-.12-.52-.25-1.04-.42-1.54l-.14-.41a.718.718 0 00-.67-.49h-40.75c-.07-.4-.13-.63-.14-.66a.703.703 0 00-.64-.54c-5.6-.41-10.61-.89-15.08-1.4l-6.54-.83c-5.71-.79-10.31-1.62-13.93-2.38l-3.46-.77c-1.2-.29-2.25-.55-3.15-.8v-.7h-2.41c-1.29-.4-1.9-.64-1.93-.66a.781.781 0 00-.4-.03c-.07 0-.14-.03-.21-.03-.66 0-1.27.26-1.82.71h-3.13v6.87c-.47 2.28-.71 4.84-.71 7.35s.24 5.07.71 7.35v6.87h3.13c.55.45 1.15.71 1.82.71h.07c.09.04.18.06.27.06s.18-.02.27-.05c.03-.01.7-.28 2.1-.71h2.23v-.64c.65-.18 1.38-.37 2.2-.57.03 0 .05.02.07.02.05 0 .11 0 .16-.02l4.51-1.07c3.54-.74 7.99-1.53 13.46-2.29l9.77-1.19c3.5-.37 7.29-.71 11.41-1.02.26-.02.5-.19.6-.43.02-.05.22-.52.45-1.32h22.78c-.43 4.35.77 11.38 2.1 17.41 4.42 20.04 12.65 31.52 12.74 31.63.04.05.08.1.13.14.17.14 15.32 12.12 35.04 18.11-.6 3.58-1.16 7.29-1.73 11.11-1.44 9.62-2.93 19.57-5.47 29.35l-5.41 3.69-37.45 29.96c-.1.08-.17.18-.22.29l-4.08 10.3c-.12.3-.02.64.24.83l4.56 3.33c-.39 1.06-.72 2.12-.96 3.18-5.61 24.78 13.14 54 23.08 62.89l-2.43 3.55-17.65 25.8-44.34 64.83v40.69h81.79v36.85c-5.77 2.18-11.43 4.29-16.59 6.11-11.71 3.44-26.39-2.49-29.92-14.72-.35-2.14-3.15-3.62-5.34-2.87-14.54 5.43-32.27 12.23-46.77 17.61-11.55 3.81-26.15-1.36-30.67-13.15-.51-1.46-.88-3.27-2.54-3.91-1.52-.78-3.24-.13-4.65.47l-8.69 3.3-34.75 13.21 34.88-12.87 8.72-3.22v-.04zm451.72-53.23l19.9-35.55c2.12-3.92 3.81-7.33 5.08-10.2 1.27-2.87 2.61-6.48 4.04-10.82l1.54-.13c-.08.2-.09 1.44-.05 3.73.05 2.3.14 5.1.26 8.42.13 3.32.28 6.62.46 9.89.17 3.27.35 5.98.52 8.12l1.94 23.77-33.7 2.75v.02zm-170.77 56.21c1.87-8.93 4.87-19.76 9-32.48 4.19-12.9 8.15-23.51 11.89-31.84 3.74-8.32 7.63-14.26 11.69-17.81 4.05-3.55 8.53-4.53 13.42-2.94s7.91 5 9.06 10.25c1.15 5.24.81 12.34-1.01 21.28-1.83 8.95-4.83 19.87-9.02 32.77-1.92 5.9-3.79 11.3-5.62 16.23l-2.02 5.26-13.85 5.18c-3 1.12-8.18 3.16-11.47 4.36-2.01.72-5.08 1.99-7.05 2.56-2.16.65-4.42.98-6.69 1.02.02-3.96.57-8.56 1.67-13.84zM284.79 116.75c.3 0 .56-.19.67-.46.24-.64.41-1.31.56-1.98h3.56c-.69 4.71 0 11.55.65 16.17.61 4.38 1.49 8.56 2.44 12.34-5.88-8.68-13.92-20.33-18.48-26.07h10.6zm12.64 198.58c-.74-7.2-1.54-14.89-1.42-21.25l.25.19c.09.07.2.11.32.13l5.19.76c.19.03.39-.02.54-.15.15-.12.25-.3.26-.5l.8-9.72 5.55 2.72 7.6-7.06 26.21 5.77 4 22.22h-36.76l-11.6 16.96c-.23-3.12-.58-6.52-.95-10.06h.01zm-24.77 117.11l22.73-33.81c2.43-3.74 4.4-6.99 5.89-9.75 1.49-2.76 3.13-6.24 4.91-10.45h1.54c-.09.19-.21 1.43-.35 3.72s-.28 5.1-.42 8.42-.26 6.62-.35 9.89c-.09 3.28-.14 5.99-.14 8.14v23.85h-33.81zM904.95 536.5l-7.56 2.79c-2.53.89-5.01 1.98-7.62 2.54-11.57 2.72-25.51-3.33-29.02-15.18-.33-2.26-2.86-3.68-4.99-3.06-.71.22-1.28.46-1.93.69l-3.78 1.4c-7.44 2.75-22.86 8.42-30.25 11.18l-7.56 2.81c-2.53.98-4.98 1.83-7.62 2.15-10.3 1.53-21.9-3.67-25.91-13.59-.47-.99-.52-1.89-1.03-2.91-.94-1.83-3.27-2.58-5.15-1.97l-7.6 2.81c-10.94 4.04-26.87 10-37.79 14.03-11.99 4.69-28.22-1.02-31.89-14-.31-2.22-3.36-3.88-5.68-3.05-.48.16-.76.28-1.15.42l-2.19.82c-5.37 2.02-20.79 7.74-26.25 9.8-3.04 1.12-10.11 3.8-13.13 4.9-6.94 3.07-14.98 3.66-21.99.56-5.49-2.32-10.17-6.78-12.14-12.45-.23-.6-.3-1.09-.56-1.72-.48-1.17-1.57-2.05-2.74-2.4-1.73-.63-3.54.23-5.11.82-11.63 4.35-27.76 10.36-39.36 14.7-3 1.12-8.18 3.16-11.47 4.36-2.01.72-5.08 1.99-7.05 2.56-9.28 2.77-20.36-.04-26.44-7.75-1.49-1.9-2.67-4.05-3.38-6.35-.29-1.47-1.42-2.94-2.9-3.38-1.43-.55-2.97-.17-4.31.42l-28.39 10.66c-4.65 1.55-16.61 6.81-21.29 7.29-7.23 1.01-14.99-1.12-20.4-6.07-1.79-1.64-3.32-3.57-4.43-5.73-.78-1.38-1.18-2.91-1.73-4.38-.52-1.08-1.56-1.87-2.68-2.19-1.39-.48-3 .06-4.2.57l-3.55 1.33c-13.05 4.81-29.43 11.3-42.53 15.93-11.71 3.44-26.39-2.49-29.92-14.72-.35-2.14-3.15-3.63-5.34-2.87-14.54 5.43-32.27 12.23-46.77 17.61-11.55 3.81-26.15-1.36-30.67-13.15-.51-1.46-.88-3.27-2.54-3.91-1.52-.78-3.24-.13-4.65.47l-8.69 3.3-34.75 13.21 34.88-12.87 8.72-3.22c1.37-.55 2.89-1.16 4.28-.44 1.57.62 1.68 2.24 2.23 3.65 4.52 12.19 19.5 17.64 31.45 13.83 13.43-4.85 30.21-11.14 43.61-16.12l2.18-.81c.7-.26 1.3-.53 2.02-.51 1.33 0 2.63.92 2.82 2.16 3.66 13 19.1 19.37 31.52 15.8 13.19-4.57 29.62-10.96 42.74-15.75l3.55-1.33c.58-.2 1.24-.5 1.66-.58 1.47-.33 3.11.58 3.34 2.11 1.11 3.79 3.37 7.21 6.27 9.87 5.82 5.33 14.06 7.62 21.81 6.56 4.98-.51 16.96-5.79 21.69-7.35l28.41-10.61c.95-.39 2.03-.8 3.03-.4 1.09.42 1.37.95 1.72 2.16 3.99 13.05 19.66 19.26 32.17 15.42 14.83-5.27 43.14-16.21 58.01-21.7l2.13-.79c1.08-.35 2.45.02 3.08.96.17.28.25.42.34.79 1.01 3.53 2.98 6.76 5.56 9.34 6.89 6.92 17.68 9.21 26.93 6.39 2.75-.89 6.09-2.23 8.83-3.24 5.76-2.17 20.23-7.58 26.24-9.85l8.75-3.28c.68-.24 2.6-1 3.23-1.2 1.43-.49 3.3.39 3.5 1.84 4 13.98 21.24 20.16 34.14 15.06 10.93-4.09 26.7-10.13 37.71-14.24l7.51-2.83c1.31-.42 2.91.06 3.56 1.29.3.83.67 1.92.99 2.79 4.32 10.46 16.45 15.87 27.29 14.22 4.99-.66 10.56-3.44 15.39-5.1 7.6-2.84 22.53-8.57 30.15-11.43l3.77-1.43c1.23-.45 2.36-1.07 3.67-.69 1.25.3 2.11 1.3 2.35 2.56 3.72 12.09 17.94 18.18 29.73 15.29 4.79-1.25 10.35-3.76 15.17-5.49l15.07-5.73-15.13 5.58v.02zm-144.26 36.24c-2.53.9-5.01 1.98-7.62 2.54-11.57 2.72-25.51-3.33-29.02-15.18-.33-2.26-2.86-3.68-4.99-3.06-.71.22-1.28.46-1.93.69l-3.78 1.4c-7.44 2.75-22.86 8.42-30.25 11.18l-7.56 2.81c-2.53.98-4.98 1.83-7.62 2.15-10.3 1.53-21.9-3.67-25.91-13.59-.47-.99-.52-1.89-1.03-2.91-.94-1.83-3.27-2.58-5.15-1.97l-7.6 2.81c-10.94 4.04-26.87 10-37.79 14.03-11.99 4.69-28.22-1.02-31.89-14-.31-2.21-3.36-3.88-5.68-3.05-.48.16-.76.28-1.15.42l-2.19.82c-5.36 2.02-20.79 7.74-26.25 9.8-3.04 1.12-10.11 3.8-13.13 4.9-6.94 3.07-14.98 3.66-21.99.56-5.49-2.32-10.17-6.78-12.14-12.45-.23-.6-.3-1.09-.56-1.72-.48-1.17-1.57-2.05-2.74-2.4-1.73-.63-3.54.23-5.11.82-11.63 4.35-27.76 10.36-39.36 14.7-3 1.12-8.18 3.16-11.47 4.36-2.01.72-5.08 1.99-7.05 2.56-9.28 2.77-20.36-.04-26.44-7.75-1.49-1.9-2.67-4.05-3.38-6.35-.29-1.47-1.42-2.94-2.9-3.38-1.43-.55-2.97-.17-4.31.42l-28.39 10.66c-4.65 1.55-16.61 6.81-21.29 7.29-7.23 1.01-14.99-1.12-20.4-6.07-1.79-1.64-3.32-3.57-4.43-5.73-.78-1.38-1.18-2.91-1.73-4.38-.52-1.08-1.56-1.87-2.68-2.19-1.39-.48-3 .06-4.2.57l-3.55 1.33c-13.05 4.81-29.44 11.31-42.53 15.93-11.71 3.44-26.39-2.49-29.92-14.72-.35-2.14-3.15-3.62-5.34-2.87-14.54 5.43-32.27 12.23-46.77 17.61-11.55 3.81-26.15-1.36-30.67-13.15-.51-1.46-.88-3.27-2.54-3.91-1.52-.78-3.24-.13-4.65.47l-8.69 3.3-34.75 13.21 34.88-12.87 8.72-3.22c1.37-.55 2.89-1.16 4.28-.44 1.57.62 1.68 2.24 2.23 3.65 4.52 12.19 19.5 17.64 31.45 13.83 13.43-4.85 30.21-11.14 43.61-16.12l2.18-.81c.7-.26 1.3-.53 2.02-.51 1.33 0 2.62.92 2.82 2.16 3.66 13 19.1 19.37 31.52 15.8 13.19-4.57 29.62-10.96 42.74-15.75l3.55-1.33c.58-.2 1.24-.5 1.66-.58 1.47-.33 3.11.58 3.34 2.11 1.11 3.79 3.37 7.21 6.27 9.87 5.82 5.33 14.06 7.62 21.81 6.56 4.98-.5 16.96-5.79 21.69-7.35l28.41-10.61c.95-.39 2.03-.8 3.03-.4 1.09.42 1.37.95 1.72 2.16 3.99 13.05 19.66 19.26 32.17 15.42 14.83-5.27 43.15-16.21 58.01-21.7l2.13-.79c1.08-.35 2.45.02 3.08.96.17.28.25.42.34.79 1.01 3.53 2.98 6.76 5.56 9.34 6.89 6.92 17.68 9.21 26.93 6.39 2.75-.89 6.09-2.23 8.83-3.24 5.76-2.17 20.23-7.58 26.24-9.85l8.74-3.28c.67-.24 2.6-1 3.23-1.2 1.43-.49 3.3.39 3.5 1.84 4 13.98 21.24 20.16 34.14 15.06 10.94-4.09 26.7-10.13 37.71-14.24l7.51-2.83c1.31-.42 2.91.06 3.56 1.29.3.83.68 1.92.99 2.79 4.32 10.46 16.45 15.87 27.29 14.22 4.99-.66 10.56-3.44 15.39-5.1 7.6-2.84 22.53-8.57 30.15-11.43l3.77-1.43c1.23-.45 2.36-1.07 3.67-.69 1.25.3 2.11 1.3 2.35 2.56 3.72 12.09 17.94 18.18 29.73 15.29 4.79-1.25 10.35-3.76 15.17-5.49l15.07-5.73-15.13 5.58-7.56 2.79.02.02zm-47.35-396.07l-9.96 5.47 7.1 7.57 7.63-8.85s4.61 7.24 12.91 7.48c0 0-1.91 12.18 4.11 17.04 0 0-.46-17.77 2.62-23.89 0 0-8.38-2.31-9.79-6.89l-.61-.63 1.72-.92a2.725 2.725 0 001.23-3.43c1.23-.38 3.07-.33 3.07-.33s-.22-1-2.06-.95c-.75.02-1.37.08-1.85.14a2.73 2.73 0 00-2.98-.25l-2.92 1.57-.37-.55s-5.98-3.69-4.41-10.48c0 0-19.76 4.96-26.53 3.74 0 0 9.02 3.61 15.43 3.73 0 0 1.05 8.75 5.65 10.43h.01z"/><path class="l" d="M361.19 432.46V308.44h-51.21l-85.3 124.72v40.69h81.79v36.9c4.38-1.98 9.04-2.58 13.55-4.26 5.53-2.06 10.7-4.65 16.46-6.1 5.11-1.29 8.21 3.67 7.3 7.57 2.74 1.19 4.99 3.5 7.1 5.54 2.98 2.88 6.44 3.41 10.31 4.41v-44.06h22.59v-41.39h-22.59zm-53.8-50.3c-.14 2.29-.28 5.1-.42 8.42s-.26 6.62-.35 9.89c-.09 3.28-.14 5.99-.14 8.14v23.85h-33.81l22.73-33.81c2.43-3.74 4.39-6.99 5.89-9.75 1.49-2.76 3.13-6.24 4.91-10.45h1.54c-.09.19-.21 1.43-.35 3.72zm239.48 19.17c-7.78-11.33-19.8-19.64-36.08-24.92-17.35-5.63-32.48-6.12-45.4-1.47-12.92 4.65-24.06 13.75-33.42 27.28-9.36 13.53-17.47 30.84-24.31 51.92-6.46 19.89-9.8 37.78-10.02 53.69 2.7-1.13 5.66-1.47 8.61-1.85.54-.39 1.14-.7 1.78-.89 1.23-.37 2.45-.72 3.67-1.12.54-.18 1.06-.38 1.6-.56.07-.03.12-.05.17-.07.5-.32 1.01-.64 1.51-.96.36-.23.72-.4 1.07-.55.47-.34.95-.67 1.47-.98 4.76-2.83 9.19 1.67 8.91 5.9.13.12.27.24.39.37.09.1.18.21.27.32.08.06.16.12.24.19.52.53.93 1.12 1.22 1.79.17.22.33.44.48.7 4.21 7.3 13.42 6.41 20.4 8.67-.11-4.24.44-9.28 1.67-15.15 1.87-8.93 4.87-19.76 9-32.48 4.19-12.9 8.15-23.51 11.89-31.84 3.74-8.32 7.63-14.26 11.69-17.81 4.05-3.55 8.53-4.53 13.42-2.94s7.91 5 9.06 10.25c1.15 5.24.81 12.34-1.01 21.28-1.83 8.95-4.83 19.87-9.02 32.77-2.8 8.61-5.5 16.18-8.12 22.73.69-.29 1.48-.47 2.39-.47.52 0 1.01-.01 1.49-.03.18-.15.36-.3.56-.42 6.84-4.31 14.64-6.49 22.26-8.99 4.56-1.5 7.5 2.38 7.34 6.12 4.92 5.76 11.2 9.65 18.26 11.98.57-.18 1.21-.28 1.91-.28.53 0 1.02.06 1.48.17 1.69-4.4 3.32-8.98 4.88-13.78 6.88-21.17 10.26-40.06 10.14-56.67-.11-16.61-4.06-30.58-11.84-41.9h-.01zm189.12 78.32l-3.37-41.25-22.51 1.84-10.09-123.61-51.04 4.17-74.87 131.25 3.31 40.55 81.52-6.66 1.47 17.97c1.07-.63 2.17-1.07 3.31-1.4.44-.53.97-.98 1.61-1.26 1.77-.78 3.5-1.32 5.35-1.84.44-.12.87-.26 1.3-.41.07-.02.14-.05.2-.07.61-.26 1.21-.51 1.82-.76.91-.69 2.08-1.12 3.53-1.12h.11c3.85-3.66 11.48-1.08 10.35 4.42.35.33.68.71.98 1.16 2.83 4.25 7.64 7.02 12.34 8.77 2.75 1.02 6.35 2.21 9.75 2.57 1.14.03 2.28.03 3.42.03.56-.06 1.1-.15 1.61-.29h.01l-2.63-32.24 22.51-1.84v.02zm-114.1-32.21l19.9-35.55c2.12-3.92 3.81-7.33 5.08-10.2 1.27-2.87 2.61-6.48 4.04-10.82l1.54-.13c-.08.2-.09 1.44-.05 3.73.05 2.3.14 5.1.26 8.42.13 3.32.28 6.62.46 9.89.17 3.27.35 5.98.52 8.12l1.94 23.77-33.7 2.75v.02z"/><path class="e" d="M426.26 506.92c.06.14.11.28.16.42 1.05 3.19 6.1 6.44 8.96 8 4.19 2.28 8.62 2.33 13.13 3.43.1.03.19.07.29.1.38-.58.6-.97.6-.97s-1.64-.68-9.44-6.39c-7.81-5.71-.47-22.1-9.62-22.29-9.15-.18-32.72 12.57-32.72 12.57l1.39 5.33s.12.56.36 1.43c6.15-2.13 12.66-4.05 18.04-7.46 4.7-2.98 9.12 1.52 8.84 5.83zm111.83 5.78c.37.02.75.07 1.13.13h.04c.27.04.54.07.8.09.48.05.97.1 1.45.16.62.08 1.25.16 1.87.25.56-.81.94-1.38.94-1.38s.28 1.39-8.36-5.34c-8.63-6.73-6.86-24.57-13.84-21.78-6.98 2.79-31.54 14.02-31.54 14.02l-2.41 6.27c.92-.42 1.88-.62 2.86-.73.62-.66 1.43-1.22 2.44-1.59 4.95-1.81 9.9-3.72 15.02-4.89.82-.3 1.65-.48 2.52-.5.04 0 .08-.01.12-.02 2.68-3.16 9.03-3.26 10.67 1.98 1.7 5.44 5.88 8.89 10.86 11.33 1.7.83 3.59 1.38 5.41 2h.02zm161.22-13.48c-6.86-5.97-3.68-15.24-8.89-14.98-5.21.25-30.07 15.33-30.07 15.33v3.61s.05.17.14.43c.45-.27.95-.51 1.51-.68 2.87-.87 5.79-1.35 8.54-2.56 1.76-.78 3.48-1.58 5.26-2.28.32-.29.67-.53 1.06-.72.74-.36 1.48-.63 2.22-.89.65-.36 1.36-.6 2.11-.71 3.05-.99 5.24-.67 6.08 2.24 0 .01 1.24 2.23 1.3 2.45.06.15.14.37.18.44.27.53.56 1.05.84 1.58.54 1 1.04 2.03 1.47 3.08 1.24 1.17 2.48 2.34 3.93 3.31 3.2 2.15 7.2 3.57 10.96 4.33 2.83.57 5.95.06 8.96-.03l1.09-1.04s-9.81-6.94-16.67-12.9h-.02zm-347.72 7.39c-5.56-6.93-1.78-18.62-7.11-17.29-5.33 1.34-38.01 18.37-38.01 18.37v3.77c.13-.11.24-.22.38-.32 3.04-2.23 7.2-2.6 10.68-3.86 4.37-1.58 8.79-3.51 13-5.48 1.26-.59 2.49-.73 3.63-.55 3.21-2.38 8.28-1.99 9 2.93.26 1.79 1.83 5.19 3.46 7.09.52.23 1.02.53 1.48.93.63.55 1.13 1.18 1.61 1.85 1.33 1.03 3.63 1.8 4.92 2.41 2.32 1.09 4.55 1.59 6.99 1.78-.42-5.98-3.35-3.32-10.02-11.64h-.01z"/><circle class="g" cx="605.87" cy="199.79" r="84.52"/><path class="c" d="M557.62 183.91h62.54c-3.77-7.21-11.12-11.68-19.27-11.68-1.72 0-3.45.21-5.14.62l-.17.04-.1-.15a14.433 14.433 0 00-12.02-6.42c-7.5 0-13.68 5.62-14.38 13.08l-.02.25-.25-.03c-.45-.05-.92-.07-1.37-.07-3.76 0-7.3 1.58-9.82 4.35z"/><path class="l" d="M621.4 184.66h-65.47l1.14-1.25c2.86-3.16 7.05-4.85 11.33-4.57.96-7.6 7.35-13.27 15.08-13.27 4.97 0 9.59 2.41 12.44 6.47 1.64-.37 3.31-.56 4.98-.56 8.4 0 16.04 4.63 19.94 12.08l.57 1.1h-.01zm-61.91-1.5h59.39a20.93 20.93 0 00-17.99-10.18c-1.66 0-3.33.2-4.96.59l-.68.17-.39-.58a13.69 13.69 0 00-11.39-6.09c-7.11 0-12.97 5.33-13.64 12.4l-.1 1.01-1-.1c-3.31-.34-6.69.69-9.24 2.79z"/><path class="g" d="M762.77 208.59h62.54c-3.77-7.21-11.12-11.68-19.27-11.68-1.72 0-3.45.21-5.14.62l-.17.04-.1-.15a14.433 14.433 0 00-12.02-6.42c-7.5 0-13.68 5.62-14.38 13.08l-.02.25-.25-.03c-.45-.05-.92-.07-1.37-.07-3.76 0-7.3 1.58-9.82 4.35zm-504.91 11.24h-62.54c3.77-7.21 11.12-11.68 19.27-11.68 1.72 0 3.45.21 5.14.62l.17.04.1-.15c2.69-4.02 7.18-6.42 12.02-6.42 7.5 0 13.68 5.62 14.38 13.08l.02.25.25-.03c.45-.05.92-.07 1.37-.07 3.76 0 7.3 1.58 9.82 4.35z"/><path class="c" d="M575.91 217.8c0-.08.01-.16.01-.24 0-11.55-9.37-20.93-20.93-20.93h-21.27c-4.73-17.64-20.78-30.64-39.91-30.64-22.84 0-41.35 18.51-41.35 41.35 0 3.62.51 7.12 1.39 10.46h122.06z"/><path class="l" d="M453.85 218.55h-.58l-.15-.56c-.94-3.59-1.41-7.17-1.41-10.65 0-23.22 18.89-42.1 42.1-42.1 18.81 0 35.37 12.57 40.48 30.64h20.7c11.95 0 21.68 9.72 21.68 21.68v.93l-.75.06H453.85zm.58-1.5h120.73c-.3-10.93-9.23-19.67-20.16-19.67h-21.85l-.15-.56c-4.75-17.72-20.86-30.09-39.18-30.09-22.39 0-40.6 18.21-40.6 40.6 0 3.17.41 6.44 1.22 9.71h-.01z"/><path class="g" d="M138.13 266.69v-.14c0-6.45 5.23-11.68 11.68-11.68h11.87c2.64-9.84 11.59-17.1 22.27-17.1 12.75 0 23.08 10.33 23.08 23.08 0 2.02-.29 3.97-.77 5.84h-68.13z"/><path class="c" d="M583.78 257.05h201.26c-12.13-23.22-35.77-37.58-62.02-37.58-5.54 0-11.1.67-16.53 1.98l-.55.13-.31-.47c-8.66-12.95-23.12-20.68-38.67-20.68-24.13 0-44.03 18.1-46.29 42.1l-.08.81-.81-.08c-1.46-.15-2.95-.23-4.41-.23-12.09 0-23.5 5.09-31.59 14.01z"/><path class="l" d="M786.28 257.8H582.09l1.14-1.25a43.474 43.474 0 0132.15-14.26c1.49 0 3 .08 4.49.23h.06v-.05c2.3-24.39 22.52-42.78 47.04-42.78 15.8 0 30.49 7.85 39.29 21.01l.02.04h.04c5.48-1.34 11.1-2.01 16.7-2.01 26.42 0 50.44 14.56 62.68 37.99l.57 1.1v-.02zm-200.75-1.5H783.8c-12.15-22.29-35.32-36.08-60.77-36.08-5.48 0-10.98.66-16.35 1.96l-1.06.26-.61-.9c-8.52-12.74-22.75-20.34-38.04-20.34-23.75 0-43.32 17.81-45.54 41.42l-.15 1.57-1.57-.16c-1.44-.15-2.9-.22-4.33-.22-11.22 0-22 4.54-29.85 12.51v-.02z"/><path class="e" d="M269.02 368.32l34.32-11c38.22-17.92 47.97 13.16 51.15 30.53 1.31 7.15 3.42 14.13 6.39 20.76l.31.7 1.07-100.88h-52.28l-40.96 59.89z"/><path class="c" d="M397.56 245.13s6.9-9.36 19.23-9.41c13.09-.05-3.42 40.95-21.96 39.18l2.73-29.78z"/><path class="l" d="M395.98 275.67c-.41 0-.81-.02-1.22-.06a.714.714 0 01-.64-.77l2.73-29.78a.7.7 0 01.14-.36c.29-.39 7.26-9.64 19.8-9.7h.03c2 0 3.54.88 4.44 2.55 2.53 4.69-.31 15.61-6.45 24.87-5.62 8.48-12.42 13.23-18.83 13.23v.02zm-.38-1.42c6.01.21 12.56-4.34 18.02-12.59 5.78-8.72 8.65-19.22 6.38-23.42-.66-1.22-1.7-1.81-3.19-1.81h-.02c-10.97.04-17.6 7.79-18.55 8.97l-2.64 28.84z"/><path class="g" d="M326.45 185.7c-24.38-4.19-44.53-20.31-44.53-20.31s-8.17-11.24-12.62-31.37c-3.56-16.12-2.54-23.13 1.53-19.96s28.44 39.9 28.44 39.9H326s14.87 1.75 23.5 8.99"/><path class="l" d="M326.45 186.4h-.12c-24.28-4.17-44.65-20.3-44.85-20.46-.05-.04-.09-.09-.13-.14-.08-.11-8.31-11.59-12.74-31.63-1.91-8.65-3.55-19.35-.52-21.27.61-.38 1.65-.59 3.17.59 3.95 3.08 25.83 35.91 28.38 39.75h26.35c.7.09 15.26 1.87 23.96 9.16.3.25.34.7.09 1s-.7.34-1 .09c-8.37-7.01-22.98-8.8-23.13-8.82h-26.65c-.24 0-.46-.13-.59-.32-8.41-12.67-25.14-37.28-28.29-39.73-.48-.37-1.14-.77-1.54-.51-1.3.82-1.79 6.49 1.14 19.76 4.17 18.88 11.73 30 12.44 31.03 1.38 1.08 20.96 16.13 44.13 20.11.39.07.64.43.58.82-.06.34-.36.59-.7.59h.02z"/><path class="c" d="M319.4 173.12c-3.59 15.06-4.76 33.85-9.46 51.81-1.95 7.44-38.5 30.39-43.23 51.3-6.43 28.4 19.52 62.73 26.55 64.67 12.47 3.43-5.06-50.58 5.73-60.15 11.57-10.25 45.32-5.83 49.88-.24 16.97 20.78 6.01 89.65 14.91 90.72 6.21.75 19.14-26.68 23.24-46.24 5.59-26.67 23.26-118.13-5.21-172.32-4.01-7.63-6.03-12.84-2.17-20.79 3.86-7.95 2.55-14.79 2.55-14.79 55.16-27.32 61.89-59.17 61.89-59.17-20.3 4.54-35.8 12.04-47.19 19.54 8.26-12.87 13.53-26.66 13.53-26.66-34.52 8.61-47.89 44.32-47.89 44.32s-32.41-10.41-46.42 31.85c0 0-2.03 19.2 23.07 23.71 0 0-16.48-.27-19.78 22.42v.02z"/><path class="l" d="M316.73 125.18s3.49-.99 5.96.51c0 0-3.29.17-4.78 1.37-.58.47-1.56 2.54-1.56 2.54l-.25-2.61.62-1.81h.01z"/><path class="l" d="M316.03 131.46l-.43-4.53.74-2.16.25-.07c.15-.04 3.73-1.03 6.36.56l1.39.84-1.62.08s-3.15.18-4.49 1.26c-.34.27-1.04 1.55-1.43 2.37l-.78 1.64zm.59-4.4l.08.84c.3-.5.63-.99.91-1.21.78-.63 1.97-.99 3-1.2-1.47-.25-2.92.01-3.49.13l-.5 1.45z"/><path d="M318.66 136.51s16.1 10.95 36.22 5.47c0 0-4.98 8.46-15.1 8.45-3.45 0-18.75-5.45-21.12-13.91z" fill="#ffdad5"/><path class="l" d="M350.14 109.06s-4.6-3.28-8.08.77c0 0-.46.65-1.04 1.87 0 0 5.53 4.8 9.12-2.64z"/><path class="l" d="M344.94 113.73c-2.33 0-4.16-1.57-4.25-1.65l-.29-.25.16-.34c.59-1.25 1.07-1.92 1.09-1.95 3.77-4.39 8.73-.92 8.78-.89l.34.25-.18.38c-1.21 2.5-2.77 3.96-4.65 4.35-.34.07-.68.1-1 .1zm-3.3-2.17c.66.47 2.33 1.46 4.11 1.09 1.46-.3 2.71-1.45 3.74-3.41-1.09-.63-4.41-2.16-7.05.92s-.34.49-.79 1.4zm29.25-9.69a.65.65 0 01-.45-.17c-.3-.25-.34-.7-.09-1 10.74-12.87 25.99-23.7 26.14-23.81.32-.23.76-.15.99.17.23.32.15.76-.17.99-.15.11-15.25 10.83-25.87 23.56-.14.17-.34.25-.54.25z"/><path class="i" d="M318.51 113.6h-44.54v-5.53h44.54l.14.22c1.05 1.69 1 3.65-.14 5.31z"/><path class="l" d="M318.51 114.31h-44.54c-.39 0-.71-.32-.71-.71v-5.53c0-.39.32-.71.71-.71h44.54c.25 0 .47.13.6.33l.14.22c1.2 1.92 1.14 4.2-.15 6.08-.13.19-.35.31-.58.31h-.01zm-43.83-1.41h43.44c.76-1.32.77-2.79 0-4.11h-43.43v4.11h-.01z"/><path class="i" d="M284.79 116.05h-44.94v-10.41h44.94l.14.41c1.06 3.18 1.01 6.87-.14 10z"/><path class="l" d="M284.79 116.75h-44.94c-.39 0-.71-.32-.71-.71v-10.41c0-.39.32-.71.71-.71h44.94c.31 0 .58.2.67.49l.14.41c1.12 3.36 1.07 7.17-.15 10.47-.1.28-.37.46-.67.46zm-44.23-1.42h43.73c.92-2.83.92-6.15 0-9h-43.72v9z"/><path class="c" d="M337.88 182.04c-34.67-11.81-38.81-21.84-38.81-21.84s-5.86-13.47-8.15-29.82-.12-23.07 3.95-19.9 20.91 34.51 20.91 34.51 33.52 5.74 51.05 11.08"/><g class="h"><path class="l" d="M285.25 112.42l-.75 3.63-42.62-.26.41-3.61 42.96.24z"/></g><path class="l" d="M196.5 96.84v28.5s12.32-5.03 46.14-7.54c0 0 1.22-2.89 1.22-6.94 0-3.78-.64-6.43-.64-6.43-34.25-2.49-46.72-7.58-46.72-7.58z"/><path class="l" d="M196.5 126.05c-.14 0-.28-.04-.4-.12a.692.692 0 01-.31-.59v-28.5c0-.24.12-.46.31-.59.2-.13.45-.16.66-.07.12.05 12.81 5.08 46.5 7.53.31.02.56.24.64.54.03.11.66 2.78.66 6.6 0 4.14-1.22 7.09-1.28 7.21-.1.25-.33.41-.6.43-33.26 2.47-45.8 7.44-45.92 7.49-.09.04-.18.05-.27.05v.02zm.72-28.19v26.47c3.48-1.2 16.51-5.06 44.92-7.2.31-.9 1.02-3.26 1.02-6.26 0-2.71-.34-4.84-.52-5.77-28.76-2.13-41.92-6.03-45.42-7.24z"/><ellipse class="l" cx="196.16" cy="111.07" rx="4.94" ry="14.22"/><ellipse class="l" cx="196.16" cy="111.07" rx="5.65" ry="14.93"/><path class="c" d="M196.16 97.55c-2 0-4.24 5.55-4.24 13.51s2.23 13.51 4.24 13.51 4.23-5.55 4.23-13.51-2.23-13.51-4.23-13.51z"/><ellipse class="c" cx="196.44" cy="111.06" rx="4.87" ry="13.51"/><g class="h"><path class="l" d="M206.82 109.62l11.54.92c2.47.2 8.88.62 11.35.59l12.97.33-.41 5.92-37.04 5.27 1.58-13.03z"/></g><path class="g" d="M357 178.96c-13.3-6.03-44.19-18.66-50.36-24.22-7.71-6.95-16.23-41.14-16.23-41.14-2.8 5.05 5.57 38.21 7.84 44.59 2.22 6.22 2.57 5.82 21.01 16.3l-8.72 49.73 8.12 1.77s11.88-15.25 19.12-20.01 35.43-17.81 35.33-19.33-16.12-7.69-16.12-7.69h.01zm86.64-120.93l-3.5.83s-3.97 15.98-25.69 30.45-36.06 24.79-36.06 24.79 1.49 8.11-3.46 15.49c-4.95 7.38-4.33 14.14-1 16.76s7.28 5.14 7.28 5.14-5.66-8.76-4.04-13.62 5.76-10.33 5.33-14.43c-.07-.66-.13-1.3-.17-1.93l.7-3.97 4.19-2.57s39.76-22.3 54.21-50.03c2.65-6.09 2.22-6.92 2.22-6.92zm-37.57-5.16s-11.36 23.31-25.11 37.75l16.23-13.34s8.66-14.43 10.31-18.89 2.58-7.57 2.58-7.57l-4 2.05h-.01zM268.24 273.82s22.5 38.49 25.45 48.89c4.11 14.48.73 18.34.73 18.34s5.32.72 2.61-22.65c-2.71-23.37-2.33-29.98-2.33-29.98l-24.89-18.41-1.58 3.81z"/><path class="l" d="M309.94 224.93l87.93 10.67-.63 89.4-47.73-5.2-6.3-34.93-27.1-5.97-7.79 7.24-5.49-3.3-.95 11.62-5.19-.76-33.86-24.7 4.08-10.3 9.48-7.58 27.96-22.38 5.59-3.81z"/><path class="c" d="M310.74 224.93l86.15 11.15v6.76l-92.66-12.95 6.51-4.96z"/><path class="l" d="M396.89 243.55h-.1l-92.66-12.95a.72.72 0 01-.59-.52c-.07-.28.03-.57.26-.74l6.51-4.95c.15-.11.34-.17.52-.14l86.15 11.14c.35.05.62.35.62.7v6.76a.697.697 0 01-.7.7h-.01zm-90.88-14.13l90.17 12.6v-5.33l-85.25-11.03-4.92 3.75z"/><path class="e" d="M319.76 261.27l8.33 13.45-29.88-19.35.11 1.43c.37 4.73.44 10.21-.02 11.67-1.42-1.28-5.3-7.12-8.02-11.5a.727.727 0 00-.98-.25c-.34.19-.47.63-.29.98l13.92 26.87 6.01 2.94 7.6-7.06 28.25 6.22-25.02-25.4h-.01zm49.93-22.88c.76 0 21.4 5.59 21.4 5.59H358.2l36.63 9.65 3.54 12.45.21-23.81-28.89-3.87z"/><g clip-path="url(#b)"><path class="c" d="M386.9 258.12c7.41 11.87-1.78 16.55-7.03 3.58-11.87 7.41-16.55-1.78-3.58-7.03-7.41-11.87 1.78-16.55 7.03-3.58 11.87-7.41 16.55 1.78 3.58 7.03zm-81.14-15.75c7.41 11.87-1.78 16.55-7.03 3.58-11.87 7.41-16.55-1.78-3.58-7.03-7.41-11.87 1.78-16.55 7.03-3.58 11.87-7.41 16.55 1.78 3.58 7.03zm37.71 9.53c7.41 11.87-1.78 16.55-7.03 3.58-11.87 7.41-16.55-1.78-3.58-7.03-7.41-11.87 1.78-16.55 7.03-3.58 11.87-7.41 16.55 1.78 3.58 7.03zm53.55 40.38c7.41 11.87-1.78 16.55-7.03 3.58-11.87 7.41-16.55-1.78-3.58-7.03-7.41-11.87 1.78-16.55 7.03-3.58 11.87-7.41 16.55 1.78 3.58 7.03zm-20.32 27.3c7.41 11.87-1.78 16.55-7.03 3.58-11.87 7.41-16.55-1.78-3.58-7.03-7.41-11.87 1.78-16.55 7.03-3.58 11.87-7.41 16.55 1.78 3.58 7.03zm-20.14-32c7.41 11.87-1.78 16.55-7.03 3.58-11.87 7.41-16.55-1.78-3.58-7.03-7.41-11.87 1.78-16.55 7.03-3.58 11.87-7.41 16.55 1.78 3.58 7.03zm-83.54-26.16c7.41 11.87-1.78 16.55-7.03 3.58-11.87 7.41-16.55-1.78-3.58-7.03-7.41-11.87 1.78-16.55 7.03-3.58 11.87-7.41 16.55 1.78 3.58 7.03zm40.31 21.24c7.41 11.87-1.78 16.55-7.03 3.58-11.87 7.41-16.55-1.78-3.58-7.03-7.41-11.87 1.78-16.55 7.03-3.58 11.87-7.41 16.55 1.78 3.58 7.03z"/></g><path class="l" d="M829.76 501.86l-15.07 5.73c-4.82 1.72-10.38 4.23-15.17 5.49-11.79 2.89-26.01-3.21-29.73-15.29-.24-1.26-1.1-2.26-2.36-2.56-1.31-.38-2.44.24-3.67.69l-3.77 1.43c-7.63 2.86-22.55 8.59-30.15 11.43-4.83 1.66-10.4 4.43-15.39 5.1-10.84 1.65-22.97-3.76-27.29-14.22-.31-.86-.69-1.96-.99-2.79-.65-1.23-2.25-1.71-3.56-1.29l-7.51 2.83c-11.01 4.11-26.78 10.15-37.71 14.24-12.9 5.11-30.14-1.08-34.14-15.06-.2-1.44-2.07-2.32-3.5-1.84-.62.2-2.55.97-3.23 1.2l-8.74 3.28c-6.01 2.27-20.48 7.68-26.24 9.85-2.74 1.01-6.08 2.35-8.83 3.24-9.25 2.82-20.04.52-26.93-6.39-2.58-2.58-4.55-5.81-5.56-9.34-.09-.38-.17-.51-.34-.79-.63-.94-2.01-1.31-3.08-.96l-2.13.79c-14.87 5.49-43.18 16.43-58.01 21.7-12.51 3.84-28.17-2.37-32.17-15.42-.35-1.22-.63-1.75-1.72-2.16-1-.41-2.08 0-3.03.39l-28.41 10.61c-4.72 1.56-16.71 6.84-21.69 7.35-7.76 1.06-15.99-1.22-21.81-6.56-2.9-2.66-5.15-6.08-6.27-9.87-.23-1.53-1.87-2.45-3.34-2.11-.42.08-1.09.38-1.66.58l-3.55 1.33c-13.12 4.79-29.55 11.18-42.74 15.75-12.42 3.57-27.86-2.8-31.52-15.8-.19-1.24-1.48-2.16-2.82-2.16-.72-.03-1.32.25-2.02.51l-2.18.81c-13.4 4.98-30.18 11.27-43.61 16.12-11.95 3.81-26.92-1.64-31.45-13.83-.56-1.41-.66-3.03-2.23-3.65-1.39-.72-2.91-.11-4.28.44l-8.72 3.22-34.88 12.87 34.75-13.21 8.69-3.3c1.41-.6 3.13-1.25 4.65-.47 1.66.64 2.03 2.45 2.54 3.91 4.52 11.79 19.11 16.96 30.67 13.15 14.5-5.39 32.23-12.19 46.77-17.61 2.19-.75 4.99.73 5.34 2.87 3.53 12.23 18.21 18.16 29.92 14.72 13.1-4.62 29.48-11.12 42.53-15.93l3.55-1.33c1.2-.51 2.81-1.05 4.2-.57 1.13.31 2.16 1.11 2.68 2.19.54 1.47.94 3 1.73 4.38 1.11 2.15 2.64 4.08 4.43 5.73 5.41 4.95 13.17 7.09 20.4 6.07 4.68-.48 16.64-5.74 21.29-7.29l28.39-10.66c1.34-.59 2.88-.97 4.31-.41 1.49.44 2.61 1.91 2.9 3.38.71 2.3 1.89 4.45 3.38 6.35 6.08 7.71 17.16 10.52 26.44 7.75 1.97-.57 5.05-1.84 7.05-2.56 3.29-1.2 8.46-3.24 11.47-4.36 11.6-4.34 27.73-10.36 39.36-14.7 1.57-.6 3.38-1.45 5.11-.82 1.16.35 2.25 1.23 2.74 2.4.26.63.33 1.12.56 1.72 1.96 5.67 6.65 10.13 12.14 12.45 7.01 3.1 15.05 2.5 21.99-.56 3.01-1.1 10.08-3.78 13.13-4.9 5.46-2.06 20.89-7.78 26.25-9.8l2.19-.82c.39-.14.67-.26 1.15-.42 2.32-.84 5.37.84 5.68 3.05 3.67 12.97 19.89 18.68 31.89 14 10.92-4.03 26.85-9.99 37.79-14.03l7.6-2.81c1.88-.61 4.21.14 5.15 1.97.51 1.02.56 1.92 1.03 2.91 4.01 9.92 15.61 15.11 25.91 13.59 2.64-.32 5.09-1.17 7.62-2.15l7.56-2.81c7.39-2.76 22.81-8.43 30.25-11.18l3.78-1.4c.65-.23 1.22-.47 1.93-.69 2.13-.62 4.66.8 4.99 3.06 3.51 11.85 17.46 17.9 29.02 15.18 2.62-.55 5.09-1.64 7.62-2.54l7.56-2.79 15.13-5.58v-.02zm90.31 29.06L905 536.65c-4.82 1.72-10.38 4.23-15.17 5.49-11.79 2.89-26.01-3.21-29.73-15.29-.24-1.26-1.1-2.26-2.36-2.56-1.31-.38-2.44.24-3.67.69l-3.77 1.43c-7.63 2.86-22.55 8.59-30.15 11.43-4.83 1.65-10.4 4.43-15.39 5.1-10.84 1.65-22.97-3.76-27.29-14.22-.31-.86-.69-1.96-.99-2.79-.65-1.23-2.25-1.71-3.56-1.29l-7.51 2.83c-11.01 4.11-26.78 10.15-37.71 14.24-12.9 5.11-30.14-1.08-34.14-15.06-.2-1.44-2.07-2.32-3.5-1.84-.62.2-2.55.97-3.23 1.2l-8.75 3.28c-6.01 2.27-20.48 7.68-26.24 9.85-2.74 1.01-6.08 2.35-8.83 3.24-9.25 2.82-20.04.52-26.93-6.39-2.58-2.58-4.55-5.81-5.56-9.34-.09-.37-.17-.51-.34-.79-.63-.94-2.01-1.31-3.08-.96l-2.13.79c-14.87 5.49-43.18 16.43-58.01 21.7-12.51 3.84-28.17-2.37-32.17-15.42-.35-1.22-.63-1.75-1.72-2.16-1-.4-2.08 0-3.03.4l-28.41 10.61c-4.73 1.56-16.71 6.84-21.69 7.35-7.76 1.06-15.99-1.22-21.81-6.56-2.9-2.66-5.15-6.08-6.27-9.87-.23-1.53-1.87-2.45-3.34-2.11-.42.08-1.09.38-1.66.58l-3.55 1.33c-13.12 4.79-29.55 11.18-42.74 15.75-12.42 3.57-27.86-2.8-31.52-15.8-.19-1.24-1.48-2.16-2.82-2.16-.72-.03-1.32.25-2.02.51l-2.18.81c-13.4 4.98-30.18 11.27-43.61 16.12-11.95 3.81-26.92-1.64-31.45-13.83-.56-1.41-.66-3.03-2.23-3.65-1.39-.72-2.91-.11-4.28.44l-8.72 3.22-34.88 12.87 34.75-13.21 8.69-3.3c1.41-.6 3.13-1.25 4.65-.47 1.66.64 2.03 2.45 2.54 3.91 4.52 11.79 19.11 16.96 30.67 13.15 14.5-5.39 32.23-12.19 46.77-17.61 2.19-.75 4.99.73 5.34 2.87 3.53 12.23 18.21 18.16 29.92 14.72 13.1-4.62 29.48-11.12 42.53-15.93l3.55-1.33c1.2-.51 2.81-1.05 4.2-.57 1.13.31 2.16 1.11 2.68 2.19.54 1.47.94 3 1.73 4.38 1.11 2.15 2.64 4.08 4.43 5.73 5.41 4.95 13.17 7.08 20.4 6.07 4.68-.48 16.64-5.74 21.29-7.29l28.39-10.66c1.34-.58 2.88-.97 4.31-.41 1.49.44 2.61 1.91 2.9 3.38.71 2.3 1.89 4.45 3.38 6.35 6.08 7.71 17.16 10.52 26.44 7.75 1.97-.57 5.05-1.84 7.05-2.56 3.29-1.2 8.46-3.24 11.47-4.36 11.6-4.34 27.73-10.36 39.36-14.7 1.57-.6 3.38-1.45 5.11-.82 1.16.35 2.25 1.23 2.74 2.4.26.63.33 1.12.56 1.72 1.96 5.67 6.65 10.13 12.14 12.45 7.01 3.1 15.05 2.5 21.99-.56 3.01-1.1 10.08-3.78 13.13-4.9 5.46-2.06 20.89-7.78 26.25-9.8l2.19-.82c.39-.14.67-.26 1.15-.42 2.32-.84 5.37.83 5.68 3.05 3.67 12.97 19.9 18.68 31.89 14 10.92-4.03 26.85-9.99 37.79-14.03l7.6-2.81c1.88-.61 4.21.14 5.15 1.97.51 1.02.56 1.92 1.03 2.91 4.01 9.92 15.61 15.11 25.91 13.59 2.64-.32 5.09-1.17 7.62-2.15l7.56-2.81c7.39-2.76 22.81-8.43 30.25-11.18l3.78-1.4c.65-.23 1.22-.47 1.93-.69 2.13-.62 4.66.8 4.99 3.06 3.51 11.85 17.46 17.9 29.02 15.18 2.62-.55 5.09-1.64 7.62-2.54l7.56-2.79 15.13-5.58v-.03zm-136.69 33.44l-15.07 5.73c-4.82 1.72-10.38 4.23-15.17 5.49-11.79 2.89-26.01-3.21-29.73-15.29-.24-1.26-1.1-2.26-2.36-2.56-1.31-.38-2.44.24-3.67.69l-3.77 1.43c-7.63 2.86-22.55 8.59-30.15 11.43-4.83 1.65-10.4 4.43-15.39 5.1-10.84 1.65-22.97-3.76-27.29-14.22-.31-.86-.69-1.96-.99-2.79-.65-1.23-2.25-1.71-3.56-1.29l-7.51 2.83c-11.01 4.11-26.78 10.15-37.71 14.24-12.9 5.11-30.14-1.08-34.14-15.06-.2-1.44-2.07-2.32-3.5-1.84-.62.2-2.55.97-3.23 1.2l-8.75 3.28c-6.01 2.27-20.48 7.68-26.24 9.85-2.74 1.01-6.08 2.35-8.83 3.24-9.25 2.82-20.04.52-26.93-6.39-2.58-2.58-4.55-5.81-5.56-9.34-.09-.37-.17-.51-.34-.79-.63-.94-2.01-1.31-3.08-.96l-2.13.79c-14.87 5.49-43.18 16.43-58.01 21.7-12.51 3.84-28.17-2.37-32.17-15.42-.35-1.22-.63-1.75-1.72-2.16-1-.41-2.08 0-3.03.4l-28.41 10.61c-4.72 1.56-16.71 6.84-21.69 7.35-7.76 1.06-15.99-1.22-21.81-6.56-2.9-2.66-5.15-6.08-6.27-9.87-.23-1.53-1.87-2.45-3.34-2.11-.42.08-1.09.38-1.66.58l-3.55 1.33c-13.12 4.79-29.55 11.18-42.74 15.75-12.42 3.56-27.86-2.8-31.52-15.8-.19-1.24-1.48-2.16-2.82-2.16-.72-.03-1.32.25-2.02.51l-2.18.81c-13.4 4.98-30.18 11.27-43.61 16.12-11.95 3.81-26.92-1.64-31.45-13.83-.56-1.41-.66-3.03-2.23-3.65-1.39-.72-2.91-.11-4.28.44l-8.72 3.22-34.88 12.87 34.75-13.21 8.69-3.3c1.41-.6 3.13-1.25 4.65-.47 1.66.64 2.03 2.45 2.54 3.91 4.52 11.79 19.11 16.96 30.67 13.15 14.5-5.38 32.23-12.19 46.77-17.61 2.19-.75 4.99.73 5.34 2.87 3.53 12.23 18.21 18.16 29.92 14.72 13.1-4.62 29.48-11.12 42.53-15.93l3.55-1.33c1.2-.51 2.81-1.05 4.2-.57 1.13.31 2.16 1.11 2.68 2.19.54 1.47.94 3 1.73 4.38 1.11 2.15 2.64 4.08 4.43 5.73 5.41 4.95 13.17 7.09 20.4 6.07 4.68-.48 16.64-5.74 21.29-7.29l28.39-10.66c1.34-.58 2.88-.97 4.31-.41 1.49.44 2.61 1.91 2.9 3.38.71 2.3 1.89 4.45 3.38 6.35 6.08 7.71 17.16 10.52 26.44 7.75 1.97-.57 5.05-1.84 7.05-2.56 3.29-1.2 8.46-3.24 11.47-4.36 11.6-4.34 27.73-10.36 39.36-14.7 1.57-.6 3.38-1.45 5.11-.82 1.16.35 2.25 1.23 2.74 2.4.26.63.33 1.12.56 1.72 1.96 5.67 6.65 10.13 12.14 12.45 7.01 3.1 15.05 2.5 21.99-.56 3.01-1.1 10.08-3.78 13.13-4.9 5.46-2.06 20.89-7.78 26.25-9.8l2.19-.82c.39-.14.67-.26 1.15-.42 2.32-.83 5.37.84 5.68 3.05 3.67 12.97 19.89 18.68 31.89 14 10.92-4.03 26.85-9.99 37.79-14.03l7.6-2.81c1.88-.61 4.21.14 5.15 1.97.51 1.02.56 1.92 1.03 2.91 4.01 9.92 15.61 15.11 25.91 13.59 2.64-.32 5.09-1.17 7.62-2.15l7.56-2.81c7.39-2.76 22.81-8.43 30.25-11.18l3.78-1.4c.65-.23 1.22-.47 1.93-.69 2.13-.62 4.66.8 4.99 3.06 3.51 11.85 17.46 17.9 29.02 15.18 2.62-.55 5.09-1.64 7.62-2.54l7.56-2.79 15.13-5.58v-.03zM569.11 298.71c-6.12-3-12.61-5.51-19.41-6.08-.25-.82-.35-1.66-.2-2.49.37-1.93 2.25-2.72 3.75-3.67 1.78-1.08 3.13-2.61 4.24-4.32 1.11-1.71 1.98-3.62 2.79-5.46 1.71-3.63 2.9-7.15 3.62-10.62 1.08-5.2 1.09-10.27.2-15.36-.9-5.09-2.71-10.21-5.27-15.51-.19-.44-.56-.6-.95-.58-.01.06-.03.12-.04.18-1.19 14.38-9.03 28.59-21.72 35.82-.24.14-.49.25-.73.36-.4 1.35-.42 2.78-.63 4.23-.82 5.59-5.08 10.05-10.05 12.44-1.47-.04-2.93-.03-4.38 0-.13-.22-.34-.4-.64-.51-3.07-1.04-6.14-2.02-9.36-2.45-2.76-.36-5.65-.44-8.2-1.7-2.05-1.02-3.79-2.52-5.49-4.03-2.09-1.99-3.6-3.2-4.82-3.95-.63-.39-1.18-.64-1.69-.82-.82.41-1.74.71-2.79.85-2.87.39-6.18-.47-8.9-2.03-.34.37-.44.97-.39 1.69.17 2.27 1.88 5.69 2.6 6.86.03.05.06.11.09.15 1.14 2.21 2.68 4.12 4.49 5.71 1.93 1.73 4.17 3.11 6.62 3.99 2.81 1.07 5.85 1.61 8.88 1.56.66-.02 2.55-.12 4.55-.38-.53.64-.97 1.54-1.16 1.99-.25.91-1.18.99-1.96 1.19-.53.14-.94.42-1.25.77-.24.28-.43.6-.55.97s-.03.09-.04.14c-.06.25-.11.49-.16.74-.17.92-.23 1.87-.26 2.8-.02.54.92.39 1.26.08.22-.2.46-.38.72-.54.02-.01.04-.03.07-.04.49-.28.95-.48 1.4-.63 2.33-.77 4.17-.04 5.81-.98.99.57 2.2.92 3.62.95 2.97 2.38 8.06 4.09 13.04 5.01l.44.09c2.44.46 4.92.71 7.4.68.53 0 1.04-.01 1.52-.04h.02c1.01-.05 1.99-.19 2.96-.37.01 0 .02.02.03.03.41.28.85.52 1.3.72l.15.06 1.64 4.21c-.66.41-1.88 1.47-3.21 4.17a.5.5 0 10.9.44c1.68-3.39 3.08-3.88 3.08-3.88.14-.04.25-.13.31-.26s.07-.27.02-.41l-1.85-4.74c.05-.1.1-.21.15-.31.1-.22.18-.45.23-.68.56-.16 1.11-.33 1.67-.52 0 0-.02-.01-.03-.02.69-.23 1.38-.47 2.07-.72.42.44.87.85 1.37 1.19.37.25.77.47 1.18.66l1.51 3.86c-.66.41-1.88 1.47-3.21 4.17a.5.5 0 10.9.44c1.68-3.39 3.08-3.88 3.08-3.88.14-.04.25-.13.31-.26s.07-.27.02-.41l-1.58-4.05s.07-.08.09-.13c3.86 2.18 7.44 4.85 10.62 7.94 4.07 4.49 9.43-5.94 10.59-9.11.4-1.6 1.29-4.08-.36-5.22l-.03.02zm168.64-117.22s-8.38-2.31-9.79-6.89l-.61-.63 1.72-.92a2.725 2.725 0 001.23-3.43c1.23-.38 3.07-.33 3.07-.33s-.22-1-2.06-.95c-.75.02-1.37.08-1.85.14a2.73 2.73 0 00-2.98-.25l-2.92 1.57-.37-.55s-5.98-3.69-4.41-10.48c0 0-19.76 4.96-26.53 3.74 0 0 9.02 3.61 15.43 3.73 0 0 1.05 8.75 5.65 10.43l-9.96 5.47 7.1 7.57 7.63-8.86s4.61 7.24 12.91 7.48c0 0-1.91 12.18 4.11 17.04 0 0-.46-17.77 2.62-23.88h.01zM397.24 325.71h-.08l-47.74-5.2a.71.71 0 01-.62-.58l-6.21-34.46-26.28-5.79-7.51 6.99c-.23.21-.58.25-.85.09l-4.51-2.71-.86 10.48a.704.704 0 01-.8.65l-5.19-.76a.803.803 0 01-.32-.13l-33.86-24.7a.703.703 0 01-.24-.83l4.08-10.3c.05-.12.12-.22.22-.29l37.45-29.96 5.63-3.84c.14-.1.31-.14.48-.12l87.93 10.67c.36.04.63.35.62.71l-.63 89.4c0 .2-.09.39-.24.52-.13.12-.3.18-.47.18v-.02zm-47.13-6.55l46.43 5.06.62-87.98-87.04-10.56-5.37 3.66-37.26 29.81-3.81 9.61 33.27 24.27 4.27.63.89-10.87c.02-.24.17-.46.38-.57.22-.11.48-.1.69.02l5.03 3.03 7.4-6.88c.17-.16.41-.22.63-.17l27.1 5.97c.28.06.49.29.54.57l6.2 34.41h.03z"/><path class="l" d="M318.5 173.94c-1.5 6.53-2.58 13.67-3.71 21.22-1.45 9.7-2.95 19.74-5.53 29.6-.04.16-.11.32-.19.5.15 0 .29-.02.45-.02.36 0 .7.03 1.02.08.03-.08.05-.16.07-.23 2.59-9.93 4.1-20 5.56-29.75 1.12-7.46 2.18-14.52 3.65-20.95-.49-.09-.92-.25-1.33-.45zm-22.47 119.42c-.5-.13-.98-.33-1.42-.6-.27 6.59.57 14.71 1.4 22.7 1.12 10.87 2.28 22.1-.49 24.45-.51.44-1.2.53-2.08.29-2.96-.82-11.03-9.14-17.88-22.06-4.61-8.7-11.8-25.69-8.16-41.77.25-1.11.6-2.23 1.03-3.35-.47-.07-.93-.18-1.37-.35-.43 1.14-.78 2.28-1.04 3.41-6.51 28.76 19.79 63.51 27.05 65.51 1.35.37 2.49.18 3.38-.58 3.34-2.83 2.25-13.42.98-25.68-.77-7.47-1.6-15.47-1.4-21.97zm90.36 31.16c-.02.11-.05.23-.07.33-4.25 20.29-17.04 46.31-22.46 45.68-3.14-.38-3.37-13.9-3.62-28.21-.12-6.82-.24-14.15-.65-21.39-.46.08-.93.11-1.41.09.4 7.21.53 14.53.65 21.33.33 19.1.7 29.09 4.87 29.59.1.02.21.02.31.02 7.21.01 19.95-28.83 23.71-46.8.04-.18.08-.38.12-.57-.48.04-.96.01-1.44-.08zm58.18-267.08a.713.713 0 00-.65-.19c-16.56 3.7-31.6 9.73-44.77 17.94 7.25-11.97 11.87-23.98 11.92-24.11.1-.24.04-.52-.13-.72a.684.684 0 00-.7-.22c-32.02 7.99-46.17 39.41-48.14 44.16-4.68-1.17-33.7-6.68-46.67 32.48-.01.05-.03.1-.03.15-.02.17-1.24 13.77 12.9 21.01 1.66.06 3.31.25 4.93.52-17.36-5.83-16.56-20.03-16.44-21.34 5.64-16.97 15.28-27.76 27.88-31.22 9.55-2.61 17.54-.13 17.62-.1.35.11.75-.08.88-.43.12-.35 13.26-34.51 46.04-43.52-1.51 3.72-6.27 14.84-12.94 25.23a.713.713 0 00.99.98c13.35-8.79 28.75-15.24 45.8-19.18-1.82 5.82-12.76 33.59-61.2 57.58-.28.14-.44.46-.38.77.02.06 1.22 6.69-2.49 14.34-4.05 8.36-1.76 13.91 2.19 21.43 12.04 22.91 15.9 52.72 15.66 82.36.48 0 .95.06 1.41.17.25-29.9-3.64-60-15.81-83.17-3.86-7.35-5.93-12.37-2.16-20.15 3.34-6.88 2.92-12.89 2.69-14.69 54.41-27.12 61.73-59.11 61.8-59.43a.711.711 0 00-.2-.65z"/><path class="l" d="M337.88 182.75c-.08 0-.15 0-.23-.04-34.57-11.78-39.06-21.81-39.23-22.24-.05-.12-5.92-13.73-8.19-29.99-.97-6.98-2.06-19.01 1.66-21.15.7-.4 1.86-.63 3.42.59 3.96 3.09 19.08 30.99 20.93 34.43 3.58.62 34.37 6.04 50.79 11.04.38.11.59.51.47.88s-.51.59-.88.47c-17.28-5.26-50.63-11-50.96-11.06a.715.715 0 01-.5-.36c-5.8-10.79-17.6-31.85-20.72-34.29-.76-.59-1.38-.75-1.84-.48-1.59.92-2.8 6.64-.97 19.73 2.25 16.06 8.04 29.5 8.09 29.63.05.1 4.65 9.95 38.39 21.45.37.13.57.53.44.9-.1.29-.38.48-.67.48z"/><path class="i" d="M221.04 102.13c.91 1.68 1.52 3.53 1.68 5.44.21 2.36.2 4.74-.02 7.11-.17 1.83-.73 3.6-1.59 5.23l-.08.15 10.36-1.26.03-.17c.97-5.02.96-10.17-.03-15.19l-10.36-1.31h.01z"/><path class="l" d="M221.04 120.76c-.23 0-.45-.11-.58-.31a.711.711 0 01-.05-.73l.08-.15c.85-1.61 1.35-3.28 1.51-4.96.21-2.32.22-4.67.02-6.98-.15-1.75-.69-3.48-1.6-5.16-.13-.23-.11-.52.04-.74s.41-.34.67-.3l10.36 1.31c.3.04.55.27.61.57a40.21 40.21 0 01.03 15.46l-.03.17c-.06.3-.3.53-.61.57l-10.36 1.26h-.09zm1.21-17.77c.65 1.47 1.04 2.99 1.17 4.51.21 2.39.2 4.83-.02 7.23-.14 1.5-.53 3-1.17 4.45l8.55-1.04c.86-4.68.86-9.41 0-14.08l-8.54-1.08z"/><path class="i" d="M203.37 98.87l1.28 3.66c1.82 5.21 1.9 10.86.23 16.12l-1.51 4.73 4.97-1.18 1.13-3.59c1.65-5.2 1.57-10.79-.21-15.94l-.93-2.69-4.97-1.11z"/><path class="l" d="M203.37 124.09c-.2 0-.38-.08-.52-.23a.741.741 0 01-.16-.7l1.51-4.73a24.853 24.853 0 00-.22-15.67l-1.28-3.66c-.08-.24-.03-.51.14-.71s.44-.28.68-.22l4.97 1.11c.24.05.44.23.52.46l.93 2.69c1.82 5.26 1.89 11.08.21 16.39l-1.13 3.58c-.08.24-.27.42-.51.48l-4.97 1.18c-.05.01-.11.02-.16.02zm1.09-24.24l.86 2.46c1.86 5.32 1.95 11.2.23 16.57l-1.13 3.54 3.36-.8 1.01-3.2a24.817 24.817 0 00-.2-15.5l-.8-2.32-3.34-.75h.01zm153.03 85.38c-6.3 0-11.27-.71-11.34-.72a.707.707 0 01.2-1.4c.08 0 8.21 1.17 16.83.49.39-.04.73.26.76.65s-.26.73-.65.76c-1.99.16-3.96.22-5.81.22h.01z"/></g></g></svg>