<?xml version="1.0" encoding="UTF-8"?><svg id="a" xmlns="http://www.w3.org/2000/svg" viewBox="0 0 328.7 79"><defs><style>.b{fill:#e32c1b;}</style></defs><path class="b" d="M310.58,77.9l-.42-5.68c2.87-2.23,5.71-4.57,7.76-7.56,.77-.97,1.22-2.16,1.29-3.4,.03-1.28-.87-2.38-2.13-2.61-.59-.04-1.31,.15-1.69-.31-.23-.4-.23-.9,0-1.3,.56-1.14,1.26-2.2,2.08-3.16,.82-.97,1.38-2.14,1.62-3.39,.22-1.28-.4-2.56-1.54-3.19-.99-.36-2.09-.19-2.93,.45-.82,.63-1.52,1.4-2.09,2.27-1.05-5.04,3.33-10.27,1.6-15.12-1.19-3.34-4.86-5.08-8.2-3.9-2.58,.92-4.29,3.37-4.27,6.1,.03,2.99,2.06,5.52,3.24,8.26,.3,.5,.34,1.11,.11,1.64-.48,.55-1.3,.63-1.87,.17-.53-.46-.97-1.02-1.28-1.65-.32-.63-.9-1.1-1.58-1.3-1.01-.04-1.89,.68-2.04,1.68-.11,.97,.06,1.96,.49,2.84,1.23,3.08,2.97,5.94,5.14,8.45,.59,.68,1.2,1.75,.54,2.36-.55,.35-1.26,.29-1.74-.14-.46-.43-1.01-.76-1.6-.97-1.09-.07-2.03,.75-2.12,1.84-.04,1.06,.25,2.1,.84,2.98,1.74,3.16,4.15,5.9,7.04,8.05l.92,.65-.24,5.94h-10.83c-2.69-.89-5.73-1.97-9.11-3.29l-.12-1.61c.88-.5,2.28-1.82,2.54-2.09,2.04-2.16,3.35-4.91,3.72-7.86,.18-1.95,.05-3.92-.39-5.82-.33-.98-.87-1.48-1.74-.78-.34,.27-.55,.77-.98,.8-.35-.02-.64-.29-.68-.65-.03-.34,.02-.69,.15-1.01,.94-3.33,.59-6.9-.97-9.99-.34-.74-.84-1.4-1.47-1.91-.65-.52-1.51-.67-2.3-.41-1.3,.52-1.59,2.24-1.39,3.63,.21,1.43,.72,2.79,.98,4.21,.34,1.41,.13,2.91-.6,4.17-.29-.93-1.28-1.46-2.22-1.16-.08,.02-.15,.05-.23,.09-2.24,1.03-1.67,5.59-1.42,7.58,.49,4.05,2.15,8.19,5.45,10.71l-.06,1.43c-5.3-2.12-11.42-4.8-18.41-8.19v-2.7h.67l2.59-1.68,1.71-1.1h2.08l.6-1.21,.65-.47,2.11-1.52,.12-.09c-2.67-.25-5.31-.73-7.9-1.44h.45v-2.89h-3.09v-4.07h.67l2.59-1.68,1.71-1.1h2.08l.6-1.21,.65-.47,2.11-1.52,.12-.09c-2.71-.26-5.4-.75-8.03-1.48h.57v-2.89h-3.09v-4.26h.67l2.59-1.68,1.71-1.1h2.08l.6-1.21,.65-.47,2.11-1.52,.12-.09c-2.71-.26-5.4-.75-8.03-1.48h.57v-2.89h-3.09v-4.26h.67l2.59-1.68,1.7-1.1h2.08l.6-1.21,.65-.47,2.11-1.52,.12-.09c-16.58-1.68-19.67-9.06-19.67-9.06l-1.01-2.42-.6-1.14-1.46-.46h-.02l-1.48,.46-.6,1.14-1.01,2.42s-3.09,7.38-19.67,9.06l.12,.09,2.11,1.52,.65,.47,.6,1.21h2.09l1.7,1.1,2.59,1.68h.67v4.26h-3.1v2.89h.58c-2.63,.73-5.31,1.22-8.03,1.48l.12,.09,2.11,1.52,.65,.47,.6,1.21h2.08l1.71,1.1,2.59,1.68h.67v4.26h-3.09v2.89h.58c-2.63,.73-5.31,1.22-8.03,1.48l.12,.09,2.11,1.52,.65,.47,.6,1.21h2.08l1.71,1.1,2.59,1.68h.67v4.07h-.32c-11.05-6.28-23.53-13.9-37.55-23.16-22.26-14.7-28.71-22.85-30.54-26.01-.55-.95-1.55-1.55-2.65-1.55h-12.22c-.84,0-1.65,.35-2.23,.96-5.38,5.67-34.52,35.4-75.63,60.03-.04-.16-.1-.31-.17-.46-.58-1.19-2.03-1.69-3.22-1.1-.19-.49-.47-.94-.84-1.31-3.53-3.43-6.69,.41-6.69,.41-.55-2.66-2.69-4.7-5.37-5.14-.17-.04-.34-.07-.52-.09-3.69-.53-7.11,2.04-7.64,5.74-.02-.04-.04-.08-.06-.11-.4-.68-1.28-.91-1.96-.5-.1-.18-.2-.36-.31-.53-2.91-4.63-9.01-6.02-13.64-3.11-1.51,1.09-2.63,2.62-3.22,4.38-2.72,.79-4.65,3.2-4.84,6.03-.49-.21-1.03-.21-1.52-.02-1.03,.41-1.54,1.57-1.13,2.61-.51,.21-.89,.65-1.02,1.18-.26-.08-.53-.04-.76,.11-.39,.27-.48,.8-.21,1.19-.47,.2-.91,.45-1.33,.74,0,0-3.44-2.68-6.8,.08-1.83,1.51-2.04,3.39-1.79,4.92h-7.59l-.33-4.42c.92-.53,2.39-1.92,2.67-2.2,2.15-2.27,3.52-5.17,3.91-8.27,.19-2.05,.06-4.12-.41-6.12-.34-1.03-.91-1.55-1.83-.82-.36,.28-.57,.81-1.03,.84-.37-.02-.68-.31-.71-.68-.03-.36,.03-.72,.15-1.06,.99-3.51,.62-7.25-1.02-10.5-.35-.78-.88-1.47-1.55-2.01-.68-.54-1.59-.71-2.41-.43-1.37,.55-1.67,2.36-1.46,3.82,.22,1.5,.76,2.93,1.03,4.42,.36,1.49,.14,3.06-.63,4.38-.31-.98-1.35-1.53-2.33-1.23-.08,.03-.16,.06-.24,.09-2.35,1.09-1.75,5.88-1.5,7.97,.52,4.26,2.27,8.61,5.74,11.26l-.2,4.95H0v14.61H328.7v-14.61h-18.12Z"/></svg>
