<?xml version="1.0" encoding="UTF-8"?><svg xmlns="http://www.w3.org/2000/svg" viewBox="0 0 162.49 260.25"><defs><style>.b,.c{fill:#fff;}.d,.e,.f,.g,.h,.i,.j,.k,.l,.c{stroke:#e32c1b;}.d,.e,.l,.c{stroke-linecap:round;stroke-linejoin:round;}.d,.j,.k,.l{fill:none;}.d,.c{stroke-width:1.18px;}.e,.h,.m,.n{fill:#f7cbcb;}.f{stroke-width:.53px;}.f,.g,.o,.h,.i,.j,.p,.q,.r,.k{stroke-miterlimit:10;}.f,.g,.i,.p,.s{fill:#e32c1b;}.g,.o,.p,.r{stroke-width:.55px;}.t{isolation:isolate;}.o{fill:#e95649;}.o,.p,.q,.r{stroke:#544e50;}.u,.v{fill:#544e50;}.i{stroke-width:.83px;}.w,.v{opacity:.3;}.j,.v,.n{mix-blend-mode:multiply;}.q{fill:#ebebeb;stroke-width:.86px;}.r{fill:#f9d5d5;}.x{fill:#ffdad5;}</style></defs><g class="t"><g id="a"><ellipse class="m" cx="76.58" cy="254.46" rx="76.58" ry="5.79"/><g><path class="c" d="M92.56,89.91s14.14,13.32,20.89,22.07c.46,.6,12.83-7.49,20.1-13.93,6.46-5.72,12.73,1.02,9.54,6.17l-4.83,7.88c-4.84,7.9-11.55,14.53-19.66,19-4.32,2.38-8.3,3.75-10.07,2.42l-3.06-12.53s-2.95-14.01-12.92-31.09Z"/><path class="n" d="M97.23,98.67s11.65,26.64,18.51,26.64c12.71,0,27.36-21.08,27.36-21.08,0,0-7.81,13.01-12.63,17.83-4.82,4.82-17.57,11.94-20.55,11.99s-2.81-7.68-2.81-7.68l-9.88-27.71Z"/></g><path class="u" d="M142.89,119c-8.57-9.78-18.45-13.25-28.58-10.06-.49,.15-1.34,.52-1.81,.7,.47,.58,.68,1.11,1.33,1.79,.46-.18,.64-.25,1.13-.41,22.45-7.08,35.64,24.14,35.77,24.45l2.02-.83c-.14-.34-3.5-8.39-9.86-15.64Z"/><g><g><g><path class="u" d="M134.47,129.22s.47-.78,1.04-1.44c.57-.67,1.24-1.22,1.53-.89,.25,.27-.39,1.18-1.17,2.22-.78,1.03-1.69,2.23-2.12,2.81-.43,2.72-.6,5.48-.51,8.23h-.4c-.09-2.93,.11-5.87,.6-8.77-.17-.84-.59-1.91-.83-2.9-.26-.99-.35-1.89,.04-2.3,.46-.49,.71,.07,.84,.72,.14,.66,.19,1.42,.19,1.42,0,0,.11-.99,.38-1.99,.27-1,.69-1.99,1.13-2.01,.87-.02-.01,2.75-.72,4.89Z"/><path class="u" d="M130.83,129.92s-.06-.77-.08-1.54c-.01-.77,.03-1.55,.41-1.51,.32,.03,.53,1.08,.56,2.26,.04,1.18-.12,2.47-.22,3.07,.73,2.21,1.19,4.52,1.35,6.84l-.34,.02c-.17-2.43-.67-4.84-1.47-7.14-.46-.55-1.22-1.1-1.86-1.58-.64-.49-1.15-.91-1.13-1.35,.03-.52,.48-.37,.92-.06,.44,.31,.86,.77,.86,.77,0,0-.42-.7-.82-1.42-.4-.73-.78-1.51-.56-1.8,.44-.6,1.83,1.55,2.36,3.43Z"/><path class="u" d="M138.63,125.38s.84-.69,1.77-1.17c.93-.49,1.9-.77,2.08-.29,.16,.41-.93,1.09-2.22,1.91-1.29,.81-2.78,1.81-3.48,2.32-1.47,2.95-2.5,6.13-3.02,9.39l-.48-.08c.56-3.5,1.69-6.9,3.32-10.05,.11-1.03,.07-2.42,.21-3.66,.13-1.24,.45-2.32,1.07-2.61,.74-.35,.76,.39,.61,1.19-.07,.4-.17,.83-.26,1.15l-.15,.55s.54-1.08,1.31-2.08c.75-1.01,1.72-1.9,2.2-1.71,.49,.2,.14,.95-.52,1.91-.66,.96-1.62,2.16-2.46,3.22Z"/><path class="u" d="M136.9,132.14s.44-.35,.91-.61c.48-.26,.98-.43,1.08-.18,.09,.21-.48,.59-1.15,1.03-.67,.43-1.45,.93-1.82,1.19-.8,1.51-1.44,3.1-1.88,4.75l-.24-.07c.48-1.76,1.17-3.46,2.05-5.06,.12-1.04,0-2.89,.65-3.21,.38-.18,.4,.19,.33,.6-.06,.42-.2,.87-.2,.87,0,0,.28-.56,.65-1.08,.37-.52,.85-1,1.1-.92,.51,.18-.62,1.58-1.48,2.68Z"/><path class="u" d="M135.47,120.92s.06-.68,.16-1.35c.1-.67,.24-1.34,.57-1.25,.27,.07,.31,1.02,.16,2.05-.14,1.03-.47,2.12-.66,2.62,.29,2.02,.3,4.09,.03,6.11l-.3-.04c.28-2.11,.25-4.27-.08-6.38-.31-.54-.89-1.13-1.37-1.64-.48-.51-.86-.95-.78-1.32,.1-.44,.46-.25,.81,.08,.33,.33,.63,.79,.63,.79,0,0-.26-.66-.5-1.35-.24-.69-.47-1.41-.23-1.63,.47-.46,1.38,1.6,1.55,3.3Z"/><path class="u" d="M131.37,124.76s-.07-.72-.09-1.44c-.02-.72,.02-1.45,.38-1.42,.3,.03,.5,1.01,.54,2.1,.05,1.1-.05,2.3-.12,2.87,.4,1.02,.75,2.06,1.04,3.12,.27,1.06,.51,2.15,.43,3.26l-.32-.04c.08-1.08-.18-2.23-.48-3.32-.31-1.1-.69-2.19-1.11-3.26-.92-1.01-2.94-1.93-2.9-2.72,.02-.49,.45-.35,.87-.06,.42,.29,.82,.73,.82,.73,0,0-.41-.65-.79-1.34-.37-.69-.74-1.41-.53-1.69,.2-.28,.64,.07,1.08,.73,.44,.66,.88,1.61,1.16,2.48Z"/></g><path class="r" d="M131.55,136.76c-1.18,.34-2.04,1.42-2.43,2.59s-.38,2.43-.34,3.66c.15,5.08,.71,10.15,1.66,15.15,2.24-.92,3.03-3.63,3.54-6,.44-2.01,.76-4.1,1.34-6.08,.34-1.14,1.07-2.22,1.27-3.4,.44-2.68-1.86-6.83-5.03-5.92Z"/><path class="u" d="M130.52,141.64c1.35,.62,2.58,.24,4,.05-1.05,.95-3.12,1.28-4-.05h0Z"/><path class="u" d="M130.46,142.94c1.35,.62,2.58,.24,4,.05-1.05,.95-3.12,1.28-4-.05h0Z"/><path class="u" d="M130.43,144.22c1.35,.62,2.58,.24,4,.05-1.05,.95-3.12,1.28-4-.05h0Z"/></g><g><g><path class="u" d="M144.82,128.01s.75-.51,1.55-.87c.8-.37,1.63-.59,1.77-.17,.12,.35-.85,.91-1.99,1.53-1.14,.61-2.47,1.32-3.11,1.66-1.53,2.29-2.84,4.72-3.92,7.26l-.37-.16c1.15-2.7,2.57-5.29,4.22-7.72,.19-.83,.27-1.98,.46-2.98,.18-1,.48-1.86,1-2.07,.62-.25,.61,.36,.46,1.01-.15,.66-.42,1.37-.42,1.37,0,0,.52-.86,1.18-1.65,.66-.8,1.46-1.52,1.87-1.35,.8,.34-1.16,2.49-2.7,4.14Z"/><path class="u" d="M141.23,127.11s.27-.73,.58-1.43c.31-.7,.67-1.39,1-1.2,.28,.16,.03,1.21-.44,2.29-.46,1.09-1.14,2.19-1.49,2.69-.26,2.32-.81,4.6-1.64,6.78l-.32-.12c.86-2.28,1.42-4.67,1.66-7.1-.19-.69-.65-1.51-1.03-2.21-.37-.71-.66-1.31-.46-1.69,.25-.46,.58-.13,.86,.33,.27,.46,.46,1.06,.46,1.06,0,0-.09-.81-.14-1.64-.05-.83-.08-1.7,.25-1.87,.66-.36,1.01,2.17,.7,4.1Z"/><path class="u" d="M150.2,126.26s1.05-.27,2.1-.32c1.04-.06,2.05,.09,2.01,.61-.03,.44-1.3,.59-2.82,.81-1.51,.19-3.28,.47-4.13,.65-2.57,2.07-4.84,4.52-6.68,7.26l-.4-.27c1.98-2.94,4.43-5.56,7.23-7.73,.53-.88,1.07-2.17,1.73-3.23,.64-1.07,1.38-1.92,2.07-1.92,.82,0,.52,.67,.06,1.34-.23,.34-.5,.68-.71,.94l-.36,.43s.95-.76,2.06-1.34c1.11-.6,2.36-1.01,2.71-.63,.36,.39-.27,.92-1.27,1.52-1,.59-2.38,1.28-3.58,1.89Z"/><path class="u" d="M145.8,131.68s.55-.14,1.09-.17c.54-.04,1.07,.02,1.06,.29,0,.23-.68,.33-1.48,.45-.79,.11-1.71,.24-2.15,.32-1.36,1.03-2.61,2.21-3.7,3.52l-.19-.16c1.17-1.4,2.51-2.66,3.98-3.74,.54-.9,1.21-2.62,1.94-2.64,.42,0,.28,.34,.05,.69-.23,.35-.54,.71-.54,.71,0,0,.48-.39,1.05-.7,.56-.32,1.19-.56,1.38-.37,.38,.38-1.23,1.17-2.47,1.81Z"/><path class="u" d="M149.21,120.89s.34-.59,.71-1.15c.37-.56,.78-1.11,1.04-.9,.22,.18-.14,1.06-.71,1.93-.56,.88-1.31,1.73-1.69,2.11-.59,1.96-1.44,3.83-2.54,5.56l-.25-.16c1.14-1.8,2.02-3.77,2.6-5.82-.06-.62-.33-1.4-.56-2.06-.22-.67-.38-1.22-.15-1.52,.28-.36,.52-.03,.7,.41,.17,.44,.24,.98,.24,.98,0,0,.04-.71,.11-1.43,.07-.72,.17-1.48,.48-1.58,.62-.23,.58,2.03,.03,3.65Z"/><path class="u" d="M143.88,122.65s.24-.69,.52-1.35c.29-.66,.63-1.31,.94-1.13,.26,.15,.03,1.12-.39,2.13-.41,1.02-1.01,2.07-1.31,2.56-.07,1.09-.18,2.19-.37,3.27-.2,1.08-.43,2.17-.97,3.14l-.27-.17c.53-.95,.77-2.1,.96-3.22,.18-1.13,.29-2.28,.35-3.42-.41-1.3-1.87-2.98-1.49-3.68,.23-.44,.55-.13,.81,.31,.25,.44,.44,1,.44,1,0,0-.09-.76-.15-1.55-.05-.79-.08-1.59,.23-1.76,.3-.17,.56,.33,.68,1.12,.13,.78,.13,1.83,.02,2.73Z"/></g><path class="p" d="M139.01,133.63c-1.22-.19-2.45,.43-3.29,1.33s-1.36,2.05-1.84,3.18c-1.99,4.68-3.61,9.51-4.85,14.45,2.42,.11,4.27-2.03,5.73-3.96,1.24-1.65,2.4-3.41,3.77-4.95,.79-.9,1.9-1.56,2.57-2.55,1.53-2.25,1.18-6.98-2.09-7.49Z"/><path class="u" d="M136.03,137.62c.97,1.13,2.24,1.3,3.61,1.72-1.35,.42-3.37-.14-3.61-1.72h0Z"/><path class="u" d="M135.43,138.79c.97,1.13,2.24,1.3,3.61,1.72-1.35,.42-3.37-.14-3.61-1.72h0Z"/><path class="u" d="M134.86,139.93c.97,1.13,2.24,1.3,3.61,1.72-1.35,.42-3.37-.14-3.61-1.72h0Z"/></g><g><g><path class="u" d="M152.15,125.99s.75-.51,1.55-.87c.8-.37,1.63-.59,1.77-.17,.12,.35-.85,.91-1.99,1.53-1.14,.61-2.47,1.32-3.11,1.66-1.53,2.29-2.84,4.72-3.92,7.26l-.37-.16c1.15-2.7,2.57-5.29,4.22-7.72,.19-.83,.27-1.98,.46-2.98,.18-1,.48-1.86,1-2.07,.62-.25,.61,.36,.46,1.01-.15,.66-.42,1.37-.42,1.37,0,0,.52-.86,1.18-1.65,.66-.8,1.46-1.52,1.87-1.35,.8,.34-1.16,2.49-2.7,4.14Z"/><path class="u" d="M148.56,125.09s.27-.73,.58-1.43c.31-.7,.67-1.39,1-1.2,.28,.16,.03,1.21-.44,2.29-.46,1.09-1.14,2.19-1.49,2.69-.26,2.32-.81,4.6-1.64,6.78l-.32-.12c.86-2.28,1.42-4.67,1.66-7.1-.19-.69-.65-1.51-1.03-2.21-.37-.71-.66-1.31-.46-1.69,.25-.46,.58-.13,.86,.33,.27,.46,.46,1.06,.46,1.06,0,0-.09-.81-.14-1.64-.05-.83-.08-1.7,.25-1.87,.66-.36,1.01,2.17,.7,4.1Z"/><path class="u" d="M157.53,124.24s1.05-.27,2.1-.32c1.04-.06,2.05,.09,2.01,.61-.03,.44-1.3,.59-2.82,.81-1.51,.19-3.28,.47-4.13,.65-2.57,2.07-4.84,4.52-6.68,7.26l-.4-.27c1.98-2.94,4.43-5.56,7.23-7.73,.53-.88,1.07-2.17,1.73-3.23,.64-1.07,1.38-1.92,2.07-1.92,.82,0,.52,.67,.06,1.34-.23,.34-.5,.68-.71,.94l-.36,.43s.95-.76,2.06-1.34c1.11-.6,2.36-1.01,2.71-.63,.36,.39-.27,.92-1.27,1.52-1,.59-2.38,1.28-3.58,1.89Z"/><path class="u" d="M153.13,129.66s.55-.14,1.09-.17c.54-.04,1.07,.02,1.06,.29,0,.23-.68,.33-1.48,.45-.79,.11-1.71,.24-2.15,.32-1.36,1.03-2.61,2.21-3.7,3.52l-.19-.16c1.17-1.4,2.51-2.66,3.98-3.74,.54-.9,1.21-2.62,1.94-2.64,.42,0,.28,.34,.05,.69-.23,.35-.54,.71-.54,.71,0,0,.48-.39,1.05-.7,.56-.32,1.19-.56,1.38-.37,.38,.38-1.23,1.17-2.47,1.81Z"/><path class="u" d="M156.54,118.87s.34-.59,.71-1.15c.37-.56,.78-1.11,1.04-.9,.22,.18-.14,1.06-.71,1.93-.56,.88-1.31,1.73-1.69,2.11-.59,1.96-1.44,3.83-2.54,5.56l-.25-.16c1.14-1.8,2.02-3.77,2.6-5.82-.06-.62-.33-1.4-.56-2.06-.22-.67-.38-1.22-.15-1.52,.28-.36,.52-.03,.7,.41,.17,.44,.24,.98,.24,.98,0,0,.04-.71,.11-1.43,.07-.72,.17-1.48,.48-1.58,.62-.23,.58,2.03,.03,3.65Z"/><path class="u" d="M151.21,120.63s.24-.69,.52-1.35c.29-.66,.63-1.31,.94-1.13,.26,.15,.03,1.12-.39,2.13-.41,1.02-1.01,2.07-1.31,2.56-.07,1.09-.18,2.19-.37,3.27-.2,1.08-.43,2.17-.97,3.14l-.27-.17c.53-.95,.77-2.1,.96-3.22,.18-1.13,.29-2.28,.35-3.42-.41-1.3-1.87-2.98-1.49-3.68,.23-.44,.55-.13,.81,.31,.25,.44,.44,1,.44,1,0,0-.09-.76-.15-1.55-.05-.79-.08-1.59,.23-1.76,.3-.17,.56,.33,.68,1.12,.13,.78,.13,1.83,.02,2.73Z"/></g><path class="p" d="M146.34,131.61c-1.22-.19-2.45,.43-3.29,1.33-.84,.9-1.36,2.05-1.84,3.18-1.99,4.68-3.61,9.51-4.85,14.45,2.42,.11,4.27-2.03,5.73-3.96,1.24-1.65,2.4-3.41,3.77-4.95,.79-.9,1.9-1.56,2.57-2.55,1.53-2.25,1.18-6.98-2.09-7.49Z"/><path class="u" d="M143.36,135.6c.97,1.13,2.24,1.3,3.61,1.72-1.35,.42-3.37-.14-3.61-1.72h0Z"/><path class="u" d="M142.76,136.77c.97,1.13,2.24,1.3,3.61,1.72-1.35,.42-3.37-.14-3.61-1.72h0Z"/><path class="u" d="M142.19,137.91c.97,1.13,2.24,1.3,3.61,1.72-1.35,.42-3.37-.14-3.61-1.72h0Z"/></g></g><g><g><g><path class="u" d="M110.42,132.88s-.17-.89-.19-1.77c-.02-.88,.1-1.73,.54-1.69,.37,.03,.5,1.14,.62,2.43,.11,1.29,.24,2.79,.31,3.51,1.51,2.3,3.23,4.47,5.14,6.45l-.29,.28c-2.04-2.12-3.86-4.44-5.45-6.91-.69-.51-1.72-1.03-2.56-1.59-.85-.56-1.52-1.17-1.51-1.73,.02-.67,.57-.42,1.11-.03,.55,.39,1.1,.93,1.1,.93,0,0-.59-.81-1.05-1.73-.47-.92-.82-1.94-.51-2.25,.63-.6,1.83,2.05,2.75,4.11Z"/><path class="u" d="M108.18,135.84s-.56-.53-1.09-1.09c-.52-.56-1.02-1.17-.71-1.39,.26-.19,1.12,.45,1.94,1.3,.82,.85,1.57,1.91,1.89,2.43,2.03,1.15,3.91,2.55,5.59,4.17l-.24,.25c-1.76-1.69-3.74-3.14-5.87-4.31-.71-.09-1.64,0-2.44,.08-.8,.06-1.47,.1-1.74-.24-.32-.41,.11-.59,.65-.66,.53-.06,1.16,0,1.16,0,0,0-.77-.24-1.56-.51-.79-.28-1.59-.59-1.62-.96-.08-.75,2.4-.08,4.05,.96Z"/><path class="u" d="M110.92,127.25s.17-1.08,.53-2.05c.36-.98,.89-1.85,1.35-1.61,.4,.2,.04,1.43-.37,2.91-.41,1.47-.85,3.2-1.02,4.06,.89,3.18,2.26,6.22,4.06,8.99l-.41,.27c-1.93-2.97-3.37-6.26-4.27-9.68-.6-.84-1.57-1.84-2.29-2.86-.74-1.01-1.22-2.02-.96-2.66,.32-.76,.82-.22,1.25,.47,.22,.35,.43,.73,.58,1.02l.26,.51s-.33-1.17-.43-2.42c-.12-1.25,0-2.56,.49-2.74,.5-.18,.74,.61,.89,1.77,.15,1.16,.25,2.69,.33,4.04Z"/><path class="u" d="M114.17,133.42s.09-.56,.27-1.07c.18-.51,.44-.98,.68-.86,.21,.1,.04,.76-.17,1.54-.21,.77-.45,1.67-.55,2.1,.41,1.66,1.01,3.26,1.79,4.79l-.22,.11c-.83-1.63-1.46-3.35-1.88-5.13-.61-.85-1.94-2.15-1.67-2.82,.16-.39,.42-.12,.65,.23,.23,.35,.44,.78,.44,.78,0,0-.17-.6-.24-1.24-.07-.64-.05-1.31,.2-1.42,.5-.2,.6,1.59,.7,2.99Z"/><path class="u" d="M105.58,126.05s-.41-.54-.78-1.1c-.37-.56-.72-1.16-.42-1.31,.25-.13,.92,.55,1.5,1.41,.59,.86,1.07,1.89,1.27,2.38,1.57,1.31,2.96,2.83,4.12,4.52l-.25,.17c-1.21-1.76-2.68-3.34-4.33-4.68-.6-.19-1.42-.24-2.11-.3-.7-.06-1.28-.13-1.46-.46-.22-.4,.18-.5,.65-.48,.47,.02,1,.16,1,.16,0,0-.63-.32-1.27-.66-.64-.35-1.29-.73-1.27-1.06,.03-.66,2.09,.26,3.37,1.41Z"/><path class="u" d="M105.12,131.65s-.54-.49-1.04-1.01c-.49-.52-.96-1.09-.67-1.31,.24-.18,1.05,.41,1.81,1.2,.77,.78,1.51,1.74,1.84,2.21,.98,.49,1.94,1.02,2.86,1.62,.91,.6,1.82,1.25,2.51,2.13l-.26,.19c-.67-.85-1.62-1.53-2.58-2.15-.97-.61-1.98-1.16-3.01-1.67-1.36-.13-3.48,.55-3.97-.07-.31-.38,.1-.56,.61-.63,.5-.06,1.1-.01,1.1-.01,0,0-.74-.21-1.48-.47-.74-.26-1.49-.55-1.53-.9-.04-.34,.52-.38,1.29-.19,.77,.19,1.74,.6,2.52,1.06Z"/></g><path class="r" d="M113.3,140.44c-.65,1.04-.56,2.42-.07,3.55s1.35,2.05,2.2,2.94c3.52,3.67,7.33,7.06,11.39,10.12,1.05-2.18-.19-4.72-1.4-6.82-1.03-1.79-2.19-3.55-3.08-5.41-.52-1.08-.69-2.36-1.34-3.37-1.47-2.29-5.96-3.82-7.71-1.02Z"/><path class="u" d="M115.81,144.74c1.42-.45,2.08-1.55,3-2.65-.14,1.41-1.45,3.05-3,2.65h0Z"/><path class="u" d="M116.64,145.75c1.42-.45,2.08-1.55,3-2.65-.14,1.41-1.45,3.05-3,2.65h0Z"/><path class="u" d="M117.48,146.72c1.42-.45,2.08-1.55,3-2.65-.14,1.41-1.45,3.05-3,2.65h0Z"/></g><g><g><path class="u" d="M117.29,133.45s-.17-.89-.19-1.77c-.02-.88,.1-1.73,.54-1.69,.37,.03,.5,1.14,.62,2.43,.11,1.29,.24,2.79,.31,3.51,1.51,2.3,3.23,4.47,5.14,6.45l-.29,.28c-2.04-2.12-3.86-4.44-5.45-6.91-.69-.51-1.72-1.03-2.56-1.59-.85-.56-1.52-1.17-1.51-1.73,.02-.67,.57-.42,1.11-.03,.55,.39,1.1,.93,1.1,.93,0,0-.59-.81-1.05-1.73-.47-.92-.82-1.94-.51-2.25,.63-.6,1.83,2.05,2.75,4.11Z"/><path class="u" d="M115.05,136.41s-.56-.53-1.09-1.09c-.52-.56-1.02-1.17-.71-1.39,.26-.19,1.12,.45,1.94,1.3,.82,.85,1.57,1.91,1.89,2.43,2.03,1.15,3.91,2.55,5.59,4.17l-.24,.25c-1.76-1.69-3.74-3.14-5.87-4.31-.71-.09-1.64,0-2.44,.08-.8,.06-1.47,.1-1.74-.24-.32-.41,.11-.59,.65-.66,.53-.06,1.16,0,1.16,0,0,0-.77-.24-1.56-.51-.79-.28-1.59-.59-1.62-.96-.08-.75,2.4-.08,4.05,.96Z"/><path class="u" d="M117.79,127.82s.17-1.08,.53-2.05c.36-.98,.89-1.85,1.35-1.61,.4,.2,.04,1.43-.37,2.91-.41,1.47-.85,3.2-1.02,4.06,.89,3.18,2.26,6.22,4.06,8.99l-.41,.27c-1.93-2.97-3.37-6.26-4.27-9.68-.6-.84-1.57-1.84-2.29-2.86-.74-1.01-1.22-2.02-.96-2.66,.32-.76,.82-.22,1.25,.47,.22,.35,.43,.73,.58,1.02l.26,.51s-.33-1.17-.43-2.42c-.12-1.25,0-2.56,.49-2.74,.5-.18,.74,.61,.89,1.77,.15,1.16,.25,2.69,.33,4.04Z"/><path class="u" d="M121.05,133.99s.09-.56,.27-1.07c.18-.51,.44-.98,.68-.86,.21,.1,.04,.76-.17,1.54-.21,.77-.45,1.67-.55,2.1,.41,1.66,1.01,3.26,1.79,4.79l-.22,.11c-.83-1.63-1.46-3.35-1.88-5.13-.61-.85-1.94-2.15-1.67-2.82,.16-.39,.42-.12,.65,.23,.23,.35,.44,.78,.44,.78,0,0-.17-.6-.24-1.24-.07-.64-.05-1.31,.2-1.42,.5-.2,.6,1.59,.7,2.99Z"/><path class="u" d="M112.46,126.62s-.41-.54-.78-1.1c-.37-.56-.72-1.16-.42-1.31,.25-.13,.92,.55,1.5,1.41,.59,.86,1.07,1.89,1.27,2.38,1.57,1.31,2.96,2.83,4.12,4.52l-.25,.17c-1.21-1.76-2.68-3.34-4.33-4.68-.6-.19-1.42-.24-2.11-.3-.7-.06-1.28-.13-1.46-.46-.22-.4,.18-.5,.65-.48,.47,.02,1,.16,1,.16,0,0-.63-.32-1.27-.66-.64-.35-1.29-.73-1.27-1.06,.03-.66,2.09,.26,3.37,1.41Z"/><path class="u" d="M111.99,132.22s-.54-.49-1.04-1.01c-.49-.52-.96-1.09-.67-1.31,.24-.18,1.05,.41,1.81,1.2,.77,.78,1.51,1.74,1.84,2.21,.98,.49,1.94,1.02,2.86,1.62,.91,.6,1.82,1.25,2.51,2.13l-.26,.19c-.67-.85-1.62-1.53-2.58-2.15-.97-.61-1.98-1.16-3.01-1.67-1.36-.13-3.48,.55-3.97-.07-.31-.38,.1-.56,.61-.63,.5-.06,1.1-.01,1.1-.01,0,0-.74-.21-1.48-.47-.74-.26-1.49-.55-1.53-.9-.04-.34,.52-.38,1.29-.19,.77,.19,1.74,.6,2.52,1.06Z"/></g><path class="o" d="M120.18,141.01c-.65,1.04-.56,2.42-.07,3.55s1.35,2.05,2.2,2.94c3.52,3.67,7.33,7.06,11.39,10.12,1.05-2.18-.19-4.72-1.4-6.82-1.03-1.79-2.19-3.55-3.08-5.41-.52-1.08-.69-2.36-1.34-3.37-1.47-2.29-5.96-3.82-7.71-1.02Z"/><path class="u" d="M122.68,145.31c1.42-.45,2.08-1.55,3-2.65-.14,1.41-1.45,3.05-3,2.65h0Z"/><path class="u" d="M123.52,146.32c1.42-.45,2.08-1.55,3-2.65-.14,1.41-1.45,3.05-3,2.65h0Z"/><path class="u" d="M124.35,147.29c1.42-.45,2.08-1.55,3-2.65-.14,1.41-1.45,3.05-3,2.65h0Z"/></g></g><g><path class="q" d="M97.84,155.82c.12,.49,.26,.98,.41,1.47,4.54,14.4,16.33,20.53,35.14,14.6,16.53-5.21,24.95-17.72,20.41-32.12-.15-.49-.32-.97-.51-1.45l-55.46,17.49Z"/><g class="w"><path class="u" d="M148.86,161.96l-.14-.46c-.2,.24-.42,.47-.63,.7l.77-.24Z"/><rect class="u" x="101.16" y="157.42" width="4.37" height="3.55" transform="translate(-43.1 38.46) rotate(-17.51)"/><rect class="u" x="107.93" y="155.29" width="4.37" height="3.55" transform="translate(-42.15 40.4) rotate(-17.51)"/><rect class="u" x="114.69" y="153.15" width="4.37" height="3.55" transform="translate(-41.19 42.33) rotate(-17.51)"/><rect class="u" x="121.46" y="151.02" width="4.37" height="3.55" transform="translate(-40.23 44.27) rotate(-17.51)"/><rect class="u" x="128.23" y="148.88" width="4.37" height="3.55" transform="translate(-39.28 46.21) rotate(-17.51)"/><rect class="u" x="135" y="146.75" width="4.37" height="3.55" transform="translate(-38.32 48.14) rotate(-17.51)"/><rect class="u" x="141.77" y="144.61" width="4.37" height="3.55" transform="translate(-37.37 50.08) rotate(-17.51)"/><rect class="u" x="148.54" y="142.48" width="4.37" height="3.55" transform="translate(-36.41 52.02) rotate(-17.51)"/><path class="u" d="M104.2,161.93l-2.61,.82c.63,1.1,1.32,2.13,2.08,3.07l1.6-.5-1.07-3.38Z"/><rect class="u" x="107.24" y="160.37" width="4.37" height="3.55" transform="translate(-43.71 40.42) rotate(-17.51)"/><rect class="u" x="114.01" y="158.23" width="4.37" height="3.55" transform="translate(-42.75 42.36) rotate(-17.51)"/><rect class="u" x="120.77" y="156.1" width="4.37" height="3.55" transform="translate(-41.79 44.3) rotate(-17.51)"/><rect class="u" x="127.54" y="153.96" width="4.37" height="3.55" transform="translate(-40.84 46.24) rotate(-17.51)"/><rect class="u" x="134.31" y="151.83" width="4.37" height="3.55" transform="translate(-39.88 48.17) rotate(-17.51)"/><rect class="u" x="141.08" y="149.69" width="4.37" height="3.55" transform="translate(-38.93 50.11) rotate(-17.51)"/><rect class="u" x="147.85" y="147.56" width="4.37" height="3.55" transform="translate(-37.97 52.05) rotate(-17.51)"/><path class="u" d="M107.75,165.91l-3.13,.99c.95,1.03,2,1.94,3.13,2.73l1.06-.34-1.07-3.38Z"/><rect class="u" x="110.78" y="164.35" width="4.37" height="3.55" transform="translate(-44.74 41.68) rotate(-17.51)"/><rect class="u" x="117.55" y="162.22" width="4.37" height="3.55" transform="translate(-43.78 43.61) rotate(-17.51)"/><rect class="u" x="124.32" y="160.08" width="4.37" height="3.55" transform="translate(-42.83 45.55) rotate(-17.51)"/><rect class="u" x="131.09" y="157.95" width="4.37" height="3.55" transform="translate(-41.87 47.49) rotate(-17.51)"/><rect class="u" x="137.86" y="155.81" width="4.37" height="3.55" transform="translate(-40.92 49.42) rotate(-17.51)"/><rect class="u" x="144.63" y="153.68" width="4.37" height="3.55" transform="translate(-39.96 51.36) rotate(-17.51)"/><path class="u" d="M150.96,152.28l1.07,3.38,.43-.13c.56-1.32,.98-2.7,1.25-4.11l-2.74,.87Z"/><path class="u" d="M113.95,169.25l-4.16,1.31,.12,.37c1.51,.78,3.16,1.36,4.93,1.76l.19-.06-1.07-3.38Z"/><rect class="u" x="116.99" y="167.69" width="4.37" height="3.55" transform="translate(-45.46 43.7) rotate(-17.51)"/><rect class="u" x="123.76" y="165.56" width="4.37" height="3.55" transform="translate(-44.5 45.63) rotate(-17.51)"/><rect class="u" x="130.53" y="163.42" width="4.37" height="3.55" transform="translate(-43.55 47.57) rotate(-17.51)"/><rect class="u" x="137.29" y="161.29" width="4.37" height="3.55" transform="translate(-42.59 49.51) rotate(-17.51)"/><path class="u" d="M143.63,159.89l1.07,3.38,3.39-1.07c.21-.23,.43-.47,.63-.7l-.92-2.93-4.17,1.31Z"/><path class="u" d="M150.73,158.81c.3-.47,.57-.94,.83-1.43l-1.17,.37,.33,1.06Z"/><path class="u" d="M120.08,172.33l.3,.96c1.43,0,2.93-.09,4.49-.29l-.63-1.98-4.17,1.31Z"/><path class="u" d="M126.85,170.19l.74,2.35c1.37-.27,2.79-.62,4.25-1.04l-.83-2.63-4.16,1.31Z"/><path class="u" d="M133.61,168.06l.83,2.63c1.42-.49,2.77-1.05,4.06-1.66l-.72-2.28-4.17,1.31Z"/><path class="u" d="M140.38,165.92l.58,1.83c1.36-.77,2.62-1.61,3.79-2.5l-.2-.64-4.17,1.31Z"/></g><path class="u" d="M156.29,136.05c.39,1.22-.29,2.53-1.51,2.91l-57.79,18.23c-1.22,.39-2.53-.29-2.91-1.52h0c-.39-1.22,.29-2.53,1.51-2.91l57.79-18.23c1.22-.39,2.53,.29,2.91,1.51h0Z"/><path class="v" d="M150.49,140.32c0,.07,0,.15,0,.22-.81,11.58-8.87,21.96-19.22,26.88-6.14,2.91-12.54,4.66-19.06,5.47,5.61,1.9,12.68,1.7,21.19-.99,16.53-5.21,24.95-17.72,20.41-32.12-.05-.15-.11-.3-.16-.46l-3.15,.99Z"/></g><path class="b" d="M116.47,167c-6.25-23.89-8.75-37.97-12.07-49.54-4.57-15.93-14.19-30.94-14.19-30.94,21.45-3.86,19.71-20.26,19.71-20.26-11.97-36.12-39.67-27.22-39.67-27.22,0,0-11.42-30.51-40.92-37.87,0,0,4.5,11.78,11.56,22.78h0C31.16,17.54,17.91,11.12,.56,7.25c0,0,5.75,27.21,52.88,50.56,0,0-1.23,6.23,1.36,12.29l.23,.49c.81,2.16,1.99,7.7-4.15,13.14-3.08,2.74-29.67,14.96-37.04,30.68-2.27,4.84,5.5,24.73,17.92,35.35l-1.32,10.67c-2.22,17.91-2.61,36.01-.93,53.97,.73,7.8,1.84,15.56,3.53,21.75,4.5,16.47,6.74,20.1,12.05,19.46,7.6-.91,6.62-34.37,17.85-47.92,13.36-16.12,18.57-12.95,27.79-3.49,16.18,16.59,10.58,55.19,20.41,50.15,14.18-7.27,9.24-72.34,5.31-87.34Z"/><path class="d" d="M31.91,149.18l-1.32,10.67c-2.22,17.91-2.61,36.01-.93,53.97,.73,7.8,1.84,15.56,3.53,21.75,4.5,16.47,6.74,20.1,12.05,19.46,7.6-.91,6.62-34.37,17.85-47.92,13.36-16.12,18.57-12.95,27.79-3.49,16.18,16.59,10.58,55.19,20.41,50.15,14.18-7.27,9.24-72.34,5.31-87.34-6.25-23.89-8.75-37.97-12.07-49.54-4.57-15.93-14.19-30.94-14.19-30.94,21.45-3.86,19.71-20.26,19.71-20.26-11.97-36.12-39.67-27.22-39.67-27.22,0,0-11.42-30.51-40.92-37.87,0,0,4.5,11.78,11.56,22.78h0C31.3,16.96,18.05,10.55,.71,6.67c0,0,5.75,27.21,52.88,50.56,0,0-1.32,7.1,2.11,13.55"/><path class="i" d="M109.39,64.14s-2.99-.84-5.1,.44c0,0,2.81,.15,4.08,1.17,.49,.4,1.34,2.17,1.34,2.17l.21-2.23-.53-1.55Z"/><path class="x" d="M107.94,73.82s-14.43,12.3-31.62,7.61c0,0,4.93,4.29,13.58,4.28,2.95,0,16.03-4.66,18.05-11.89Z"/><path class="i" d="M81.86,52.14s3.93-2.81,6.91,.66c0,0,.4,.56,.89,1.6,0,0-4.72,4.1-7.8-2.26Z"/><path class="n" d="M29.88,.74s14.55,16.36,21.07,25.3c9.69,13.3,12.63,17.56,12.63,17.56,0,0-.42,.96-1.35-.61-2.9-4.92-18.21-17.7-21.07-19.62-2.86-1.92-9.3-16.52-11.29-22.63Z"/><path class="d" d="M63.11,43.61c-9.23-11.07-22.22-20.24-22.22-20.24"/><path class="n" d="M1.09,7.27S23.23,40.38,53.49,56.82c0,0-9.95-4.4-20.11-11.27-6.69-4.53-13.8-10.65-17.23-14.39C3.44,17.31,1.31,10.21,1.09,7.27Z"/><path class="d" d="M92.86,189.78c-12.74,0-22.9,9.9-22.9,9.9"/><path class="d" d="M56.23,106.36c-9.5,4.32-21.32,15.03-21.32,15.03,0,0,6.2,21.83,8.09,25.8s-3.96,7.96-10.77,2.27c-12.62-10.54-20.53-30.75-18.25-35.63,7.37-15.73,33.96-27.95,37.04-30.68,7.86-6.97,3.72-14.09,3.72-14.09"/><path class="n" d="M56.23,106.36s2.13,6.4-5.18,13.42c-7.32,7.01-11.04,16.3-9.55,23.36,1.49,7.06-6.58-21.75-6.58-21.75,0,0,18.27-15.49,21.32-15.03Z"/><path class="n" d="M103.87,240.07s4.59-48.83-11-50.29c-6.29,0-17.73,5.89-17.73,5.89,0,0,21.62-4.3,28.73,44.4Z"/><path class="u" d="M106.7,48.81v-.02h-.01c-.52-1.23-1.17-2.11-1.89-2.25-1.55-.29-2.01-.02-2.43,.32-.46,.37-.81,.81-.81,.81,0,0-.33-.41-.81-.6s-1.96,.5-1.96,.5h0c-.07,.01-.15,.02-.21,.04-1.61-1.18-6.05-2.57-11.13-2.8-3.76-.17-7.5,.3-10.65,1.49-.17,.06-.31,.11-.42,.17-1.55,.74-1.95,2.81-1.89,2.81,.01,.05-.19,1.28-.19,1.4,0,.04,0,.11,0,.21-.32,8.32,4.29,12.98,11.26,12.33,1.7-.16,3.23-.45,4.57-.85,4.16-1.24,8.48-4.16,9.19-11.54v-.03s1.64-2.24,3.07-1.35c.67-1.08,1.24-1.94,1.65-1.94,.39,0,1.33,.18,2.12,3.03l.02,.07c.04,.16,.09,.33,.13,.51,.21,.83,.4,1.7,.55,2.52,.48,2.48-.57,2.86-.57,2.86l.83,1.29c1.29-1.3,.82-6.08-.4-8.97Zm-17.02,12.1c-.19,.05-.38,.1-.57,.14-4.37,1.03-10.32-.06-11.42-6.63-.47-2.79,.18-4.88,1.83-6.18,1.49-1.18,3.85-1.73,6.81-1.69h.34c2.25,.04,8.08,.14,10.18,2.13,.64,.61,.94,1.37,.92,2.34-.13,5.06-2.57,8.42-8.09,9.89Z"/><path class="c" d="M36.18,171.81s7.09,4.02,24.4,3.45"/><path class="c" d="M101.6,170.68s8.87-.91,14.87-4.26"/><path class="c" d="M26.97,200.28l1.61,29.84h31.15s3.81-15.09,4.87-20.66c1.6-8.44,13.46-13.2,21.16-6.64,6.38,5.44,5.84,23.24,5.84,26.67l32.74-2.54s-4.53-42.14-6-49.89c-1.47-7.76-3.74-17.85-3.74-17.85l-68.34,5.78-15.83-5.13s-4.7,27.36-3.47,40.43Z"/><path class="g" d="M31.08,154.71s24.31,17.48,81.89-1.61l1.64,6.09s-8.48,4.38-20.65,6.99c-12.17,2.6-26.93,4.58-41.02,3.07-14.1-1.51-22.76-7.18-22.76-7.18l.9-7.36Z"/><path class="k" d="M36.18,164.61s-3.71,33.49,0,61.32"/><path class="j" d="M110.35,161.11s8.62,28.67,7.12,63.29"/><path class="l" d="M40.77,178.25s8.76-1.61,19.81-11.41"/><path class="l" d="M91.98,165.99s8.55,5.74,17.49,7.57"/><path class="n" d="M51.73,226.56l3.81-14.1s2.41-12.83,6.98-16.25c3.24-2.43,12.48-3.23,17.58-3.5,2.58-.13,5.15-.49,7.67-1.04l10.73-2.37s-10.9,5.48-5.13,6.52c1.05,.19,4.45-.56,5.13-1.18,1.9-1.72-1.34,10.07-1.13,13.84,.43,7.64-.15,15.91-.15,15.91h-5.25s-.62-4.96-.76-6.25,.4-14.92-9.13-17.54c-5.51-.84-13.86-.85-16.65,6.32-2.78,7.18-3.67,17.46-3.67,17.46,0,0-3.94,5.21-4.32,5.21s-5.71-3.05-5.71-3.05Z"/><path class="n" d="M87.09,167.17s18.77,8.47,21.42,8.98c2.65,.51,3.51,2.67,3.51,2.67,0,0,2.72,13.21,3.34,20.83s.27,11.3,.27,11.3c0,0-.13,4.44-.27,6.86-.14,2.41-.45,6.98-.45,6.98h8.54s-3-44.27-5.97-55.24c-2.97-10.97-1.78-13.56-8.54-8.19-2.25,1.79-9.99,2.62-13.99,4.27-4.26,1.76-4.09,.85-7.86,1.55h0Z"/><path class="n" d="M31.77,162.99s-2.83,22.12,1.17,28.5c2.76,4.4,5.46,6.37,5.46,6.37l7.31-2.6s-8.71,5.79-8.71,9.07c0,13.84,.08,21.59,.08,21.59l-9.6-1.52-.71-19.94s.39-35.83,3.41-43.76c.35-1.52,1.59,2.28,1.59,2.28Z"/><path class="m" d="M48.38,194.66s23.16-8.35,29.26-10.38c6.1-2.03,17.14-6.03,17.14-6.03,0,0-20.83,8.44-31.11,12.25-10.29,3.81-15.29,4.16-15.29,4.16Z"/><path class="m" d="M42.05,191.72s23.16-8.35,29.26-10.38c6.1-2.03,17.14-6.03,17.14-6.03,0,0-20.83,8.44-31.11,12.25-10.29,3.81-15.29,4.16-15.29,4.16Z"/><path class="m" d="M99.89,188.5s7.34-2.41,10.22-5.24c0,0-3.93,4.76-10.22,5.24Z"/><path class="n" d="M17.82,107.79s-8.05,12.72,13.94,35.46c4.47,5.06,7.68,5.02,9.12,4.74,1.45-.28,2.11-.8,2.11-.8,0,0,1.06,5.24-2.23,5.1s-8.82-1.87-14-8.62-11.83-16.81-13.12-26.45c-1.03-3.67,4.17-9.44,4.17-9.44Z"/><rect class="f" x="25.45" y="224.4" width="38.22" height="9.02"/><rect class="f" x="89.7" y="222.75" width="38.22" height="9.02"/><path class="f" d="M54.4,70.63s4.57-28.06,26.03-33.65c0-2.54-11.69-6.2-23.92,9.57-7.96,10.27-2.12,24.08-2.12,24.08Z"/><path class="f" d="M55.83,73.28s-5.08-4.76-3.83-9.99c1.26-5.23,8.37-26.56,30.46-26.82,3.3,.51,5.19,2.7,5.19,2.7,0,0-30.53,14.91-31.83,34.11Z"/><path class="h" d="M84.75,37.79s-16.14-2.76-26.38,9.14c-6.41,7.45-7.2,14.01-6.9,17.87,.08,1.04,1.51,1.25,1.89,.27,2.77-7.09,11.17-23.2,31.38-27.28Z"/><path class="e" d="M76.43,34.7s-9.99,.67-18.85,13.38c4.69-9.54-.7-15.27,18.85-13.38Z"/><path class="h" d="M66.62,39.64s-11.68-.81-16.3,10.38c-2.4,5.82,.95,17.88,2.67,19.04,1.71,1.15,3.57-13.36,6.37-20.98,1.62-4.39,7.26-8.44,7.26-8.44Z"/><path class="e" d="M84.19,26.43s1.93,.16,7.42,2.81l-.88,5.95s-.31,7.55-10.44,4.03c-3.65-1.27-6.66-5.08-5.9-8.02,.6-3.03,3.78-5.37,9.8-4.78Z"/><g><path class="e" d="M84.75,28.6s-1.57-5.46,6.81-6.28,13.29-1.15,13.29-1.15c0,0-3.38,10.19-7.38,12-4,1.81-10.76,.32-10.76,.32,0,0-5.19,.16-1.95-4.89Z"/><path class="s" d="M84.75,31.26s3-4.85,4.14-6.19l-.62,3.85s6.2-3.59,10.86-4.29c.24,1.14-4.43,6.14-8.86,7.05-4.43,.9-6.2,.85-6.2,.85l.68-1.28Z"/></g><g><path class="e" d="M81.71,30.04s-1.55-5.47-9.1-1.74c-7.55,3.73-11.89,6.04-11.89,6.04,0,0,8.25,6.87,12.6,6.29s9.31-5.41,9.31-5.41c0,0,4.49-2.61-.93-5.19Z"/><path class="s" d="M83.12,32.31s-5.11-2.53-6.79-3.07l2.56,2.95s-7.16,.22-11.48,2.09c.4,1.1,7,2.88,11.24,1.31,4.24-1.57,5.71-2.55,5.71-2.55l-1.25-.73Z"/></g></g></g></svg>
