<svg xmlns="http://www.w3.org/2000/svg" width="1953" height="100" viewBox="0 0 1953 100">
  <defs>
    <style>
      .a {
        fill: #EDEDED;
        stroke: rgba(0, 0, 0, 0);
        stroke-miterlimit: 10;
      }
    </style>
  </defs>
  <path class="a"
    d="M5224.038-4632.793h0c-75.894-31.03-168.106-31.03-244,0h0c-75.894,31.03-168.1,31.03-244,0h0c-75.9-31.03-168.1-31.03-244,0h0c-75.9,31.03-168.1,31.03-244,0h0c-75.9-31.03-168.106-31.03-244,0h0c-75.9,31.03-168.106,31.03-244,0h0c-75.894-31.03-168.105-31.03-244,0h0c-75.895,31.03-168.1,31.03-244,0h0V-3462.3h1952V-4632.793"
    transform="translate(-3271.538 4656.565)" />
</svg>
