<svg xmlns="http://www.w3.org/2000/svg" width="1953" height="100" viewBox="0 0 1953 100">
  <defs>
    <style>
      .a {
        fill: #EDEDED;
        stroke: rgba(0, 0, 0, 0);
        stroke-miterlimit: 10;
      }
    </style>
  </defs>
  <path class="a"
    d="M3272.038-3485.575h0c75.894,31.03,168.106,31.03,244,0h0c75.894-31.03,168.1-31.03,244,0h0c75.9,31.03,168.1,31.03,244,0h0c75.9-31.03,168.1-31.03,244,0h0c75.9,31.03,168.105,31.03,244,0h0c75.9-31.03,168.105-31.03,244,0h0c75.894,31.03,168.1,31.03,244,0h0c75.894-31.03,168.1-31.03,244,0h0V-4656.065h-1952v1170.491"
    transform="translate(-3271.538 3556.565)" />
</svg>
