<?xml version="1.0" standalone="no"?>
<!DOCTYPE svg PUBLIC "-//W3C//DTD SVG 20010904//EN"
 "http://www.w3.org/TR/2001/REC-SVG-20010904/DTD/svg10.dtd">
<svg version="1.0" xmlns="http://www.w3.org/2000/svg"
 width="256.000000pt" height="256.000000pt" viewBox="0 0 256.000000 256.000000"
 preserveAspectRatio="xMidYMid meet">
<metadata>
Created by potrace 1.14, written by Peter Selinger 2001-2017
</metadata>
<g transform="translate(0.000000,256.000000) scale(0.100000,-0.100000)"
fill="#000000" stroke="none">
<path d="M1140 2553 c-295 -40 -547 -162 -750 -363 -250 -247 -378 -537 -385
-875 -7 -375 118 -682 384 -945 191 -188 430 -310 696 -355 128 -22 377 -10
506 25 24 7 51 13 59 15 63 13 234 95 335 162 292 192 502 516 560 862 18 112
14 339 -9 443 -86 396 -321 707 -676 895 -61 33 -201 88 -245 98 -11 2 -54 11
-95 21 -69 15 -313 26 -380 17z"/>
</g>
</svg>
