<svg xmlns="http://www.w3.org/2000/svg" xmlns:xlink="http://www.w3.org/1999/xlink" width="295.289" height="295.289" viewBox="0 0 295.289 295.289"><defs><style>.a,.q,.r{fill:none;}.b{clip-path:url(#a);}.c,.h,.k,.m{fill:#fff;}.d,.f{fill:#f7cbcb;}.e,.j,.n,.o{fill:#ffdad5;}.e,.n{stroke:#c81528;}.e,.m,.o,.q{stroke-linecap:round;stroke-linejoin:round;}.e,.m,.o{stroke-width:1.417px;}.f,.h,.l,.m,.o,.p,.q,.r{stroke:#e32c1b;}.f,.h,.i,.j,.k,.l,.n,.p,.r{stroke-miterlimit:10;stroke-width:0.992px;}.g,.l{fill:#e32c1b;}.i{fill:#544e50;}.i,.j,.k{stroke:#544e50;}.p{fill:#ebebeb;}.q{stroke-width:2px;}</style><clipPath id="a"><circle class="a" cx="147.148" cy="147.148" r="147.148"/></clipPath></defs><g transform="translate(0.496 0.496)"><g transform="translate(0 0)"><g class="b"><circle class="c" cx="147.148" cy="147.148" r="147.148"/><circle class="d" cx="91.529" cy="91.529" r="91.529" transform="translate(55.619 55.619)"/><path class="e" d="M1357.961,203.868a5.01,5.01,0,0,0-7.081.236l-7.466,7.979a5.01,5.01,0,0,0,.236,7.081l.01.009a5.01,5.01,0,0,0,7.081-.235l7.465-7.979a5.009,5.009,0,0,0-.235-7.081Z" transform="translate(-1259.394 -76.58)"/><rect class="f" width="40.041" height="79.422" transform="matrix(0.205, -0.979, 0.979, 0.205, 105.453, 80.128)"/><path class="c" d="M1455.246,91.033,1397.762,79a7.145,7.145,0,0,1-8.456,5.531l-4.1,19.582a7.145,7.145,0,0,1,5.53,8.456l57.485,12.028a7.145,7.145,0,0,1,8.456-5.53l4.1-19.582A7.146,7.146,0,0,1,1455.246,91.033Z" transform="translate(-1274.569 -33.139)"/><g transform="translate(116.856 59.121)"><path class="g" d="M1488.072,121.906a3.715,3.715,0,1,1-2.875-4.4A3.715,3.715,0,0,1,1488.072,121.906Z" transform="translate(-1425.018 -105.775)"/><path class="g" d="M1402.151,103.929a3.715,3.715,0,1,1-2.876-4.4A3.715,3.715,0,0,1,1402.151,103.929Z" transform="translate(-1394.798 -99.451)"/></g><g transform="translate(139.01 56.086)"><path class="g" d="M1447.546,108.623c1.188-6.91-1.95-13.084-7.01-13.788s-10.126,4.327-11.314,11.237,1.952,13.084,7.011,13.788S1446.358,115.534,1447.546,108.623Z" transform="translate(-1428.971 -94.769)"/><path class="c" d="M1444.5,112.716a3.118,3.118,0,0,0-.028-1.264,2.763,2.763,0,0,0-.449-.962,3.464,3.464,0,0,0-.734-.735,9.259,9.259,0,0,0-.881-.58c-.3-.176-.6-.344-.894-.506a5.751,5.751,0,0,1-.774-.5,1.92,1.92,0,0,1-.513-.581,1.118,1.118,0,0,1-.111-.736,1.236,1.236,0,0,1,.174-.473,1,1,0,0,1,.362-.334,1.525,1.525,0,0,1,.572-.165,3.065,3.065,0,0,1,.8.038,3.579,3.579,0,0,1,.91.261,6.636,6.636,0,0,1,.7.368c.2.123.371.233.507.334a.851.851,0,0,0,.318.169.179.179,0,0,0,.112-.014.258.258,0,0,0,.1-.111.991.991,0,0,0,.091-.263c.027-.117.057-.268.086-.451.021-.136.036-.257.047-.361a1.758,1.758,0,0,0,.011-.271.6.6,0,0,0-.123-.365,1.062,1.062,0,0,0-.245-.212,4.684,4.684,0,0,0-.407-.246,4.741,4.741,0,0,0-.491-.228c-.177-.07-.346-.13-.508-.18l.442-1.65a.605.605,0,0,0,0-.181.232.232,0,0,0-.1-.148,1,1,0,0,0-.267-.12,3.239,3.239,0,0,0-.452-.1,3.339,3.339,0,0,0-.377-.042.741.741,0,0,0-.234.023.272.272,0,0,0-.13.069.293.293,0,0,0-.058.114l-.459,1.756a5.159,5.159,0,0,0-1.434.123,3.227,3.227,0,0,0-1.129.5,2.831,2.831,0,0,0-.791.852,3.236,3.236,0,0,0-.414,1.176,3.28,3.28,0,0,0,.02,1.289,2.743,2.743,0,0,0,.442.975,3.6,3.6,0,0,0,.723.743,8.2,8.2,0,0,0,.867.582q.45.264.882.5a5.239,5.239,0,0,1,.761.5,2,2,0,0,1,.5.576,1.111,1.111,0,0,1,.107.735,1.242,1.242,0,0,1-.668.945,2.57,2.57,0,0,1-1.6.142,4.522,4.522,0,0,1-1.138-.316,5.61,5.61,0,0,1-.792-.425c-.214-.145-.388-.272-.522-.383a.763.763,0,0,0-.316-.187.264.264,0,0,0-.3.145,1.053,1.053,0,0,0-.109.291c-.032.129-.064.293-.1.5a2.987,2.987,0,0,0-.049.6.6.6,0,0,0,.1.325,1.35,1.35,0,0,0,.269.257,3.944,3.944,0,0,0,.441.283,5.661,5.661,0,0,0,.584.283,6.758,6.758,0,0,0,.7.252l-.471,1.771a.329.329,0,0,0-.014.18.244.244,0,0,0,.108.148.958.958,0,0,0,.259.117,3.1,3.1,0,0,0,.452.1,2.426,2.426,0,0,0,.373.036.987.987,0,0,0,.24-.021.247.247,0,0,0,.129-.07.334.334,0,0,0,.058-.118l.488-1.869a5.754,5.754,0,0,0,1.6-.093,3.864,3.864,0,0,0,1.31-.52,3.1,3.1,0,0,0,.935-.934A3.424,3.424,0,0,0,1444.5,112.716Z" transform="translate(-1431.6 -97.349)"/></g><rect class="f" width="40.041" height="79.422" transform="matrix(0.205, -0.979, 0.979, 0.205, 82.903, 63.791)"/><path class="c" d="M1420.462,65.834l-57.485-12.028a7.145,7.145,0,0,1-8.456,5.53l-4.1,19.582a7.146,7.146,0,0,1,5.53,8.457L1413.438,99.4a7.146,7.146,0,0,1,8.457-5.531l4.1-19.582A7.144,7.144,0,0,1,1420.462,65.834Z" transform="translate(-1262.335 -24.276)"/><g transform="translate(94.306 42.785)"><path class="g" d="M1453.288,96.707a3.716,3.716,0,1,1-2.876-4.4A3.716,3.716,0,0,1,1453.288,96.707Z" transform="translate(-1390.234 -80.575)"/><path class="g" d="M1367.366,78.729a3.715,3.715,0,1,1-2.875-4.4A3.715,3.715,0,0,1,1367.366,78.729Z" transform="translate(-1360.014 -74.252)"/></g><g transform="translate(116.46 39.749)"><path class="g" d="M1412.761,83.423c1.188-6.91-1.95-13.084-7.01-13.788s-10.125,4.327-11.314,11.237,1.951,13.084,7.011,13.788S1411.573,90.334,1412.761,83.423Z" transform="translate(-1394.187 -69.569)"/><path class="c" d="M1409.712,87.516a3.11,3.11,0,0,0-.027-1.264,2.772,2.772,0,0,0-.449-.962,3.471,3.471,0,0,0-.734-.734,9.177,9.177,0,0,0-.881-.58q-.455-.264-.894-.506a5.744,5.744,0,0,1-.774-.5,1.922,1.922,0,0,1-.513-.581,1.11,1.11,0,0,1-.111-.736,1.212,1.212,0,0,1,.174-.473.994.994,0,0,1,.362-.333,1.512,1.512,0,0,1,.572-.165,3.064,3.064,0,0,1,.8.037,3.585,3.585,0,0,1,.91.261,6.6,6.6,0,0,1,.7.368c.2.123.371.234.508.334a.83.83,0,0,0,.317.169.179.179,0,0,0,.112-.014.264.264,0,0,0,.1-.111.972.972,0,0,0,.092-.263c.027-.117.057-.267.086-.451.021-.136.036-.257.047-.361a1.917,1.917,0,0,0,.011-.27.674.674,0,0,0-.032-.2.66.66,0,0,0-.091-.169,1.049,1.049,0,0,0-.245-.212,4.493,4.493,0,0,0-.406-.246,4.737,4.737,0,0,0-.492-.228c-.176-.07-.345-.13-.507-.18l.442-1.651a.626.626,0,0,0,0-.18.234.234,0,0,0-.1-.149.994.994,0,0,0-.268-.119,3.144,3.144,0,0,0-.451-.1,3.236,3.236,0,0,0-.377-.043.74.74,0,0,0-.234.023.276.276,0,0,0-.131.069.3.3,0,0,0-.058.114l-.46,1.756a5.186,5.186,0,0,0-1.434.123,3.224,3.224,0,0,0-1.128.5,2.851,2.851,0,0,0-.791.853,3.225,3.225,0,0,0-.413,1.177,3.269,3.269,0,0,0,.02,1.289,2.734,2.734,0,0,0,.442.975,3.577,3.577,0,0,0,.723.743,8.194,8.194,0,0,0,.867.582c.3.176.594.342.881.5a5.2,5.2,0,0,1,.762.5,2.024,2.024,0,0,1,.505.576,1.113,1.113,0,0,1,.107.735,1.239,1.239,0,0,1-.668.945,2.568,2.568,0,0,1-1.6.142,4.528,4.528,0,0,1-1.137-.316,5.614,5.614,0,0,1-.791-.425,6.364,6.364,0,0,1-.522-.383.759.759,0,0,0-.316-.186.3.3,0,0,0-.161.014.31.31,0,0,0-.135.13,1.017,1.017,0,0,0-.11.29c-.032.129-.064.294-.1.5a2.976,2.976,0,0,0-.049.6.6.6,0,0,0,.1.325,1.3,1.3,0,0,0,.269.257,3.955,3.955,0,0,0,.441.283,5.662,5.662,0,0,0,.585.283,6.856,6.856,0,0,0,.7.252l-.471,1.771a.329.329,0,0,0-.014.18.244.244,0,0,0,.108.148.939.939,0,0,0,.259.117,3.083,3.083,0,0,0,.452.1,2.416,2.416,0,0,0,.373.036.951.951,0,0,0,.24-.021.245.245,0,0,0,.13-.07.344.344,0,0,0,.058-.118l.487-1.869a5.757,5.757,0,0,0,1.6-.092,3.867,3.867,0,0,0,1.311-.521,3.106,3.106,0,0,0,.935-.934A3.421,3.421,0,0,0,1409.712,87.516Z" transform="translate(-1396.816 -72.149)"/></g><g transform="translate(159.813 213.301)"><path class="h" d="M1489.449,371.15a18.405,18.405,0,1,1,5.483-25.445A18.405,18.405,0,0,1,1489.449,371.15Z" transform="translate(-1461.061 -337.279)"/><g transform="translate(5.087 5.087)"><path class="g" d="M1471.033,365.672a13.325,13.325,0,1,1,18.421,3.969A13.339,13.339,0,0,1,1471.033,365.672Zm20.5-13.231a11.075,11.075,0,1,0-3.3,15.31A11.086,11.086,0,0,0,1491.533,352.441Z" transform="translate(-1468.907 -345.125)"/></g><g transform="translate(11.189 13.497)"><path class="g" d="M1485.786,367.333a3.276,3.276,0,0,1-1.272.506,2.973,2.973,0,0,1-1.273-.071,3.685,3.685,0,0,1-1.219-.608,5.538,5.538,0,0,1-1.1-1.095l-1.658.853a.308.308,0,0,1-.123.033.23.23,0,0,1-.133-.047.937.937,0,0,1-.17-.159,2.365,2.365,0,0,1-.215-.292,3.051,3.051,0,0,1-.219-.388.911.911,0,0,1-.082-.262.236.236,0,0,1,.038-.174.314.314,0,0,1,.138-.106l1.578-.8a6.57,6.57,0,0,1-.268-.663,5.548,5.548,0,0,1-.172-.6,3.7,3.7,0,0,1-.08-.5,1.236,1.236,0,0,1,.012-.358.572.572,0,0,1,.17-.28,2.914,2.914,0,0,1,.461-.349c.165-.107.3-.189.417-.249a1.009,1.009,0,0,1,.281-.108.284.284,0,0,1,.179.014.278.278,0,0,1,.115.106.735.735,0,0,1,.069.347,6.177,6.177,0,0,0,.06.622,5.218,5.218,0,0,0,.2.844,4.384,4.384,0,0,0,.5,1.021,2.48,2.48,0,0,0,1.135,1.063,1.2,1.2,0,0,0,1.11-.127,1.078,1.078,0,0,0,.46-.55,1.958,1.958,0,0,0,.089-.734,5.136,5.136,0,0,0-.129-.871q-.108-.462-.208-.954a7.877,7.877,0,0,1-.139-1,3.477,3.477,0,0,1,.068-1,2.669,2.669,0,0,1,.418-.945,3.17,3.17,0,0,1,.915-.844,3.135,3.135,0,0,1,1.112-.46,2.717,2.717,0,0,1,1.122.02,3.122,3.122,0,0,1,1.086.491,5.018,5.018,0,0,1,1.011.952l1.558-.8a.258.258,0,0,1,.119-.031.264.264,0,0,1,.134.048.734.734,0,0,1,.167.154,3.009,3.009,0,0,1,.213.3,3.067,3.067,0,0,1,.22.388.946.946,0,0,1,.087.27.226.226,0,0,1-.04.171.612.612,0,0,1-.132.116l-1.47.743c.067.148.134.309.2.481a4.358,4.358,0,0,1,.152.5,4.161,4.161,0,0,1,.085.452,1.01,1.01,0,0,1,.005.312.614.614,0,0,1-.063.174.68.68,0,0,1-.12.15,1.685,1.685,0,0,1-.2.166c-.082.06-.178.127-.29.2-.15.1-.277.173-.379.228a1,1,0,0,1-.248.1.263.263,0,0,1-.144,0,.18.18,0,0,1-.082-.071.8.8,0,0,1-.083-.337c-.016-.163-.044-.355-.086-.58a6.269,6.269,0,0,0-.19-.743,3.484,3.484,0,0,0-.4-.823,3.014,3.014,0,0,0-.491-.6,1.461,1.461,0,0,0-.486-.3.96.96,0,0,0-.473-.045,1.179,1.179,0,0,0-.452.178,1.079,1.079,0,0,0-.458.554,1.886,1.886,0,0,0-.089.744,5.7,5.7,0,0,0,.136.882q.109.472.212.967a8.95,8.95,0,0,1,.15,1.008,3.335,3.335,0,0,1-.057,1,2.66,2.66,0,0,1-.4.941A2.99,2.99,0,0,1,1485.786,367.333Z" transform="translate(-1478.32 -358.097)"/></g><path class="h" d="M1515,345.922a12.843,12.843,0,1,1-17.464-4.983A12.842,12.842,0,0,1,1515,345.922Z" transform="translate(-1471.566 -337.996)"/><g transform="translate(22.913 4.871)"><path class="g" d="M1510.218,362.214a9.3,9.3,0,1,1,3.607-12.643A9.308,9.308,0,0,1,1510.218,362.214Zm-8.274-14.879a7.727,7.727,0,1,0,10.509,3A7.736,7.736,0,0,0,1501.944,347.335Z" transform="translate(-1496.404 -344.793)"/></g><g transform="translate(28.869 9.126)"><path class="g" d="M1511.953,356.422a2.28,2.28,0,0,1,.294.909,2.069,2.069,0,0,1-.107.884,2.583,2.583,0,0,1-.479.82,3.834,3.834,0,0,1-.813.715l.518,1.193a.216.216,0,0,1,.017.088.164.164,0,0,1-.039.091.679.679,0,0,1-.119.111,1.561,1.561,0,0,1-.213.135,2.054,2.054,0,0,1-.281.135.643.643,0,0,1-.185.045.164.164,0,0,1-.119-.034.212.212,0,0,1-.068-.1l-.485-1.135a4.587,4.587,0,0,1-.474.156,3.981,3.981,0,0,1-.427.092,2.6,2.6,0,0,1-.352.033.859.859,0,0,1-.249-.025.4.4,0,0,1-.188-.131,2.081,2.081,0,0,1-.222-.337q-.1-.18-.154-.3a.685.685,0,0,1-.062-.2.194.194,0,0,1,.018-.124.191.191,0,0,1,.078-.075.52.52,0,0,1,.245-.032,4.159,4.159,0,0,0,.436-.014,3.618,3.618,0,0,0,.6-.1,3.03,3.03,0,0,0,.734-.3,1.728,1.728,0,0,0,.792-.742.834.834,0,0,0-.038-.778.75.75,0,0,0-.362-.346,1.35,1.35,0,0,0-.507-.1,3.513,3.513,0,0,0-.612.049q-.327.054-.674.1a5.47,5.47,0,0,1-.7.051,2.43,2.43,0,0,1-.691-.093,1.855,1.855,0,0,1-.639-.334,2.209,2.209,0,0,1-.546-.676,2.173,2.173,0,0,1-.269-.8,1.889,1.889,0,0,1,.065-.78,2.194,2.194,0,0,1,.391-.733,3.507,3.507,0,0,1,.709-.661l-.485-1.121a.156.156,0,0,1,.023-.176.5.5,0,0,1,.115-.11,2.1,2.1,0,0,1,.217-.134,2.137,2.137,0,0,1,.281-.135.663.663,0,0,1,.192-.049.16.16,0,0,1,.117.036.4.4,0,0,1,.075.1l.45,1.057q.159-.06.344-.115a3.154,3.154,0,0,1,.355-.083,2.8,2.8,0,0,1,.318-.038.706.706,0,0,1,.218.01.4.4,0,0,1,.216.142,1.186,1.186,0,0,1,.106.149c.038.06.08.13.126.21.06.109.108.2.141.275a.7.7,0,0,1,.061.178.183.183,0,0,1-.007.1.129.129,0,0,1-.054.054.565.565,0,0,1-.239.043c-.113,0-.25.014-.408.033a4.3,4.3,0,0,0-.527.1,2.4,2.4,0,0,0-.591.239,2.109,2.109,0,0,0-.441.314,1.016,1.016,0,0,0-.234.324.666.666,0,0,0-.053.327.816.816,0,0,0,.1.324.752.752,0,0,0,.364.344,1.311,1.311,0,0,0,.513.1,3.932,3.932,0,0,0,.62-.054q.334-.055.684-.1a6.239,6.239,0,0,1,.708-.058,2.317,2.317,0,0,1,.694.085,1.848,1.848,0,0,1,.637.323A2.091,2.091,0,0,1,1511.953,356.422Z" transform="translate(-1505.591 -351.356)"/></g></g><g transform="translate(5.568 19.645)"><path class="g" d="M1577.817,145.606a1.633,1.633,0,0,0-2.24.56L1565,163.741A133.648,133.648,0,0,0,1431.613,38.559a2.449,2.449,0,1,0,0,4.9,128.063,128.063,0,0,1,128.472,120.2l-11.316-16.816a1.632,1.632,0,0,0-2.708,1.821l15.368,22.833a1.632,1.632,0,0,0,2.751-.07l14.194-23.579A1.645,1.645,0,0,0,1577.817,145.606Z" transform="translate(-1295.597 -38.559)"/><path class="g" d="M1370.125,355.507a128.066,128.066,0,0,1-128.474-120.2l11.317,16.817a1.632,1.632,0,0,0,2.709-1.822l-15.367-22.833a1.633,1.633,0,0,0-2.752.07l-14.193,23.579a1.632,1.632,0,1,0,2.8,1.683l10.578-17.574A133.651,133.651,0,0,0,1370.125,360.4a2.449,2.449,0,0,0,0-4.9Z" transform="translate(-1223.133 -104.747)"/></g><path class="i" d="M1546.263,254.441a1.453,1.453,0,0,1,0,2.053l-32.737,32.736a1.452,1.452,0,0,1-2.054,0l-60.626-60.626a1.452,1.452,0,0,1,0-2.054l32.736-32.736a1.451,1.451,0,0,1,2.053,0Z" transform="translate(-1297.505 -73.37)"/><rect class="j" width="43.507" height="67.092" transform="translate(162.09 159.959) rotate(-45)"/><path class="k" d="M1484.018,217.085a.763.763,0,0,1,0,1.078l-8.823,8.823a.762.762,0,0,1-1.078,0h0a.763.763,0,0,1,0-1.079l8.823-8.823a.762.762,0,0,1,1.078,0Z" transform="translate(-1305.761 -81.625)"/><path class="k" d="M1567.331,306.705a2.541,2.541,0,1,1-3.594,0A2.541,2.541,0,0,1,1567.331,306.705Z" transform="translate(-1337.098 -112.963)"/><g transform="translate(178.517 138.063)"><path class="f" d="M1490.112,233.387a4.7,4.7,0,0,1,3.058-5.822l19.854-6.343,6.322,6.321-28.244,9.112Z" transform="translate(-1489.911 -221.222)"/><path class="f" d="M1498.319,261.093l-3.178-10.483,32.069-10.345,12.432,12.432-35.588,11.4A4.528,4.528,0,0,1,1498.319,261.093Z" transform="translate(-1491.751 -227.92)"/><path class="l" d="M1491.749,240.085l28.244-9.111,6.024,6.024-32.068,10.345Z" transform="translate(-1490.558 -224.652)"/><rect class="l" width="6.77" height="2.967" transform="translate(19.489 20.061) rotate(-16.505)"/><rect class="l" width="6.771" height="2.966" transform="translate(28.282 17.185) rotate(-16.504)"/><path class="l" d="M1523.88,257.87a.436.436,0,0,1,.293-.543l20.266-6.066.7.7-20.717,6.2A.435.435,0,0,1,1523.88,257.87Z" transform="translate(-1501.852 -231.787)"/><path class="l" d="M1526.716,261.716a.436.436,0,0,1,.293-.543l20.741-6.209.7.7-21.191,6.343A.436.436,0,0,1,1526.716,261.716Z" transform="translate(-1502.85 -233.09)"/></g><path class="m" d="M1553.272,279.247l10.771-10.771s-21.967-11.2-21.259-34.581c0,0-11.48-1.559-17.362.071s-13.818,1.063-15.519-3.189c0,0,14.74-6.521,20.549-9.212s9.495-4.675,16.723-.849,15.023,5.668,20.551,17.714,8.361,20.267,13.179,25.653l-18.991,18.991S1558.093,282.931,1553.272,279.247Z" transform="translate(-1318.426 -82.232)"/><rect class="n" width="35.297" height="4.978" transform="matrix(0.707, -0.707, 0.707, 0.707, 239.982, 204.348)"/><path class="l" d="M1669.967,341.717h-56.815l-25.59-25.59,28.319-28.319Z" transform="translate(-1345.74 -106.578)"/><path class="m" d="M1483.875,256.838a5.01,5.01,0,0,1,0,7.085l-7.727,7.726a5.01,5.01,0,0,1-7.085,0l-.01-.009a5.01,5.01,0,0,1,0-7.085l7.727-7.727a5.01,5.01,0,0,1,7.085,0Z" transform="translate(-1303.542 -95.166)"/><path class="m" d="M1498.361,262.317a5.01,5.01,0,0,1,0,7.085l-11.269,11.269a5.01,5.01,0,0,1-7.085,0l-.01-.01a5.01,5.01,0,0,1,0-7.085l11.269-11.269a5.01,5.01,0,0,1,7.085,0Z" transform="translate(-1307.391 -97.093)"/><path class="m" d="M1506.758,277.189a5.01,5.01,0,0,1,0,7.085L1498.036,293a5.01,5.01,0,0,1-7.085,0l-.01-.009a5.01,5.01,0,0,1,0-7.085l8.722-8.723a5.009,5.009,0,0,1,7.085,0Z" transform="translate(-1311.241 -102.324)"/><path class="m" d="M1515.71,291.2a5.01,5.01,0,0,1,0,7.085l-6.731,6.73a5.01,5.01,0,0,1-7.085,0l-.009-.01a5.01,5.01,0,0,1,0-7.085l6.731-6.73a5.01,5.01,0,0,1,7.085,0Z" transform="translate(-1315.09 -107.253)"/><path class="i" d="M1302.041,144.361a1.451,1.451,0,0,0-2.052.068l-31.63,33.807a1.452,1.452,0,0,0,.068,2.052l62.607,58.577a1.452,1.452,0,0,0,2.052-.068l31.63-33.807a1.452,1.452,0,0,0-.068-2.052Z" transform="translate(-1233.333 -55.988)"/><rect class="k" width="43.507" height="67.092" transform="translate(43.698 128.453) rotate(-46.905)"/><path class="k" d="M1389.14,250.813a.762.762,0,0,0-1.078.036l-8.524,9.111a.762.762,0,0,0,.035,1.077h0a.762.762,0,0,0,1.078-.036l8.524-9.11a.763.763,0,0,0-.036-1.077Z" transform="translate(-1272.502 -93.494)"/><path class="k" d="M1299.622,173.412a2.541,2.541,0,1,0,.12,3.591A2.541,2.541,0,0,0,1299.622,173.412Z" transform="translate(-1242.963 -66.102)"/><g transform="translate(77.216 110.107)"><path class="f" d="M1369.78,235.018a4.7,4.7,0,0,0,5.717-3.25l5.68-20.055-6.528-6.108-8.168,28.532Z" transform="translate(-1345.198 -187.773)"/><path class="f" d="M1337.026,219.677l10.583,2.828,9.273-32.395L1344.043,178.1l-10.215,35.947A4.528,4.528,0,0,0,1337.026,219.677Z" transform="translate(-1333.652 -178.099)"/><path class="l" d="M1362.506,230.979l8.167-28.531-6.221-5.82-9.273,32.395Z" transform="translate(-1341.224 -184.616)"/><rect class="l" width="6.77" height="2.967" transform="matrix(0.252, -0.968, 0.968, 0.252, 13.179, 27.481)"/><rect class="l" width="6.771" height="2.966" transform="translate(15.761 18.598) rotate(-75.401)"/><path class="l" d="M1348.818,206.4a.435.435,0,0,0,.533-.311l5.389-20.457-.723-.677-5.51,20.912A.436.436,0,0,0,1348.818,206.4Z" transform="translate(-1338.871 -180.512)"/><path class="l" d="M1344.8,203.44a.437.437,0,0,0,.533-.311l5.516-20.936-.724-.677-5.635,21.391A.436.436,0,0,0,1344.8,203.44Z" transform="translate(-1337.459 -179.301)"/></g><path class="o" d="M1294.43,151.581l10.407-11.123s11.921,21.583,35.269,20.1c0,0,1.94,11.421.506,17.354s-.6,13.845,3.7,15.4c0,0,6.027-14.948,8.524-20.844s4.357-9.645.292-16.741-6.164-14.826-18.387-19.95-20.534-7.682-26.077-12.32l-18.349,19.612S1290.588,146.886,1294.43,151.581Z" transform="translate(-1241.195 -48.774)"/><rect class="h" width="35.297" height="4.978" transform="translate(42.1 94.516) rotate(-46.904)"/><path class="f" d="M1233.3,31l1.888,56.783,26.427,24.725,27.362-29.244Z" transform="translate(-1221.142 -16.254)"/><path class="o" d="M1335.622,230.418a5.009,5.009,0,0,0-7.081.235l-10.889,11.638a5.01,5.01,0,0,0,.235,7.081l.01.009a5.01,5.01,0,0,0,7.081-.235l10.889-11.638a5.01,5.01,0,0,0-.236-7.081Z" transform="translate(-1250.333 -85.918)"/><path class="o" d="M1321.86,223.9a5.01,5.01,0,0,0-7.081.235l-8.427,9.008a5.01,5.01,0,0,0,.235,7.081l.01.009a5.01,5.01,0,0,0,7.081-.235l8.428-9.008a5.01,5.01,0,0,0-.236-7.081Z" transform="translate(-1246.359 -83.626)"/><path class="o" d="M1345.285,244.212a5.01,5.01,0,0,0-7.081.236l-8.428,9.007a5.01,5.01,0,0,0,.236,7.081l.01.009a5.01,5.01,0,0,0,7.081-.235l8.427-9.007a5.01,5.01,0,0,0-.235-7.081Z" transform="translate(-1254.597 -90.769)"/><path class="o" d="M1308.635,216.5a5.01,5.01,0,0,0-7.081.235l-6.5,6.951a5.01,5.01,0,0,0,.235,7.081l.01.009a5.01,5.01,0,0,0,7.081-.235l6.5-6.951a5.009,5.009,0,0,0-.235-7.081Z" transform="translate(-1242.383 -81.022)"/><g transform="translate(97.143 190.936)"><path class="p" d="M1412.347,336.848a13.938,13.938,0,1,1-13.937-13.937A13.938,13.938,0,0,1,1412.347,336.848Z" transform="translate(-1371.453 -309.86)"/><g transform="translate(16.867 16.898)"><path class="g" d="M1400.5,349.026a10.09,10.09,0,1,1,10.09-10.091A10.1,10.1,0,0,1,1400.5,349.026Zm0-18.477a8.387,8.387,0,1,0,8.386,8.386A8.4,8.4,0,0,0,1400.5,330.55Z" transform="translate(-1390.407 -328.846)"/></g><g transform="translate(24.104 21.174)"><path class="g" d="M1407.276,342.875a2.483,2.483,0,0,1-.2,1.018,2.264,2.264,0,0,1-.568.781,2.815,2.815,0,0,1-.887.526,4.183,4.183,0,0,1-1.148.25l-.138,1.4a.226.226,0,0,1-.03.092.171.171,0,0,1-.084.065.766.766,0,0,1-.171.043,1.882,1.882,0,0,1-.274.016,2.236,2.236,0,0,1-.338-.02.69.69,0,0,1-.2-.055.182.182,0,0,1-.1-.1.242.242,0,0,1-.01-.132l.138-1.333a4.981,4.981,0,0,1-.531-.1,4.214,4.214,0,0,1-.453-.137,2.822,2.822,0,0,1-.351-.154.971.971,0,0,1-.223-.154.439.439,0,0,1-.108-.224,2.145,2.145,0,0,1-.033-.436c0-.149,0-.272.013-.368a.767.767,0,0,1,.046-.222.217.217,0,0,1,.082-.109.21.21,0,0,1,.114-.029.548.548,0,0,1,.25.1,4.637,4.637,0,0,0,.421.216,3.937,3.937,0,0,0,.62.217,3.32,3.32,0,0,0,.857.1,1.876,1.876,0,0,0,1.142-.286.906.906,0,0,0,.375-.758.818.818,0,0,0-.161-.519,1.478,1.478,0,0,0-.431-.358,3.874,3.874,0,0,0-.607-.276q-.338-.121-.693-.259a5.88,5.88,0,0,1-.693-.322,2.633,2.633,0,0,1-.607-.453,2.009,2.009,0,0,1-.43-.653,2.64,2.64,0,0,1,0-1.826,2.057,2.057,0,0,1,.474-.705,2.366,2.366,0,0,1,.758-.49,3.832,3.832,0,0,1,1.021-.253l.132-1.319a.2.2,0,0,1,.029-.089.2.2,0,0,1,.086-.065.542.542,0,0,1,.167-.043,2.258,2.258,0,0,1,.277-.013,2.331,2.331,0,0,1,.337.019.712.712,0,0,1,.207.056.17.17,0,0,1,.092.095.423.423,0,0,1,.02.132l-.13,1.24c.122.018.251.042.386.073a3.371,3.371,0,0,1,.38.108,3.164,3.164,0,0,1,.322.132.76.76,0,0,1,.2.125.468.468,0,0,1,.085.112.5.5,0,0,1,.046.137,1.28,1.28,0,0,1,.023.2c0,.076.008.165.008.266,0,.135,0,.248-.01.335a.722.722,0,0,1-.036.2.207.207,0,0,1-.059.092.14.14,0,0,1-.079.023.614.614,0,0,1-.249-.085q-.164-.086-.4-.184a4.651,4.651,0,0,0-.551-.184,2.617,2.617,0,0,0-.686-.086,2.274,2.274,0,0,0-.584.065,1.117,1.117,0,0,0-.394.184.731.731,0,0,0-.223.282.894.894,0,0,0-.072.362.815.815,0,0,0,.164.519,1.418,1.418,0,0,0,.437.362,4.277,4.277,0,0,0,.616.276q.345.125.7.263a6.726,6.726,0,0,1,.7.318,2.52,2.52,0,0,1,.613.447,2.022,2.022,0,0,1,.434.643A2.262,2.262,0,0,1,1407.276,342.875Z" transform="translate(-1401.57 -335.442)"/></g><line class="q" y2="8.511" transform="translate(26.261)"/><line class="q" x2="4.983" y2="6.819" transform="translate(10.639 4.871)"/><line class="q" x2="8.287" y2="3.17" transform="translate(0 18.198)"/><line class="q" y1="3.854" x2="7.839" transform="translate(0.448 33.102)"/><line class="q" y1="6.819" x2="5.095" transform="translate(36.34 4.871)"/><line class="q" y1="2.89" x2="8.175" transform="translate(44.161 18.478)"/><line class="q" x2="7.671" y2="3.854" transform="translate(44.161 33.102)"/><g transform="translate(10.639 42.755)"><line class="q" y1="8.511" transform="translate(15.622 3.18)"/><line class="q" y1="6.819" x2="4.983"/><line class="q" x2="5.095" y2="6.819" transform="translate(25.701)"/></g></g><circle class="a" cx="147.148" cy="147.148" r="147.148"/></g></g><circle class="r" cx="147.148" cy="147.148" r="147.148" transform="translate(0)"/></g></svg>