<svg xmlns="http://www.w3.org/2000/svg" xmlns:xlink="http://www.w3.org/1999/xlink" width="295.289" height="295.289" viewBox="0 0 295.289 295.289"><defs><style>.a,.j,.o,.v,.z{fill:none;}.b{clip-path:url(#a);}.c,.e,.f,.k,.w{fill:#fff;}.d{fill:#c81528;}.e,.j,.o,.s,.t,.w,.x,.y,.z{stroke:#e32c1b;}.e,.f,.j,.o,.s,.v,.w,.y{stroke-linecap:round;}.e,.f,.j,.o,.s,.v,.y{stroke-linejoin:round;}.e,.f,.s,.t,.u,.v,.w,.x,.y,.z{stroke-width:0.992px;}.f,.u{stroke:#c81528;}.g{opacity:0.4;}.h,.p,.q,.r,.t{fill:#e32c1b;}.i{fill:#544e50;}.j{stroke-width:2px;}.k,.v{stroke:#f7cbcb;}.k,.t,.u,.w,.x,.z{stroke-miterlimit:10;}.l,.m,.s{fill:#f7cbcb;}.m{opacity:0.5;}.n,.y{fill:#ffdad5;}.o{stroke-width:1.417px;}.p{font-size:3px;}.p,.q,.r{font-family:Fieldwork-HumBold, Fieldwork;font-weight:700;}.q{font-size:6px;letter-spacing:0.04em;}.r{font-size:9px;}.u,.x{fill:#ff8d83;}</style><clipPath id="a"><circle class="a" cx="147.148" cy="147.148" r="147.148"/></clipPath></defs><g transform="translate(0.496 0.496)"><g class="b"><circle class="c" cx="147.148" cy="147.148" r="147.148"/><g transform="translate(17.154 111.743)"><path class="d" d="M188.027,282.536a.382.382,0,0,0-.058-.137c-.058-.1-.13-.228-.209-.384-.189-.332-.488-.821-.906-1.414a15.32,15.32,0,0,0-4.482-4.235,11.08,11.08,0,0,0-4.014-1.472,9.888,9.888,0,0,0-4.88.515,7.873,7.873,0,0,0-4.177,3.414,23.941,23.941,0,0,0-1.831,5.525,10.087,10.087,0,0,1-1.166,2.606,7.955,7.955,0,0,1-1.955,1.955c-.749.547-1.531,1.049-2.235,1.622a9.564,9.564,0,0,0-1.818,1.955,12.089,12.089,0,0,0-1.864,4.561,16.208,16.208,0,0,0-.248,4.274,32.237,32.237,0,0,0,1.095,6.073c.182.7.338,1.251.449,1.616a2.921,2.921,0,0,0,.183.554,2.185,2.185,0,0,0-.117-.574c-.117-.378-.228-.945-.391-1.628a35.49,35.49,0,0,1-.978-6.06,16.244,16.244,0,0,1,.28-4.2,12.027,12.027,0,0,1,1.844-4.424,9.32,9.32,0,0,1,1.765-1.9c.691-.56,1.466-1.049,2.228-1.609a8.372,8.372,0,0,0,2.065-2.033,10.426,10.426,0,0,0,1.212-2.723,25.48,25.48,0,0,1,1.792-5.453,7.648,7.648,0,0,1,4-3.3,9.728,9.728,0,0,1,4.73-.521,10.763,10.763,0,0,1,3.91,1.4,15.572,15.572,0,0,1,4.489,4.1c.436.58.749,1.049.958,1.368A3.269,3.269,0,0,0,188.027,282.536Z" transform="translate(-118.167 -257.268)"/><path class="e" d="M143.766,342.412l-4.079-25.632,31.288.384-3.082,24.916" transform="translate(-111.677 -272.037)"/><path class="f" d="M194.738,311.949a3.6,3.6,0,0,0-1.238-.788,5.382,5.382,0,0,0-1.694-.3,20.431,20.431,0,0,0-2.313.137,6.69,6.69,0,0,1-2.841-.248,4.336,4.336,0,0,1-2.346-2.268,12.758,12.758,0,0,1-1.01-3.46,10.11,10.11,0,0,0-1.205-3.551,12.638,12.638,0,0,0-2.652-2.691,12.905,12.905,0,0,1-2.528-2.567,8.5,8.5,0,0,1-1.264-5.864,8.229,8.229,0,0,1,1.538-3.786,6.043,6.043,0,0,1,.749-.827,1.864,1.864,0,0,1,.3-.254,1.662,1.662,0,0,1-.248.3,7.943,7.943,0,0,0-.69.86,8.58,8.58,0,0,0-.13,9.422,12.839,12.839,0,0,0,2.489,2.489,12.579,12.579,0,0,1,2.717,2.762,10.11,10.11,0,0,1,1.251,3.669,12.665,12.665,0,0,0,.97,3.388,4.087,4.087,0,0,0,2.163,2.144,6.642,6.642,0,0,0,2.73.267,19.74,19.74,0,0,1,2.333-.085,5.217,5.217,0,0,1,1.74.365,2.861,2.861,0,0,1,.938.606,1.588,1.588,0,0,1,.2.221C194.725,311.917,194.745,311.943,194.738,311.949Z" transform="translate(-124.292 -261.03)"/><path class="d" d="M194.738,311.949a3.6,3.6,0,0,0-1.238-.788,5.382,5.382,0,0,0-1.694-.3,20.431,20.431,0,0,0-2.313.137,6.69,6.69,0,0,1-2.841-.248,4.336,4.336,0,0,1-2.346-2.268,12.758,12.758,0,0,1-1.01-3.46,10.11,10.11,0,0,0-1.205-3.551,12.638,12.638,0,0,0-2.652-2.691,12.905,12.905,0,0,1-2.528-2.567,8.5,8.5,0,0,1-1.264-5.864,8.229,8.229,0,0,1,1.538-3.786,6.043,6.043,0,0,1,.749-.827,1.864,1.864,0,0,1,.3-.254,1.662,1.662,0,0,1-.248.3,7.943,7.943,0,0,0-.69.86,8.58,8.58,0,0,0-.13,9.422,12.839,12.839,0,0,0,2.489,2.489,12.579,12.579,0,0,1,2.717,2.762,10.11,10.11,0,0,1,1.251,3.669,12.665,12.665,0,0,0,.97,3.388,4.087,4.087,0,0,0,2.163,2.144,6.642,6.642,0,0,0,2.73.267,19.74,19.74,0,0,1,2.333-.085,5.217,5.217,0,0,1,1.74.365,2.861,2.861,0,0,1,.938.606,1.588,1.588,0,0,1,.2.221C194.725,311.917,194.745,311.943,194.738,311.949Z" transform="translate(-124.292 -261.03)"/><g class="g" transform="translate(3.889 29.534)"><path class="d" d="M130.432,309.356a.612.612,0,0,1,0-.176,3.157,3.157,0,0,1,.032-.515c0-.456.072-1.121.085-1.955a17.734,17.734,0,0,0-1.16-7.108,10.859,10.859,0,0,0-2.86-4.026,7.649,7.649,0,0,0-5.213-1.916,6.514,6.514,0,0,0-2.932.736,5.774,5.774,0,0,0-2.268,2.163,11.489,11.489,0,0,0-1.3,6.516,42.715,42.715,0,0,1,.156,6.88,10.708,10.708,0,0,1-.86,3.186,6.663,6.663,0,0,1-1.955,2.521,9.759,9.759,0,0,1-2.685,1.375,13.8,13.8,0,0,0-2.528,1.147,9.12,9.12,0,0,0-3.317,3.616,8.766,8.766,0,0,0-.958,3.955,9.331,9.331,0,0,0,.5,3.055,11.06,11.06,0,0,0,1.186,2.379,1,1,0,0,1-.117-.13,4.5,4.5,0,0,1-.3-.424,8.017,8.017,0,0,1-.893-1.778,9.129,9.129,0,0,1-.567-3.1,8.88,8.88,0,0,1,.932-4.066,9.4,9.4,0,0,1,3.382-3.746c1.551-1.03,3.59-1.3,5.167-2.522a8.031,8.031,0,0,0,2.645-5.505,48.472,48.472,0,0,0-.163-6.828,12.025,12.025,0,0,1,1.369-6.724,6.116,6.116,0,0,1,2.4-2.281,6.818,6.818,0,0,1,3.075-.762,7.91,7.91,0,0,1,5.4,2.014,11.074,11.074,0,0,1,2.9,4.144,14.924,14.924,0,0,1,.984,4.059,22.474,22.474,0,0,1,.085,3.147,15.532,15.532,0,0,1-.15,1.987,2.964,2.964,0,0,1-.065.508A.552.552,0,0,1,130.432,309.356Z" transform="translate(-102.479 -293.321)"/></g><path class="d" d="M197.971,300.949a6.7,6.7,0,0,0,.469-2.294,5.7,5.7,0,0,0-.613-2.652,5.532,5.532,0,0,0-2.548-2.463,5.684,5.684,0,0,0-2.014-.541,6.588,6.588,0,0,0-2.248.261c-1.531.4-3.05,1.3-4.867,1.635a5.729,5.729,0,0,1-2.814-.065,4.268,4.268,0,0,1-2.3-1.837c-1.095-1.695-1.4-3.825-2.723-5.382a5.306,5.306,0,0,0-2.47-1.616,6.93,6.93,0,0,0-2.886-.293,7.367,7.367,0,0,0-4.8,2.5,11.2,11.2,0,0,0-2.385,4.412,13.29,13.29,0,0,0-.534,4.371,47.011,47.011,0,0,0,.815,6.392l.293,1.733a2.331,2.331,0,0,0,.071.45,1.259,1.259,0,0,1,0,.156.442.442,0,0,0-.045-.15l-.1-.443c-.084-.423-.208-1-.358-1.72a43.028,43.028,0,0,1-.925-6.412,13.406,13.406,0,0,1,.5-4.456,11.481,11.481,0,0,1,2.424-4.561,8.688,8.688,0,0,1,2.2-1.759,7.589,7.589,0,0,1,5.831-.56,5.675,5.675,0,0,1,2.606,1.72c1.394,1.674,1.694,3.811,2.744,5.421A3.907,3.907,0,0,0,183.4,294.5a5.406,5.406,0,0,0,2.659.072c1.746-.333,3.258-1.193,4.854-1.6a6.743,6.743,0,0,1,2.339-.254,5.784,5.784,0,0,1,2.1.587,5.642,5.642,0,0,1,3.186,5.33,5.338,5.338,0,0,1-.338,1.734A2.749,2.749,0,0,1,197.971,300.949Z" transform="translate(-120.566 -260.969)"/><path class="d" d="M112.34,270.847a.393.393,0,0,1,.058-.137l.209-.384c.189-.332.482-.814.906-1.414a15.191,15.191,0,0,1,4.476-4.235,11.121,11.121,0,0,1,4.02-1.473,9.889,9.889,0,0,1,4.88.515,7.95,7.95,0,0,1,4.176,3.414,25.574,25.574,0,0,1,1.824,5.525,10.091,10.091,0,0,0,1.166,2.607,7.994,7.994,0,0,0,1.987,1.955c.743.547,1.525,1.049,2.235,1.622A9.782,9.782,0,0,1,140.1,280.8a12.112,12.112,0,0,1,1.857,4.561,15.912,15.912,0,0,1,.248,4.274,32.285,32.285,0,0,1-1.088,6.072c-.189.7-.346,1.251-.45,1.616a3.71,3.71,0,0,1-.182.554,3.205,3.205,0,0,1,.117-.574c.091-.4.221-.945.384-1.629a35.292,35.292,0,0,0,.983-6.06,15.963,15.963,0,0,0-.287-4.2,11.821,11.821,0,0,0-1.844-4.424,9.29,9.29,0,0,0-1.759-1.9c-.69-.56-1.472-1.049-2.228-1.609a8.4,8.4,0,0,1-2.072-2.033,10.2,10.2,0,0,1-1.205-2.723,25.523,25.523,0,0,0-1.8-5.453,7.64,7.64,0,0,0-3.994-3.3,9.778,9.778,0,0,0-4.731-.521,10.692,10.692,0,0,0-3.909,1.4,15.632,15.632,0,0,0-4.5,4.1c-.437.58-.743,1.049-.952,1.374A5.575,5.575,0,0,1,112.34,270.847Z" transform="translate(-102.058 -253.157)"/><path class="h" d="M165.992,297.236c.521-.482.769-.15,1.466,0a4.256,4.256,0,0,1,1.877.938,7.911,7.911,0,0,1,2.561,8.288,6.183,6.183,0,0,1-5.675-9.278" transform="translate(-120.715 -265.075)"/><path class="h" d="M198.663,281.559c.261-.652.652-.462,1.3-.652a4.268,4.268,0,0,1,2.1.04,7.9,7.9,0,0,1,5.864,6.391,6.176,6.176,0,0,1-9.122-5.936" transform="translate(-132.419 -259.381)"/><path class="h" d="M158.84,316.249a7.169,7.169,0,0,1,11.213.547,8.824,8.824,0,0,1-5.819,2.294,9.007,9.007,0,0,1-5.864-2.365" transform="translate(-118.248 -270.992)"/><path class="h" d="M157.755,297.728a7.225,7.225,0,0,1-7.3-8.62A6.516,6.516,0,0,1,158,297.657" transform="translate(-115.417 -262.251)"/><path class="h" d="M167.571,280.658a7.226,7.226,0,0,1-9.774-5.708,6.516,6.516,0,0,1,9.95,5.558" transform="translate(-118.046 -256.981)"/><path class="h" d="M176.647,278.228a7.219,7.219,0,0,1,9.773,5.707,6.516,6.516,0,0,1-9.949-5.564" transform="translate(-124.614 -258.303)"/><path class="h" d="M178.69,269.609a7.22,7.22,0,0,1-3.844-10.62,6.516,6.516,0,0,1,4.092,10.64" transform="translate(-123.666 -251.711)"/><path class="h" d="M193.4,271.179a7.225,7.225,0,0,1,5.9-9.636,6.515,6.515,0,0,1-5.76,9.838" transform="translate(-130.416 -252.61)"/><path class="h" d="M166.484,306.988a5.324,5.324,0,0,0,5.213.436,5.623,5.623,0,0,0,2.841-4.489,6.388,6.388,0,0,0-5.213-.261,6.289,6.289,0,0,0-3.446,3.857" transform="translate(-120.889 -266.923)"/><path class="h" d="M188.542,315.5a5.324,5.324,0,0,0,5.213.436,5.611,5.611,0,0,0,2.841-4.489,6.372,6.372,0,0,0-5.213-.261,6.3,6.3,0,0,0-3.453,3.857" transform="translate(-128.644 -269.917)"/><path class="h" d="M176.358,297.9a5.335,5.335,0,0,0,4.092,3.225,5.636,5.636,0,0,0,4.847-2.189,6.014,6.014,0,0,0-9.187-1.746" transform="translate(-124.487 -264.646)"/><path class="h" d="M181.617,308.908a5.357,5.357,0,0,0-4.672,2.312,5.61,5.61,0,0,0-.1,5.311,6,6,0,0,0,5.525-7.539" transform="translate(-124.527 -269.266)"/><path class="h" d="M191.985,324.324a5.321,5.321,0,0,0,.124,5.212,5.6,5.6,0,0,0,4.769,2.339,6.361,6.361,0,0,0-.3-5.18,5.809,5.809,0,0,0-4.157-2.658" transform="translate(-129.852 -274.59)"/><g class="g" transform="translate(0 45.213)"><path class="h" d="M107.192,325.837a7.916,7.916,0,0,0-10.712-7.818,13.2,13.2,0,0,0,10.425,7.7" transform="translate(-96.48 -317.505)"/></g><g class="g" transform="translate(7.49 54.021)"><path class="h" d="M109.19,331.7c-1.531,1.681-1.433,4.385-.339,6.379a14.288,14.288,0,0,0,4.867,4.671,10.275,10.275,0,0,0-4.424-11.663" transform="translate(-108.034 -331.092)"/></g><g class="g" transform="translate(15.944 46.623)"><path class="h" d="M121.191,319.814A9.122,9.122,0,0,0,131.163,328q.194-.019.388-.047a12.438,12.438,0,0,0-3.479-6.607c-1.9-1.668-4.9-2.294-7-.886" transform="translate(-121.074 -319.681)"/></g><g class="g" transform="translate(4.835 40.139)"><path class="h" d="M115.1,313.787a5.386,5.386,0,0,0-4.854-4.078,9.306,9.306,0,0,0-6.307,2.124,8.209,8.209,0,0,0,11.187,1.108" transform="translate(-103.938 -309.679)"/></g><g class="g" transform="translate(2.147 62.622)"><path class="h" d="M102,345.03a7.323,7.323,0,0,0-1.792,7.779,12.978,12.978,0,0,0,5.33,6.386,16.982,16.982,0,0,0,1-8.275,8.683,8.683,0,0,0-4.711-6.561" transform="translate(-99.793 -344.359)"/></g><g class="g" transform="translate(15.663 35.09)"><path class="h" d="M120.641,304.767a6.6,6.6,0,0,1,10.425-.613,5.7,5.7,0,0,1-10.295.261" transform="translate(-120.641 -301.89)"/></g><g class="g" transform="translate(7.35 24.659)"><path class="h" d="M118.763,292.651a8.589,8.589,0,0,1-10.71-5.726,8.7,8.7,0,0,1-.236-.985,19.314,19.314,0,0,1,5.167.071,8.406,8.406,0,0,1,4.561,2.255,4.559,4.559,0,0,1,1.2,4.385" transform="translate(-107.817 -285.8)"/></g><g class="g" transform="translate(20.688 19.006)"><path class="h" d="M130.964,287.91a7.021,7.021,0,0,1-.045-10.829,14.742,14.742,0,0,1,3.069,6.548,5.518,5.518,0,0,1,0,2.7,2.49,2.49,0,0,1-1.89,1.772" transform="translate(-128.392 -277.081)"/></g><path class="h" d="M187.058,288.837a6.092,6.092,0,0,0,5.584.365,5.635,5.635,0,0,0,2.841-4.489,6.412,6.412,0,0,0-5.212-.267,6.322,6.322,0,0,0-3.447,3.857" transform="translate(-128.255 -260.514)"/><path class="h" d="M196.8,299.874a6.059,6.059,0,0,0,2.606,4.952,5.625,5.625,0,0,0,5.317.091,6.4,6.4,0,0,0-2.476-4.561,6.306,6.306,0,0,0-5.088-.932" transform="translate(-131.765 -265.869)"/><path class="h" d="M212.529,295.418a6.1,6.1,0,0,0,5.59-.235,5.623,5.623,0,0,0,2.345-4.763,6,6,0,0,0-8.2,4.489" transform="translate(-137.202 -262.605)"/><path class="h" d="M172.626,280.9a6.375,6.375,0,0,1-2.222-5.264,5.631,5.631,0,0,1,3.453-4.047,6.4,6.4,0,0,1,1.785,4.874,6.33,6.33,0,0,1-2.664,4.437" transform="translate(-122.463 -256.144)"/><path class="h" d="M146.925,285.548c-.514-.482-.768-.143-1.466,0a4.3,4.3,0,0,0-1.876.938,7.923,7.923,0,0,0-2.567,8.308,6.177,6.177,0,0,0,5.642-9.291" transform="translate(-112.035 -260.965)"/><path class="h" d="M112.429,270.336c-.261-.652-.652-.463-1.3-.652a4.319,4.319,0,0,0-2.1.039,7.923,7.923,0,0,0-5.864,6.392,6.184,6.184,0,0,0,9.057-5.916" transform="translate(-98.831 -255.434)"/><path class="h" d="M151.4,304.562a7.168,7.168,0,0,0-11.207.548A8.807,8.807,0,0,0,146,307.4a9.016,9.016,0,0,0,5.864-2.365" transform="translate(-111.853 -266.883)"/><path class="h" d="M153.984,285.576a7.218,7.218,0,0,0,7.3-8.62,6.515,6.515,0,0,0-7.538,8.548" transform="translate(-116.488 -257.977)"/><path class="h" d="M143.169,269.418a7.232,7.232,0,0,0,9.774-5.708,6.483,6.483,0,0,0-9.949,5.558" transform="translate(-112.839 -253.018)"/><path class="h" d="M134.064,267a7.232,7.232,0,0,0-9.774,5.708,6.516,6.516,0,0,0,9.982-5.545" transform="translate(-106.261 -254.358)"/><path class="h" d="M133.8,258.384a7.226,7.226,0,0,0,3.844-10.621,6.516,6.516,0,0,0-4.1,10.64" transform="translate(-108.98 -247.763)"/><path class="h" d="M119.242,259.491a7.227,7.227,0,0,0-5.864-9.637,6.483,6.483,0,0,0,5.753,9.838" transform="translate(-102.093 -248.498)"/><path class="e" d="M139.064,351.736l2.4,2.971h29.45l2.007-2.971Z" transform="translate(-111.457 -284.332)"/><path class="e" d="M172.744,351.6c0,.091-7.232.17-16.159.17s-16.165-.078-16.165-.17,7.239-.169,16.165-.169S172.744,351.512,172.744,351.6Z" transform="translate(-111.935 -284.226)"/><path class="e" d="M170.449,334.25a1.741,1.741,0,0,1-.183.241,6.635,6.635,0,0,1-.6.652,10.992,10.992,0,0,1-2.607,1.824,11.56,11.56,0,0,1-4.593,1.179,11.368,11.368,0,0,1-2.815-.235,16.777,16.777,0,0,1-2.867-.951c-1.9-.808-3.623-1.727-5.3-2.268a9.2,9.2,0,0,0-4.561-.436,5.86,5.86,0,0,0-2.808,1.3c-.561.489-.775.854-.808.834a1.46,1.46,0,0,1,.15-.267,4.445,4.445,0,0,1,.567-.651,5.82,5.82,0,0,1,2.847-1.44,9.173,9.173,0,0,1,4.731.378c1.72.528,3.459,1.446,5.336,2.248a16.79,16.79,0,0,0,2.808.938,11.037,11.037,0,0,0,2.73.248,11.609,11.609,0,0,0,4.5-1.082A13.973,13.973,0,0,0,170.449,334.25Z" transform="translate(-112.949 -278.053)"/><path class="e" d="M170.538,330.811a1.092,1.092,0,0,1-.2.228,6.574,6.574,0,0,1-.652.586,12.217,12.217,0,0,1-2.723,1.694,12.734,12.734,0,0,1-4.626,1.1,12.315,12.315,0,0,1-2.821-.189,18.066,18.066,0,0,1-2.913-.821c-1.955-.7-3.727-1.518-5.434-1.993a10.834,10.834,0,0,0-4.62-.418,6.868,6.868,0,0,0-2.913,1.114c-.612.43-.879.756-.906.73s.053-.091.183-.241a4.793,4.793,0,0,1,.652-.593,6.6,6.6,0,0,1,2.952-1.244,10.673,10.673,0,0,1,4.743.351c1.739.469,3.538,1.3,5.46,1.955a19.039,19.039,0,0,0,2.86.814,12.492,12.492,0,0,0,2.749.208,12.894,12.894,0,0,0,4.561-1.016A15.651,15.651,0,0,0,170.538,330.811Z" transform="translate(-112.745 -276.914)"/></g><line class="e" x2="284.978" transform="translate(4.269 182.474)"/><line class="e" x2="284.978" transform="translate(26.776 256.129)"/><rect class="c" width="98.648" height="158.352" transform="translate(76.627 14.405)"/><rect class="a" width="94.579" height="150.581" rx="12.457" transform="translate(77.055 19.02)"/><path class="i" d="M279.082,91.247h-94.6a8.075,8.075,0,0,0-8.075,8.076V259.5a8.075,8.075,0,0,0,8.075,8.076h94.6a8.075,8.075,0,0,0,8.075-8.076V99.323A8.075,8.075,0,0,0,279.082,91.247ZM231.539,263.2a4.21,4.21,0,1,1,4.21-4.21A4.21,4.21,0,0,1,231.539,263.2Zm47.533-20.7A8.075,8.075,0,0,1,271,250.571H192.568a8.075,8.075,0,0,1-8.076-8.076V108.066a8.076,8.076,0,0,1,8.076-8.076H271a8.075,8.075,0,0,1,8.076,8.076Z" transform="translate(-107.438 -80.971)"/><g transform="translate(86.852 29.754)"><path class="j" d="M233.264,151.8l5.274-24.086.194-.047,6.942-1.65a2.392,2.392,0,0,0,1.775-2.882h0a2.393,2.393,0,0,0-2.882-1.775l-9.468,2.251a2.393,2.393,0,0,0-1.8,1.863l-.04.318V128.9H203.991v4.227H207.1l3.35,14.2H228.4V151.8H210.692" transform="translate(-203.991 -121.292)"/><line class="j" x1="2.154" y2="10.051" transform="translate(25.368 11.758)"/><line class="j" x1="0.798" y2="10.051" transform="translate(20.183 11.758)"/><line class="j" x2="2.154" y2="10.051" transform="translate(8.356 11.758)"/><line class="j" x2="0.798" y2="10.051" transform="translate(14.897 11.758)"/><circle class="j" cx="3.696" cy="3.696" r="3.696" transform="translate(22.895 33.058)"/><circle class="j" cx="3.696" cy="3.696" r="3.696" transform="translate(5.215 33.058)"/></g><g transform="translate(83.359 108.694)"><rect class="k" width="81.443" height="47.36" rx="11.055" transform="translate(81.443 47.36) rotate(-180)"/><rect class="l" width="16.515" height="12.629" rx="5.48" transform="translate(78.529 18.215) rotate(-180)"/><rect class="l" width="76.1" height="6.315" rx="3.157" transform="translate(78.529 27.121) rotate(-180)"/><rect class="l" width="38.05" height="6.315" rx="3.157" transform="translate(78.529 40.698) rotate(180)"/><path class="h" d="M226.675,298.265a2.132,2.132,0,0,0-.357-1.451c-.484-.688-1.859,0-1.859,0a23.3,23.3,0,0,0-4.939-.891,28.671,28.671,0,0,0-4.583.178c-.28,0-.23-.255-.23-.56,0-.178,2.088-.56,3.463-1.273a4.706,4.706,0,0,0,2.011-1.731c-.2-.28-2.419.127-2.979.229-.637.1-1.706.408-1.706.408s2.139-1.018,1.706-1.2a3.975,3.975,0,0,0-2.5.56,17.487,17.487,0,0,0-2.062,1.426c-.637.433-1.374.56-1.909.917a4.813,4.813,0,0,0-1.91,2.139c0,1.527,2.342,1.247,2.342,1.247s1.12-.28-.865,1.2-3,3.921-2.546,4.176c.28.153,2.546-1.6,6.06-2.826,1.4-.484,3.208.051,5.372,0,1.094-.025,2.7-.585,3.233-.585A8.019,8.019,0,0,0,223.9,301.3c1.044.51,2.75.127,3.947.637a9.808,9.808,0,0,1,2.266,1.706c.28,0,.611-.382.382-1.146s-.637-1.018-1.374-1.935A23.852,23.852,0,0,0,226.675,298.265Z" transform="translate(-201.785 -260.247)"/></g><rect class="m" width="18.215" height="16.677" rx="2.835" transform="translate(161.54 71.15) rotate(-180)"/><rect class="m" width="77.015" height="16.677" rx="3.351" transform="translate(161.54 96.568) rotate(-180)"/><rect class="m" width="18.215" height="16.677" rx="2.835" transform="translate(161.54 48.535) rotate(-180)"/><g transform="translate(77.35 196.116)"><path class="n" d="M200.571,459.27,189.335,454.4l6.4-55.024,6.439,4.069L201.14,459.27Z" transform="translate(-189.335 -385.46)"/><path class="h" d="M239.916,400.38l-9.066-3.532-30.885,1.428,5.681,3.526Z" transform="translate(-193.074 -384.571)"/><path class="c" d="M242.992,403.439l2.459,53.724-37.907,3.426,1.443-56.417,33.99-1.046Z" transform="translate(-195.739 -386.779)"/><path class="o" d="M242.959,402.513l2.492,54.172-37.907,3.935,1.049-56.664" transform="translate(-195.739 -386.564)"/><path class="o" d="M242.6,402.24s.2-19.019-11.87-19.15-14.691,21.117-14.691,21.117" transform="translate(-198.728 -379.732)"/><path class="o" d="M207.544,390.974s1.23-12.346,11.412-13.034c9.02-.609,12.407,8.362,12.407,12.641" transform="translate(-195.739 -377.91)"/><path class="o" d="M240.042,400.734l-8.788-3.279-32,1.049,6.427,3.673Z" transform="translate(-192.822 -384.785)"/><path class="o" d="M195.762,399.074l-6.427,55.221,11.8,5.115" transform="translate(-189.335 -385.354)"/><g transform="translate(69.636 4.407)"><path class="n" d="M353.778,464.05l10.957-4.748-6.245-53.66-6.279,3.968,1.013,54.439Z" transform="translate(-316.257 -392.071)"/><path class="h" d="M301.068,406.62l8.841-3.444,30.119,1.392-5.54,3.439Z" transform="translate(-298.269 -391.204)"/><path class="c" d="M299.149,409.6l-2.4,52.391,36.967,3.341-1.407-55.018-33.147-1.02Z" transform="translate(-296.751 -393.357)"/><path class="o" d="M299.181,408.7l-2.43,52.828,36.967,3.837-1.023-55.258" transform="translate(-296.751 -393.147)"/><path class="o" d="M305.531,408.434s-.192-18.547,11.576-18.675,14.326,20.594,14.326,20.594" transform="translate(-299.839 -386.484)"/><path class="o" d="M341.171,397.448s-1.2-12.04-11.129-12.711c-8.8-.594-12.1,8.154-12.1,12.327" transform="translate(-304.204 -384.709)"/><path class="o" d="M300.5,406.966l8.57-3.2,31.211,1.023-6.268,3.582Z" transform="translate(-298.069 -391.412)"/><path class="o" d="M359.017,405.346l6.268,53.851-11.512,4.989" transform="translate(-316.806 -391.967)"/></g><g transform="translate(48.925 27.19)"><path class="n" d="M303.84,474.163l7.5-3.25-4.275-36.731-4.3,2.716.693,37.265Z" transform="translate(-278.155 -424.892)"/><path class="h" d="M267.758,434.851l6.052-2.358,20.617.953-3.792,2.354Z" transform="translate(-265.842 -424.299)"/><path class="c" d="M266.445,436.893,264.8,472.756l25.3,2.287-.963-37.661-22.69-.7Z" transform="translate(-264.803 -425.772)"/><path class="o" d="M266.467,436.276,264.8,472.438l25.3,2.627-.7-37.826" transform="translate(-264.803 -425.629)"/><path class="o" d="M270.813,436.093s-.131-12.7,7.924-12.784,9.807,14.1,9.807,14.1" transform="translate(-266.917 -421.068)"/><path class="o" d="M295.21,428.573s-.821-8.242-7.617-8.7c-6.021-.407-8.283,5.582-8.283,8.438" transform="translate(-269.905 -419.853)"/><path class="o" d="M267.369,435.088l5.866-2.189,21.364.7-4.29,2.452Z" transform="translate(-265.706 -424.441)"/><path class="o" d="M307.426,433.98l4.29,36.862-7.88,3.415" transform="translate(-278.532 -424.821)"/></g></g><text class="p" transform="translate(148.911 39.871)"><tspan x="-3.104" y="0">BUY</tspan></text><text class="q" transform="translate(106.043 89.067)"><tspan x="-20.209" y="0">GET A QUOTE</tspan></text><circle class="c" cx="6.547" cy="6.547" r="6.547" transform="translate(145.885 56.265)"/><text class="r" transform="translate(150.556 64.08)"><tspan x="-4.151" y="0">%</tspan></text><path class="s" d="M284.017,241.227s-8.872-3.623-22.639-30.813c-2.128-3.293-7.228.344-8.6-9.178-.8,1.262.657,3.555.657,3.555s-4.933-1-5.33-3.982,1.575-6.572,1.575-6.572l4.7-2.983a20.092,20.092,0,0,0-2.295-4.474c-1.147-1.377-5.048-8.146-1.721-6.424a24.184,24.184,0,0,1,6.31,5.392s3.475,3.715,6.114,6.01,6.6,11.759,6.6,11.759l18.372,21.7-4.6,9.976Z" transform="translate(-132.635 -112.214)"/><path class="s" d="M474.914,332.9c-8.168,10.927-28.621,14.236-28.621,14.236s.153,1.759.612,4.054-1.759,5.2-1.759,5.2l.765,2.142,3.748-.918c.994,3.059-5.2,4.283-5.2,4.283l-8.03-16.291,23.634-18.586,7.954-3.174s7.84,1.147,7.84,1.491-.939,7.563-.939,7.563" transform="translate(-198.89 -162.778)"/><path class="s" d="M398.786,441.314c-.07,2.775,21.944,111.493,21.944,111.493l-10.861-5.66c-11.779-2.294-9.178,3.671-8.872,5.507s6.884,6.883,7.8,7.648,14.533,9.484,17.745,10.861,7.5.765,8.566-1.377-2.295-14-6.2-37.63-4.13-90.842-4.13-90.842Z" transform="translate(-185.652 -204.094)"/><path class="s" d="M349.331,435.146c-.612,60.729,12.338,119.947,12.338,119.947l-10.861-5.66c-11.779-2.294-9.178,3.671-8.872,5.507s6.884,6.884,7.8,7.648,14.532,9.484,17.745,10.861,7.5.765,8.566-1.377-3.1-18.223-4.885-42.109a423.05,423.05,0,0,1,3.255-91.8Z" transform="translate(-165.497 -201.925)"/><path class="e" d="M410.6,253.251s18.627,19.176,18.474,35.391c0,7.189-2.565,11.265-2.565,11.265s-4.9-8.107-15.909-5.66c0,0-5.048-1.224-14.38-14.38l-2.194,14.371L335.9,293.53V259.153a37.244,37.244,0,0,1-30.077,4.417c-9.473-2.632-9.789-16.851-1.419-22.009q.459-.283.953-.548a113.091,113.091,0,0,1,46.962-12.085s-3.977,9.331,26.311,11.167c13.767-.306,18.356-1.377,18.356-1.377Z" transform="translate(-150.346 -129.395)"/><path class="s" d="M406.829,329.2l.88,6.214-39.122-.669.612-6Z" transform="translate(-175.03 -164.5)"/><path class="t" d="M396.879,338.671s13.882,17.8,19.389,51.3c2.065,13.537,1.376,14.914,1.376,14.914s-11.931,5.278-33.041,1.147c0,0-9.408,3.671-46.809-2.065,0,0,7.572-47.956,19.963-65.968Z" transform="translate(-164.2 -167.758)"/><path class="s" d="M392.526,211.927s10.806-1.409,10.806-2.021,1.988-41.914,1.224-43.138-6.627-11.932-6.627-11.932l-5.7,6.507s-4.293,4.462-4.063,6.756,1.377,3.327,1.033,5.048-3.671,5.622-3.671,5.622l1.95,1.721a9.045,9.045,0,0,0-.918,6.08c.8,3.1,1.549,3.27,1.205,4.933s6.619,1.1,6.619,1.1l-2.489,9.57-13.246,1.171s1.563,8.581,13.877,8.581" transform="translate(-178.569 -103.336)"/><path class="d" d="M435.281,619.381s-5.735-.229-6.653,2.983-11.358-3.1-14.914-5.507-4.286-8.749,4.11-8.963l-7.179-3.741s-4.627-1.835-7.968.2-1.1,6.052,1.406,8.287,19.358,13.433,19.358,13.433,4.934,3.4,7.79,2.832,4.457-.664,4.655-2.108A15.935,15.935,0,0,0,435.281,619.381Z" transform="translate(-186.427 -261.1)"/><path class="d" d="M375.535,626.9s-5.735-.23-6.653,2.983-11.359-3.1-14.915-5.507-4.285-8.749,4.11-8.963l-7.179-3.741s-4.626-1.835-7.968.2-1.1,6.052,1.406,8.287,19.357,13.433,19.357,13.433,4.934,3.4,7.79,2.832,4.457-.664,4.655-2.108A15.935,15.935,0,0,0,375.535,626.9Z" transform="translate(-165.413 -263.742)"/><path class="h" d="M391.622,157.483s4.589-11.932,22.333-10.4,25.393,17.744,24.016,27.229-12.391,32.124-3.824,40.231,14.073,8.26,14.073,8.26-3.365,4.589-14.379,0c0,0-2.906,8.26-13.92,8.719,0,0,3.059-4.13,1.682-7.342,0,0-1.988,6.73-11.014,6.577,0,0,3.059-7.189,1.071-9.637,0,0-5.66,6.731-13.462,6.272,0,0,7.19-5.813,6.884-9.025a13.49,13.49,0,0,1-16.215,4.283s7.5-2.447,7.342-6.883c0,0-6.577,5.507-16.062,1.071,0,0,13.92-4.436,15.756-14.532S397.282,164.214,391.622,157.483Z" transform="translate(-179.097 -100.561)"/><path class="u" d="M413.891,339.034" transform="translate(-190.964 -168.121)"/><g transform="translate(178.992 170.913)"><path class="v" d="M416.888,385.859,410,387.3v35.565" transform="translate(-368.587 -355.503)"/><path class="v" d="M364.586,339.034s-16.969,42.787-18.466,66.089" transform="translate(-346.12 -339.034)"/><path class="v" d="M376.937,339.034S362.143,384.37,360.362,406.4" transform="translate(-351.129 -339.034)"/><path class="v" d="M392.068,339.034s-10.619,47.709-11.919,68.321" transform="translate(-358.089 -339.034)"/><path class="v" d="M405.938,339.034s-8.209,47.25-7.431,68.321" transform="translate(-364.527 -339.034)"/><path class="v" d="M428.3,339.724s15.668,36.629,15.9,66.917" transform="translate(-375.025 -339.277)"/><path class="v" d="M421.268,339.034s12.514,41.611,11.438,68.943" transform="translate(-372.551 -339.034)"/><path class="v" d="M425.224,427.842s-1.356-21.541-3.192-32.326" transform="translate(-372.819 -358.9)"/></g><path class="w" d="M449.285,300.366s7.333-6.5,7.682-13.155" transform="translate(-203.413 -149.894)"/><line class="x" y1="14.257" transform="translate(185.552 123.059)"/><path class="y" d="M390.555,201.727s1.988.882,5.635-.458" transform="translate(-182.757 -119.667)"/><circle class="a" cx="147.148" cy="147.148" r="147.148"/></g><circle class="z" cx="147.148" cy="147.148" r="147.148"/></g></svg>