<svg xmlns="http://www.w3.org/2000/svg" xmlns:xlink="http://www.w3.org/1999/xlink" width="295.289" height="295.289" viewBox="0 0 295.289 295.289"><defs><style>.a,.l,.v{fill:none;}.b{clip-path:url(#a);}.c,.g,.m,.q,.s,.t{fill:#fff;}.d,.i,.p{fill:#e32c1b;}.e{fill:#c81528;}.f{opacity:0.58;}.g,.l,.o,.t{stroke:#c81528;}.g,.i,.j,.l,.m,.n,.o,.p,.r,.s,.t{stroke-linecap:round;stroke-linejoin:round;}.g,.i,.j,.l,.m,.n,.o,.p,.r{stroke-width:1.417px;}.h,.j{fill:#f7cbcb;}.h,.j,.m,.n,.p,.s,.v{stroke:#e32c1b;}.h,.k,.q,.v{stroke-miterlimit:10;}.h,.k,.q,.s,.t,.v{stroke-width:0.992px;}.i{stroke:#f7cbcb;}.k{fill:#544e50;}.k,.q,.r{stroke:#544e50;}.n,.o{fill:#ffdad5;}.r{fill:#ebebeb;}.u{opacity:0.4;}</style><clipPath id="a"><circle class="a" cx="147.148" cy="147.148" r="147.148"/></clipPath></defs><g transform="translate(0.496 0.496)"><g class="b"><path class="c" d="M147.148,0A147.148,147.148,0,1,1,0,147.148,147.148,147.148,0,0,1,147.148,0Z"/><path class="d" d="M901.664,918.06c5.189-2.539,10.757-5.147,16.488-4.424,4.956.624,9.339,3.735,12.473,7.623s5.183,8.522,7.068,13.144c-6.788-3.584-10.384-12.3-17.837-14.136-2.807-.695-5.755-.263-8.644-.2a33.957,33.957,0,0,1-9.782-1.168" transform="translate(-864.547 -710.079)"/><path class="e" d="M902.5,919.216a1.472,1.472,0,0,1,.333-.128l.98-.3c.858-.257,2.1-.613,3.654-.986a34.116,34.116,0,0,1,5.539-.876,18.473,18.473,0,0,1,6.829.742,20.275,20.275,0,0,1,6.07,3.233,37.267,37.267,0,0,1,4.185,3.741c1.115,1.168,1.973,2.108,2.563,2.773l.665.782a1.93,1.93,0,0,1,.222.286,1.338,1.338,0,0,1-.263-.245l-.712-.741c-.619-.642-1.5-1.582-2.633-2.7a39.139,39.139,0,0,0-4.2-3.671,20.469,20.469,0,0,0-5.988-3.163,18.544,18.544,0,0,0-6.724-.753,36.087,36.087,0,0,0-5.51.806c-1.553.344-2.8.671-3.666.893l-1,.245A1.324,1.324,0,0,1,902.5,919.216Z" transform="translate(-864.924 -711.258)"/><path class="e" d="M894.735,904.268a.541.541,0,0,1,0,.158,2.239,2.239,0,0,1-.035.449c-.035.42-.088,1-.152,1.751l-.583,6.362c-.484,5.375-1.086,12.84-1.588,21.012s-.788,15.671-.957,21.064c-.082,2.679-.146,4.856-.187,6.391,0,.735-.047,1.319-.059,1.751v.449a.5.5,0,0,1,0,.152.863.863,0,0,1,0-.152v-2.206c0-1.512.036-3.695.094-6.421.111-5.393.373-12.841.869-21.076s1.168-15.66,1.675-21.012c.268-2.684.5-4.856.683-6.356.088-.729.158-1.308.21-1.751a3.561,3.561,0,0,1,.058-.449A.6.6,0,0,1,894.735,904.268Z" transform="translate(-860.938 -706.827)"/><path class="d" d="M895.971,877.629c.093-11.731,3.981-38.878,8.271-49.8,5.072,19.88,2.4,41.335-8.959,58.413Z" transform="translate(-862.384 -679.943)"/><path class="e" d="M901.323,913.055a4.031,4.031,0,0,1-.351.811c-.274.584-.618,1.3-1.044,2.171-.87,1.839-2.031,4.4-3.158,7.278s-2.014,5.556-2.614,7.494c-.286.934-.526,1.7-.713,2.335a5,5,0,0,1-.286.834,4.415,4.415,0,0,1,.175-.869c.128-.584.338-1.348.613-2.335.554-1.961,1.406-4.669,2.539-7.547s2.335-5.446,3.251-7.261c.461-.9.852-1.634,1.132-2.13A5.344,5.344,0,0,1,901.323,913.055Z" transform="translate(-861.637 -709.918)"/><path class="d" d="M903.394,895.954c0-7.64,7.261-15.9,13.652-22.471s13.874-11.976,21.333-17.346l-12.432,15.2a111.919,111.919,0,0,1-7.85,8.936c-5.119,5.055-11.346,9.3-14.673,15.677" transform="translate(-865.237 -689.899)"/><path class="d" d="M891.48,960.413c1.8-12.449,8.562-23.043,18.63-30.63a31.973,31.973,0,0,1-6.17,14.767c-4.115,5.4-10.027,9.63-12.466,15.969" transform="translate(-861.045 -715.801)"/><path class="d" d="M865.913,931.515c-3.14-9.3-7-19.523-14.924-25.343a29.66,29.66,0,0,0-16.885-5.34,52.585,52.585,0,0,0-17.644,3.052c10.751-.829,22.337-1.319,31.115,5.323s14.545,16.605,18.2,26.989" transform="translate(-834.661 -705.615)"/><path class="e" d="M849.2,904.083a2.855,2.855,0,0,1,.473,0,13.176,13.176,0,0,1,1.337.152,21.485,21.485,0,0,1,4.786,1.272,26.786,26.786,0,0,1,6.421,3.584,30.586,30.586,0,0,1,6.327,6.4,44.521,44.521,0,0,1,4.506,7.786,68.278,68.278,0,0,1,2.679,6.841c.654,1.984,1.086,3.619,1.366,4.756.14.584.239,1.01.3,1.308a3.161,3.161,0,0,1,.082.467,2.6,2.6,0,0,1-.14-.449c-.087-.327-.2-.758-.356-1.3-.309-1.126-.777-2.749-1.453-4.721a72.38,72.38,0,0,0-2.731-6.788,44.944,44.944,0,0,0-4.495-7.722,30.923,30.923,0,0,0-6.239-6.356,27.417,27.417,0,0,0-6.356-3.584,22.868,22.868,0,0,0-4.721-1.354c-.584-.123-1.028-.158-1.331-.21A2.347,2.347,0,0,1,849.2,904.083Z" transform="translate(-846.175 -706.759)"/><path class="e" d="M890.834,964.3a1.184,1.184,0,0,1,.093-.263c.087-.2.193-.432.316-.724.28-.625.706-1.523,1.249-2.621,1.092-2.195,2.7-5.183,4.67-8.369s3.922-5.959,5.393-7.921c.741-.974,1.354-1.751,1.786-2.288l.508-.583a.14.14,0,1,1,.047.041c-.122.175-.274.385-.461.636-.426.584-1,1.389-1.7,2.335-1.43,1.99-3.345,4.774-5.311,7.955s-3.6,6.14-4.734,8.305l-1.33,2.563-.362.7C890.9,964.225,890.846,964.307,890.834,964.3Z" transform="translate(-860.82 -719.864)"/><path class="e" d="M927.6,871a2.236,2.236,0,0,1-.21.327c-.146.21-.367.514-.66.9-.583.77-1.435,1.879-2.55,3.2a88.253,88.253,0,0,1-9.467,9.613c-1.967,1.751-3.84,3.42-5.381,5.089a25.53,25.53,0,0,0-3.607,4.815,17.767,17.767,0,0,0-1.605,3.73c-.263.928-.35,1.453-.379,1.448a2.737,2.737,0,0,1,.041-.385c.035-.251.111-.619.228-1.092a16.466,16.466,0,0,1,1.529-3.8,24.805,24.805,0,0,1,3.584-4.909,72.156,72.156,0,0,1,5.393-5.124,98.2,98.2,0,0,0,9.5-9.526c1.133-1.3,2.014-2.381,2.62-3.128l.7-.864A1.648,1.648,0,0,1,927.6,871Z" transform="translate(-865.358 -695.127)"/><path class="d" d="M885.549,882.565c4.775-15.245,2.334-32.218-4.792-46.506-3.064-6.129-7.2-12.047-13.232-15.287l7.167,17a160.6,160.6,0,0,1,6.788,18.093c2.4,8.458,3.385,17.248,4.086,26.009" transform="translate(-852.622 -677.461)"/><path class="e" d="M881.327,842.344a3.9,3.9,0,0,1,.268.42c.181.3.426.712.73,1.232l.519.893c.181.333.367.7.583,1.092.4.788.893,1.669,1.343,2.69l.729,1.588c.251.549.473,1.168.73,1.751.514,1.2.969,2.528,1.465,3.91a71.1,71.1,0,0,1,3.683,18.748c.064,1.47.146,2.871.123,4.179v1.891c0,.607-.053,1.167-.076,1.751-.029,1.114-.152,2.119-.222,3-.047.438-.076.847-.123,1.226s-.1.712-.14,1.022c-.087.583-.158,1.068-.2,1.418a4.491,4.491,0,0,1-.093.491,2.908,2.908,0,0,1,0-.5c.041-.356.088-.829.152-1.424.035-.31.076-.654.117-1.028s.058-.788.093-1.226c.052-.881.158-1.879.175-2.988,0-.555.035-1.138.058-1.751s0-1.238,0-1.891c0-1.3-.076-2.7-.152-4.161A73.462,73.462,0,0,0,887.42,856c-.49-1.383-.933-2.708-1.435-3.91-.252-.584-.467-1.2-.712-1.751s-.484-1.085-.712-1.593c-.432-1.022-.911-1.909-1.3-2.7-.193-.4-.379-.764-.548-1.1l-.5-.9c-.281-.531-.508-.952-.677-1.261A2.658,2.658,0,0,1,881.327,842.344Z" transform="translate(-857.476 -685.048)"/><path class="e" d="M895.705,888.078a2.53,2.53,0,0,1,.28-.438c.187-.286.514-.671.835-1.231a26.109,26.109,0,0,0,2.422-4.88,41.745,41.745,0,0,0,2.089-7.792,83.932,83.932,0,0,0,1.068-9.864c.2-3.5.239-6.881.338-9.922s.251-5.837.508-8.113a50.283,50.283,0,0,1,.847-5.416c.128-.637.268-1.121.35-1.453a3.132,3.132,0,0,1,.146-.5,2.814,2.814,0,0,1-.088.513c-.058.333-.187.817-.292,1.459-.245,1.266-.526,3.116-.753,5.41s-.356,5.048-.438,8.1-.117,6.421-.315,9.922a79.252,79.252,0,0,1-1.1,9.923,40.862,40.862,0,0,1-2.159,7.844,24.726,24.726,0,0,1-2.527,4.868,14.28,14.28,0,0,1-.882,1.167A3.98,3.98,0,0,1,895.705,888.078Z" transform="translate(-862.533 -683.686)"/><g class="f" transform="translate(-15.72 0.347)"><path class="g" d="M820.306,887.252l-.019-.171,0,.162Z" transform="translate(-820.287 -701.129)"/><g transform="translate(212.395 67.047)"><rect class="h" width="52.798" height="43.66" transform="translate(3.112 6.479)"/><rect class="h" width="59.023" height="6.479"/></g><g transform="translate(174.907 213.439)"><rect class="h" width="80.176" height="53.004" transform="translate(4.726 9.838)"/><rect class="h" width="89.629" height="9.838"/></g><g transform="translate(169.264 149.66)"><rect class="i" width="52.798" height="43.66" transform="translate(3.112 6.479)"/><rect class="i" width="59.023" height="6.479"/></g><g transform="translate(170.325 0)"><rect class="i" width="35.472" height="29.333" transform="translate(2.091 4.353)"/><rect class="i" width="39.655" height="4.353"/></g><g transform="translate(212.395 0)"><rect class="j" width="49.238" height="29.333" transform="translate(2.903 4.353)"/><rect class="j" width="55.043" height="4.353"/></g><g transform="translate(225.961 138.795)"><rect class="j" width="39.471" height="59.876" transform="translate(2.327 1.128)"/><rect class="j" width="44.125" height="4.844"/></g><path class="k" d="M1176.993,600.245v33.686h-98.946V600.245h-9.162V879.1h9.162V808.13h98.946V879.1h9.162V600.245Zm-15.05,35.855a1.874,1.874,0,1,1-1.891,1.857A1.874,1.874,0,0,1,1161.943,636.1Zm-58.493-.208h48.639a2.082,2.082,0,1,1,0,4.165h-48.639a2.082,2.082,0,1,1,0-4.165Zm-9.82.208a1.874,1.874,0,1,1-1.891,1.857A1.874,1.874,0,0,1,1093.631,636.1Zm83.362,5.918v75.7h-98.946v-75.7ZM1163.8,721.782a1.874,1.874,0,1,1-1.857-1.89A1.874,1.874,0,0,1,1163.8,721.782Zm-9.627-.017a2.082,2.082,0,0,1-2.083,2.082h-48.639a2.082,2.082,0,1,1,0-4.165h48.639A2.082,2.082,0,0,1,1154.172,721.765Zm-58.685.017a1.874,1.874,0,1,1-1.857-1.89A1.874,1.874,0,0,1,1095.488,721.782Zm-1.891,84.179a1.874,1.874,0,1,1,1.891-1.857A1.874,1.874,0,0,1,1093.6,805.961Zm58.493.209h-48.639a2.082,2.082,0,1,1,0-4.165h48.639a2.082,2.082,0,1,1,0,4.165Zm9.82-.209a1.874,1.874,0,1,1,1.89-1.857A1.874,1.874,0,0,1,1161.91,805.961Zm-83.862-5.917V725.809h98.946v74.235Z" transform="translate(-907.723 -600.245)"/><path class="d" d="M1207.822,634.17a2.138,2.138,0,0,0-.357-1.452c-.484-.687-1.858,0-1.858,0a23.294,23.294,0,0,0-4.939-.891,28.6,28.6,0,0,0-4.583.178c-.28,0-.229-.255-.229-.56,0-.178,2.087-.56,3.462-1.273a4.705,4.705,0,0,0,2.012-1.732c-.2-.28-2.419.128-2.979.23-.637.1-1.706.407-1.706.407s2.139-1.018,1.706-1.2a3.979,3.979,0,0,0-2.5.56,17.426,17.426,0,0,0-2.062,1.426c-.637.432-1.375.56-1.91.917a4.809,4.809,0,0,0-1.909,2.139c0,1.527,2.342,1.247,2.342,1.247s1.12-.28-.866,1.2-3,3.921-2.546,4.176c.28.152,2.546-1.6,6.059-2.827,1.4-.484,3.208.051,5.372,0,1.095-.025,2.7-.585,3.234-.585a7.982,7.982,0,0,0,1.477,1.07c1.044.509,2.749.127,3.946.636a9.812,9.812,0,0,1,2.266,1.706c.28,0,.611-.382.382-1.146s-.637-1.019-1.375-1.935A23.81,23.81,0,0,0,1207.822,634.17Z" transform="translate(-949.897 -609.948)"/><path class="d" d="M1194.783,961.088a2.138,2.138,0,0,0-.357-1.452c-.484-.687-1.859,0-1.859,0a23.31,23.31,0,0,0-4.939-.891,28.685,28.685,0,0,0-4.583.178c-.28,0-.229-.255-.229-.56,0-.178,2.087-.56,3.462-1.273a4.714,4.714,0,0,0,2.012-1.732c-.2-.28-2.419.127-2.979.229-.637.1-1.706.408-1.706.408s2.139-1.018,1.706-1.2a3.975,3.975,0,0,0-2.5.56,17.443,17.443,0,0,0-2.062,1.426c-.637.433-1.375.56-1.91.917a4.811,4.811,0,0,0-1.909,2.139c0,1.528,2.342,1.248,2.342,1.248s1.12-.281-.865,1.2-3,3.922-2.546,4.176c.28.153,2.546-1.6,6.06-2.826,1.4-.484,3.208.051,5.372,0,1.095-.025,2.7-.585,3.234-.585a7.989,7.989,0,0,0,1.477,1.069c1.044.51,2.749.127,3.946.637a9.818,9.818,0,0,1,2.266,1.706c.28,0,.611-.382.382-1.146s-.636-1.018-1.375-1.935A23.777,23.777,0,0,0,1194.783,961.088Z" transform="translate(-945.311 -724.93)"/><path class="c" d="M1127.83,854.759a1.158,1.158,0,0,0-.193-.786c-.262-.372-1.005,0-1.005,0a12.634,12.634,0,0,0-2.674-.482,15.509,15.509,0,0,0-2.48.1c-.152,0-.125-.137-.125-.3,0-.1,1.13-.3,1.874-.689a2.548,2.548,0,0,0,1.089-.937c-.11-.151-1.309.069-1.612.125-.345.055-.924.22-.924.22s1.158-.552.924-.648a2.148,2.148,0,0,0-1.351.3,9.413,9.413,0,0,0-1.116.772c-.345.234-.744.3-1.034.5a2.608,2.608,0,0,0-1.033,1.157c0,.827,1.268.675,1.268.675s.606-.152-.469.648-1.626,2.122-1.378,2.26c.152.083,1.378-.868,3.28-1.529a11.919,11.919,0,0,1,2.908,0c.593-.014,1.461-.317,1.75-.317a4.329,4.329,0,0,0,.8.579c.565.275,1.489.069,2.136.344a5.3,5.3,0,0,1,1.226.923c.151,0,.331-.207.206-.62s-.344-.552-.744-1.048A12.916,12.916,0,0,0,1127.83,854.759Z" transform="translate(-924.833 -688.555)"/><ellipse class="d" cx="6.449" cy="6.449" rx="6.449" ry="6.449" transform="translate(235.126 78.885)"/><ellipse class="d" cx="6.449" cy="6.449" rx="6.449" ry="6.449" transform="translate(251.173 183.861)"/><ellipse class="c" cx="6.449" cy="6.449" rx="6.449" ry="6.449" transform="translate(183.703 13.202)"/></g><path class="l" d="M982.068,800.3s-4.465,1.507-6.628,4.72" transform="translate(-890.577 -670.26)"/><path class="m" d="M959.891,697.04l-24.628,16.3-3.048,44.148,31.759-7.079-.918-11.7,30.718-1.344,20.329-2.948L999.468,704.3l-16.912-5.408Z" transform="translate(-875.374 -633.942)"/><g transform="translate(71.097 14.477)"><path class="n" d="M999.264,659.548c-.852-4.786-4-11.6-4-11.6l-7.21-4.261s-8.845-.917-9.568-.917-12.326,1.376-12.85,1.966-2.294,2.294-2.032,4.1,4.224,8.751,4.224,8.751l.473.838-2.6.707s-3.8-1.546-4.654,2.649,7.538,7.145,7.538,7.145l1.9-.459L969.9,680.2s5.834,10.75,14.289,11.078,9.112-9.833,9.112-9.833l.262-8.522c5.048-1.048,5.376-3.932,5.376-3.932A25.323,25.323,0,0,0,999.264,659.548Z" transform="translate(-956.591 -629.331)"/><path class="m" d="M988.563,628.333s-6.171-5.179-10.76-6.1-17.7.918-23.6,16.125c0,5.375,4.458,16.125,4.458,16.125a36.855,36.855,0,0,1,15.994-16.223c14.954-7.853,15.863-2.131,15.863-2.131s10.488-5.768,11.274-7.473-3.671-7.341-31.332,8.391" transform="translate(-954.206 -622.041)"/><path class="d" d="M998.814,642.663l7.735,1.376-4.08.541,6.244,3.49-22.377-1.278,6.35,1.278h-14.9S994.914,635.879,998.814,642.663Z" transform="translate(-962.5 -628.572)"/><path class="d" d="M969.6,656.128l4.382,15.395-3.212-5.047v2.884l-4.261-5.534h-3.219S967.056,657.71,969.6,656.128Z" transform="translate(-957.403 -634.03)"/></g><path class="o" d="M1004.107,688.069s-7.89,1.049-13.134-2.228" transform="translate(-896.04 -630.004)"/><path class="p" d="M1002.29,773.693l0-.191c-.023-1.9-.063-3.31-.124-4.125-.576-7.682-2.417-21.261-3.361-27.983.8-15.019-4.4-35.641-4.4-35.641l-4.938-1.579c4.061,3.824,5.229,33.016,5.229,33.016l-29.555,1.7c-2.528-17.928-13.715-34.1-13.715-34.1l-4.1,2.714s12.268,21.045,16.28,43.954l-19.646,5.456-1.611.877s1.611,57.465-4.157,86.044-8.653,46.147-8.653,46.147h18.878L965.194,834.4h12.061l2.884,54.538,20.19-.787S1002.546,796.563,1002.29,773.693Z" transform="translate(-874.431 -636.451)"/><path class="m" d="M947.091,827.247h0a237.4,237.4,0,0,0,62.093-.585l.459-.065v9.434l-.73.1a237.392,237.392,0,0,1-61.482,0l-.73-.1Z" transform="translate(-880.469 -679.509)"/><rect class="q" width="71.58" height="59.191" transform="translate(122.619 95.823)"/><rect class="q" width="80.019" height="8.784" transform="translate(118.4 87.039)"/><path class="n" d="M1027.842,780.315s8.562-1.115,8.89-3.409c.249-1.742-3.745-2.556-6.348-2.556-1.807,0-7.2.207-7.2.207s1.541-1.823,6.231-2.741c1.344-.263,7.44-3.048.579-2.35-1.619.165-1.734.182-3.556.491-3.474.59-11.405,4.392-11.405,4.392l1.573-2.426c2.769-3.835,1.164-3.785.9-3.589s-9.357,4.966-9.357,4.966l-3.278,6.161-32.2,7.472-5.936-11.641-14.961,4.17,12.1,21.139A5.951,5.951,0,0,0,971,803.264l36.232-12.658,7.3-1.664c3.143-.716,8.211-2.158,11.259-3.209,3.207-1.105,6.752-2.461,6.242-3.189-.489-.7-4.711,0-6.432,0-2.144,0-1.838-.482-1.776-.88C1023.932,780.993,1027.842,780.315,1027.842,780.315Z" transform="translate(-882.255 -658.993)"/><path class="r" d="M918.419,988.065h28.121l-6.686,39.329s7.079,6.687,8.849,10.029-1.18,10.03-10.029,7.08-23.6-12-23.6-12Z" transform="translate(-869.346 -736.3)"/><path class="r" d="M998.8,987.851l31.155-.394-1.068,36.578s21.917-.169,22.025,3.54c.2,6.883-10.816,8.849-27.728,7.473s-12.979-.983-12.979-.983Z" transform="translate(-898.792 -736.086)"/><path class="n" d="M993.16,655.958s-4.523-1.517-6.194,2.121" transform="translate(-894.631 -619.383)"/><path class="n" d="M994.449,671.533s3.8,2.294,9.5.36" transform="translate(-897.263 -624.971)"/><path class="n" d="M1007.67,659.046l1.376-2.065-4.031-2.435s1.868-3.141,4.621-1.6" transform="translate(-900.979 -618.285)"/><path class="n" d="M1075.472,781.53s-7.515-.62-13.546,1" transform="translate(-920.995 -663.618)"/><path class="d" d="M1114.95,813.38a2.138,2.138,0,0,0-.356-1.451c-.484-.687-1.859,0-1.859,0a23.284,23.284,0,0,0-4.939-.891,28.585,28.585,0,0,0-4.583.178c-.28,0-.229-.255-.229-.56,0-.178,2.087-.56,3.463-1.273a4.7,4.7,0,0,0,2.011-1.732c-.2-.28-2.419.128-2.979.229-.636.1-1.706.407-1.706.407s2.139-1.018,1.706-1.2a3.979,3.979,0,0,0-2.5.56,17.45,17.45,0,0,0-2.062,1.426c-.637.432-1.375.56-1.91.916a4.812,4.812,0,0,0-1.909,2.139c0,1.528,2.342,1.248,2.342,1.248s1.12-.28-.865,1.2-3,3.921-2.547,4.176c.28.152,2.547-1.6,6.06-2.826,1.4-.484,3.208.051,5.372,0,1.095-.025,2.7-.585,3.234-.585a8.02,8.02,0,0,0,1.477,1.069c1.044.51,2.749.128,3.946.637a9.815,9.815,0,0,1,2.266,1.706c.28,0,.611-.382.382-1.146s-.636-1.018-1.375-1.934A23.8,23.8,0,0,0,1114.95,813.38Z" transform="translate(-932.953 -672.632)"/><path class="d" d="M990.2,628.047a1.023,1.023,0,0,0-.445-.563c-.349-.2-.812.372-.812.372a11.2,11.2,0,0,0-2.336.6,13.846,13.846,0,0,0-1.966.994c-.122.056-.15-.065-.212-.2-.036-.078.8-.663,1.258-1.249a2.259,2.259,0,0,0,.532-1.158c-.145-.082-1.031.539-1.256.7-.257.172-.663.519-.663.519s.731-.873.506-.864a1.913,1.913,0,0,0-.978.744,8.389,8.389,0,0,0-.616,1.035c-.191.316-.489.52-.651.782a2.316,2.316,0,0,0-.406,1.316c.305.667,1.273.076,1.273.076s.434-.346-.139.7-.528,2.314-.277,2.333c.153.01.792-1.21,2.082-2.446a10.588,10.588,0,0,1,2.346-1.075c.473-.23,1.062-.8,1.3-.9a3.925,3.925,0,0,0,.859.172c.558.014,1.227-.495,1.851-.511a4.68,4.68,0,0,1,1.331.292c.123-.056.191-.289-.062-.577s-.482-.318-.987-.57A11.428,11.428,0,0,0,990.2,628.047Z" transform="translate(-892.934 -609.25)"/><g transform="translate(263.398 141.248)"><path class="e" d="M1342.384,852.362a.374.374,0,0,0-.059-.137c-.058-.1-.13-.228-.208-.384-.189-.333-.489-.821-.906-1.414a15.319,15.319,0,0,0-4.483-4.235,11.083,11.083,0,0,0-4.013-1.472,9.876,9.876,0,0,0-4.88.515,7.868,7.868,0,0,0-4.176,3.414,23.943,23.943,0,0,0-1.831,5.525,10.075,10.075,0,0,1-1.166,2.606,7.929,7.929,0,0,1-1.955,1.955c-.749.548-1.531,1.049-2.235,1.623a9.564,9.564,0,0,0-1.818,1.955,12.1,12.1,0,0,0-1.864,4.561,16.207,16.207,0,0,0-.247,4.274,32.2,32.2,0,0,0,1.094,6.073c.182.7.339,1.251.449,1.616a2.96,2.96,0,0,0,.183.554,2.184,2.184,0,0,0-.117-.573c-.117-.378-.228-.945-.391-1.629a35.564,35.564,0,0,1-.978-6.06,16.229,16.229,0,0,1,.281-4.2,12.018,12.018,0,0,1,1.844-4.424,9.308,9.308,0,0,1,1.766-1.9c.691-.561,1.466-1.049,2.228-1.61a8.382,8.382,0,0,0,2.065-2.032,10.424,10.424,0,0,0,1.212-2.724,25.55,25.55,0,0,1,1.792-5.453,7.649,7.649,0,0,1,4-3.3,9.729,9.729,0,0,1,4.73-.521,10.764,10.764,0,0,1,3.909,1.4,15.568,15.568,0,0,1,4.489,4.1c.436.58.75,1.049.958,1.369A3.274,3.274,0,0,0,1342.384,852.362Z" transform="translate(-1272.523 -827.094)"/><path class="s" d="M1298.122,912.238l-4.079-25.632,31.288.385-3.082,24.916" transform="translate(-1266.033 -841.863)"/><path class="t" d="M1349.094,881.775a3.6,3.6,0,0,0-1.238-.788,5.408,5.408,0,0,0-1.694-.3,20.724,20.724,0,0,0-2.313.137,6.678,6.678,0,0,1-2.841-.248,4.332,4.332,0,0,1-2.346-2.267,12.729,12.729,0,0,1-1.01-3.46,10.107,10.107,0,0,0-1.206-3.551,12.659,12.659,0,0,0-2.651-2.69,12.884,12.884,0,0,1-2.528-2.567,8.506,8.506,0,0,1-1.264-5.864,8.236,8.236,0,0,1,1.538-3.785,6.138,6.138,0,0,1,.75-.827,1.825,1.825,0,0,1,.3-.254,1.644,1.644,0,0,1-.248.3,7.913,7.913,0,0,0-.69.86,8.582,8.582,0,0,0-.13,9.421,12.9,12.9,0,0,0,2.489,2.489,12.563,12.563,0,0,1,2.717,2.762,10.1,10.1,0,0,1,1.251,3.669,12.647,12.647,0,0,0,.971,3.388,4.086,4.086,0,0,0,2.163,2.144,6.646,6.646,0,0,0,2.731.267,19.717,19.717,0,0,1,2.333-.085,5.209,5.209,0,0,1,1.739.365,2.846,2.846,0,0,1,.938.606,1.536,1.536,0,0,1,.2.221C1349.082,881.742,1349.1,881.769,1349.094,881.775Z" transform="translate(-1278.648 -830.856)"/><path class="e" d="M1349.094,881.775a3.6,3.6,0,0,0-1.238-.788,5.408,5.408,0,0,0-1.694-.3,20.724,20.724,0,0,0-2.313.137,6.678,6.678,0,0,1-2.841-.248,4.332,4.332,0,0,1-2.346-2.267,12.729,12.729,0,0,1-1.01-3.46,10.107,10.107,0,0,0-1.206-3.551,12.659,12.659,0,0,0-2.651-2.69,12.884,12.884,0,0,1-2.528-2.567,8.506,8.506,0,0,1-1.264-5.864,8.236,8.236,0,0,1,1.538-3.785,6.138,6.138,0,0,1,.75-.827,1.825,1.825,0,0,1,.3-.254,1.644,1.644,0,0,1-.248.3,7.913,7.913,0,0,0-.69.86,8.582,8.582,0,0,0-.13,9.421,12.9,12.9,0,0,0,2.489,2.489,12.563,12.563,0,0,1,2.717,2.762,10.1,10.1,0,0,1,1.251,3.669,12.647,12.647,0,0,0,.971,3.388,4.086,4.086,0,0,0,2.163,2.144,6.646,6.646,0,0,0,2.731.267,19.717,19.717,0,0,1,2.333-.085,5.209,5.209,0,0,1,1.739.365,2.846,2.846,0,0,1,.938.606,1.536,1.536,0,0,1,.2.221C1349.082,881.742,1349.1,881.769,1349.094,881.775Z" transform="translate(-1278.648 -830.856)"/><g class="u" transform="translate(3.89 29.534)"><path class="e" d="M1284.788,879.182a.624.624,0,0,1,0-.176,3.138,3.138,0,0,1,.033-.515c0-.456.072-1.121.085-1.955a17.731,17.731,0,0,0-1.16-7.108,10.863,10.863,0,0,0-2.86-4.027,7.649,7.649,0,0,0-5.212-1.915,6.508,6.508,0,0,0-2.932.736,5.782,5.782,0,0,0-2.268,2.163,11.488,11.488,0,0,0-1.3,6.516,42.729,42.729,0,0,1,.156,6.88,10.73,10.73,0,0,1-.86,3.186,6.669,6.669,0,0,1-1.954,2.521,9.8,9.8,0,0,1-2.685,1.375,13.782,13.782,0,0,0-2.528,1.147,9.122,9.122,0,0,0-3.317,3.616,8.765,8.765,0,0,0-.957,3.955,9.344,9.344,0,0,0,.5,3.056,11.056,11.056,0,0,0,1.186,2.378,1,1,0,0,1-.117-.13,4.5,4.5,0,0,1-.3-.423,8.045,8.045,0,0,1-.893-1.779,9.113,9.113,0,0,1-.567-3.1,8.868,8.868,0,0,1,.932-4.065,9.4,9.4,0,0,1,3.381-3.746c1.551-1.03,3.59-1.3,5.167-2.522a8.032,8.032,0,0,0,2.646-5.505,48.593,48.593,0,0,0-.163-6.828,12.034,12.034,0,0,1,1.369-6.724,6.115,6.115,0,0,1,2.4-2.281,6.82,6.82,0,0,1,3.075-.762,7.909,7.909,0,0,1,5.4,2.014,11.076,11.076,0,0,1,2.9,4.144,14.938,14.938,0,0,1,.984,4.059,22.363,22.363,0,0,1,.085,3.147,15.658,15.658,0,0,1-.15,1.988,2.954,2.954,0,0,1-.066.508A.535.535,0,0,1,1284.788,879.182Z" transform="translate(-1256.836 -863.147)"/></g><path class="e" d="M1352.327,870.774a6.7,6.7,0,0,0,.469-2.294,5.7,5.7,0,0,0-.613-2.651,5.531,5.531,0,0,0-2.548-2.463,5.662,5.662,0,0,0-2.013-.541,6.585,6.585,0,0,0-2.248.261c-1.531.4-3.049,1.3-4.867,1.636a5.74,5.74,0,0,1-2.815-.065,4.272,4.272,0,0,1-2.3-1.838c-1.094-1.694-1.4-3.824-2.723-5.381a5.3,5.3,0,0,0-2.469-1.616,6.926,6.926,0,0,0-2.887-.293,7.37,7.37,0,0,0-4.8,2.5,11.193,11.193,0,0,0-2.384,4.411,13.27,13.27,0,0,0-.534,4.372,47.022,47.022,0,0,0,.814,6.392l.293,1.733a2.323,2.323,0,0,0,.072.45c0,.052,0,.1,0,.156a.434.434,0,0,0-.046-.15l-.1-.443c-.085-.423-.209-1-.359-1.72a43,43,0,0,1-.925-6.411,13.389,13.389,0,0,1,.5-4.456,11.486,11.486,0,0,1,2.424-4.561,8.7,8.7,0,0,1,2.2-1.759,7.588,7.588,0,0,1,5.831-.561,5.683,5.683,0,0,1,2.607,1.721c1.394,1.674,1.694,3.811,2.743,5.421a3.91,3.91,0,0,0,2.117,1.707,5.413,5.413,0,0,0,2.659.071c1.746-.332,3.258-1.192,4.854-1.6a6.723,6.723,0,0,1,2.339-.254,5.782,5.782,0,0,1,2.1.587,5.643,5.643,0,0,1,3.186,5.329,5.355,5.355,0,0,1-.339,1.733A2.744,2.744,0,0,1,1352.327,870.774Z" transform="translate(-1274.922 -830.795)"/><path class="e" d="M1266.7,840.673a.385.385,0,0,1,.059-.137l.208-.384c.189-.332.482-.814.906-1.414a15.191,15.191,0,0,1,4.476-4.235,11.133,11.133,0,0,1,4.02-1.472,9.891,9.891,0,0,1,4.88.515,7.95,7.95,0,0,1,4.176,3.414,25.542,25.542,0,0,1,1.824,5.525,10.088,10.088,0,0,0,1.166,2.606,7.977,7.977,0,0,0,1.988,1.955c.743.547,1.525,1.049,2.235,1.622a9.783,9.783,0,0,1,1.818,1.955,12.134,12.134,0,0,1,1.857,4.561,15.934,15.934,0,0,1,.247,4.274,32.3,32.3,0,0,1-1.088,6.072c-.189.7-.346,1.251-.449,1.616a3.736,3.736,0,0,1-.183.554,3.244,3.244,0,0,1,.117-.574c.091-.4.222-.945.384-1.629a35.349,35.349,0,0,0,.984-6.06,15.962,15.962,0,0,0-.287-4.2,11.8,11.8,0,0,0-1.844-4.424,9.306,9.306,0,0,0-1.759-1.9c-.691-.56-1.473-1.049-2.229-1.609a8.4,8.4,0,0,1-2.072-2.033,10.209,10.209,0,0,1-1.205-2.723,25.514,25.514,0,0,0-1.8-5.453,7.637,7.637,0,0,0-3.994-3.3,9.777,9.777,0,0,0-4.731-.521,10.684,10.684,0,0,0-3.909,1.4,15.637,15.637,0,0,0-4.5,4.1c-.436.58-.743,1.049-.951,1.374A5.7,5.7,0,0,1,1266.7,840.673Z" transform="translate(-1256.414 -822.983)"/><path class="d" d="M1320.348,867.062c.521-.482.769-.15,1.466,0a4.258,4.258,0,0,1,1.876.939,7.909,7.909,0,0,1,2.561,8.288,6.183,6.183,0,0,1-5.675-9.278" transform="translate(-1275.071 -834.901)"/><path class="d" d="M1353.019,851.385c.261-.652.652-.462,1.3-.652a4.275,4.275,0,0,1,2.1.039,7.9,7.9,0,0,1,5.865,6.392,6.177,6.177,0,0,1-9.122-5.936" transform="translate(-1286.775 -829.207)"/><path class="d" d="M1313.2,886.075a7.167,7.167,0,0,1,11.213.547,8.823,8.823,0,0,1-5.818,2.294,9.006,9.006,0,0,1-5.864-2.366" transform="translate(-1272.604 -840.817)"/><path class="d" d="M1312.111,867.554a7.225,7.225,0,0,1-7.3-8.62,6.515,6.515,0,0,1,7.538,8.548" transform="translate(-1269.773 -832.076)"/><path class="d" d="M1321.927,850.484a7.225,7.225,0,0,1-9.773-5.707,6.515,6.515,0,0,1,9.949,5.558" transform="translate(-1272.402 -826.807)"/><path class="d" d="M1331,848.054a7.22,7.22,0,0,1,9.774,5.708,6.515,6.515,0,0,1-9.949-5.564" transform="translate(-1278.971 -828.129)"/><path class="d" d="M1333.046,839.435a7.219,7.219,0,0,1-3.844-10.62,6.515,6.515,0,0,1,4.092,10.64" transform="translate(-1278.022 -821.537)"/><path class="d" d="M1347.759,841a7.227,7.227,0,0,1,5.9-9.637,6.516,6.516,0,0,1-5.759,9.839" transform="translate(-1284.772 -822.435)"/><path class="d" d="M1320.841,876.814a5.323,5.323,0,0,0,5.212.436,5.623,5.623,0,0,0,2.841-4.49,6.387,6.387,0,0,0-5.212-.261,6.29,6.29,0,0,0-3.447,3.857" transform="translate(-1275.245 -836.749)"/><path class="d" d="M1342.9,885.326a5.323,5.323,0,0,0,5.212.437,5.612,5.612,0,0,0,2.841-4.489,6.37,6.37,0,0,0-5.212-.261,6.3,6.3,0,0,0-3.453,3.857" transform="translate(-1283.001 -839.743)"/><path class="d" d="M1330.714,867.728a5.338,5.338,0,0,0,4.092,3.225,5.638,5.638,0,0,0,4.848-2.189,6.016,6.016,0,0,0-9.187-1.747" transform="translate(-1278.843 -834.472)"/><path class="d" d="M1335.973,878.733a5.355,5.355,0,0,0-4.672,2.313,5.609,5.609,0,0,0-.1,5.31,6,6,0,0,0,5.525-7.538" transform="translate(-1278.883 -839.092)"/><path class="d" d="M1346.341,894.149a5.323,5.323,0,0,0,.124,5.212,5.6,5.6,0,0,0,4.769,2.339,6.357,6.357,0,0,0-.3-5.18,5.809,5.809,0,0,0-4.157-2.659" transform="translate(-1284.208 -844.415)"/><g class="u" transform="translate(0 45.212)"><path class="d" d="M1261.548,895.663a7.917,7.917,0,0,0-10.712-7.819,13.2,13.2,0,0,0,10.425,7.7" transform="translate(-1250.836 -887.33)"/></g><g class="u" transform="translate(7.49 54.021)"><path class="d" d="M1263.546,901.53c-1.531,1.681-1.433,4.385-.339,6.379a14.287,14.287,0,0,0,4.867,4.672,10.276,10.276,0,0,0-4.424-11.663" transform="translate(-1262.39 -900.918)"/></g><g class="u" transform="translate(15.944 46.623)"><path class="d" d="M1275.547,889.639a9.121,9.121,0,0,0,9.971,8.185q.194-.018.388-.047a12.433,12.433,0,0,0-3.479-6.607c-1.9-1.668-4.9-2.293-7-.886" transform="translate(-1275.43 -889.506)"/></g><g class="u" transform="translate(4.835 40.139)"><path class="d" d="M1269.455,883.613a5.388,5.388,0,0,0-4.854-4.079,9.311,9.311,0,0,0-6.307,2.124,8.21,8.21,0,0,0,11.188,1.107" transform="translate(-1258.294 -879.504)"/></g><g class="u" transform="translate(2.147 62.621)"><path class="d" d="M1256.354,914.856a7.323,7.323,0,0,0-1.792,7.779,12.972,12.972,0,0,0,5.33,6.385,16.977,16.977,0,0,0,1-8.275,8.683,8.683,0,0,0-4.71-6.561" transform="translate(-1254.149 -914.184)"/></g><g class="u" transform="translate(15.664 35.09)"><path class="d" d="M1275,874.592a6.6,6.6,0,0,1,10.425-.612,5.7,5.7,0,0,1-10.295.261" transform="translate(-1274.998 -871.716)"/></g><g class="u" transform="translate(7.35 24.659)"><path class="d" d="M1273.119,862.476a8.587,8.587,0,0,1-10.71-5.726,8.758,8.758,0,0,1-.237-.985,19.315,19.315,0,0,1,5.167.072,8.415,8.415,0,0,1,4.561,2.254,4.562,4.562,0,0,1,1.2,4.385" transform="translate(-1262.173 -855.626)"/></g><g class="u" transform="translate(20.688 19.006)"><path class="d" d="M1285.321,857.735a7.025,7.025,0,0,1-.046-10.829,14.74,14.74,0,0,1,3.069,6.548,5.5,5.5,0,0,1,0,2.7,2.489,2.489,0,0,1-1.89,1.772" transform="translate(-1282.748 -846.906)"/></g><path class="d" d="M1341.414,858.663a6.093,6.093,0,0,0,5.584.365,5.636,5.636,0,0,0,2.841-4.489,6.41,6.41,0,0,0-5.213-.267,6.318,6.318,0,0,0-3.446,3.857" transform="translate(-1282.611 -830.34)"/><path class="d" d="M1351.16,869.7a6.06,6.06,0,0,0,2.607,4.952,5.623,5.623,0,0,0,5.317.091,6.4,6.4,0,0,0-2.476-4.561,6.31,6.31,0,0,0-5.089-.932" transform="translate(-1286.121 -835.695)"/><path class="d" d="M1366.885,865.243a6.1,6.1,0,0,0,5.59-.234,5.624,5.624,0,0,0,2.346-4.763,6,6,0,0,0-8.2,4.489" transform="translate(-1291.558 -832.431)"/><path class="d" d="M1326.982,850.729a6.377,6.377,0,0,1-2.222-5.265,5.631,5.631,0,0,1,3.454-4.046,6.4,6.4,0,0,1,1.785,4.874,6.332,6.332,0,0,1-2.665,4.437" transform="translate(-1276.819 -825.97)"/><path class="d" d="M1301.282,855.374c-.515-.482-.769-.144-1.466,0a4.292,4.292,0,0,0-1.876.938,7.923,7.923,0,0,0-2.567,8.307,6.177,6.177,0,0,0,5.642-9.291" transform="translate(-1266.391 -830.791)"/><path class="d" d="M1266.785,840.161c-.26-.652-.651-.463-1.3-.652a4.314,4.314,0,0,0-2.1.039,7.923,7.923,0,0,0-5.864,6.391,6.183,6.183,0,0,0,9.057-5.916" transform="translate(-1253.187 -825.26)"/><path class="d" d="M1305.753,874.388a7.168,7.168,0,0,0-11.207.547,8.809,8.809,0,0,0,5.812,2.294,9.015,9.015,0,0,0,5.864-2.365" transform="translate(-1266.209 -836.708)"/><path class="d" d="M1308.341,855.4a7.221,7.221,0,0,0,7.3-8.62,6.516,6.516,0,0,0-7.539,8.549" transform="translate(-1270.844 -827.803)"/><path class="d" d="M1297.525,839.244a7.231,7.231,0,0,0,9.774-5.708,6.483,6.483,0,0,0-9.949,5.558" transform="translate(-1267.196 -822.844)"/><path class="d" d="M1288.42,836.83a7.232,7.232,0,0,0-9.774,5.708,6.515,6.515,0,0,0,9.982-5.545" transform="translate(-1260.617 -824.184)"/><path class="d" d="M1288.154,828.209a7.226,7.226,0,0,0,3.844-10.62,6.515,6.515,0,0,0-4.1,10.64" transform="translate(-1263.336 -817.589)"/><path class="d" d="M1273.6,829.316a7.224,7.224,0,0,0-5.864-9.636,6.483,6.483,0,0,0,5.753,9.838" transform="translate(-1256.449 -818.324)"/><path class="s" d="M1293.42,921.561l2.4,2.971h29.45l2.007-2.971Z" transform="translate(-1265.814 -854.158)"/><path class="s" d="M1327.1,921.429c0,.091-7.232.17-16.159.17s-16.165-.078-16.165-.17,7.239-.169,16.165-.169S1327.1,921.338,1327.1,921.429Z" transform="translate(-1266.291 -854.052)"/><path class="s" d="M1324.806,904.076a1.711,1.711,0,0,1-.182.241,6.631,6.631,0,0,1-.6.651,10.968,10.968,0,0,1-2.606,1.825,11.567,11.567,0,0,1-4.594,1.179,11.37,11.37,0,0,1-2.815-.235,16.775,16.775,0,0,1-2.867-.951c-1.9-.808-3.623-1.727-5.3-2.268a9.2,9.2,0,0,0-4.561-.436,5.866,5.866,0,0,0-2.808,1.3c-.56.488-.775.853-.808.834a1.424,1.424,0,0,1,.15-.267,4.445,4.445,0,0,1,.567-.652,5.824,5.824,0,0,1,2.847-1.44,9.176,9.176,0,0,1,4.73.378c1.72.528,3.46,1.446,5.336,2.248a16.748,16.748,0,0,0,2.808.939,11,11,0,0,0,2.73.247,11.6,11.6,0,0,0,4.5-1.081A13.963,13.963,0,0,0,1324.806,904.076Z" transform="translate(-1267.306 -847.879)"/><path class="s" d="M1324.895,900.636a1.124,1.124,0,0,1-.2.228,6.7,6.7,0,0,1-.651.586,12.246,12.246,0,0,1-2.723,1.694,12.752,12.752,0,0,1-4.626,1.1,12.32,12.32,0,0,1-2.821-.189,18.048,18.048,0,0,1-2.913-.821c-1.954-.7-3.727-1.518-5.434-1.994a10.833,10.833,0,0,0-4.62-.417,6.87,6.87,0,0,0-2.912,1.114c-.613.43-.88.756-.906.729s.052-.091.182-.241a4.731,4.731,0,0,1,.651-.593,6.607,6.607,0,0,1,2.952-1.245,10.681,10.681,0,0,1,4.744.352c1.739.469,3.538,1.3,5.46,1.955a18.979,18.979,0,0,0,2.86.815,12.536,12.536,0,0,0,2.75.208,12.893,12.893,0,0,0,4.561-1.016A15.629,15.629,0,0,0,1324.895,900.636Z" transform="translate(-1267.101 -846.739)"/></g><circle class="a" cx="147.148" cy="147.148" r="147.148"/><path class="o" d="M985.664,801.357" transform="translate(-894.173 -670.632)"/><circle class="a" cx="147.148" cy="147.148" r="147.148"/><circle class="a" cx="147.148" cy="147.148" r="147.148"/></g><circle class="v" cx="147.148" cy="147.148" r="147.148"/></g></svg>