<svg xmlns="http://www.w3.org/2000/svg" xmlns:xlink="http://www.w3.org/1999/xlink" width="295.289" height="295.289" viewBox="0 0 295.289 295.289"><defs><style>.a,.ab,.ad,.r,.z{fill:none;}.b{clip-path:url(#a);}.c,.q{fill:#fff;}.d{opacity:0.5;}.e,.f,.g,.h,.i,.j,.k,.p,.s{fill:#e32c1b;}.aa,.ab,.ad,.e,.o,.p,.q,.v,.z{stroke:#e32c1b;}.aa,.ab,.e,.f,.g,.h,.p,.q,.r,.s,.t,.v,.z{stroke-linecap:round;stroke-linejoin:round;}.f,.g,.h,.s{stroke:#ebebeb;}.g,.h,.j,.k{mix-blend-mode:multiply;isolation:isolate;}.h,.k{opacity:0.25;}.l{fill:#ff8d83;}.l,.r,.x,.y{stroke:#c81528;}.ad,.l,.o,.x,.y{stroke-miterlimit:10;}.aa,.ab,.ad,.l,.o,.q,.r,.x,.y{stroke-width:0.992px;}.aa,.m,.x{fill:#ebebeb;}.n{fill:#e0e0e0;}.o,.v,.w{fill:#f7cbcb;}.p,.s{stroke-width:1.417px;}.t{fill:#c81528;stroke:#f7cbcb;stroke-width:2.835px;}.u{fill:#544e50;}.ac,.y{fill:#ffdad5;}</style><clipPath id="a"><circle class="a" cx="147.148" cy="147.148" r="147.148"/></clipPath></defs><g transform="translate(0.496 0.496)"><g transform="translate(0 0)"><g class="b"><circle class="c" cx="147.148" cy="147.148" r="147.148"/><g class="d" transform="translate(-61.857 126.41)"><path class="e" d="M582.379,329.174s13.6,10.051,14.229,21.967c.931,1.568,1.8,3.178,2.6,4.815-1.523-5.481-3.125-13.792-1.633-21.139,0,0,8.7,15.145,4,26.375q1.023,2.49,1.885,5.042c.013-5.1.635-16.074,5.3-24.125,0,0,3.408,17.106-4.6,26.256q1.215,3.886,2.12,7.861c.483-2.458,3.5-16.35,11.35-24.574,0,0-.74,18.164-11.283,24.863.3,1.442.514,2.9.775,4.352l.374,2.2.245,2.213.108,1,.031.034c1.1-4.689,4.283-15.754,10.949-22.734,0,0-.716,17.585-10.782,24.531l.173,1.6c.08,1.481.135,2.965.18,4.447l.075,2.221c0,.581-.021,1.162-.04,1.743,1.592-4.837,5.59-15.088,12.525-21.3,0,0-2.078,17.4-12.594,23.572l-.08,2.644c-.036,1.479-.663,2.922-.691-.021l-.045-3.112c-2.915-.712-16.192-4.3-23.9-12.272,0,0,17.2,1.388,23.887,11.449l-.007-.476c-.016-.735-.009-1.47-.043-2.2l-.17-2.2c-.119-1.464-.227-2.926-.31-4.391l-.4-3.265c-4.269-.18-16.553-1.188-25.041-6.818,0,0,15.913-2.179,24.84,5.2l-.209-1.667-.4-2.162c-.28-1.439-.513-2.886-.831-4.316-.032-.156-.069-.311-.1-.467-2.817-.058-16.732-.663-26.062-6.851,0,0,17.261-2.362,25.913,6.172q-.674-3.06-1.549-6.069c-3.486-.915-16.077-4.639-23.445-12.4,0,0,15.67,1.408,22.827,10.346q-.922-2.952-2.007-5.851c-3.583-.946-16.055-4.672-23.374-12.38,0,0,15.069,1.354,22.4,9.834-.426-1.083-.89-2.151-1.376-3.21-.473-1.124-1.026-2.209-1.571-3.3v.027S585.017,341.4,582.379,329.174Z" transform="translate(-577.167 -329.174)"/><g transform="translate(28.621 1.2)"><path class="e" d="M729.692,364.287s-16.9-.457-24.74,8.539c-1.7.661-3.372,1.4-5.018,2.189,4.576-3.379,10.957-8.94,14.307-15.646,0,0-16.182,6.573-19.4,18.311q-2.34,1.332-4.591,2.811c3.13-4.023,9.4-13.053,10.688-22.267,0,0-13.222,11.375-12.548,23.518q-3.35,2.313-6.512,4.887c1.133-2.234,7.317-15.034,6.2-26.35,0,0-10.606,14.764-6.426,26.536-1.127.948-2.193,1.97-3.292,2.95l-1.647,1.5-1.557,1.593-.7.72-.045.007c2.018-4.374,6.33-15.049,5.378-24.654,0,0-10.268,14.293-6.617,25.966l-1.12,1.151q-1.462,1.677-2.88,3.392l-1.427,1.7c-.359.457-.7.928-1.042,1.4,1.726-4.792,4.89-15.329,3.252-24.493,0,0-9.079,14.984-4.6,26.327l-1.566,2.133c-.882,1.187-1.591,2.5-2.393,3.737q-1.179,1.879-2.312,3.779c1.8-2.348,3.428-4.806,5.263-7.108l1.953-2.423c2.735,1.235,15.4,6.587,26.386,5.055,0,0-14.4-9.5-25.869-5.7l.3-.371c.465-.569.912-1.152,1.391-1.71l1.488-1.626c1-1.08,1.982-2.165,2.95-3.268l2.328-2.324c3.474,2.487,13.771,9.26,23.926,10.054,0,0-11.195-11.519-22.772-11.2l1.192-1.185,1.647-1.457c1.107-.96,2.182-1.957,3.313-2.887.121-.1.246-.2.368-.3,2.255,1.689,13.589,9.785,24.752,10.657,0,0-12.142-12.493-24.215-11.1q2.416-2,4.958-3.827c3.31,1.428,15.523,6.248,26.106,4.674,0,0-13.211-8.543-24.355-5.91q2.545-1.757,5.186-3.372c3.4,1.462,15.525,6.209,26.039,4.645,0,0-12.7-8.216-23.7-6.052,1-.591,2.026-1.146,3.061-1.681,1.065-.595,2.169-1.108,3.27-1.632l-.016.022S720.082,372.293,729.692,364.287Z" transform="translate(-634.599 -340.592)"/><path class="f" d="M621.316,411.673s-.1-24.735,5.771-21.946a8.517,8.517,0,0,1,5.154,8.443s-3.728-25.88,2.244-25.651,5.752,7.259,5.752,7.259-4.67-22.3.666-25.108,5.422,6.694,5.422,6.694-4.661-21.242,0-22.218,4.036,6.137,4.036,6.137-.209-14.133,4.42-14.256,4.7,12.345,3.406,17.272c0,0,2-3.593,5.482-.091s-5.744,16.015-5.744,16.015,4.228-4.06,6.934-1.241-4.263,18.032-11.532,22.729c0,0,7.693-2.67,5.446,4.784s-18.246,16.941-18.246,16.941,5.515-.944,6.162,3.153-14.711,12.6-19.736,13.867S621.316,411.673,621.316,411.673Z" transform="translate(-621.316 -331.026)"/><g transform="translate(3.955 0.12)"><path class="g" d="M657.744,331.211c3.818,1.286,3.806,12.534,2.591,17.153,0,0,2-3.593,5.482-.091s-5.744,16.015-5.744,16.015,4.228-4.06,6.934-1.241-4.263,18.032-11.532,22.729c0,0,7.693-2.67,5.446,4.784S642.676,407.5,642.676,407.5s5.515-.944,6.162,3.153-14.711,12.6-19.736,13.867a2.292,2.292,0,0,1-1.685-.187C649.469,391.561,657.677,348.538,657.744,331.211Z" transform="translate(-627.417 -331.211)"/></g><g transform="translate(2.111 50.367)"><path class="f" d="M638.077,467.328s14.472-3.545,25.756-11.173,11.044-8.513,11.044-8.513l-2.529-2.93,4.5,1.253s5.8-2.906,14.736-14.082c0,0-8.244-2.9-7.759-3.033s10.09.117,10.09.117,8.367-10.071,11-17.635c0,0-11.034-4.238-21.678-1.922l-3.1,7.119-.714-6.466s-8.186.508-12.6,3.417l2.181,7.4-6.542-6.218s-13.215,4.345-18.938,8.181l4.535,9.045-6.879-7.458s-3.732,1.583-8.878,7.546-9.368,18.525-7.1,24.952S628.869,469.826,638.077,467.328Z" transform="translate(-624.572 -408.718)"/><path class="h" d="M655.8,437.4c-14.692,10.554-23.5,18.85-28.726,24.7-.682-1.6-1.245-3.387-1.874-5.172-2.264-6.426,1.959-18.989,7.1-24.952s8.878-7.546,8.878-7.546l6.879,7.458-4.535-9.045c5.723-3.836,18.938-8.181,18.938-8.181l6.542,6.218-2.181-7.4c4.413-2.909,12.6-3.417,12.6-3.417l.714,6.466,3.1-7.119c10.644-2.316,21.678,1.922,21.678,1.922S687.292,414.78,655.8,437.4Z" transform="translate(-624.572 -408.718)"/></g></g></g><g class="d" transform="translate(247.943 137.112)"><path class="i" d="M1060.256,345.681s13.6,10.052,14.229,21.966c.931,1.568,1.8,3.179,2.6,4.815-1.523-5.481-3.125-13.791-1.633-21.139,0,0,8.7,15.146,4,26.376q1.023,2.49,1.885,5.042c.012-5.1.634-16.074,5.3-24.125,0,0,3.409,17.106-4.6,26.256q1.215,3.886,2.12,7.861c.483-2.458,3.5-16.35,11.35-24.574,0,0-.739,18.164-11.283,24.863.3,1.442.514,2.9.776,4.352l.373,2.2.245,2.213.108,1,.031.033c1.1-4.689,4.283-15.753,10.949-22.734,0,0-.716,17.585-10.782,24.531l.173,1.6c.08,1.481.135,2.964.179,4.446l.075,2.222c0,.58-.021,1.161-.04,1.742,1.592-4.837,5.589-15.088,12.525-21.3,0,0-2.078,17.4-12.594,23.572l-.08,2.645c-.036,1.479-.663,2.921-.691-.022l-.046-3.112c-2.915-.712-16.191-4.3-23.9-12.271,0,0,17.2,1.387,23.888,11.448l-.007-.477c-.016-.735-.008-1.469-.043-2.2l-.171-2.2c-.119-1.464-.227-2.926-.31-4.391l-.4-3.265c-4.269-.18-16.553-1.188-25.042-6.818,0,0,15.914-2.178,24.841,5.2l-.209-1.667-.4-2.162c-.281-1.438-.514-2.886-.832-4.316-.032-.156-.069-.311-.1-.466-2.817-.059-16.732-.663-26.063-6.852,0,0,17.261-2.362,25.914,6.172q-.674-3.06-1.549-6.069c-3.486-.915-16.077-4.639-23.444-12.4,0,0,15.67,1.408,22.827,10.346q-.923-2.951-2.008-5.851c-3.582-.945-16.055-4.672-23.373-12.379,0,0,15.068,1.353,22.4,9.833-.426-1.083-.889-2.151-1.375-3.21-.473-1.124-1.027-2.209-1.572-3.3v.027S1062.894,357.908,1060.256,345.681Z" transform="translate(-1055.044 -345.681)"/><g transform="translate(28.62 1.2)"><path class="i" d="M1207.568,380.794s-16.9-.457-24.74,8.539c-1.7.662-3.372,1.4-5.018,2.19,4.576-3.379,10.957-8.94,14.308-15.647,0,0-16.182,6.573-19.4,18.312q-2.34,1.331-4.591,2.81c3.129-4.023,9.4-13.053,10.687-22.267,0,0-13.222,11.376-12.547,23.518-2.234,1.542-4.4,3.178-6.513,4.887,1.134-2.234,7.317-15.034,6.2-26.35,0,0-10.606,14.765-6.427,26.536-1.127.948-2.193,1.969-3.292,2.95l-1.647,1.5-1.556,1.592-.7.72-.045.007c2.019-4.374,6.33-15.049,5.378-24.654,0,0-10.267,14.293-6.616,25.966l-1.12,1.151q-1.463,1.677-2.88,3.393l-1.427,1.7c-.359.457-.7.928-1.043,1.4,1.727-4.792,4.891-15.329,3.252-24.492,0,0-9.079,14.984-4.6,26.327l-1.566,2.133c-.883,1.187-1.591,2.5-2.393,3.737q-1.178,1.879-2.312,3.779c1.8-2.347,3.428-4.806,5.264-7.108l1.952-2.423c2.735,1.234,15.4,6.586,26.386,5.054,0,0-14.405-9.5-25.87-5.7l.3-.371c.465-.569.911-1.152,1.391-1.709l1.488-1.626c1-1.081,1.981-2.166,2.95-3.269l2.328-2.323c3.474,2.487,13.771,9.259,23.926,10.053,0,0-11.194-11.519-22.773-11.2l1.191-1.185,1.647-1.456c1.107-.961,2.183-1.958,3.313-2.888.121-.1.246-.2.368-.3,2.255,1.689,13.589,9.785,24.751,10.656,0,0-12.142-12.493-24.215-11.1q2.416-2,4.958-3.826c3.31,1.427,15.523,6.248,26.106,4.674,0,0-13.212-8.544-24.356-5.91q2.545-1.758,5.186-3.373c3.406,1.462,15.526,6.209,26.038,4.645,0,0-12.7-8.216-23.7-6.052,1-.591,2.025-1.147,3.06-1.682,1.065-.594,2.17-1.108,3.271-1.632l-.017.022S1197.958,388.8,1207.568,380.794Z" transform="translate(-1112.474 -357.099)"/><path class="i" d="M1099.192,428.18s-.1-24.735,5.772-21.945a8.516,8.516,0,0,1,5.154,8.442s-3.729-25.88,2.245-25.65,5.752,7.259,5.752,7.259-4.67-22.3.666-25.108,5.422,6.693,5.422,6.693-4.661-21.242,0-22.218,4.036,6.137,4.036,6.137-.21-14.133,4.419-14.256,4.7,12.346,3.407,17.272c0,0,2-3.593,5.483-.091s-5.745,16.015-5.745,16.015,4.228-4.06,6.935-1.241-4.264,18.033-11.532,22.729c0,0,7.693-2.67,5.446,4.784s-18.246,16.941-18.246,16.941,5.516-.943,6.162,3.153-14.711,12.6-19.736,13.867S1099.192,428.18,1099.192,428.18Z" transform="translate(-1099.192 -347.533)"/><g transform="translate(3.955 0.12)"><path class="j" d="M1135.621,347.718c3.818,1.286,3.805,12.534,2.591,17.153,0,0,2-3.593,5.483-.091s-5.745,16.015-5.745,16.015,4.228-4.06,6.935-1.241-4.264,18.033-11.532,22.729c0,0,7.693-2.67,5.445,4.784s-18.246,16.941-18.246,16.941,5.516-.943,6.162,3.153-14.711,12.6-19.736,13.867a2.292,2.292,0,0,1-1.686-.187C1127.346,408.067,1135.553,365.045,1135.621,347.718Z" transform="translate(-1105.293 -347.718)"/></g><g transform="translate(2.111 50.367)"><path class="i" d="M1115.953,483.836s14.472-3.545,25.756-11.173,11.043-8.514,11.043-8.514l-2.529-2.93,4.5,1.252s5.8-2.906,14.735-14.082c0,0-8.244-2.9-7.759-3.033s10.09.117,10.09.117,8.367-10.071,11-17.635c0,0-11.034-4.238-21.677-1.922l-3.1,7.12-.713-6.467s-8.187.508-12.6,3.417l2.181,7.4-6.543-6.218s-13.215,4.345-18.937,8.181l4.534,9.046-6.878-7.459s-3.733,1.584-8.878,7.546-9.368,18.525-7.105,24.952S1106.746,486.333,1115.953,483.836Z" transform="translate(-1102.449 -425.225)"/><path class="k" d="M1133.675,453.911c-14.692,10.554-23.5,18.85-28.726,24.7-.682-1.6-1.245-3.387-1.874-5.171-2.263-6.427,1.959-18.99,7.105-24.952s8.878-7.546,8.878-7.546l6.878,7.459-4.534-9.046c5.722-3.836,18.937-8.181,18.937-8.181l6.543,6.218-2.181-7.4c4.413-2.91,12.6-3.417,12.6-3.417l.713,6.467,3.1-7.12c10.644-2.316,21.677,1.922,21.677,1.922S1165.169,431.287,1133.675,453.911Z" transform="translate(-1102.449 -425.225)"/></g></g></g><g class="d" transform="translate(38.327 52.323)"><path class="l" d="M776.648,245.435l-42.947-.014a2,2,0,0,1-2-2h0l.006-26.534a2,2,0,0,1,2-2l42.955.012a2,2,0,0,1,2,2h0l-.009,26.534a2,2,0,0,1-2,2Z" transform="translate(-731.704 -214.892)"/><path class="c" d="M789.94,224.109a3.237,3.237,0,1,1,0-.011Z" transform="translate(-749.907 -216.993)"/><path class="c" d="M793.258,227.366a3.437,3.437,0,0,1-.6.052,3.363,3.363,0,1,1,.6-.052Zm-1.136-6.382a3.11,3.11,0,1,0,3.652,3.061h0a3.107,3.107,0,0,0-3.107-3.107,2.892,2.892,0,0,0-.555.04Z" transform="translate(-751.961 -216.931)"/><path class="c" d="M737.635,245.025v2.6h-.269v-2.368l-.613,0,0-.239Z" transform="translate(-733.479 -225.49)"/><path class="c" d="M741.213,247.38l0,.239h-1.83v-.191l1.084-1.062c.293-.289.351-.464.349-.643,0-.3-.211-.488-.609-.486a.879.879,0,0,0-.713.288l-.187-.163a1.16,1.16,0,0,1,.921-.371c.538,0,.856.27.865.7a1.081,1.081,0,0,1-.428.816l-.886.871Z" transform="translate(-734.379 -225.477)"/><path class="c" d="M745.25,246.946l-.519,0,0,.687h-.269v-.683l-1.47-.007,0-.194,1.383-1.726.3,0-1.334,1.682h1.133v-.6h.269l0,.6h.519Z" transform="translate(-735.672 -225.488)"/><path class="c" d="M751.407,246.946h-.522v.683l-.269,0v-.687l-1.47-.007v-.194l1.383-1.728h.3l-1.326,1.695h1.133v-.6l.269,0v.6l.52,0Z" transform="translate(-737.839 -225.487)"/><path class="c" d="M755.142,246.868c0,.444-.312.79-.936.788a1.335,1.335,0,0,1-.935-.336l.13-.211a1.13,1.13,0,0,0,.8.3c.442,0,.678-.215.678-.533s-.209-.544-.872-.544h-.554l.134-1.307h1.426v.24h-1.19l-.091.823.335,0C754.843,246.1,755.14,246.406,755.142,246.868Z" transform="translate(-739.289 -225.491)"/><path class="c" d="M759.067,246.846a.813.813,0,0,1-.821.805c-.023,0-.046,0-.069,0-.692,0-1.068-.48-1.069-1.3,0-.886.484-1.348,1.192-1.348a1.183,1.183,0,0,1,.617.141l-.107.215a.942.942,0,0,0-.506-.123c-.563,0-.924.361-.924,1.068.01.058,0,.134.011.213a.836.836,0,0,1,.8-.446A.79.79,0,0,1,759.067,246.846Zm-.267.01c0-.345-.254-.563-.655-.565a.6.6,0,0,0-.666.535.262.262,0,0,0,0,.033c0,.285.236.558.688.558a.569.569,0,0,0,.633-.5.542.542,0,0,0,0-.065Z" transform="translate(-740.639 -225.48)"/><path class="c" d="M764.613,246.891c0,.436-.318.77-.94.768a1.345,1.345,0,0,1-.937-.334l.129-.211a1.146,1.146,0,0,0,.807.3c.434,0,.672-.2.671-.526s-.218-.515-.7-.518h-.185v-.2l.721-.906h-1.332v-.237h1.674v.188l-.737.939C764.333,246.179,764.611,246.474,764.613,246.891Z" transform="translate(-742.618 -225.493)"/><path class="c" d="M768.6,246.85a.814.814,0,0,1-.823.8l-.068,0c-.692,0-1.068-.48-1.069-1.3,0-.886.484-1.348,1.192-1.348a1.228,1.228,0,0,1,.62.143l-.11.216a.918.918,0,0,0-.506-.123c-.563,0-.923.36-.924,1.068.01.058.005.134.01.211a.835.835,0,0,1,.8-.446A.8.8,0,0,1,768.6,246.85Zm-.268.008c0-.342-.253-.563-.654-.562a.6.6,0,0,0-.668.527c0,.014,0,.028,0,.042,0,.285.239.558.688.558a.57.57,0,0,0,.637-.493c0-.02,0-.04,0-.06Z" transform="translate(-743.991 -225.481)"/><path class="c" d="M772.317,245.035v.191l-1.091,2.414h-.29l1.072-2.368h-1.346v.489h-.269l0-.727Z" transform="translate(-745.311 -225.494)"/><path class="c" d="M778.045,245.04l0,.191-1.094,2.414h-.29l1.075-2.368h-1.345l0,.49h-.269v-.727Z" transform="translate(-747.326 -225.496)"/><path class="c" d="M781.968,246.908c0,.461-.4.751-1.013.748s-1.007-.288-1-.749a.653.653,0,0,1,.5-.641.588.588,0,0,1-.408-.573c0-.425.362-.689.911-.687s.921.264.929.685a.592.592,0,0,1-.417.574A.659.659,0,0,1,781.968,246.908Zm-.27-.005c0-.32-.276-.522-.738-.522s-.734.2-.733.523.271.525.734.523.731-.2.733-.523Zm-.738-.733c.406,0,.648-.183.649-.465s-.257-.474-.649-.474-.644.18-.643.47.231.47.638.47Z" transform="translate(-748.673 -225.484)"/><path class="c" d="M785.9,246.308c0,.886-.485,1.345-1.192,1.345a1.182,1.182,0,0,1-.617-.14l.107-.216a.916.916,0,0,0,.506.122c.562,0,.923-.36.924-1.068a1.911,1.911,0,0,0-.011-.211.836.836,0,0,1-.8.446.789.789,0,0,1-.877-.783.814.814,0,0,1,.822-.8c.022,0,.044,0,.066,0C785.529,245,785.906,245.484,785.9,246.308Zm-.362-.52c0-.288-.237-.561-.688-.558a.57.57,0,0,0-.633.5.584.584,0,0,0,0,.067c0,.342.253.561.657.561a.6.6,0,0,0,.658-.539l0-.029Z" transform="translate(-750.079 -225.481)"/><path class="c" d="M790.564,245.042l0,2.6h-.269v-2.368l-.616,0v-.239Z" transform="translate(-752.094 -225.496)"/><path class="c" d="M794.139,247.405l-.006.254h-1.827v-.191l1.081-1.062c.3-.289.351-.463.351-.644,0-.3-.211-.487-.609-.486a.881.881,0,0,0-.713.288l-.191-.163a1.171,1.171,0,0,1,.924-.371c.538,0,.855.27.865.7a1.081,1.081,0,0,1-.431.814l-.886.871Z" transform="translate(-752.991 -225.491)"/><path class="c" d="M797.767,246.9c0,.436-.318.773-.939.77a1.348,1.348,0,0,1-.937-.336l.13-.211a1.145,1.145,0,0,0,.807.3c.433,0,.672-.2.67-.525s-.219-.519-.7-.518h-.185v-.2l.721-.906H796v-.239h1.674v.191l-.737.939C797.487,246.19,797.765,246.481,797.767,246.9Z" transform="translate(-754.279 -225.495)"/><rect class="c" width="20.877" height="1.131" transform="translate(23.483 24.085)"/><rect class="c" width="10.706" height="1.131" transform="translate(33.652 26.346)"/><g class="d" transform="translate(2.566 10.749)"><rect class="m" width="8.759" height="6.544" rx="2.027"/></g><path class="n" d="M735.663,237.285v-.42l4.511,0a.946.946,0,0,0,0-1.884l-4.511,0v-.419l4.511,0a1.364,1.364,0,1,1,0,2.729Z" transform="translate(-733.096 -221.81)"/><rect class="n" width="0.419" height="3.094" transform="translate(8.23 14.322) rotate(-89.93)"/><rect class="c" width="22.527" height="1.934" transform="translate(3.605 5.361)"/></g><g class="d" transform="translate(185.57 15.113)"><rect class="o" width="50.712" height="52.322" rx="4.835" transform="translate(0 0.082) rotate(-0.093)"/><path class="i" d="M998.493,202.908a.277.277,0,0,0-.1.008l-.3.013-1.154.023-4.275.04-14.367.055-.1,0-.013-.1-.338-2.378c-.967-6.961-1.829-13.18-2.394-17.228l.073.062-3.821-.028-1.018-.018-.263-.008a.267.267,0,0,1-.084-.02.2.2,0,0,0,.088-.012l.264-.01,1.013-.02,3.822-.038.059.014.011.062,2.47,17.217c.116.816.231,1.62.336,2.377l-.109-.1,14.35.014,4.274.027,1.155.018.3.01Z" transform="translate(-962.88 -166.553)"/><path class="i" d="M980.783,200.445l.1-.012.3-.008,1.153-.019,4.319-.04,14.894-.06-.106.089c.44-2.508.91-5.221,1.4-8.024.256-1.444.5-2.863.741-4.216l.111.134-17.554-.011-5.2-.025-1.4-.018-.366-.011a.39.39,0,0,1-.122-.011.671.671,0,0,1,.125-.01l.37-.006,1.4-.03,5.2-.041,17.553-.067h.133l-.031.129c-.238,1.352-.485,2.772-.738,4.216-.493,2.8-.963,5.516-1.41,8.022l-.021.091h-.092l-14.891,0-4.318-.026-1.155-.018-.3-.006A.5.5,0,0,1,980.783,200.445Z" transform="translate(-965.945 -168.243)"/><path class="i" d="M988.182,220.9c-.021,0-.02-.178-.109-.478a2.011,2.011,0,0,0-.742-1.059,1.921,1.921,0,1,0-.007,3.079,2.031,2.031,0,0,0,.738-1.062c.073-.3.083-.481.116-.48s.011.047.016.133a1.573,1.573,0,0,1-.032.36,2.023,2.023,0,0,1-.727,1.168,2.112,2.112,0,1,1,0-3.335,2,2,0,0,1,.728,1.162,1.54,1.54,0,0,1,.038.377C988.2,220.863,988.188,220.906,988.182,220.9Z" transform="translate(-967.694 -179.05)"/><path class="i" d="M1008.222,220.9c-.021-.005-.023-.178-.108-.482a2.01,2.01,0,0,0-.743-1.055,1.918,1.918,0,1,0-.006,3.075,2.041,2.041,0,0,0,.737-1.059c.074-.306.084-.484.116-.48s.012.043.017.129a1.425,1.425,0,0,1-.036.36,2,2,0,0,1-.745,1.167,2.084,2.084,0,0,1-1.99.33,2.115,2.115,0,0,1-.009-3.988,2.084,2.084,0,0,1,1.994.323,2,2,0,0,1,.732,1.163,1.332,1.332,0,0,1,.034.376A.307.307,0,0,1,1008.222,220.9Z" transform="translate(-974.735 -179.048)"/><path class="i" d="M1017.994,181.949a5.76,5.76,0,1,1-5.771-5.75h0a5.757,5.757,0,0,1,5.768,5.746Z" transform="translate(-975.588 -164.073)"/><path class="n" d="M1016.684,182.753a6.1,6.1,0,0,1-.756.922c-.5.545-1.174,1.3-1.944,2.107l-.823.865-.07.075-.079-.067c-.6-.547-1.157-1.015-1.509-1.372a3.542,3.542,0,0,1-.563-.578,3.4,3.4,0,0,1,.655.474c.394.32.946.777,1.578,1.316l-.149.008c.254-.277.532-.57.814-.874.768-.816,1.477-1.543,1.992-2.063A5.583,5.583,0,0,1,1016.684,182.753Z" transform="translate(-977.159 -166.378)"/></g><path class="p" d="M909.828,224.494c-5.707-3.126-2.582-9.513-4.62-26.364s-6.187-20.927-6.187-20.927c-5.4-8.743-14.164-13.408-20.8-15.818a26.735,26.735,0,0,0-18.19-.085c-6.523,2.346-15.049,6.966-20.571,15.9,0,0-4.149,4.077-6.188,20.927s1.087,23.238-4.62,26.364a8.07,8.07,0,0,0,5.4-.907s-.648,1.45,3.429,3.353a1.859,1.859,0,0,1,0-2.174,9.991,9.991,0,0,0,5.435,4.213,59.371,59.371,0,0,0,9.785,1.223l-1.9-3.262,5.573,2.034-4.712-5.387-2.22-18.3s10.893.408,18.391.566v.023h2.809v-.023c7.5-.158,18.391-.566,18.391-.566l-2.22,18.3-4.712,5.387,5.572-2.034-1.9,3.262a59.366,59.366,0,0,0,9.784-1.223A9.993,9.993,0,0,0,901,224.766a1.859,1.859,0,0,1,0,2.174c4.077-1.9,3.429-3.353,3.429-3.353A8.07,8.07,0,0,0,909.828,224.494Z" transform="translate(-727.477 -143.174)"/><path class="m" d="M848.169,218.955s-5.843.815-6.93,4.213-1.495,14.677,2.174,17.394,6.522,2.446,6.522,2.446S845.316,233.224,848.169,218.955Z" transform="translate(-731.635 -163.998)"/><path class="m" d="M929.222,218.955s5.844.815,6.931,4.213,1.495,14.677-2.174,17.394-6.523,2.446-6.523,2.446S932.075,233.224,929.222,218.955Z" transform="translate(-762.226 -163.998)"/><path class="q" d="M974.53,291.257l0-2.627s.181-11.053-2.084-10.963-2.174,6.251-2.174,6.251l-11.053.453,1.811-5.98s2.084-6.342,1.269-7.247-2.718-.816-3.8,1.9-2.9,4.53-6.161,7.067-4.077,9.15-4.077,9.15L917.8,319.354l-20.826-40.048c-12.683-12.14-34.245-13.77-34.245-13.77s-4.345.241-4.074-8.758l3.987-4.2a15.492,15.492,0,0,0,4.148-8.8l1.6-13.212-20.022.589-19.568-.589,1.645,13.561a15.487,15.487,0,0,0,3.718,8.332l1.569,1.793,2.806,2.526c.27,9-4.075,8.758-4.075,8.758s-21.561,1.63-34.245,13.77L769.962,347.8s3.442,13.589,14.314,31.709l17.938-17.757-7.61-18.662,18.481-34.97s-1.45,6.7,2.356,17.394,4.71,17.576,2.718,25.367l29.353-.362h2.174l29.353.362c-1.993-7.791-1.087-14.676,2.718-25.367s2.355-17.394,2.355-17.394l22.078,32.676c2.515,3.724,6.123,6.44,10.537,6.317a7.067,7.067,0,0,0,4.152-1.616c7.739-5.654,32.268-43.818,32.268-43.818Z" transform="translate(-706.833 -168.082)"/><path class="q" d="M1085.363,313.458l1.765-.679s3.306-12.955,3.306-14.223-.362-2.673-1.721-1.4-3.624,8.395-3.624,8.395Z" transform="translate(-817.668 -191.325)"/><path class="q" d="M1070.537,312.443l.339,2.991-6.863,2.65a24.114,24.114,0,0,0-8.969-2.821" transform="translate(-807.101 -196.879)"/><path class="r" d="M994.762,367.524s-6.375,5.876-5.968,12.671" transform="translate(-783.793 -216.252)"/><path class="o" d="M913.392,300.257c-4.847-6.749-14.778-9.07-14.778-9.07,2.864,18.844-9.184,29.544-9.184,29.544l-24.415,3.805L840.6,320.731s-12.048-10.7-9.184-29.544c0,0-9.931,2.321-14.778,9.07,0,0,.906,17.938,12.865,28.809,0,0-2.016,4.983.7,15.242s6.047,14.473,5.028,19.976-1.359,7.814-1.359,7.814h62.284s-.34-2.31-1.359-7.814,2.311-9.716,5.028-19.976.7-15.242.7-15.242C912.487,318.2,913.392,300.257,913.392,300.257Z" transform="translate(-723.25 -189.403)"/><path class="m" d="M903.195,185.076c-2.384-9.555-7.311-17.622-22.35-20.339l-.471-.071h0a31.625,31.625,0,0,0-10.236-.041h0l-.749.113c-15.039,2.718-19.966,10.784-22.35,20.339a55.7,55.7,0,0,0-1.16,16.895l2.559-.7s-1.087-5.1,1.321-17.258c2.4-12.137,12.381-15.515,17.047-16.557a42.867,42.867,0,0,1,8.311-.928,43.749,43.749,0,0,1,8.31.928c4.666,1.042,14.643,4.42,17.047,16.557,2.409,12.162,1.322,17.258,1.322,17.258l2.559.7A55.681,55.681,0,0,0,903.195,185.076Z" transform="translate(-733.465 -144.749)"/><g transform="translate(20.764 79.399)"><rect class="s" width="41.176" height="28.33" transform="matrix(0.874, -0.486, 0.486, 0.874, 0, 20.011)"/><path class="s" d="M704.613,276.668l24.877,2.374L740.6,256.657" transform="translate(-704.613 -256.657)"/></g><g transform="translate(198.682 60.91)"><path class="p" d="M989.951,260.929l-10.893,12.259,26.014-12.259h43.058V228.138h-61.9v32.791Z" transform="translate(-979.057 -228.138)"/><line class="t" x2="49.586" transform="translate(14.186 5.79)"/><line class="t" x2="49.586" transform="translate(14.186 10.744)"/><line class="t" x2="30.416" transform="translate(14.186 15.697)"/><line class="t" x2="49.586" transform="translate(14.186 23.979)"/></g><path class="u" d="M738.367,510.685H948.118l-22.325,33.2L855.165,572.55,712.1,555.644l-8.83-26.83L700.8,509.3l37.565,1.389" transform="translate(-682.509 -266.115)"/><g transform="translate(224.346 220.331)"><path class="q" d="M1045.939,481.6h-4.282v-3.144a1.128,1.128,0,0,0-1.126-1.123h-20.761a1.126,1.126,0,0,0-1.125,1.123v19.016h.01a11.388,11.388,0,0,0,5.205,9.554h12.59a11.466,11.466,0,0,0,4.736-6.327h4.753a4.222,4.222,0,0,0,4.218-4.217V485.813A4.223,4.223,0,0,0,1045.939,481.6Zm1.406,14.881a1.406,1.406,0,0,1-1.406,1.4h-4.3c.006-.137.014-.274.014-.414V484.407h4.282a1.407,1.407,0,0,1,1.406,1.406Z" transform="translate(-1018.644 -475.203)"/><path class="p" d="M1035.993,489.867l-2.224-1.611c-.009-.008-.022-.008-.031-.016V475.6a.141.141,0,0,1,.139-.141c.111,0,.176.064.176.141v.568h1.4V475.6a1.56,1.56,0,0,0-3.116-.111h0c0,.037-.013.073-.013.111V488.31l-2.149,1.557a1.867,1.867,0,0,0-.683,1.337v4.851a.846.846,0,0,0,.843.845h5.491a.846.846,0,0,0,.844-.845V491.2A1.87,1.87,0,0,0,1035.993,489.867Z" transform="translate(-1022.461 -474.05)"/></g><g transform="translate(29.594 216.901)"><path class="p" d="M727.027,491.963v-7.855h46.75a.38.38,0,0,1,.365.373v7.111a.375.375,0,0,1-.365.371Z" transform="translate(-721.326 -474.157)"/><path class="q" d="M772.927,482.408H724.61v1.1h48.317a.38.38,0,0,1,.365.373v7.111a.375.375,0,0,1-.365.371H724.61v1.1h48.317a1.471,1.471,0,0,0,1.47-1.472v-7.111A1.479,1.479,0,0,0,772.927,482.408Z" transform="translate(-720.476 -473.559)"/><path class="c" d="M788.1,491.917l-1.9-1.292-1.775,1.292v-4.292H788.1Z" transform="translate(-741.512 -475.394)"/><path class="v" d="M729.361,497.922a4.762,4.762,0,0,0-4.751,4.757V503.7a4.758,4.758,0,0,0,4.751,4.751h40.793V497.922Z" transform="translate(-720.476 -479.015)"/><path class="c" d="M771.194,500.887H730.515a2.9,2.9,0,0,0-2.949,2.834v1.022a2.9,2.9,0,0,0,2.949,2.836h40.679Z" transform="translate(-721.516 -480.058)"/><path class="p" d="M742.086,525.534a5.009,5.009,0,0,1-5-5v-1.355a5.018,5.018,0,0,1,5-5.011h37.8v11.37Z" transform="translate(-724.862 -484.728)"/><path class="w" d="M780.563,516.1h-37.8a3.76,3.76,0,0,0-3.753,3.753v1.355a3.764,3.764,0,0,0,3.753,3.755h37.8Z" transform="translate(-725.541 -485.411)"/><path class="c" d="M758.422,474.932V472.1a2.2,2.2,0,0,1,1.905-2.175v-.028H721.574a2.2,2.2,0,0,0-2.2,2.2v2.834a2.2,2.2,0,0,0,2.2,2.206h38.753v-.028A2.2,2.2,0,0,1,758.422,474.932Z" transform="translate(-718.634 -469.158)"/><path class="i" d="M721.173,476.738a2.2,2.2,0,0,1-2.2-2.206V471.7a2.2,2.2,0,0,1,2.2-2.2h39.969v-.737H721.173a2.948,2.948,0,0,0-2.94,2.94v2.834a2.952,2.952,0,0,0,2.94,2.946h39.969v-.74Z" transform="translate(-718.233 -468.758)"/></g><g transform="translate(69.544 166.163)"><path class="x" d="M934.62,399.6a8.215,8.215,0,0,0-8.333-9.106H788.229A8.211,8.211,0,0,0,779.9,399.6l7.4,80.559a10.2,10.2,0,0,0,9.984,9.079h120a10.246,10.246,0,0,0,9.967-9.079Z" transform="translate(-779.857 -390.494)"/><path class="y" d="M788.229,396.7H926.287a8.178,8.178,0,0,1,8.039,6.048l.294-3.153a8.215,8.215,0,0,0-8.333-9.106H788.229A8.211,8.211,0,0,0,779.9,399.6l.29,3.151A8.182,8.182,0,0,1,788.229,396.7Z" transform="translate(-779.857 -390.494)"/></g><path class="z" d="M867.645,236.141a10.941,10.941,0,0,1,8.833,1.359" transform="translate(-741.19 -169.905)"/><path class="z" d="M910.086,236.141a10.941,10.941,0,0,0-8.833,1.359" transform="translate(-753.01 -169.905)"/><path class="z" d="M884.868,260.7s8.516,6.727,13.7-2.358Z" transform="translate(-747.247 -177.85)"/><path class="c" d="M839.639,235.749h-1.551v3.772h1.744Z" transform="translate(-730.794 -169.905)"/><g transform="translate(106.545 65.768)"><path class="aa" d="M862.012,256.9c-3.98,0-9.981-.5-15.068-3-8.592-4.227-9.95-16.259-10-16.769a1.359,1.359,0,0,1,2.7-.285c.016.148,1.276,11.06,8.5,14.615,7.549,3.715,17.819,2.537,17.922,2.524a1.359,1.359,0,0,1,.326,2.7A39.54,39.54,0,0,1,862.012,256.9Z" transform="translate(-836.932 -235.631)"/></g><path class="ab" d="M881.27,232.23a10.11,10.11,0,0,1,3.035,6.795c.091,4.168-1.517,6.046-1.517,6.046l3.148,1.836" transform="translate(-745.982 -168.667)"/><path class="q" d="M875.747,270.709s5.691,4.039,10.311,4.039,10.311-4.573,10.311-4.573" transform="translate(-744.039 -182.013)"/><ellipse class="ac" cx="4.964" cy="1.708" rx="4.964" ry="1.708" transform="translate(147.148 71.654)"/><ellipse class="ac" cx="4.964" cy="1.708" rx="4.964" ry="1.708" transform="translate(125.908 71.654)"/><g transform="translate(116.463 104.15)"><path class="ab" d="M852.231,294.837c1.053.15,12.222,1.3,15.984,1.685a5.322,5.322,0,0,1,2.279.782l3.453,2.159a5.329,5.329,0,0,0,2.824.81h.169" transform="translate(-852.231 -294.837)"/><path class="ab" d="M915.053,294.837c-1.053.15-12.222,1.3-15.984,1.685a5.325,5.325,0,0,0-2.279.782l-3.453,2.159a5.328,5.328,0,0,1-2.823.81h-.169" transform="translate(-865.636 -294.837)"/></g><g transform="translate(126.346 193.632)"><ellipse class="c" cx="20.592" cy="20.592" rx="20.592" ry="20.592" transform="translate(2.623 1.454)"/><path class="i" d="M900.089,494.122l-.637-.038-.037.862a.56.56,0,0,0,.262.037c.112,0,.187.038.3.038a1.916,1.916,0,0,0,.487-.075.414.414,0,0,0,.187-.375Q900.651,494.122,900.089,494.122Z" transform="translate(-878.709 -454.397)"/><path class="i" d="M891.3,490.681c-.15.187-.337.412-.487.636l.824.337a5.563,5.563,0,0,0,.075-.786c.038-.262.038-.449.075-.674l-.038-.038A4.84,4.84,0,0,1,891.3,490.681Z" transform="translate(-875.682 -453.015)"/><path class="i" d="M900.5,492.329a.366.366,0,0,0,.15-.337.341.341,0,0,0-.15-.3,1.25,1.25,0,0,0-.487-.15h-.487v.824l.524.037A1.393,1.393,0,0,0,900.5,492.329Z" transform="translate(-878.75 -453.503)"/><path class="i" d="M884.757,485.319l-.112-.112c-.038-.038-.075-.038-.15-.075l-.674.824.262.224a.786.786,0,0,0,.487.187.477.477,0,0,0,.412-.187.446.446,0,0,0,.113-.412A.888.888,0,0,0,884.757,485.319Z" transform="translate(-873.225 -451.248)"/><path class="i" d="M891.808,441.949l.823-.3c-.15-.225-.3-.45-.449-.637s-.262-.375-.374-.525h-.075a4.28,4.28,0,0,0,.038.674C891.771,441.424,891.808,441.686,891.808,441.949Z" transform="translate(-876.008 -435.546)"/><path class="i" d="M908.477,439.987v-.712a5.34,5.34,0,0,1-.412.562l-.449.674.861.262Z" transform="translate(-881.594 -435.119)"/><path class="i" d="M899.962,439.6a.831.831,0,0,0,.487-.15.546.546,0,0,0,0-.823.734.734,0,0,0-.524-.113h-.187a.224.224,0,0,0-.15.038l.038,1.086Z" transform="translate(-878.77 -434.85)"/><path class="i" d="M909,493.191l-.636.187.224.861a.726.726,0,0,0,.262-.038c.113-.037.225-.037.3-.075a.9.9,0,0,0,.449-.262.311.311,0,0,0,.113-.412C909.64,493.154,909.415,493.079,909,493.191Z" transform="translate(-881.858 -454.065)"/><path class="i" d="M889.38,432.865a21.9,21.9,0,1,0,21.9,21.9A21.907,21.907,0,0,0,889.38,432.865Zm7.076,8.237,2.172-2.958a.634.634,0,0,1,.375,0,1.377,1.377,0,0,1,.412.187,1.781,1.781,0,0,1,.375.374.638.638,0,0,1,.075.524l-.262,1.61a1.863,1.863,0,0,0-.075.449c-.037.15-.075.3-.112.487h.038c.112-.187.262-.374.374-.561.113-.15.225-.337.337-.487l.9-1.236a.607.607,0,0,0,.225.112,1.327,1.327,0,0,1,.3.187.823.823,0,0,1,.337.412c.037.113-.038.263-.15.449l-2.247,3.033c-.075.075-.187.037-.336,0a1.532,1.532,0,0,1-.412-.225,1.752,1.752,0,0,1-.374-.375.612.612,0,0,1-.075-.524l.3-1.61a1.872,1.872,0,0,0,.075-.449c.037-.15.075-.3.112-.486h-.038c-.15.262-.337.486-.487.711s-.3.412-.449.6l-.674.936a.6.6,0,0,0-.225-.112,1.348,1.348,0,0,1-.3-.187.822.822,0,0,1-.337-.412C896.269,441.439,896.344,441.289,896.456,441.1Zm-4.942-1.835c0-.075.038-.113.075-.187a1.243,1.243,0,0,0,.113-.225c.075-.112.15-.262.262-.412.112-.187.224-.337.374-.561.15-.187.263-.412.412-.6s.3-.412.412-.562c.112-.187.262-.337.337-.487a3.591,3.591,0,0,1,.262-.336,1.275,1.275,0,0,1,.412-.038,2.563,2.563,0,0,1,.524.075,2.222,2.222,0,0,1,.6.263.566.566,0,0,1,.262.412c0,.262.038.561.038.9v3.108a.713.713,0,0,1-.3.075,1.672,1.672,0,0,1-.412-.038.833.833,0,0,1-.449-.262.669.669,0,0,1-.113-.412v-.449l-1.273-.375c-.113.15-.187.3-.262.412a3.267,3.267,0,0,1-.224.374h-.225c-.075,0-.187-.038-.262-.038a.979.979,0,0,1-.487-.262A.435.435,0,0,1,891.514,439.267Zm-4.493-3.445a1.159,1.159,0,0,1,.225-.15,2.832,2.832,0,0,1,.6-.15c.224-.038.449-.038.637-.075a2.51,2.51,0,0,1,1.61.374,1.415,1.415,0,0,1,.6,1.123,1.761,1.761,0,0,1-.112.637,1.631,1.631,0,0,1-.974.823,4.839,4.839,0,0,1-.786.15l-.449.038.038,1.31a2.1,2.1,0,0,1-.262.038c-.112,0-.225.038-.337.038a1.054,1.054,0,0,1-.561-.112c-.112-.075-.15-.225-.187-.449l-.112-3.37A.316.316,0,0,1,887.021,435.822Zm-4.942,2.434v-1.011a2.44,2.44,0,0,1,.3-.263,1.022,1.022,0,0,1,.449-.224,1.851,1.851,0,0,1,.6-.112.62.62,0,0,1,.449.187c.15.187.337.412.561.712s.412.561.637.823c.225.3.412.562.637.862.187.3.374.524.524.749a.5.5,0,0,1-.187.224.984.984,0,0,1-.337.187.85.85,0,0,1-.487.075.5.5,0,0,1-.3-.263l-.337-.412-1.2.449c0,.187.038.337.038.487s.038.3.038.412a.831.831,0,0,1-.187.113l-.225.112a.967.967,0,0,1-.524.075.318.318,0,0,1-.263-.262.342.342,0,0,1-.037-.187.472.472,0,0,0-.038-.224c0-.15-.038-.3-.038-.487s-.038-.412-.038-.637-.037-.487-.037-.711Zm-4.306,1.011c.075-.075.187-.15.262-.225a.894.894,0,0,1,.524-.225.714.714,0,0,1,.449.263l1.61,1.984a1.662,1.662,0,0,1,.337,1.086,1.4,1.4,0,0,1-.674.935,1.484,1.484,0,0,1-.337.187,1.159,1.159,0,0,1-.3.075.82.82,0,0,1-.3-.038,1.137,1.137,0,0,1-.263-.187.324.324,0,0,1-.112-.224.406.406,0,0,1-.038-.187l.225-.112c.075-.038.112-.075.187-.113a.692.692,0,0,0,.262-.336.515.515,0,0,0-.15-.412l-1.872-2.284ZM879.607,469a1.866,1.866,0,0,1-.786.037v.862a1.148,1.148,0,0,1-.038.374c0,.113-.037.187-.037.3a.52.52,0,0,1-.45.113.787.787,0,0,1-.412-.15l-.187-.187a.645.645,0,0,1-.075-.187c0-.075-.038-.15-.038-.225a.471.471,0,0,1,.038-.224l.15-1.124-.3-.224-.9,1.048a.6.6,0,0,0-.225-.112,1.615,1.615,0,0,1-.262-.187,1.012,1.012,0,0,1-.337-.412c-.038-.113.038-.263.187-.45l2.209-2.583a.326.326,0,0,1,.225-.112.726.726,0,0,1,.262.038c.15.075.337.15.524.262a5.338,5.338,0,0,1,.561.412,2.128,2.128,0,0,1,.9,1.273,1.4,1.4,0,0,1-.374,1.048A1.185,1.185,0,0,1,879.607,469Zm5.055.711c0,.262-.038.561-.038.9-.038.337-.038.674-.075,1.048s-.075.711-.113,1.048-.075.674-.075.936a.4.4,0,0,1-.3.038,1.921,1.921,0,0,1-.412-.075.963.963,0,0,1-.412-.262.708.708,0,0,1-.038-.412l.075-.524-1.2-.449c-.113.15-.187.262-.3.412l-.225.336a.479.479,0,0,1-.224-.037.954.954,0,0,1-.263-.075.857.857,0,0,1-.449-.3.444.444,0,0,1-.037-.375c.037-.075.075-.112.112-.187.038-.038.075-.113.15-.187.075-.112.187-.225.3-.412a4.717,4.717,0,0,1,.412-.487l.449-.562a6.607,6.607,0,0,1,.449-.524,3.947,3.947,0,0,0,.375-.449c.112-.112.187-.225.262-.3h.375c.15.038.336.075.486.112a1.067,1.067,0,0,1,.524.337A.429.429,0,0,1,884.662,469.707Zm5.466,4.493a2.984,2.984,0,0,1-1.535.263.925.925,0,0,1-.3-.038c-.112,0-.225-.038-.337-.038-.112-.038-.224-.038-.337-.075a2.606,2.606,0,0,1-.3-.113.546.546,0,0,1-.374-.524l.187-3.258a.225.225,0,0,1,.112-.224l.224-.113a2.638,2.638,0,0,1,.6-.075h.749a2.659,2.659,0,0,1,1.385.375.879.879,0,0,1,.449.9.679.679,0,0,1-.224.524.707.707,0,1,0,.262,1.385A1.269,1.269,0,0,1,890.128,474.2Zm6.253-1.048a2.82,2.82,0,0,1-1.423.749c-.075.038-.187.038-.3.075s-.224.038-.337.075c-.112,0-.224.038-.374.038h-.337a.527.527,0,0,1-.524-.412l-.9-3.332a.223.223,0,0,1,.038-.262.449.449,0,0,1,.187-.187,3.773,3.773,0,0,1,.561-.3,4.376,4.376,0,0,1,.749-.225,2.984,2.984,0,0,1,1.5-.075,1.009,1.009,0,0,1,.749.786.822.822,0,0,1-.038.6,1.258,1.258,0,0,1-.412.486,1.04,1.04,0,0,1,1.085.786A1.322,1.322,0,0,1,896.381,473.151Zm3.857-1.685a.818.818,0,0,1-.3.187.906.906,0,0,1-.562.15.638.638,0,0,1-.374-.337l-1.947-3.295a2.177,2.177,0,0,1,.225-.15,2.123,2.123,0,0,1,.3-.187,1.255,1.255,0,0,1,.524-.15.535.535,0,0,1,.374.337l1.947,3.295C900.388,471.354,900.312,471.392,900.238,471.466Zm3.781-2.808c-.075.074-.15.187-.225.262a.713.713,0,0,1-.449.262.58.58,0,0,1-.412-.262l-1.872-2.134-.786.786c-.075,0-.112-.038-.187-.112a1.008,1.008,0,0,1-.225-.187.7.7,0,0,1-.187-.375.457.457,0,0,1,.15-.336l2.247-2.247.224.113a.985.985,0,0,1,.225.187.7.7,0,0,1,.187.375.456.456,0,0,1-.15.337l-.6.561,2.209,2.546A2.2,2.2,0,0,0,904.019,468.659Zm1.723-6.215a14.432,14.432,0,0,0-3.333-2.509c-1.76-.749-4.268-.187-5.8-.936a11.706,11.706,0,0,1-2.171-1.573c-.786,0-3.146.824-4.755.862-3.182.075-5.841-.711-7.9,0-5.167,1.8-8.5,4.38-8.911,4.156-.674-.375.824-3.969,3.744-6.141s1.273-1.76,1.273-1.76-3.444.412-3.444-1.835c0-.412,1.011-1.872,2.808-3.145.786-.524,1.872-.711,2.808-1.348a25.691,25.691,0,0,1,3.033-2.1,5.844,5.844,0,0,1,3.669-.824c.637.262-2.509,1.759-2.509,1.759s1.573-.449,2.509-.6c.824-.15,4.081-.749,4.38-.337.113.187-1.31,1.722-2.958,2.546-2.022,1.048-5.092,1.61-5.092,1.872,0,.449-.075.823.337.823a42.1,42.1,0,0,1,6.74-.262,34.258,34.258,0,0,1,7.263,1.31s2.022-1.011,2.733,0a3.144,3.144,0,0,1,.524,2.134,35.072,35.072,0,0,1,3.594,3.37c1.086,1.348,1.685,1.722,2.022,2.846S906.153,462.444,905.742,462.444Z" transform="translate(-867.476 -432.865)"/><path class="i" d="M908.814,491.182a.431.431,0,0,0,.038-.374.4.4,0,0,0-.225-.263,1.2,1.2,0,0,0-.524,0,2.4,2.4,0,0,1-.263.075.529.529,0,0,1-.224.075l.262.862.524-.15A.851.851,0,0,0,908.814,491.182Z" transform="translate(-881.594 -453.142)"/></g><circle class="a" cx="147.148" cy="147.148" r="147.148"/></g></g><circle class="ad" cx="147.148" cy="147.148" r="147.148"/></g></svg>