<?xml version="1.0" encoding="UTF-8"?><svg id="a" xmlns="http://www.w3.org/2000/svg" width="1650" height="950" viewBox="0 0 1650 950"><defs><style>.b,.c,.d,.e,.f,.g,.h{fill:#fff;}.c{stroke:#c81528;}.c,.i,.d,.j,.e,.k,.l,.m,.g,.n,.h{stroke-linecap:round;stroke-linejoin:round;}.o{stroke:#ffdad5;}.o,.f,.p,.q{stroke-miterlimit:10;}.o,.r,.m{fill:#ffdad5;}.i,.d,.j,.e,.l,.f,.m,.g,.h{stroke-width:1.42px;}.i,.j,.k,.l,.f,.p,.m,.n,.h{stroke:#e32c1b;}.i,.k{fill:#ebebeb;}.d{stroke:#f64934;}.j,.n{fill:none;}.e{stroke:#ff5b45;}.k{stroke-width:.99px;}.s,.l,.q{fill:#f7cbcb;}.p,.t{fill:#e32c1b;}.q{stroke:#f7cbcb;}.g{stroke:#e57873;}</style></defs><path class="h" d="M1150.29,717.78s-87.09-2.07-311.83-150.49c-85.13-56.23-89.64-79.04-89.64-79.04h-44.41s-155.95,169.85-359.81,242.04l620.18,17.82,185.51-30.32Z"/><path class="h" d="M651.26,540s2.23,.8,10.92-2.05c8.69-2.85,15.21-11.14,20.91-9.64s-2.58,22.68,0,23.63,21.19-24.72,27.71-29.88c6.52-5.16,7.06,.54,9.51,1.77s2.72,2.31,5.7,1.36c2.99-.95,3.94-.95,5.3,6.11s9.1,16.58,18.2,24.52c9.1,7.94,20.64,26.28,26.48,31.03,5.84,4.75,.95-4.35-3.94-14.12-4.89-9.78-12.77-18.88-14.53-28.25s-.41-15.75-.68-22.41,2.85-8.15,15.75,3.67c12.9,11.82,22,24.85,29.88,27.84,7.88,2.99,24.72,14.53,30.01,15.62,5.62,1.15,8.99,.05,8.12-.12,0,0-75.34-57.87-91.78-80.82h-44.41s-33.76,34.88-53.15,51.76Z"/><path class="t" d="M639.07,550.4s14.42-9.6,23.11-12.45c8.69-2.85,15.21-11.14,20.91-9.64s-2.58,22.68,0,23.63,21.19-24.72,27.71-29.88c6.52-5.16,7.06,.54,9.51,1.77s2.72,2.31,5.7,1.36c2.99-.95,3.94-.95,5.3,6.11s9.1,16.58,18.2,24.52c9.1,7.94,20.64,26.28,26.48,31.03,5.84,4.75,.95-4.35-3.94-14.12-4.89-9.78-12.77-18.88-14.53-28.25s-.04-9.48-.31-16.14-.94-12.9,11.96-1.08c12.9,11.82,25.43,23.33,33.31,26.32,7.88,2.99,24.72,14.53,30.01,15.62,5.62,1.15,8.99,.05,8.12-.12,0,0-17.44-13.39-37.37-29.85-2.3-1.9-4.12-.93-7.01-1.91-4.83-1.64-13.22-3.77-16.07-6.21-10.36-8.89-12.18-11.47-21.33-17.33-7.24-4.63-7.56-6.38-10.19-3.43s1.33,13.62-.76,16-8.86,4.67-11.62-1.33-11.62-1.81-16.95-13.05c-3.47-7.32-16.54,9.06-24,16.57-2.23,2.25-8.19-7.95-13.29-7.05-10.23,1.81-28.61,14.49-42.94,28.92Z"/><path class="n" d="M707.68,549.14s-6.11,11-9.37,20.78c-3.26,9.78-16.3,33-16.3,33"/><path class="n" d="M688.73,563.71s-12.83,22.31-17.72,27.5c-4.89,5.19-17.24,25.06-20.23,28.42"/><path class="n" d="M673.45,542.01s-30.76,26.28-42.37,35.94c-11.61,9.66-55.24,41.67-55.24,41.67"/><path class="n" d="M782.58,550.4s18.29,15.49,27.69,20.01c10.06,4.83,16.89,14.03,29.5,21.26"/><path class="n" d="M723.21,542.01s-8.12,28.73-16.31,50.89c-14.39,38.94-21.71,67.37-37.14,93.24"/><path class="n" d="M766.33,543.99s10.83,16.74,18.67,23.84,41.14,42.79,41.14,42.79"/><g><path class="t" d="M948.89,716.75c-10.13-8.33-20.51-.25-20.51-.25-1.37-.96-2.7-1.68-4-2.24,.28-.41,.45-.92,.45-1.46,0-1.43-1.16-2.59-2.59-2.59-.27,0-.52,.05-.77,.13-.4-1.63-1.56-2.95-3.09-3.57,.27-.69,.42-1.43,.42-2.22,0-3.35-2.71-6.06-6.06-6.06-.84,0-1.65,.17-2.37,.48-.56-8.66-6.54-15.84-14.59-18.19-1.79-4.94-4.85-9.86-9.71-13.19-12.74-8.75-33.67-5.01-42.07,10.99-1.66-.99-3.83-.77-5.26,.66-.36,.36-.64,.76-.84,1.2-1.88-10.36-10.83-19.58-24.6-17.02-11.95,2.22-15.1,11.39-16.19,15.51,0,0-9.52-11.58-20.17-1.24-.61,.59-1.16,1.33-1.65,2.15-.14-.21-.29-.42-.48-.6-1.43-1.43-3.6-1.64-5.26-.66-8.4-16.01-29.32-19.74-42.07-10.99-4.86,3.34-7.92,8.25-9.71,13.19-8.05,2.34-14.03,9.53-14.59,18.19-.73-.31-1.53-.48-2.38-.48-3.35,0-6.06,2.71-6.06,6.06,0,.78,.15,1.53,.42,2.22-1.53,.62-2.69,1.94-3.09,3.57-.24-.08-.5-.13-.77-.13-1.43,0-2.59,1.16-2.59,2.59,0,.54,.17,1.04,.45,1.46-1.29,.56-2.63,1.28-4,2.24,0,0-10.38-8.08-20.51,.25-11.31,9.31-2.2,23.39-2.2,23.39h288.61s9.12-14.08-2.2-23.39Z"/><g><rect class="g" x="483.97" y="593.64" width="75.4" height="136.49"/><rect class="q" x="490.39" y="610.02" width="11.4" height="7.68" transform="translate(992.19 1227.71) rotate(-180)"/><rect class="q" x="503.96" y="610.02" width="11.4" height="7.68" transform="translate(1019.31 1227.71) rotate(-180)"/><rect class="q" x="490.39" y="619.91" width="11.4" height="7.68" transform="translate(992.19 1247.51) rotate(-180)"/><rect class="q" x="503.96" y="619.91" width="11.4" height="7.68" transform="translate(1019.31 1247.51) rotate(-180)"/><rect class="q" x="490.39" y="635.95" width="11.4" height="7.68" transform="translate(992.19 1279.58) rotate(-180)"/><rect class="q" x="503.96" y="635.95" width="11.4" height="7.68" transform="translate(1019.31 1279.58) rotate(-180)"/><rect class="q" x="490.39" y="645.85" width="11.4" height="7.68" transform="translate(992.19 1299.38) rotate(-180)"/><rect class="q" x="503.96" y="645.85" width="11.4" height="7.68" transform="translate(1019.31 1299.38) rotate(-180)"/><rect class="q" x="490.39" y="661.89" width="11.4" height="7.68" transform="translate(992.19 1331.45) rotate(-180)"/><rect class="q" x="503.96" y="661.89" width="11.4" height="7.68" transform="translate(1019.31 1331.45) rotate(-180)"/><rect class="q" x="503.96" y="671.78" width="11.4" height="7.68" transform="translate(1019.31 1351.25) rotate(-180)"/><rect class="q" x="490.39" y="687.82" width="11.4" height="7.68" transform="translate(992.19 1383.32) rotate(-180)"/><rect class="q" x="503.96" y="687.82" width="11.4" height="7.68" transform="translate(1019.31 1383.32) rotate(-180)"/><rect class="q" x="490.39" y="697.72" width="11.4" height="7.68" transform="translate(992.19 1403.12) rotate(-180)"/><rect class="q" x="503.96" y="697.72" width="11.4" height="7.68" transform="translate(1019.31 1403.12) rotate(-180)"/><rect class="q" x="531.05" y="610.02" width="11.4" height="7.68" transform="translate(1073.49 1227.71) rotate(-180)"/><rect class="q" x="544.61" y="610.02" width="7.73" height="7.68" transform="translate(1096.94 1227.71) rotate(-180)"/><rect class="q" x="531.05" y="619.91" width="11.4" height="7.68" transform="translate(1073.49 1247.51) rotate(-180)"/><rect class="q" x="544.61" y="619.91" width="7.73" height="7.68" transform="translate(1096.94 1247.51) rotate(-180)"/><rect class="q" x="531.05" y="635.95" width="11.4" height="7.68" transform="translate(1073.49 1279.58) rotate(-180)"/><rect class="q" x="544.61" y="635.95" width="7.73" height="7.68" transform="translate(1096.94 1279.58) rotate(-180)"/><rect class="q" x="531.05" y="645.85" width="11.4" height="7.68" transform="translate(1073.49 1299.38) rotate(-180)"/><rect class="q" x="544.61" y="645.85" width="7.73" height="7.68" transform="translate(1096.94 1299.38) rotate(-180)"/><rect class="q" x="531.05" y="661.89" width="11.4" height="7.68" transform="translate(1073.49 1331.45) rotate(-180)"/><rect class="q" x="544.61" y="661.89" width="7.73" height="7.68" transform="translate(1096.94 1331.45) rotate(-180)"/><rect class="q" x="544.61" y="671.78" width="7.73" height="7.68" transform="translate(1096.94 1351.25) rotate(-180)"/><rect class="q" x="531.05" y="687.82" width="11.4" height="7.68" transform="translate(1073.49 1383.32) rotate(-180)"/><rect class="q" x="544.61" y="687.82" width="7.73" height="7.68" transform="translate(1096.94 1383.32) rotate(-180)"/><rect class="q" x="531.05" y="697.72" width="11.4" height="7.68" transform="translate(1073.49 1403.12) rotate(-180)"/><rect class="q" x="544.61" y="697.72" width="7.73" height="7.68" transform="translate(1096.94 1403.12) rotate(-180)"/></g><path class="s" d="M261.57,697.33c-13.6-11.19-27.55-.33-27.55-.33-1.84-1.28-3.63-2.26-5.37-3.01,.38-.56,.6-1.23,.6-1.95,0-1.92-1.56-3.48-3.48-3.48-.36,0-.7,.07-1.03,.17-.53-2.19-2.09-3.96-4.14-4.8,.36-.92,.57-1.92,.57-2.98,0-4.5-3.64-8.14-8.14-8.14-1.13,0-2.21,.23-3.19,.65-.75-11.63-8.79-21.27-19.59-24.42-2.4-6.64-6.51-13.23-13.04-17.72-17.11-11.75-45.21-6.73-56.49,14.76-2.22-1.32-5.14-1.03-7.06,.88-.48,.48-.86,1.03-1.13,1.61-2.53-13.91-14.55-26.29-33.03-22.85-16.05,2.99-20.27,15.3-21.75,20.82,0,0-12.78-15.55-27.09-1.66-1.39,1.35-2.57,3.2-3.42,5.31-1.26-.6-2.67-.94-4.16-.94-5.39,0-9.75,4.37-9.75,9.75,0,3.8,2.18,7.08,5.35,8.69-1.63,2.32-2.6,5.15-2.6,8.2,0,4.11,1.74,7.8,4.51,10.4-.53,1.15-11.81,3.51-13.79,17.4-2.84,19.86,10.04,25.02,10.04,25.02h247.68s12.24-18.91-2.95-31.4Z"/><g><path class="k" d="M76.13,656.93c-.97-2.92-2.58-4.4-5.19-2.33-1.01,.8-1.63,2.3-2.91,2.39-1.02,.07-1.86-.92-2.02-1.93-.17-1.01,.16-2.03,.44-3.01,2.8-9.81,1.74-20.67-2.9-29.75-1.1-2.15-2.44-4.26-4.38-5.7-1.94-1.44-4.59-2.12-6.84-1.22-3.87,1.56-4.74,6.69-4.13,10.82,.62,4.25,2.15,8.31,2.91,12.53,.75,4.22,.63,8.87-1.78,12.42-.55-3.01-4.51-4.49-7.29-3.21-6.66,3.08-4.96,16.67-4.24,22.59,1.6,13.17,7.27,26.73,18.98,33.86,1.47,.9,8.42-5.67,9.45-6.71,6.18-6.29,9.86-14.75,11.07-23.42,.28-1.98,.62-12.03-1.15-17.34Z"/><path class="t" d="M57.7,691.07l-1-13.46,9.79-14.02-9.95,11.82-.91-12.32-.85,20.96-7.73-13.13,7.59,16.67-1.48,36.56s3.66,1.05,6.96-.54l-2.19-29.48,8.15-11.74-8.38,8.67Z"/></g><g><polygon class="g" points="270.26 687.76 350.84 687.76 350.84 742.31 163.05 742.31 163.05 724.75 163.05 721.88 163.05 650.5 270.26 650.5 270.26 687.76"/><rect class="o" x="224.86" y="666.84" width="11.41" height="11.41" transform="translate(461.13 1345.1) rotate(-180)"/><rect class="o" x="241.33" y="666.84" width="11.41" height="11.41" transform="translate(494.07 1345.1) rotate(-180)"/><rect class="o" x="171.03" y="682.77" width="11.41" height="11.41" transform="translate(353.46 1376.94) rotate(-180)"/><rect class="o" x="187.5" y="682.77" width="11.41" height="11.41" transform="translate(386.41 1376.94) rotate(-180)"/><rect class="o" x="171.03" y="702.95" width="11.41" height="11.41" transform="translate(353.46 1417.32) rotate(-180)"/><rect class="o" x="187.5" y="702.95" width="11.41" height="11.41" transform="translate(386.41 1417.32) rotate(-180)"/><rect class="o" x="224.86" y="702.95" width="11.41" height="11.41" transform="translate(461.13 1417.32) rotate(-180)"/><rect class="o" x="241.33" y="702.95" width="11.41" height="11.41" transform="translate(494.07 1417.32) rotate(-180)"/><rect class="o" x="278.69" y="702.95" width="11.41" height="11.41" transform="translate(568.79 1417.32) rotate(-180)"/><rect class="o" x="295.16" y="702.95" width="11.41" height="11.41" transform="translate(601.74 1417.32) rotate(-180)"/><rect class="o" x="311.64" y="702.95" width="11.41" height="11.41" transform="translate(634.68 1417.32) rotate(-180)"/><rect class="o" x="171.03" y="717.66" width="11.41" height="11.41" transform="translate(353.46 1446.74) rotate(-180)"/><rect class="o" x="187.5" y="717.66" width="11.41" height="11.41" transform="translate(386.41 1446.74) rotate(-180)"/><rect class="o" x="224.86" y="717.66" width="11.41" height="11.41" transform="translate(461.13 1446.74) rotate(-180)"/><rect class="o" x="241.33" y="717.66" width="11.41" height="11.41" transform="translate(494.07 1446.74) rotate(-180)"/><rect class="o" x="278.69" y="717.66" width="11.41" height="11.41" transform="translate(568.79 1446.74) rotate(-180)"/><rect class="o" x="295.16" y="717.66" width="11.41" height="11.41" transform="translate(601.74 1446.74) rotate(-180)"/><rect class="o" x="311.64" y="717.66" width="11.41" height="11.41" transform="translate(634.68 1446.74) rotate(-180)"/></g><g><path class="b" d="M1656.52,728.25s-47.53,15.17-93.39,13.15c-59.24-2.62-165.13-33.9-165.13-33.9-76.48-16.21-155.35-17.65-232.36-4.22l-150.12,26.17c-83.88,14.62-169.89,11.61-252.54-8.86l-2.68-.66c-99.07-24.53-202.7-23.93-301.48,1.75h0c-76.07,19.78-155.23,24.74-233.17,14.61,0,0-87.12-11.93-130.96-17C50.87,714.21-.06,728.25-.06,728.25l.03,160.62H1656.55l-.03-160.62Z"/><path class="j" d="M1656.07,728.46c-15.32,5.57-31,8.36-47.69,10.3-37.73,4.39-75.95,1.68-112.84-7.36l-97.53-23.91c-76.48-16.21-155.35-17.65-232.36-4.22l-150.12,26.17c-83.88,14.62-169.89,11.61-252.54-8.86l-6.2-1.53c-97.95-24.25-200.45-23.35-297.96,2.63h0c-76.07,19.78-155.23,24.73-233.17,14.61l-69.47-9.32c-11.89-1.59-23.75-3.3-35.6-5.11-18.83-2.87-70.46-8.02-121.1,6.6"/></g><circle class="t" cx="1101.1" cy="338.39" r="141.94"/><path class="h" d="M1101.08,225.2c0-.17,.02-.33,.02-.51v-1.74c0-4.09-3.31-7.4-7.4-7.4h-30.91c.02-.42,.03-.83,.03-1.26,0-13.87-11.24-25.11-25.11-25.11-11.74,0-21.59,8.06-24.34,18.95-2.37-1.01-4.98-1.57-7.72-1.57-10.53,0-19.13,8.25-19.7,18.64h115.13Z"/><path class="h" d="M1206.63,317.34h145.05c-8.74-16.73-25.78-27.09-44.69-27.09-3.99,0-8,.48-11.91,1.43l-.4,.1-.23-.34c-6.24-9.33-16.66-14.9-27.87-14.9-17.39,0-31.74,13.04-33.36,30.34l-.06,.59-.59-.06c-1.06-.11-2.12-.16-3.18-.16-8.71,0-16.94,3.67-22.77,10.1Z"/><path class="d" d="M1043.51,401.54c0-.08,.01-.15,.01-.23,0-10.81-8.77-19.58-19.58-19.58h-19.9c-4.42-16.5-19.44-28.67-37.33-28.67-21.37,0-38.69,17.32-38.69,38.69,0,3.39,.48,6.66,1.3,9.79h114.19Z"/><line class="h" x1="907.84" y1="313.55" x2="998.55" y2="313.55"/><line class="h" x1="1264.49" y1="336.13" x2="1355.2" y2="336.13"/><line class="h" x1="1233.8" y1="343.19" x2="1324.51" y2="343.19"/><line class="h" x1="909.52" y1="306.63" x2="942.45" y2="306.63"/><line class="h" x1="874.08" y1="225.2" x2="964.79" y2="225.2"/><line class="h" x1="1334.03" y1="343.12" x2="1366.96" y2="343.12"/><path class="h" d="M1300.2,230.36h102.64c-6.19-11.84-18.24-19.17-31.63-19.17-2.83,0-5.66,.34-8.43,1.01l-.28,.07-.16-.24c-4.42-6.6-11.79-10.54-19.72-10.54-12.31,0-22.46,9.23-23.61,21.47l-.04,.42-.41-.04c-.75-.08-1.5-.12-2.25-.12-6.17,0-11.99,2.59-16.11,7.15Z"/><line class="h" x1="1256.45" y1="230.36" x2="1289.38" y2="230.36"/><g><g><path class="h" d="M1428.68,474.34s-.03-.01-.05-.02c11.34,5.76,27.8,5.82,41.52,4.41-13.7,1.41-30.13,1.36-41.47-4.39Z"/><path class="h" d="M1472.29,478.49c-.63,.07-1.27,.14-1.91,.21,.64-.07,1.28-.14,1.91-.21Z"/><path class="h" d="M1474.37,478.24c-.41,.05-.83,.1-1.25,.15,.42-.05,.84-.1,1.25-.15Z"/><rect class="h" x="1394.46" y="491.88" width="4.13" height="11.92"/><path class="h" d="M1458.68,503.8h4.13v-11.92h-4.13v11.92Z"/><path class="h" d="M1426,491.88v11.92h5.25v-11.92h-5.25Z"/><polygon class="h" points="1398.59 491.88 1398.59 503.8 1408.02 503.8 1408.02 496.16 1415.49 496.16 1415.49 503.8 1426 503.8 1426 491.88 1398.59 491.88"/><path class="h" d="M1431.26,491.88v11.92h27.42v-11.92h-27.42Z"/><rect class="h" x="1408.02" y="496.16" width="7.46" height="7.64"/><path class="l" d="M1474.37,478.24c-.41,.05-.83,.1-1.25,.15-.28,.03-.55,.07-.83,.1-.63,.07-1.27,.14-1.91,.21-.08,0-.15,.02-.23,.03-13.72,1.41-30.18,1.36-41.52-4.41-19.1,9.7-52.68,3.23-63.32,.81l5.91,4.26,1.82,1.32,1.69,3.38h107.79l1.69-3.38,1.83-1.31,5.91-4.26c-3.66,.83-10.03,2.14-17.58,3.11Z"/><polygon class="h" points="1434.45 442.77 1432.76 439.58 1428.68 438.28 1428.63 438.27 1424.5 439.58 1422.81 442.77 1419.99 449.53 1428.68 449.53 1437.27 449.53 1434.45 442.77"/><path class="h" d="M1437.27,449.53h-17.27s-8.64,20.66-55.02,25.35l.34,.24c10.65,2.42,44.22,8.9,63.32-.81,.02,0,.03,.01,.05,.02,11.34,5.74,27.77,5.8,41.47,4.39,.08,0,.15-.02,.23-.03,.64-.07,1.28-.14,1.91-.21,.28-.03,.55-.07,.83-.1,.42-.05,.84-.1,1.25-.15,7.56-.97,13.92-2.28,17.58-3.11l.34-.24c-46.38-4.69-55.02-25.35-55.02-25.35Z"/><path class="l" d="M1428.63,484.08h-48.07l4.76,3.09,7.25,4.71h72.11l7.25-4.71,4.76-3.09h-48.07Z"/><path class="h" d="M1428.68,511.87h42.77v-8.07h-85.63v8.07h42.86Z"/></g><g><path class="h" d="M1438.54,518.89c-.54-.12-1.07-.26-1.6-.4,.53,.14,1.06,.27,1.6,.4Z"/><path class="h" d="M1440.7,519.33c-.63-.12-1.25-.25-1.87-.38,.62,.14,1.24,.27,1.87,.38Z"/><path class="h" d="M1436.43,518.37c-.48-.13-.96-.27-1.43-.42,.48,.15,.95,.29,1.43,.42Z"/><path class="h" d="M1442.9,519.7c-.68-.1-1.35-.22-2.01-.34,.66,.12,1.34,.24,2.01,.34Z"/><path class="h" d="M1442.95,519.71c18.45,2.78,40.69-1.57,49-3.46-8.3,1.89-30.55,6.24-49,3.46Z"/><path class="h" d="M1434.39,517.77c-.44-.14-.87-.29-1.3-.45,.43,.15,.86,.31,1.3,.45Z"/><path class="h" d="M1432.41,517.08c-.4-.15-.79-.31-1.18-.47,.39,.16,.78,.32,1.18,.47Z"/><path class="l" d="M1442.95,519.71h-.06c-.68-.11-1.35-.22-2.01-.35-.06-.01-.12-.02-.19-.03-.63-.12-1.25-.25-1.87-.38-.1-.02-.19-.04-.29-.06-.54-.12-1.07-.26-1.6-.4-.17-.04-.34-.08-.51-.13-.48-.13-.96-.27-1.43-.42-.2-.06-.41-.12-.61-.18-.44-.14-.87-.29-1.3-.45-.23-.08-.46-.15-.68-.24-.4-.15-.79-.31-1.18-.47-.24-.1-.49-.19-.73-.3-.37-.16-.72-.34-1.08-.51-.24-.12-.49-.22-.73-.34-.02,0-.03-.02-.05-.03-19.1,9.71-52.68,3.23-63.32,.81l5.91,4.26,1.82,1.32,1.69,3.38h107.79l1.69-3.38,1.83-1.32,5.91-4.26c-8.3,1.89-30.55,6.24-49,3.46Z"/><path class="h" d="M1469.83,511.87h-82.4c-6.27,1.78-13.68,3.24-22.45,4.13l.34,.24c10.65,2.42,44.22,8.9,63.32-.81,.02,0,.03,.02,.05,.03,.24,.12,.49,.23,.73,.34,.36,.17,.71,.35,1.08,.51,.24,.1,.49,.2,.73,.3,.39,.16,.78,.32,1.18,.47,.22,.08,.45,.16,.68,.24,.43,.15,.86,.31,1.3,.45,.2,.06,.41,.12,.61,.18,.48,.15,.95,.29,1.43,.42,.17,.05,.34,.08,.51,.13,.53,.14,1.06,.27,1.6,.4,.1,.02,.19,.04,.29,.06,.62,.14,1.24,.27,1.87,.38,.06,.01,.12,.02,.19,.03,.66,.12,1.34,.24,2.01,.34h.06c18.45,2.79,40.7-1.57,49-3.46l.34-.24c-8.77-.89-16.19-2.35-22.46-4.13Z"/><rect class="h" x="1394.46" y="533" width="4.13" height="11.92"/><path class="h" d="M1458.68,544.92h4.13v-11.92h-4.13v11.92Z"/><path class="h" d="M1426,533v11.92h5.25v-11.92h-5.25Z"/><polygon class="h" points="1398.59 533 1398.59 544.92 1408.02 544.92 1408.02 537.28 1415.49 537.28 1415.49 544.92 1426 544.92 1426 533 1398.59 533"/><path class="h" d="M1431.26,533v11.92h27.42v-11.92h-27.42Z"/><rect class="h" x="1408.02" y="537.28" width="7.46" height="7.64"/><path class="l" d="M1428.63,525.2h-48.07l4.76,3.09,7.25,4.71h72.11l7.25-4.71,4.76-3.09h-48.07Z"/><path class="h" d="M1428.68,553h42.77v-8.07h-85.63v8.07h42.86Z"/></g><g><path class="h" d="M1438.54,560.01c-.54-.12-1.07-.26-1.6-.4,.53,.14,1.06,.27,1.6,.4Z"/><path class="h" d="M1440.7,560.45c-.63-.12-1.25-.25-1.87-.38,.62,.14,1.24,.27,1.87,.38Z"/><path class="h" d="M1436.43,559.49c-.48-.13-.96-.27-1.43-.42,.48,.15,.95,.29,1.43,.42Z"/><path class="h" d="M1442.9,560.82c-.68-.1-1.35-.22-2.01-.34,.66,.12,1.34,.24,2.01,.34Z"/><path class="h" d="M1442.95,560.83c18.45,2.78,40.69-1.57,49-3.46-8.3,1.89-30.55,6.24-49,3.46Z"/><path class="h" d="M1434.39,558.89c-.44-.14-.87-.29-1.3-.45,.43,.15,.86,.31,1.3,.45Z"/><path class="h" d="M1432.41,558.21c-.4-.15-.79-.31-1.18-.47,.39,.16,.78,.32,1.18,.47Z"/><path class="l" d="M1442.95,560.83h-.06c-.68-.11-1.35-.22-2.01-.35-.06-.01-.12-.02-.19-.03-.63-.12-1.25-.25-1.87-.38-.1-.02-.19-.04-.29-.06-.54-.12-1.07-.26-1.6-.4-.17-.04-.34-.08-.51-.13-.48-.13-.96-.27-1.43-.42-.2-.06-.41-.12-.61-.18-.44-.14-.87-.29-1.3-.45-.23-.08-.46-.15-.68-.24-.4-.15-.79-.31-1.18-.47-.24-.1-.49-.19-.73-.3-.37-.16-.72-.34-1.08-.51-.24-.12-.49-.22-.73-.34-.02,0-.03-.02-.05-.03-19.1,9.71-52.68,3.23-63.32,.81l5.91,4.26,1.82,1.32,1.69,3.38h107.79l1.69-3.38,1.83-1.32,5.91-4.26c-8.3,1.89-30.55,6.24-49,3.46Z"/><path class="h" d="M1469.83,553h-82.4c-6.27,1.78-13.68,3.24-22.45,4.13l.34,.24c10.65,2.42,44.22,8.9,63.32-.81,.02,0,.03,.02,.05,.03,.24,.12,.49,.23,.73,.34,.36,.17,.71,.35,1.08,.51,.24,.1,.49,.2,.73,.3,.39,.16,.78,.32,1.18,.47,.22,.08,.45,.16,.68,.24,.43,.15,.86,.31,1.3,.45,.2,.06,.41,.12,.61,.18,.48,.15,.95,.29,1.43,.42,.17,.05,.34,.08,.51,.13,.53,.14,1.06,.27,1.6,.4,.1,.02,.19,.04,.29,.06,.62,.14,1.24,.27,1.87,.38,.06,.01,.12,.02,.19,.03,.66,.12,1.34,.24,2.01,.34h.06c18.45,2.79,40.7-1.57,49-3.46l.34-.24c-8.77-.89-16.19-2.35-22.46-4.13Z"/><rect class="h" x="1394.46" y="574.12" width="4.13" height="11.92"/><path class="h" d="M1458.68,586.04h4.13v-11.92h-4.13v11.92Z"/><path class="h" d="M1426,574.12v11.92h5.25v-11.92h-5.25Z"/><polygon class="h" points="1398.59 574.12 1398.59 586.04 1408.02 586.04 1408.02 578.41 1415.49 578.41 1415.49 586.04 1426 586.04 1426 574.12 1398.59 574.12"/><path class="h" d="M1431.26,574.12v11.92h27.42v-11.92h-27.42Z"/><rect class="h" x="1408.02" y="578.41" width="7.46" height="7.64"/><path class="l" d="M1428.63,566.33h-48.07l4.76,3.09,7.25,4.71h72.11l7.25-4.71,4.76-3.09h-48.07Z"/><path class="h" d="M1428.68,594.12h42.77v-8.07h-85.63v8.07h42.86Z"/></g><g><path class="h" d="M1438.54,601.03c-.54-.12-1.07-.26-1.6-.4,.53,.14,1.06,.27,1.6,.4Z"/><path class="h" d="M1440.7,601.48c-.63-.12-1.25-.25-1.87-.38,.62,.14,1.24,.27,1.87,.38Z"/><path class="h" d="M1436.43,600.51c-.48-.13-.96-.27-1.43-.42,.48,.15,.95,.29,1.43,.42Z"/><path class="h" d="M1442.9,601.85c-.68-.1-1.35-.22-2.01-.34,.66,.12,1.34,.24,2.01,.34Z"/><path class="h" d="M1442.95,601.86c18.45,2.78,40.69-1.57,49-3.46-8.3,1.89-30.55,6.24-49,3.46Z"/><path class="h" d="M1434.39,599.91c-.44-.14-.87-.29-1.3-.45,.43,.15,.86,.31,1.3,.45Z"/><path class="h" d="M1432.41,599.23c-.4-.15-.79-.31-1.18-.47,.39,.16,.78,.32,1.18,.47Z"/><path class="l" d="M1442.95,601.86h-.06c-.68-.11-1.35-.22-2.01-.35-.06-.01-.12-.02-.19-.03-.63-.12-1.25-.25-1.87-.38-.1-.02-.19-.04-.29-.06-.54-.12-1.07-.26-1.6-.4-.17-.04-.34-.08-.51-.13-.48-.13-.96-.27-1.43-.42-.2-.06-.41-.12-.61-.18-.44-.14-.87-.29-1.3-.45-.23-.08-.46-.15-.68-.24-.4-.15-.79-.31-1.18-.47-.24-.1-.49-.19-.73-.3-.37-.16-.72-.34-1.08-.51-.24-.12-.49-.22-.73-.34-.02,0-.03-.02-.05-.03-19.1,9.71-52.68,3.23-63.32,.81l5.91,4.26,1.82,1.32,1.69,3.38h107.79l1.69-3.38,1.83-1.32,5.91-4.26c-8.3,1.89-30.55,6.24-49,3.46Z"/><path class="h" d="M1469.83,594.02h-82.4c-6.27,1.78-13.68,3.24-22.45,4.13l.34,.24c10.65,2.42,44.22,8.9,63.32-.81,.02,0,.03,.02,.05,.03,.24,.12,.49,.23,.73,.34,.36,.17,.71,.35,1.08,.51,.24,.1,.49,.2,.73,.3,.39,.16,.78,.32,1.18,.47,.22,.08,.45,.16,.68,.24,.43,.15,.86,.31,1.3,.45,.2,.06,.41,.12,.61,.18,.48,.15,.95,.29,1.43,.42,.17,.05,.34,.08,.51,.13,.53,.14,1.06,.27,1.6,.4,.1,.02,.19,.04,.29,.06,.62,.14,1.24,.27,1.87,.38,.06,.01,.12,.02,.19,.03,.66,.12,1.34,.24,2.01,.34h.06c18.45,2.79,40.7-1.57,49-3.46l.34-.24c-8.77-.89-16.19-2.35-22.46-4.13Z"/><rect class="h" x="1394.46" y="615.14" width="4.13" height="11.92"/><path class="h" d="M1458.68,627.07h4.13v-11.92h-4.13v11.92Z"/><path class="h" d="M1426,615.14v11.92h5.25v-11.92h-5.25Z"/><polygon class="h" points="1398.59 615.14 1398.59 627.07 1408.02 627.07 1408.02 619.43 1415.49 619.43 1415.49 627.07 1426 627.07 1426 615.14 1398.59 615.14"/><path class="h" d="M1431.26,615.14v11.92h27.42v-11.92h-27.42Z"/><rect class="h" x="1408.02" y="619.43" width="7.46" height="7.64"/><path class="l" d="M1428.63,607.35h-48.07l4.76,3.09,7.25,4.71h72.11l7.25-4.71,4.76-3.09h-48.07Z"/><path class="h" d="M1428.68,635.14h42.77v-8.07h-85.63v8.07h42.86Z"/></g><g><path class="h" d="M1438.54,642.16c-.54-.12-1.07-.26-1.6-.4,.53,.14,1.06,.27,1.6,.4Z"/><path class="h" d="M1440.7,642.6c-.63-.12-1.25-.25-1.87-.38,.62,.14,1.24,.27,1.87,.38Z"/><path class="h" d="M1436.43,641.63c-.48-.13-.96-.27-1.43-.42,.48,.15,.95,.29,1.43,.42Z"/><path class="h" d="M1442.9,642.97c-.68-.1-1.35-.22-2.01-.34,.66,.12,1.34,.24,2.01,.34Z"/><path class="h" d="M1442.95,642.98c18.45,2.78,40.69-1.57,49-3.46-8.3,1.89-30.55,6.24-49,3.46Z"/><path class="h" d="M1434.39,641.03c-.44-.14-.87-.29-1.3-.45,.43,.15,.86,.31,1.3,.45Z"/><path class="h" d="M1432.41,640.35c-.4-.15-.79-.31-1.18-.47,.39,.16,.78,.32,1.18,.47Z"/><path class="l" d="M1442.95,642.98h-.06c-.68-.11-1.35-.22-2.01-.35-.06-.01-.12-.02-.19-.03-.63-.12-1.25-.25-1.87-.38-.1-.02-.19-.04-.29-.06-.54-.12-1.07-.26-1.6-.4-.17-.04-.34-.08-.51-.13-.48-.13-.96-.27-1.43-.42-.2-.06-.41-.12-.61-.18-.44-.14-.87-.29-1.3-.45-.23-.08-.46-.15-.68-.24-.4-.15-.79-.31-1.18-.47-.24-.1-.49-.19-.73-.3-.37-.16-.72-.34-1.08-.51-.24-.12-.49-.22-.73-.34-.02,0-.03-.02-.05-.03-19.1,9.71-52.68,3.23-63.32,.81l5.91,4.26,1.82,1.32,1.69,3.38h107.79l1.69-3.38,1.83-1.32,5.91-4.26c-8.3,1.89-30.55,6.24-49,3.46Z"/><path class="h" d="M1469.83,635.14h-82.4c-6.27,1.78-13.68,3.24-22.45,4.13l.34,.24c10.65,2.42,44.22,8.9,63.32-.81,.02,0,.03,.02,.05,.03,.24,.12,.49,.23,.73,.34,.36,.17,.71,.35,1.08,.51,.24,.1,.49,.2,.73,.3,.39,.16,.78,.32,1.18,.47,.22,.08,.45,.16,.68,.24,.43,.15,.86,.31,1.3,.45,.2,.06,.41,.12,.61,.18,.48,.15,.95,.29,1.43,.42,.17,.05,.34,.08,.51,.13,.53,.14,1.06,.27,1.6,.4,.1,.02,.19,.04,.29,.06,.62,.14,1.24,.27,1.87,.38,.06,.01,.12,.02,.19,.03,.66,.12,1.34,.24,2.01,.34h.06c18.45,2.79,40.7-1.57,49-3.46l.34-.24c-8.77-.89-16.19-2.35-22.46-4.13Z"/><rect class="h" x="1394.46" y="656.26" width="4.13" height="11.92"/><path class="h" d="M1458.68,668.19h4.13v-11.92h-4.13v11.92Z"/><path class="h" d="M1426,656.26v11.92h5.25v-11.92h-5.25Z"/><polygon class="h" points="1398.59 656.26 1398.59 668.19 1408.02 668.19 1408.02 660.55 1415.49 660.55 1415.49 668.19 1426 668.19 1426 656.26 1398.59 656.26"/><path class="h" d="M1431.26,656.26v11.92h27.42v-11.92h-27.42Z"/><rect class="h" x="1408.02" y="660.55" width="7.46" height="7.64"/><path class="l" d="M1428.63,648.47h-48.07l4.76,3.09,7.25,4.71h72.11l7.25-4.71,4.76-3.09h-48.07Z"/><rect class="h" x="1394.46" y="656.36" width="4.13" height="11.92"/><path class="h" d="M1458.68,668.28h4.13v-11.92h-4.13v11.92Z"/><path class="h" d="M1428.63,668.28h2.63v-11.92h-5.26v11.92h2.63Z"/><polygon class="h" points="1408.02 668.28 1408.02 660.65 1415.49 660.65 1415.49 668.28 1426.01 668.28 1426.01 656.36 1398.59 656.36 1398.59 668.28 1408.02 668.28"/><path class="h" d="M1458.68,668.28v-11.92h-27.42v11.92h27.42Z"/><rect class="h" x="1408.02" y="660.65" width="7.46" height="7.63"/><path class="m" d="M1468.53,671.56c0,1.81-1.47,3.28-3.28,3.28h-73.23c-1.81,0-3.28-1.47-3.28-3.28h0c0-1.81,1.47-3.28,3.28-3.28h73.23c1.81,0,3.28,1.47,3.28,3.28h0Z"/></g></g><g><path class="e" d="M1185.67,519.91s33.07,8.9,45.65,4.65c12.58-4.24,6.19-9.5,6.19-9.5,0,0-20.61-6.22-46.35-28-25.74-21.78-38.75-54.48-38.75-54.48l-.14,6.75-12.34,70.44,45.75,10.14"/><path class="s" d="M1181.56,496.68s13,24.67,57.51,22.2c0,0-4.47,7.81-19.73,6.77-16.7-1.13-31.68-4.67-31.68-4.67l-6.11-24.3Z"/><path class="h" d="M1189.47,394.11c-22.03-66.5-73.03-50.11-73.03-50.11,0,0-21.03-56.17-75.34-69.72,0,0,8.28,21.69,21.28,41.93h0c-17.92-11.8-42.31-23.61-74.24-30.75,0,0,10.58,50.1,97.36,93.08,0,0-2.43,13.06,3.88,24.95,.49,6.61,.89,18.03-1.47,23.97-3.46,8.66-33.78,51.54-33.78,51.54l-19.4,124.62s-16.58,66.67-18.67,98.03c-2.1,31.37,3.06,39.43,12.84,38.25,13.99-1.68,53.42-60.48,74.11-85.43,24.6-29.67,34.18-23.84,51.16-6.43,29.79,30.55,51.64,88,71.26,82.6,19.19-5.28-10.84-100.46-18.06-128.07-11.5-43.98-21.94-92.91-28.05-114.19-8.42-29.33-26.13-56.97-26.13-56.97,39.49-7.1,36.29-37.3,36.29-37.3Z"/><path class="p" d="M1188.49,391.27s-5.5-1.55-9.38,.8c0,0,5.18,.27,7.52,2.16,.91,.74,2.46,3.99,2.46,3.99l.39-4.11-.98-2.84Z"/><path class="r" d="M1185.83,409.09s-26.56,22.64-58.22,14.02c0,0,9.07,7.89,24.99,7.87,5.42,0,29.5-8.58,33.23-21.89Z"/><path class="p" d="M1135.94,365.9s7.24-5.17,12.72,1.22c0,0,.73,1.02,1.64,2.94,0,0-8.7,7.55-14.35-4.16Z"/><path class="s" d="M1042.11,274.55s26.8,30.12,38.8,46.58c17.84,24.48,23.25,32.34,23.25,32.34,0,0-.77,1.76-2.48-1.13-5.34-9.05-33.53-32.59-38.79-36.13-5.26-3.53-17.13-30.41-20.78-41.66Z"/><path class="j" d="M1103.29,353.47c-16.99-20.37-40.91-37.26-40.91-37.26"/><path class="s" d="M989.11,286.57s40.76,60.97,96.47,91.22c0,0-18.33-8.1-37.03-20.75-12.31-8.33-25.4-19.61-31.71-26.49-23.39-25.48-27.32-38.56-27.73-43.98Z"/><path class="s" d="M1100.91,496.67s7.75-17.5,9.22-20.81c1.92-4.31,6.19-7.62-6.37-2.4-12.56,5.22-38.67,16-47.96,29.37-9.29,13.37,17.78,19.75,17.78,19.75l27.32-25.91Z"/><path class="s" d="M1132.08,586.03h0c-5.68,10.73-15.72,18.49-27.54,21.28l-74.1,17.49,4.29-18.28,97.35-20.5Z"/><path class="s" d="M1016.35,726.29s11.35,5.12,30.44-21.61c19.09-26.73,46-59.86,69.41-64.23,0,0-2.58,.64-33.03,39.63-30.45,38.99-46.88,60.58-56.68,59.91-9.8-.67-10.15-13.7-10.15-13.7Z"/><path class="s" d="M1212.14,726.09s-4.17-28.59-11.8-48.59c-7.64-20-24.45-50.43-36.73-54.28,0,0-11.77-2.34-21.86,2.16-10.09,4.5-18.05,9.83-18.05,9.83,0,0,19.09-14.25,55.64,46.02,19.64,32.39,32.8,44.86,32.8,44.86Z"/><path class="j" d="M1231.32,524.57c12.58-4.24,6.19-9.5,6.19-9.5,0,0-20.61-6.22-46.35-28-8.16-6.9-15.03-14.89-20.62-22.6-8.25-18.85-17.36-33.05-17.36-33.05,39.49-7.1,36.29-37.3,36.29-37.3-22.03-66.5-73.03-50.11-73.03-50.11,0,0-21.03-56.17-75.34-69.72,0,0,8.28,21.69,21.28,41.93h0c-17.92-11.8-42.31-23.61-74.24-30.75,0,0,10.58,50.1,97.36,93.08,0,0-2.03,10.92,2.44,21.87-.03-.05-.05-.08-.05-.08l1.59,4.73c.12,1.89,.22,4.04,.25,6.3-.57,4.41-2.8,9.68-8.69,14.91-14.47,12.83-84.23,66.69-82.4,124.18,.41,9.43,7.32,10.88,14.72,.86,3.98-5.39,16.88-24.28,36.15-42.7l-14.79,95.01s-16.58,66.67-18.67,98.03c-2.1,31.37,3.06,39.43,12.84,38.25,13.99-1.68,53.42-60.48,74.11-85.43,24.6-29.67,34.18-23.84,51.16-6.43,29.79,30.55,51.64,88,71.26,82.6,19.19-5.28-10.84-100.46-18.06-128.07-7.39-28.25-14.33-58.53-19.98-82.22,6.9,1.74,33.06,7.88,43.94,4.21Zm-142.6-122.41c.21,.45,.43,.9,.67,1.34,.03,.42,.06,.86,.09,1.31-.22-1.05-.5-1.95-.76-2.66Z"/><path class="j" d="M1158.07,622.59c-23.45-.01-42.17,18.23-42.17,18.23"/><g><rect class="h" x="961.43" y="516.7" width="162.91" height="87.15" transform="translate(-93.27 227.61) rotate(-11.93)"/><polygon class="i" points="1113.58 500.8 954.18 534.47 965.71 518.56 1125.1 484.89 1113.58 500.8"/><polygon class="i" points="1131.59 586.07 1141.63 556.46 1125.1 484.89 1113.58 500.8 1131.59 586.07"/></g><ellipse class="t" cx="1087.99" cy="531.38" rx="15.77" ry="14.3"/><path class="h" d="M1111.66,471.08c-52.65,13.5-90.89,70.21-98.29,80.23-7.4,10.02-14.31,8.57-14.72-.86-1.84-57.49,67.93-111.34,82.4-124.18,14.47-12.83,6.85-25.94,6.85-25.94"/></g><line class="c" x1="1035.37" y1="587.86" x2="1111.17" y2="572.07"/><line class="c" x1="1086.47" y1="571" x2="1122.31" y2="563.54"/><line class="c" x1="1045.28" y1="579.54" x2="1081.13" y2="572.07"/><line class="c" x1="1059.85" y1="570.7" x2="1093.37" y2="563.85"/><g><path class="h" d="M912.19,774.86l-.27-6.83-5.54-139.72-3.86-97.48h5.64l7.52-12.53v-25.07h-3.05v-6.12h-12.23v-48.21h5.67v-17.96c-3.65,0-6.61-3.12-6.61-6.96v-21.74h-4.23l-.06-1.99-3.45-121.75h-2.33l-3.5,123.74h-4.23v21.74c0,3.85-2.96,6.96-6.61,6.96v17.96h5.67v48.21h-12.23v6.12h-3.05v25.07l7.52,12.53h5.64l-5.31,133.92-4.1,103.27-.27,6.83-.59,14.86h44.46l-.59-14.86Z"/><line class="h" x1="880.71" y1="438.89" x2="903.36" y2="438.89"/><line class="h" x1="900.4" y1="487.1" x2="879.73" y2="487.1"/><line class="h" x1="868.48" y1="493.23" x2="912.62" y2="493.23"/><line class="h" x1="902.52" y1="530.83" x2="878.24" y2="530.83"/><line class="h" x1="885.19" y1="530.83" x2="875.66" y2="789.72"/><line class="h" x1="895.77" y1="530.83" x2="905.75" y2="789.72"/><line class="h" x1="890.55" y1="530.83" x2="890.55" y2="789.72"/><line class="h" x1="865.43" y1="497.78" x2="915.68" y2="497.78"/><line class="h" x1="865.43" y1="506.33" x2="915.68" y2="506.33"/><line class="h" x1="865.43" y1="509.89" x2="915.68" y2="509.89"/><line class="h" x1="865.43" y1="518.58" x2="915.68" y2="518.58"/><line class="h" x1="875.04" y1="420.93" x2="906.07" y2="420.93"/><line class="h" x1="875.04" y1="424.65" x2="906.07" y2="424.65"/><line class="h" x1="875.04" y1="428.36" x2="906.07" y2="428.36"/><line class="h" x1="875.04" y1="431.77" x2="906.07" y2="431.77"/><line class="h" x1="875.04" y1="435.33" x2="906.07" y2="435.33"/><line class="h" x1="885.56" y1="392.22" x2="895.69" y2="392.22"/><line class="h" x1="888.12" y1="313.48" x2="892.99" y2="313.48"/><line class="h" x1="886.04" y1="386.74" x2="895.07" y2="386.74"/><line class="h" x1="881.65" y1="395.3" x2="899.45" y2="395.3"/><line class="h" x1="887.77" y1="325.6" x2="893.34" y2="325.6"/><rect class="h" x="885.27" y="442.97" width="10.57" height="39.92"/></g><g><path class="t" d="M1444.97,768.04c0-4.32,2.55-7.95,6.01-9.05-.04-.36-.07-.72-.07-1.1,0-3.22,1.58-5.97,3.8-7.07,.54-5.04,3.12-9.54,6.99-12.87-6.53-2.67-11.13-9.08-11.13-16.57,0-9.89,8.02-17.9,17.9-17.9,1.78,0,3.5,.26,5.12,.75-.22-1.88,.39-3.84,1.83-5.28,2.12-2.12,5.35-2.44,7.81-.97,12.48-23.79,43.58-29.34,62.51-16.34,7.23,4.96,11.78,12.26,14.43,19.61,11.96,3.48,20.85,14.16,21.68,27.03,1.08-.46,2.28-.72,3.53-.72,4.98,0,9.01,4.03,9.01,9.01,0,1.16-.23,2.27-.63,3.29,2.27,.92,4,2.89,4.59,5.31,.36-.11,.74-.19,1.14-.19,2.13,0,3.85,1.72,3.85,3.85,0,.8-.25,1.55-.67,2.16,1.92,.83,3.91,1.91,5.94,3.33,0,0,15.43-12.01,30.48,.37,16.82,13.83,3.27,34.75,3.27,34.75h-187.67c-.07-.51-.11-1.03-.11-1.54,0-1.93,.46-3.82,1.33-5.63-.07,0-.13,.01-.2,.01-2.66,0-4.82-2.16-4.82-4.82,0-.12,0-.25,.02-.37-3.44-1.12-5.96-4.74-5.96-9.04Z"/><path class="s" d="M728.8,796.33c-13.6-11.19-27.55-.33-27.55-.33-1.84-1.28-3.63-2.26-5.37-3.01,.38-.56,.6-1.23,.6-1.95,0-1.92-1.56-3.48-3.48-3.48-.36,0-.7,.07-1.03,.17-.53-2.19-2.09-3.96-4.14-4.8,.36-.92,.57-1.92,.57-2.98,0-4.5-3.64-8.14-8.14-8.14-1.13,0-2.21,.23-3.19,.65-.75-11.63-8.79-21.27-19.59-24.42-2.4-6.64-6.51-13.23-13.04-17.72-17.11-11.75-45.21-6.73-56.49,14.76-2.22-1.32-5.14-1.03-7.06,.88-.48,.48-.86,1.03-1.13,1.61-2.53-13.91-14.55-26.29-33.03-22.85-16.05,2.99-20.27,15.3-21.75,20.82,0,0-12.78-15.55-27.09-1.66-1.39,1.35-2.57,3.2-3.42,5.31-1.26-.6-2.67-.94-4.16-.94-5.39,0-9.75,4.37-9.75,9.75,0,3.8,2.18,7.08,5.35,8.69-1.63,2.32-2.6,5.15-2.6,8.2,0,4.11,1.74,7.8,4.51,10.4-.53,1.15-1.05,2.38-1.54,3.72-7,18.8-2.21,38.7-2.21,38.7h247.68s12.24-18.91-2.95-31.4Z"/><path class="t" d="M1158.55,741.49c18.71-15.39,37.89-.46,37.89-.46,2.53-1.77,4.99-3.11,7.38-4.14-.52-.77-.83-1.69-.83-2.69,0-2.64,2.14-4.78,4.78-4.78,.5,0,.96,.1,1.41,.24,.73-3.01,2.88-5.45,5.7-6.6-.5-1.27-.78-2.65-.78-4.09,0-6.18,5.01-11.2,11.2-11.2,1.56,0,3.04,.32,4.39,.89,1.04-16,12.09-29.26,26.95-33.59,3.3-9.13,8.96-18.2,17.94-24.37,23.54-16.16,62.18-9.26,77.7,20.3,3.06-1.82,7.07-1.42,9.71,1.21,.66,.66,1.18,1.41,1.56,2.21,3.48-19.13,20.01-36.17,45.43-31.44,22.07,4.11,27.88,21.04,29.91,28.64,0,0,17.58-21.38,37.26-2.28,1.91,1.85,3.53,4.4,4.7,7.31,1.74-.82,3.67-1.29,5.72-1.29,7.41,0,13.42,6.01,13.42,13.42,0,5.23-3,9.74-7.36,11.96,2.25,3.2,3.58,7.08,3.58,11.28,0,5.65-2.39,10.72-6.21,14.31,.73,1.58,1.44,3.27,2.12,5.12,9.63,25.86,3.04,90.57,3.04,90.57h-340.68s-16.84-63.34,4.06-80.53Z"/><g><rect class="f" x="1335.56" y="763.06" width="11.24" height="58.93"/><path class="f" d="M1338.16,757.99c.87-.56,1.91-.89,3.02-.89s2.15,.33,3.02,.89v-33.57h-6.04v33.57Z"/><path class="f" d="M1344.2,713.93c-.87,.56-1.91,.89-3.02,.89s-2.15-.33-3.02-.89v3.56h6.04v-3.56Z"/><rect class="f" x="1397.68" y="763.06" width="11.24" height="58.93"/><path class="f" d="M1400.28,757.99c.87-.56,1.91-.89,3.02-.89s2.15,.33,3.02,.89v-33.57h-6.04v33.57h0Z"/><path class="f" d="M1400.28,713.93v3.56h6.04v-3.56c-.87,.56-1.91,.89-3.02,.89s-2.15-.33-3.02-.89Z"/><path class="f" d="M1406.33,713.29h-29.17v8.59c0,.53-.43,.96-.96,.96h-7.79c-.53,0-.95-.43-.95-.96v-8.59h-40.59v6.64h3.02l.97,4.49h82.91l.97-4.49h3.02v-6.64h-11.42Z"/><path class="f" d="M1329.64,708.87h37.81v-1.53c0-.53,.43-.96,.95-.96h7.79c.53,0,.95,.43,.95,.96v1.53h37.81v-4.98h-85.33v4.98Z"/><path class="f" d="M1376.2,706.38h-7.79c-.53,0-.95,.43-.95,.96v14.54c0,.53,.43,.96,.95,.96h7.79c.53,0,.95-.43,.95-.96v-14.54c0-.53-.43-.96-.95-.96Z"/><path class="f" d="M1344.2,757.99c-.87-.56-1.91-.89-3.02-.89s-2.15,.33-3.02,.89c-1.56,1-2.6,2.76-2.6,4.76v.3h11.24v-.3c0-2-1.04-3.76-2.6-4.76Z"/><path class="f" d="M1406.33,757.99c-.87-.56-1.91-.89-3.02-.89s-2.15,.33-3.02,.89c-1.56,1-2.6,2.76-2.6,4.76v.3h11.24v-.3c0-2-1.04-3.75-2.6-4.76Z"/><path class="f" d="M1335.56,708.87v.3c0,2,1.04,3.76,2.6,4.76,.87,.56,1.91,.89,3.02,.89s2.15-.33,3.02-.89c1.56-1,2.6-2.76,2.6-4.76v-.3h-11.24Z"/><path class="f" d="M1397.68,708.87v.3c0,2,1.04,3.76,2.6,4.76,.87,.56,1.91,.89,3.02,.89s2.15-.33,3.02-.89c1.56-1,2.6-2.76,2.6-4.76v-.3h-11.24Z"/><path class="f" d="M1311.27,693.42v5.85h4.59l1.33,4.62h110.23l1.33-4.62h4.59v-5.85c-64.18,4.29-122.08,0-122.08,0Z"/></g><path class="k" d="M725.66,777.79c-8.6-6.37-15.81-14.62-20.98-23.99-1.51-2.74-2.88-5.77-2.49-8.87,.39-3.1,3.25-6.07,6.32-5.47,1.84,.36,3.22,1.83,4.77,2.9,1.54,1.07,3.8,1.69,5.19,.43,1.98-1.81,.14-5.01-1.61-7.03-6.45-7.47-11.64-16.02-15.3-25.19-1.08-2.7-2.04-5.61-1.46-8.46,.57-2.85,3.22-5.47,6.08-5,2.06,.34,3.58,2.1,4.71,3.86,1.13,1.76,2.11,3.72,3.83,4.92,1.71,1.2,4.47,1.26,5.58-.52,.9-1.44,.35-3.32-.32-4.88-3.5-8.17-9.57-15.71-9.65-24.61-.08-8.95,6.97-17.43,15.79-18.99,8.81-1.56,18.35,3.99,21.34,12.42,5.13,14.44-7.89,30.04-4.77,45.05,1.81-2.49,3.68-5.02,6.22-6.76,2.54-1.74,5.92-2.57,8.74-1.33,3.45,1.52,5.07,5.76,4.6,9.5-.47,3.74-2.57,7.07-4.83,10.09-2.26,3.02-4.75,5.94-6.21,9.42-.53,1.25-.86,2.83,0,3.87,1.13,1.36,3.27,.8,5.03,.92,3.66,.25,6.28,4.09,6.35,7.76,.07,3.67-1.78,7.1-3.86,10.12-6.81,9.91-16.5,17.43-26.02,24.77l-7.04-4.95Z"/><path class="t" d="M733.82,756.68l-1.4-18.81,13.67-19.6-13.9,16.52-1.28-17.22-1.19,29.3-10.81-18.35,10.61,23.3-2.07,51.09s5.11,1.47,9.73-.75l-3.06-41.19,11.39-16.4-11.71,12.12Z"/><path class="k" d="M846.18,787.98c-7.11-5.42-13.75-14.44-16-23.1-.4-1.55-.7-3.24-.05-4.7,.54-1.21,2.07-2.2,3.4-1.75-.55-.19-1.21-2.47-1.4-3-.43-1.16-.74-2.36-.95-3.58-.39-2.26-.39-4.54-.19-6.82,.43-4.79,1.95-9.49,4.43-13.61,.82-1.36,1.76-2.68,3.04-3.61,4.45-3.24,9.63,.84,10.24,5.59,.21,1.67,0,3.38,.38,5.02,.37,1.64,1.58,3.29,3.26,3.38,.88,.05,1.72-.34,2.59-.44,2.09-.24,4.09,1.24,5.04,3.11,.95,1.87,1.06,4.06,.97,6.16-.5,12.59-14.77,37.35-14.77,37.35Z"/><path class="t" d="M846.44,774.04l-.7-9.41,6.84-9.8-6.95,8.26-.64-8.61-.59,14.65-5.4-9.17,5.3,11.65-1.03,25.54s2.56,.73,4.87-.37l-1.53-20.6,5.7-8.2-5.85,6.06Z"/><path class="k" d="M416.87,697.2c2.08-4.07,8.17-5.96,11.47-2.8,1.33,1.28,2.67,3.36,4.41,2.75,1.65-.57,1.55-2.98,.74-4.53-1.32-2.52-3.57-4.4-5.61-6.39-2.04-1.99-3.99-4.33-4.37-7.15-.39-2.82,1.45-6.1,4.29-6.29,1.06-.07,2.15,.28,3.17-.03,1.71-.52,2.38-2.67,2.08-4.44-.3-1.76-1.28-3.33-1.81-5.03-1.85-6,3.34-13.05,9.62-13.06,6.28,0,11.5,7.02,9.66,13.03-.57,1.86-1.68,3.57-1.93,5.5-.25,1.93,.84,4.29,2.79,4.38,1.97,.09,3.22-2.05,4.95-3,2.87-1.59,6.71,.64,7.78,3.74,1.07,3.1,.07,6.55-1.44,9.46-1.51,2.91-3.52,5.58-4.67,8.65-.4,1.08-.62,2.46,.22,3.24,1.35,1.25,3.32-.41,4.9-1.36,3.78-2.26,9.04,.32,10.88,4.32,1.84,4,7.74,29.38-28.2,49.91-35.63-22.88-31.03-46.83-28.95-50.9Z"/><path class="t" d="M446.71,725.69l-1.1-14.84,10.78-15.45-10.96,13.03-1.01-13.58-.94,23.1-8.52-14.47,8.36,18.38-1.63,40.29s4.03,1.16,7.68-.59l-2.41-32.48,8.98-12.93-9.23,9.56Z"/><path class="k" d="M692.4,746.19c-.9-2.69-2.38-4.06-4.79-2.15-.93,.74-1.5,2.12-2.69,2.2-.94,.06-1.71-.85-1.87-1.78-.15-.93,.14-1.87,.4-2.78,2.58-9.05,1.61-19.06-2.68-27.43-1.02-1.99-2.25-3.93-4.04-5.26-1.79-1.33-4.23-1.95-6.3-1.12-3.57,1.43-4.37,6.17-3.81,9.97,.57,3.91,1.99,7.66,2.68,11.56s.58,8.18-1.64,11.45c-.51-2.78-4.16-4.14-6.72-2.96-6.14,2.84-4.58,15.37-3.91,20.83,1.48,12.15,6.71,24.65,17.5,31.23,1.36,.83,7.76-5.23,8.71-6.19,5.7-5.8,9.09-13.6,10.21-21.6,.26-1.83,.57-11.09-1.06-15.99Z"/><path class="t" d="M675.4,777.67l-.92-12.41,9.02-12.93-9.17,10.9-.84-11.37-.78,19.33-7.13-12.11,7,15.38-1.37,33.71s3.37,.97,6.42-.49l-2.02-27.18,7.52-10.82-7.73,8Z"/><path class="k" d="M1003.35,707.88c-.9-2.69-2.38-4.06-4.79-2.15-.93,.74-1.5,2.12-2.69,2.2-.94,.06-1.71-.85-1.87-1.78-.15-.93,.14-1.87,.4-2.78,2.58-9.05,1.61-19.06-2.68-27.43-1.02-1.99-2.25-3.93-4.04-5.26-1.79-1.33-4.23-1.95-6.3-1.12-3.57,1.43-4.37,6.17-3.81,9.97,.57,3.91,1.99,7.66,2.68,11.56,.69,3.9,.58,8.18-1.64,11.45-.51-2.78-4.16-4.14-6.72-2.96-6.14,2.84-4.58,15.37-3.91,20.83,1.48,12.15,6.71,24.65,17.5,31.23,1.36,.83,7.76-5.23,8.71-6.19,5.7-5.8,9.09-13.6,10.21-21.6,.26-1.83,.57-11.09-1.06-15.99Z"/><path class="t" d="M986.36,739.36l-.92-12.41,9.02-12.93-9.17,10.9-.84-11.37-.78,19.33-7.13-12.11,7,15.38-1.37,33.71s3.37,.97,6.42-.49l-2.02-27.18,7.52-10.82-7.73,8Z"/><path class="s" d="M336.87,771h61.8s21.92-11.72,15.69-33.83c-4.47-15.86-17.39-16.81-17.39-16.81,0,0,3.52-10.01,5.67-19.28,4.16-17.95-9.26-40.25-33.64-35.72-16.45,3.06-20.79,15.69-22.3,21.35,0,0-13.11-15.94-27.78-1.7-6.43,6.24-8.58,23.04,5.78,27.96,0,0-10.51-.93-17.69,18.34-7.18,19.28-2.27,39.69-2.27,39.69h32.13Z"/><g><polygon class="g" points="223.19 767.58 223.19 792.88 26.95 829.76 26.95 767.58 125.07 730.28 223.19 767.58"/><rect class="r" x="116.45" y="773.62" width="19.26" height="19.26" transform="translate(252.15 1566.5) rotate(-180)"/><rect class="r" x="94.68" y="773.62" width="19.26" height="19.26" transform="translate(208.62 1566.5) rotate(-180)"/></g></g><g><path class="b" d="M-.48,789.84s47.53,15.17,93.39,13.15c59.24-2.62,165.13-33.9,165.13-33.9,76.48-16.21,155.35-17.65,232.36-4.22l150.12,26.17c83.88,14.62,169.89,11.61,252.54-8.86l2.68-.66c99.07-24.53,202.7-23.93,301.48,1.75h0c76.07,19.78,155.23,24.74,233.17,14.61,0,0,87.12-11.93,130.96-17,43.84-5.07,94.77,8.97,94.77,8.97l-.03,160.62H-.5l.03-160.62Z"/><path class="j" d="M-.03,790.06c15.32,5.57,31,8.36,47.69,10.3,37.73,4.39,75.95,1.68,112.84-7.36l97.53-23.91c76.48-16.21,155.35-17.65,232.36-4.22l150.12,26.17c83.88,14.62,169.89,11.61,252.54-8.86l6.2-1.53c97.95-24.25,200.45-23.35,297.96,2.63h0c76.07,19.78,155.23,24.73,233.17,14.61l69.47-9.32c11.89-1.59,23.75-3.3,35.6-5.11,18.83-2.87,70.46-8.02,121.1,6.6"/></g></g><line class="n" x1="785.37" y1="598.65" x2="796.23" y2="615.41"/><line class="n" x1="664.48" y1="635.73" x2="650.78" y2="656.63"/><path class="n" d="M639.97,598.65s-30.48,30.77-60.95,53.97"/></svg>
