<svg xmlns="http://www.w3.org/2000/svg" width="143.346" height="143.346" viewBox="0 0 143.346 143.346">
  <g transform="translate(-152.843 -39.932)">
    <circle fill="#fff" cx="67.382" cy="67.382" r="67.382" transform="translate(161.424 44.692)" />
    <g fill="#E32C1B" transform="translate(152.843 39.932)">
      <path
        d="M230.771,185.2l-2.083-.123-.123,2.818a1.818,1.818,0,0,0,.858.123c.368,0,.612.123.98.123A6.2,6.2,0,0,0,232,187.9a1.351,1.351,0,0,0,.613-1.225Q232.608,185.2,230.771,185.2Z"
        transform="translate(-160.813 -55.209)" />
      <path
        d="M209.756,177.482c-.49.612-1.1,1.347-1.593,2.082l2.695,1.1a18.277,18.277,0,0,0,.245-2.573c.123-.857.123-1.47.245-2.2l-.123-.123A16.087,16.087,0,0,1,209.756,177.482Z"
        transform="translate(-158.666 -54.229)" />
      <path
        d="M232.024,181.626a1.2,1.2,0,0,0,.49-1.1,1.113,1.113,0,0,0-.49-.98,4.064,4.064,0,0,0-1.593-.49h-1.593v2.695l1.715.123A4.589,4.589,0,0,0,232.024,181.626Z"
        transform="translate(-160.842 -54.575)" />
      <path
        d="M194.657,164.466l-.367-.367c-.123-.123-.245-.123-.49-.245l-2.206,2.695.858.735a2.576,2.576,0,0,0,1.593.612,1.559,1.559,0,0,0,1.348-.612,1.458,1.458,0,0,0,.368-1.348A2.907,2.907,0,0,0,194.657,164.466Z"
        transform="translate(-156.922 -52.975)" />
      <path
        d="M210.6,62.785l2.7-.98c-.49-.735-.981-1.47-1.47-2.083s-.858-1.225-1.226-1.715h-.244a14.063,14.063,0,0,0,.123,2.206C210.477,61.07,210.6,61.928,210.6,62.785Z"
        transform="translate(-158.896 -41.834)" />
      <path d="M250.827,57.459V55.132a17.617,17.617,0,0,1-1.348,1.838l-1.47,2.2,2.818.858Z"
        transform="translate(-162.859 -41.532)" />
      <path
        d="M230.2,56.9a2.724,2.724,0,0,0,1.593-.49,1.789,1.789,0,0,0,0-2.7,2.4,2.4,0,0,0-1.715-.367h-.612a.737.737,0,0,0-.49.123l.123,3.552Z"
        transform="translate(-160.856 -41.341)" />
      <path
        d="M251.872,183l-2.083.613.735,2.818a2.386,2.386,0,0,0,.857-.123c.368-.123.736-.123.981-.245a2.948,2.948,0,0,0,1.47-.857,1.016,1.016,0,0,0,.368-1.348C253.955,182.882,253.219,182.637,251.872,183Z"
        transform="translate(-163.047 -54.974)" />
      <path
        d="M224.516,39.932A71.673,71.673,0,1,0,296.189,111.6,71.687,71.687,0,0,0,224.516,39.932Zm23.156,26.954,7.106-9.678a2.075,2.075,0,0,1,1.225,0,4.524,4.524,0,0,1,1.348.612,5.812,5.812,0,0,1,1.226,1.226,2.087,2.087,0,0,1,.244,1.715l-.857,5.268a6.138,6.138,0,0,0-.245,1.47c-.123.489-.245.98-.368,1.593h.123c.368-.613.858-1.226,1.225-1.838.368-.49.735-1.1,1.1-1.593l2.94-4.043a2,2,0,0,0,.735.368,4.341,4.341,0,0,1,.98.612,2.7,2.7,0,0,1,1.1,1.348c.122.368-.122.857-.49,1.47l-7.351,9.924c-.245.245-.613.123-1.1,0a5.013,5.013,0,0,1-1.348-.735,5.829,5.829,0,0,1-1.225-1.226,2.012,2.012,0,0,1-.245-1.715l.981-5.268a6.139,6.139,0,0,0,.245-1.47c.122-.49.244-.98.367-1.593h-.123c-.489.858-1.1,1.593-1.593,2.328s-.98,1.347-1.47,1.96L250,70.685a1.989,1.989,0,0,0-.735-.368,4.3,4.3,0,0,1-.981-.613,2.689,2.689,0,0,1-1.1-1.347C247.059,67.989,247.3,67.5,247.672,66.886Zm-16.173-6c0-.244.123-.367.245-.612a4.082,4.082,0,0,0,.368-.735c.244-.368.489-.857.857-1.347.368-.613.735-1.1,1.226-1.838.489-.613.857-1.347,1.348-1.96s.98-1.347,1.347-1.838c.368-.612.857-1.1,1.1-1.593a11.833,11.833,0,0,1,.858-1.1,4.186,4.186,0,0,1,1.347-.123,8.27,8.27,0,0,1,1.715.245,7.26,7.26,0,0,1,1.96.857,1.856,1.856,0,0,1,.857,1.347c0,.858.123,1.838.123,2.941V65.294a2.3,2.3,0,0,1-.98.245,5.487,5.487,0,0,1-1.347-.123,2.732,2.732,0,0,1-1.47-.858,2.2,2.2,0,0,1-.368-1.347v-1.47l-4.166-1.225c-.368.489-.613.98-.857,1.347a10.77,10.77,0,0,1-.735,1.225H234.2c-.245,0-.613-.123-.858-.123a3.2,3.2,0,0,1-1.593-.857A1.425,1.425,0,0,1,231.5,60.883ZM216.8,49.611a3.815,3.815,0,0,1,.736-.49,9.174,9.174,0,0,1,1.96-.49c.735-.122,1.47-.122,2.083-.244a8.215,8.215,0,0,1,5.268,1.225,4.63,4.63,0,0,1,1.96,3.676,5.744,5.744,0,0,1-.367,2.083,5.326,5.326,0,0,1-3.186,2.695,15.961,15.961,0,0,1-2.572.49l-1.47.123.123,4.288a6.911,6.911,0,0,1-.858.123c-.368,0-.735.123-1.1.123a3.441,3.441,0,0,1-1.838-.368c-.368-.245-.49-.735-.613-1.47l-.368-11.026A1.036,1.036,0,0,1,216.8,49.611Zm-16.172,7.963V54.267a8.055,8.055,0,0,1,.98-.857,3.342,3.342,0,0,1,1.47-.735,6.1,6.1,0,0,1,1.96-.368,2.026,2.026,0,0,1,1.47.613c.49.613,1.1,1.347,1.838,2.328s1.348,1.838,2.083,2.695c.735.98,1.347,1.838,2.083,2.818.613.981,1.225,1.715,1.715,2.451a1.634,1.634,0,0,1-.613.735,3.214,3.214,0,0,1-1.1.612,2.77,2.77,0,0,1-1.593.245,1.637,1.637,0,0,1-.98-.857l-1.1-1.348-3.921,1.471c0,.612.123,1.1.123,1.593s.123.98.123,1.347a2.678,2.678,0,0,1-.613.368l-.735.367a3.166,3.166,0,0,1-1.715.245,1.04,1.04,0,0,1-.858-.857,1.105,1.105,0,0,1-.123-.613,1.55,1.55,0,0,0-.123-.735c0-.49-.122-.981-.122-1.594s-.123-1.347-.123-2.082-.123-1.593-.123-2.328Zm-14.09,3.308c.245-.244.613-.489.857-.735a2.922,2.922,0,0,1,1.715-.735,2.337,2.337,0,0,1,1.471.858l5.268,6.493a5.451,5.451,0,0,1,1.1,3.553,4.594,4.594,0,0,1-2.206,3.063,4.963,4.963,0,0,1-1.1.613,3.789,3.789,0,0,1-.981.245,2.7,2.7,0,0,1-.98-.123,3.725,3.725,0,0,1-.858-.613,1.058,1.058,0,0,1-.367-.735,1.333,1.333,0,0,1-.123-.613l.735-.368c.245-.123.368-.245.613-.368a2.252,2.252,0,0,0,.857-1.1,1.681,1.681,0,0,0-.489-1.347L185.923,61.5Zm6,97.28a6.117,6.117,0,0,1-2.572.123V161.1a3.773,3.773,0,0,1-.123,1.225c0,.368-.123.613-.123.981a1.7,1.7,0,0,1-1.47.367,2.564,2.564,0,0,1-1.347-.489l-.613-.613a2.071,2.071,0,0,1-.245-.613c0-.244-.123-.489-.123-.735a1.555,1.555,0,0,1,.123-.736l.49-3.676-.981-.735-2.94,3.43a2,2,0,0,0-.735-.368,5.217,5.217,0,0,1-.857-.613,3.292,3.292,0,0,1-1.1-1.347c-.123-.368.122-.857.612-1.47l7.229-8.454a1.06,1.06,0,0,1,.736-.368,2.391,2.391,0,0,1,.857.123c.49.245,1.1.49,1.715.857a17.528,17.528,0,0,1,1.838,1.348,6.975,6.975,0,0,1,2.94,4.165,4.578,4.578,0,0,1-1.225,3.43A3.868,3.868,0,0,1,192.538,158.162Zm16.54,2.327c0,.858-.123,1.838-.123,2.941-.123,1.1-.123,2.2-.245,3.43s-.245,2.328-.368,3.431-.244,2.2-.244,3.063a1.3,1.3,0,0,1-.981.123,6.32,6.32,0,0,1-1.347-.245,3.161,3.161,0,0,1-1.348-.858,2.307,2.307,0,0,1-.123-1.347l.244-1.715-3.92-1.47c-.368.49-.613.858-.981,1.348l-.735,1.1a1.554,1.554,0,0,1-.735-.123,3.1,3.1,0,0,1-.857-.245,2.794,2.794,0,0,1-1.47-.981,1.448,1.448,0,0,1-.123-1.225c.123-.245.245-.368.367-.613.123-.123.245-.367.49-.612.245-.368.613-.735.981-1.348a15.4,15.4,0,0,1,1.348-1.594q.736-.918,1.47-1.838A21.3,21.3,0,0,1,201.85,160a12.875,12.875,0,0,0,1.225-1.471c.368-.367.613-.735.858-.98h1.225c.49.123,1.1.245,1.593.368a3.483,3.483,0,0,1,1.715,1.1A1.405,1.405,0,0,1,209.079,160.49Zm17.887,14.7a9.758,9.758,0,0,1-5.023.857,3.044,3.044,0,0,1-.98-.123c-.368,0-.735-.123-1.1-.123-.368-.123-.735-.123-1.1-.244a8.426,8.426,0,0,1-.98-.368,1.79,1.79,0,0,1-1.226-1.715l.613-10.659a.741.741,0,0,1,.368-.735l.735-.368a8.585,8.585,0,0,1,1.96-.244h2.451a8.7,8.7,0,0,1,4.533,1.225c1.1.49,1.471,1.593,1.471,2.94a2.222,2.222,0,0,1-.735,1.715,3.484,3.484,0,0,1-1.715,1.1,3.489,3.489,0,0,1,2.572,3.43A4.153,4.153,0,0,1,226.966,175.192Zm20.461-3.43a9.242,9.242,0,0,1-4.655,2.45c-.245.123-.613.123-.981.245s-.735.123-1.1.245c-.368,0-.735.123-1.225.123h-1.1a1.729,1.729,0,0,1-1.715-1.348l-2.94-10.9a.725.725,0,0,1,.123-.857,1.475,1.475,0,0,1,.612-.613,12.532,12.532,0,0,1,1.838-.981,14.4,14.4,0,0,1,2.451-.735,9.771,9.771,0,0,1,4.9-.245,3.3,3.3,0,0,1,2.451,2.573,2.684,2.684,0,0,1-.123,1.96,4.085,4.085,0,0,1-1.348,1.593c1.96.123,3.186.981,3.553,2.573A4.333,4.333,0,0,1,247.427,171.762Zm12.62-5.513a2.669,2.669,0,0,1-.981.613,2.96,2.96,0,0,1-1.838.489,2.089,2.089,0,0,1-1.225-1.1l-6.371-10.782a7.109,7.109,0,0,1,.735-.49,6.931,6.931,0,0,1,.981-.612,4.1,4.1,0,0,1,1.715-.49,1.757,1.757,0,0,1,1.225,1.1l6.371,10.782C260.536,165.88,260.291,166,260.046,166.248Zm12.373-9.189c-.244.245-.489.613-.735.858a2.343,2.343,0,0,1-1.47.857,1.9,1.9,0,0,1-1.348-.857l-6.126-6.984-2.572,2.572c-.245,0-.368-.123-.613-.368a3.219,3.219,0,0,1-.736-.612,2.29,2.29,0,0,1-.612-1.226,1.5,1.5,0,0,1,.489-1.1l7.351-7.351.735.368a3.247,3.247,0,0,1,.735.613,2.281,2.281,0,0,1,.613,1.225,1.494,1.494,0,0,1-.49,1.1l-1.96,1.838,7.229,8.332A7.217,7.217,0,0,0,272.42,157.059Zm5.636-20.338c-.368,0-5.146-5.636-10.9-8.208-5.758-2.451-13.966-.613-18.99-3.064-5.513-2.818-6.371-5.146-7.105-5.146-2.573,0-10.292,2.7-15.561,2.818-10.414.245-19.113-2.328-25.851,0-16.907,5.88-27.811,14.334-29.159,13.6-2.206-1.225,2.7-12.987,12.252-20.093s4.166-5.758,4.166-5.758-11.272,1.347-11.272-6c0-1.347,3.308-6.125,9.189-10.291,2.572-1.715,6.125-2.328,9.188-4.41,3.553-2.328,4.656-4.043,9.924-6.861,5.146-2.818,10.659-3.309,12.007-2.7,2.083.858-8.208,5.759-8.208,5.759s5.146-1.47,8.208-1.96c2.695-.49,13.354-2.451,14.335-1.1.367.612-4.289,5.635-9.679,8.331-6.616,3.43-16.662,5.268-16.662,6.125,0,1.47-.245,2.7,1.1,2.7a137.853,137.853,0,0,1,22.053-.858,112.056,112.056,0,0,1,23.769,4.289s6.616-3.308,8.944,0a10.282,10.282,0,0,1,1.715,6.984s8.086,6.616,11.762,11.026c3.553,4.411,5.513,5.636,6.616,9.312S279.4,136.721,278.056,136.721Z"
        transform="translate(-152.843 -39.932)" />
      <path
        d="M251.93,178.8a1.4,1.4,0,0,0,.123-1.225,1.3,1.3,0,0,0-.735-.858,3.943,3.943,0,0,0-1.715,0,7.782,7.782,0,0,1-.857.245,1.742,1.742,0,0,1-.735.245l.858,2.818,1.715-.489A2.782,2.782,0,0,0,251.93,178.8Z"
        transform="translate(-162.859 -54.319)" />
    </g>
  </g>
</svg>
